<?xml version="1.0" standalone="no"?>
<!DOCTYPE svg PUBLIC "-//W3C//DTD SVG 1.1//EN" "http://www.w3.org/Graphics/SVG/1.1/DTD/svg11.dtd" >
<svg xmlns="http://www.w3.org/2000/svg" xmlns:xlink="http://www.w3.org/1999/xlink" version="1.1">
<metadata>
Created by FontForge 20170731 at Mon Nov 16 19:30:28 2015
 By ,,,
Copyright (c) 2011 by Timo Gaessner, 123buero for Milieu Grotesque. All rights reserved.
</metadata>
<defs>
<font id="MaisonNeue-MonoItalic" horiz-adv-x="650" >
  <font-face 
    font-family="Maison Neue"
    font-weight="400"
    font-style="italic"
    font-stretch="normal"
    units-per-em="1000"
    panose-1="2 0 0 9 0 0 0 0 0 0"
    ascent="775"
    descent="-225"
    x-height="530"
    cap-height="700"
    bbox="-26 -300 775 971"
    underline-thickness="50"
    underline-position="-200"
    slope="-10"
    unicode-range="U+000D-F8FF"
  />
<missing-glyph 
d="M58 0h-26v423q0 116 86 204q85 88 206 88q122 0 207 -88q87 -87 87 -204v-423h-28l-65 65l-68 -65l-63 65l-71 -65l-69 65l-63 -65l-67 65zM378 319l14 -14l63 63l64 -63l14 14l-64 63l64 64l-14 14l-64 -64l-63 64l-14 -14l63 -64zM118 319l14 -14l63 63l64 -63l14 14
l-64 63l64 64l-14 14l-64 -64l-63 64l-14 -14l63 -64z" />
    <glyph glyph-name=".notdef" 
d="M58 0h-26v423q0 116 86 204q85 88 206 88q122 0 207 -88q87 -87 87 -204v-423h-28l-65 65l-68 -65l-63 65l-71 -65l-69 65l-63 -65l-67 65zM378 319l14 -14l63 63l64 -63l14 14l-64 63l64 64l-14 14l-64 -64l-63 64l-14 -14l63 -64zM118 319l14 -14l63 63l64 -63l14 14
l-64 63l64 64l-14 14l-64 -64l-63 64l-14 -14l63 -64z" />
    <glyph glyph-name=".null" horiz-adv-x="0" 
 />
    <glyph glyph-name="nonmarkingreturn" horiz-adv-x="333" 
 />
    <glyph glyph-name="NULL" horiz-adv-x="600" 
 />
    <glyph glyph-name="NULL" horiz-adv-x="600" 
 />
    <glyph glyph-name="CR" unicode="&#xd;" horiz-adv-x="600" 
 />
    <glyph glyph-name="space" unicode=" " horiz-adv-x="600" 
 />
    <glyph glyph-name="exclam" unicode="!" 
d="M346 208h-82l87 492h82zM332 0h-116l20 115h116z" />
    <glyph glyph-name="quotedbl" unicode="&#x22;" 
d="M402 477h-62l39 223h62zM271 477h-62l39 223h62z" />
    <glyph glyph-name="numbersign" unicode="#" 
d="M193 155h-64l34 145h-128l10 59h133l34 136h-111l11 59h114l35 146h64l-35 -146h134l35 146h65l-36 -146h126l-10 -59h-130l-34 -136h108l-11 -59h-111l-35 -145h-64l34 145h-133zM276 495l-33 -136h133l33 136h-133z" />
    <glyph glyph-name="dollar" unicode="$" 
d="M40 250l88 10q0 -168 136 -192l49 273q-115 39 -159 77q-43 39 -43 104q0 80 69 136q70 57 185 57h14l11 60h45l-12 -65q84 -14 134.5 -66.5t52.5 -130.5l-85 -10q-8 111 -115 130l-41 -225q125 -42 169 -86q45 -44 45 -110q0 -92 -74 -160q-73 -67 -196 -67h-20l-15 -83
h-43l15 88q-88 14 -141.5 67t-64.5 138q-4 31 -4 55zM498 209q0 36 -28 63q-28 28 -116 56l-47 -264q83 0 136 40q55 40 55 105zM197 527q0 -33 23 -54q25 -22 108 -50l38 215q-77 0 -123 -31t-46 -80z" />
    <glyph glyph-name="percent" unicode="%" 
d="M75 630q0 109 56 171t133 62q66 0 108 -48q43 -47 43 -123q0 -106 -56 -171q-55 -63 -133 -63q-67 0 -109 47.5t-42 124.5zM143 636q0 -52 21.5 -83.5t60.5 -31.5q54 0 88 46t34 122q0 50 -22 80.5t-62 30.5q-54 0 -87 -44.5t-33 -119.5zM239 11q0 109 56 171t133 62
q66 0 108 -48q43 -47 43 -123q0 -106 -56 -170q-55 -64 -132 -64q-68 0 -110 47.5t-42 124.5zM307 17q0 -52 21.5 -83.5t60.5 -31.5q54 0 88 46t34 122q0 50 -22 80.5t-62 30.5q-54 0 -87 -44.5t-33 -119.5zM528 428l-372 -216l-34 60l372 216z" />
    <glyph glyph-name="ampersand" unicode="&#x26;" 
d="M568 108l-58 -50l-38 46q-22 -51 -82 -85q-59 -34 -135 -34q-102 0 -161 50.5t-59 138.5q0 71 43 137t132 112q-47 62 -47 120q0 73 51 122q53 50 133 50q83 0 128 -47.5t43 -126.5l-77 -7q-6 108 -92 108q-49 0 -78 -29t-29 -69q0 -43 59 -114l139 -168l19 114h79
l-35 -189zM419 167l-166 200q-138 -67 -138 -181q0 -126 145 -126q50 0 96 27t63 80z" />
    <glyph glyph-name="quotesingle" unicode="'" 
d="M336 477h-62l39 223h62z" />
    <glyph glyph-name="parenleft" unicode="(" 
d="M344 -142l-67 -39q-118 211 -118 410q0 162 74.5 305.5t213.5 252.5l50 -53q-252 -202 -254 -492q-1 -111 26 -203q27 -89 75 -181z" />
    <glyph glyph-name="parenright" unicode=")" 
d="M202 -181l-49 56q251 202 253 489q2 198 -102 386l68 37q116 -208 118 -415q0 -162 -74.5 -305t-213.5 -248z" />
    <glyph glyph-name="asterisk" unicode="*" 
d="M310 470l-114 -116l-43 47l104 101l-115 79l38 51l110 -76l25 144h65l-25 -148l125 68l28 -55l-138 -74l79 -119l-55 -39z" />
    <glyph glyph-name="plus" unicode="+" 
d="M360 120h-70v227h-199v66h199v202h70v-202h199v-66h-199v-227z" />
    <glyph glyph-name="comma" unicode="," 
d="M244 -116l10 55q49 9 59 61h-49l20 115h122l-20 -110q-19 -111 -142 -121z" />
    <glyph glyph-name="hyphen" unicode="-" 
d="M478 308h-319l13 70h319z" />
    <glyph glyph-name="period" unicode="." 
d="M373 0h-117l21 116h117z" />
    <glyph glyph-name="slash" unicode="/" 
d="M183 -40l-66 26l360 760l66 -28z" />
    <glyph glyph-name="zero" unicode="0" 
d="M279 -15q-103 0 -163 70.5t-60 204.5q0 114 35 217q37 103 109 170q74 68 170 68q98 0 161 -72q63 -70 63 -203q0 -120 -36 -222q-34 -102 -108 -168q-74 -65 -171 -65zM286 63q69 0 122.5 60t78 143.5t24.5 170.5l-369 -237q11 -66 48.5 -101.5t95.5 -35.5zM363 639
q-69 0 -121 -61q-99 -115 -104 -306l366 237q-13 63 -50 96.5t-91 33.5z" />
    <glyph glyph-name="one" unicode="1" 
d="M513 0h-479l12 75h197l93 521l-168 -92l17 99l178 97h72l-110 -625h201z" />
    <glyph glyph-name="two" unicode="2" 
d="M506 0h-448l10 63q16 106 64 164q46 56 162 106l26 11l29 12q6 3 28 13q21 10 55 32q9 6 16 11.5t9.5 8t10.5 11.5t10 11q31 34 31 85t-40 81q-38 31 -92 31q-66 0 -109 -40t-59 -115l-79 19q16 99 85 155q70 56 161 56q101 0 158 -54q58 -54 58 -133q0 -100 -74 -158
q-41 -31 -78 -50q-48 -25 -105 -49q-96 -41 -130 -78q-35 -36 -45 -109h362z" />
    <glyph glyph-name="three" unicode="3" 
d="M67 238l83 12q7 -190 162 -190q77 0 120.5 44.5t43.5 116.5q0 56 -37 87t-100 31h-37l13 72h45q64 0 103 34t39 95q0 45 -32.5 72.5t-88.5 27.5q-57 0 -93.5 -33t-51.5 -88l-77 23q13 68 72 121q58 52 152 52q87 0 143 -47q55 -46 57 -119q0 -62 -34.5 -108t-93.5 -65v-3
q45 -16 74 -58t29 -100q0 -97 -65 -164q-65 -66 -182 -66q-114 0 -177.5 67.5t-66.5 185.5z" />
    <glyph glyph-name="four" unicode="4" 
d="M379 163h-358l13 74l395 463h127l-84 -463h87l-13 -74h-86l-28 -163h-82zM463 636l-341 -399h268l75 399h-2z" />
    <glyph glyph-name="five" unicode="5" 
d="M58 195l80 19q25 -154 162 -154q84 0 133 57q50 58 50 140q0 64 -40 103t-106 39q-91 0 -160 -69l-65 42l104 328h344l-13 -76h-279l-66 -211h2q64 53 147 53q93 0 152 -58q61 -57 61 -148q0 -123 -74 -200q-74 -75 -191 -75q-100 0 -165 59q-64 58 -76 151z" />
    <glyph glyph-name="six" unicode="6" 
d="M322 62q77 0 126 52q50 53 50 137q0 57 -38 101q-37 43 -113 43q-79 0 -131 -51q-51 -50 -51 -119q0 -75 44 -119t113 -44zM169 382h1l2 -1q24 29 73 54q50 26 112 26q103 0 162 -62t59 -148q0 -121 -73 -194q-72 -72 -184 -72q-107 0 -178 74q-70 74 -70 202
q0 191 93 322q95 132 227 132q99 0 150 -61q53 -62 54 -142l-79 -11q-12 139 -128 139q-77 0 -138 -70t-83 -188z" />
    <glyph glyph-name="seven" unicode="7" 
d="M175 0h-95l439 620v3h-357l14 77h449l-13 -74z" />
    <glyph glyph-name="eight" unicode="8" 
d="M348 415q63 0 102.5 34t39.5 89q0 49 -32 78t-93 29q-60 0 -101 -35q-39 -34 -39 -85q0 -48 33 -79t90 -31zM299 65q76 0 122.5 41t46.5 108q0 61 -38.5 95t-109.5 34q-79 0 -127 -41.5t-48 -108.5q0 -60 38.5 -94t115.5 -34zM288 -15q-104 0 -166 56q-61 57 -61 143
q0 85 49 137q50 55 117 68v2q-80 38 -80 137q0 74 60 130q61 57 162 57q95 0 147 -52q53 -53 53 -122q0 -61 -32 -104.5t-84 -59.5v-2q43 -19 72.5 -65t29.5 -101q0 -101 -75 -163q-74 -61 -192 -61z" />
    <glyph glyph-name="nine" unicode="9" 
d="M72 177l80 17q6 -63 39 -98.5t94 -35.5q81 0 134 75q53 74 67 192h-3q-19 -31 -69 -58t-117 -27q-84 0 -145 56q-60 57 -60 161q0 109 74 183q74 73 178 73t168 -76q65 -77 65 -209q0 -202 -83 -324q-82 -121 -213 -121q-90 0 -147 52t-62 140zM310 314q78 0 127 46
q50 47 50 116q0 73 -40.5 118.5t-106.5 45.5q-78 0 -124 -54q-45 -52 -45 -125q0 -64 38.5 -105.5t100.5 -41.5z" />
    <glyph glyph-name="colon" unicode=":" 
d="M343 0h-117l21 116h117zM404 415h-116l20 115h116z" />
    <glyph glyph-name="semicolon" unicode=";" 
d="M409 415h-117l21 115h116zM210 -116l10 55q49 9 59 61h-49l20 115h122l-20 -110q-19 -111 -142 -121z" />
    <glyph glyph-name="less" unicode="&#x3c;" 
d="M501 82l-390 235v70l391 233l36 -59l-350 -209l350 -211z" />
    <glyph glyph-name="equal" unicode="=" 
d="M556 250h-463v69h463v-69zM556 418h-463v69h463v-69z" />
    <glyph glyph-name="greater" unicode="&#x3e;" 
d="M97 620l391 -233v-70l-390 -235l-37 59l350 211l-350 209z" />
    <glyph glyph-name="question" unicode="?" 
d="M278 190h-80l11 56q15 82 103 129q3 2 26 14t28.5 15.5t24 15t24.5 18t18.5 19.5t16.5 23.5t8.5 26t4.5 31.5q0 44 -34 74t-94 30q-63 0 -101.5 -37.5t-50.5 -105.5l-75 16q12 89 73 144q62 56 155 56q85 0 143 -46q57 -44 62 -115q3 -37 -4 -63q-11 -48 -47.5 -87.5
t-81.5 -59.5q-39 -19 -76 -45q-36 -25 -42 -56zM268 0h-117l21 116h117z" />
    <glyph glyph-name="at" unicode="@" 
d="M431 86l23 -45q-37 -26 -86 -41q-50 -15 -82 -15q-59 0 -102.5 23.5t-68 65.5t-36.5 93.5t-12 113.5q-2 105 45 207.5t125.5 166t160.5 60.5q56 0 97.5 -22.5t64.5 -60.5t33.5 -81.5t10.5 -92.5q0 -137 -38 -222q-38 -83 -107 -83q-23 0 -40.5 14t-24.5 36h-2
q-29 -50 -92 -50q-46 0 -74 39t-28 108q0 85 44 156q45 72 103 72q22 0 38.5 -12.5t22.5 -29.5l2 -1l6 33h60l-43 -252q-4 -27 6 -44.5t28 -17.5q39 0 61 72q23 75 23 182q0 205 -154 205q-69 2 -134.5 -56.5t-103 -148.5t-35.5 -177q0 -108 41 -176t119 -68q79 0 149 49z
M375 281l18 107q6 38 -6.5 63t-36.5 25q-39 0 -66 -55t-27 -121q0 -92 52 -92q53 0 66 73z" />
    <glyph glyph-name="A" unicode="A" 
d="M580 0h-84l-26 141h-318l-74 -141h-89l375 700h87zM390 590h-2l-201 -381h271z" />
    <glyph glyph-name="B" unicode="B" 
d="M296 0h-241l123 700h222q93 0 144 -45t51 -119q0 -59 -34 -102t-89 -65v-2q94 -43 94 -147q0 -95 -69 -158q-68 -62 -201 -62zM249 626l-39 -222h142q77 0 118 34.5t41 93.5q0 43 -32.5 68.5t-91.5 25.5h-138zM197 333l-45 -257h156q75 0 125 41q50 42 50 106
q0 52 -36.5 81t-105.5 29h-144z" />
    <glyph glyph-name="C" unicode="C" 
d="M494 254l86 -23q-22 -116 -89.5 -181t-170.5 -65q-108 0 -176 83t-68 215q0 191 92 312q92 120 218 120q100 0 163 -68t62 -177l-87 -7q-2 80 -37 127t-104 47q-91 0 -155 -102q-64 -100 -64 -240q0 -101 44 -166q45 -63 116 -63q64 0 107.5 50.5t62.5 137.5z" />
    <glyph glyph-name="D" unicode="D" 
d="M238 625l-97 -548h99q126 0 202 91q77 92 77 246q0 103 -48 157t-137 54h-96zM243 0h-199l123 700h182q114 0 187 -76t73 -208q0 -209 -110 -317q-104 -99 -256 -99z" />
    <glyph glyph-name="E" unicode="E" 
d="M493 0h-412l123 700h412l-13 -75h-328l-40 -228h300l-12 -71h-301l-44 -249h329z" />
    <glyph glyph-name="F" unicode="F" 
d="M180 0h-83l123 700h403l-13 -76h-319l-45 -253h291l-12 -71h-292z" />
    <glyph glyph-name="G" unicode="G" 
d="M377 715q98 0 159 -67q62 -66 63 -172l-87 -8q-10 168 -141 168q-91 0 -155 -99q-64 -98 -64 -242q0 -104 43.5 -166t115.5 -62q75 0 124 54q49 55 63 141h-172l14 77h258l-10 -66q-19 -130 -94 -209t-186 -79q-110 0 -178 83q-67 83 -67 221q0 190 94 308t220 118z" />
    <glyph glyph-name="H" unicode="H" 
d="M111 0h-84l123 700h84l-53 -301h304l53 301h84l-123 -700h-84l57 326h-303z" />
    <glyph glyph-name="I" unicode="I" 
d="M330 625h-167l13 75h420l-13 -75h-168l-97 -550h168l-13 -75h-420l13 75h167z" />
    <glyph glyph-name="J" unicode="J" 
d="M483 625h-266l14 75h350l-84 -472q-43 -243 -239 -243q-91 0 -140 56t-47 150l82 6q3 -74 26 -104t84 -30q60 0 98 40.5t50 111.5z" />
    <glyph glyph-name="K" unicode="K" 
d="M139 0h-83l123 700h83l-59 -337h2l338 337h109l-316 -312l216 -388h-96l-182 334h-2l-90 -94z" />
    <glyph glyph-name="L" unicode="L" 
d="M522 0h-419l123 700h84l-109 -626h334z" />
    <glyph glyph-name="M" unicode="M" 
d="M101 0h-74l123 700h111l55 -387h2l190 387h116l-123 -700h-74l104 595h-2l-228 -459h-26l-66 459h-2z" />
    <glyph glyph-name="N" unicode="N" 
d="M117 0h-80l123 700h90l182 -571h2l100 571h79l-123 -700h-90l-181 571h-2z" />
    <glyph glyph-name="O" unicode="O" 
d="M294 66q90 0 155 96q65 98 65 245q0 106 -41 168t-113 62q-92 0 -158 -98q-66 -97 -66 -246q0 -107 41.5 -167t116.5 -60zM293 -15q-112 0 -179 82q-66 82 -66 221q0 98 27 181.5t73 136.5q96 109 215 109q108 0 174 -84q66 -83 66 -219q0 -98 -27 -181.5t-73 -136.5
q-95 -109 -210 -109z" />
    <glyph glyph-name="P" unicode="P" 
d="M147 0h-83l123 700h235q95 0 151 -49.5t56 -131.5q0 -115 -78 -183q-77 -66 -201 -66h-155zM258 625l-50 -279h153q76 0 129 44t53 127q0 51 -34.5 79.5t-99.5 28.5h-151z" />
    <glyph glyph-name="Q" unicode="Q" 
d="M293 -15q-112 0 -179 82q-66 82 -66 221q0 98 27 181.5t73 136.5q96 109 215 109q108 0 174 -84q66 -83 66 -219q0 -176 -87 -299l66 -78l-51 -43l-59 70q-83 -77 -179 -77zM294 66q70 0 125 58l-154 184l52 43l143 -171q54 92 54 227q0 106 -41 168t-113 62
q-92 0 -158 -98q-66 -97 -66 -246q0 -107 41.5 -167t116.5 -60z" />
    <glyph glyph-name="R" unicode="R" 
d="M136 0h-83l123 700h218q96 0 151.5 -48t55.5 -133q0 -93 -56.5 -154.5t-156.5 -79.5l109 -285h-90l-104 279h-118zM247 625l-48 -272h126q86 0 137.5 44t51.5 120q0 53 -34.5 80.5t-98.5 27.5h-134z" />
    <glyph glyph-name="S" unicode="S" 
d="M60 250l88 10q2 -98 42 -147t126 -49q67 0 115 42t48 103q0 36 -29 65q-30 30 -114 61q-115 43 -161 82q-45 41 -45 107q0 77 63 134q65 57 170 57q98 0 162 -55q66 -56 67 -147l-86 -10q-4 62 -41 98.5t-105 36.5q-63 0 -103 -32.5t-40 -79.5q0 -35 29 -58
q26 -21 136 -64q104 -42 142 -83q41 -44 41 -109q0 -95 -70 -161q-71 -66 -183 -66q-120 0 -185.5 68.5t-66.5 196.5z" />
    <glyph glyph-name="T" unicode="T" 
d="M312 0h-88l110 625h-233l12 75h553l-13 -75h-231z" />
    <glyph glyph-name="U" unicode="U" 
d="M60 224l84 476h86l-82 -466q-14 -84 21.5 -127t116.5 -43t130.5 44t64.5 126l82 466h86l-85 -485q-20 -111 -93.5 -170.5t-190.5 -59.5q-116 0 -178 65q-62 64 -42 174z" />
    <glyph glyph-name="V" unicode="V" 
d="M316 0h-106l-122 700h94l96 -604h2l303 604h99z" />
    <glyph glyph-name="W" unicode="W" 
d="M182 0h-98l44 700h85l-47 -578h2l172 408h53l29 -408h2l155 578h85l-202 -700h-97l-26 370h-2z" />
    <glyph glyph-name="X" unicode="X" 
d="M108 0h-98l280 365l-140 335h90l109 -276h2l198 276h98l-253 -341l150 -359h-90l-119 299h-2z" />
    <glyph glyph-name="Y" unicode="Y" 
d="M307 0h-88l52 295l-159 405h91l121 -325h2l233 325h101l-301 -405z" />
    <glyph glyph-name="Z" unicode="Z" 
d="M514 0h-501l11 67l491 556v3h-369l13 74h480l-11 -67l-491 -551v-2h392z" />
    <glyph glyph-name="bracketleft" unicode="[" 
d="M367 -181h-236l161 911h236l-12 -70h-160l-136 -772h160z" />
    <glyph glyph-name="backslash" unicode="\" 
d="M173 745l360 -760l-66 -27l-360 758z" />
    <glyph glyph-name="bracketright" unicode="]" 
d="M282 730h236l-161 -911h-236l12 69h160l136 772h-160z" />
    <glyph glyph-name="asciicircum" unicode="^" 
d="M202 325h-74l173 375h48l173 -375h-75l-122 280z" />
    <glyph glyph-name="underscore" unicode="_" 
d="M576 -137h-502v67h502v-67z" />
    <glyph glyph-name="grave" unicode="`" 
d="M414 595h-71l-107 121h100z" />
    <glyph glyph-name="a" unicode="a" 
d="M441 256l12 69q11 69 -15 107.5t-86 38.5q-73 0 -128 -82q-55 -80 -55 -196q0 -58 28 -95t71 -37q53 0 104 48q52 48 69 147zM572 530l-93 -530h-74l10 61h-2q-20 -32 -59.5 -54t-92.5 -22q-70 0 -121 54t-51 153q0 149 79 250q79 103 188 103q85 0 121 -63h3l9 48h83z
" />
    <glyph glyph-name="b" unicode="b" 
d="M200 341l-28 -163q-8 -45 29 -82t100 -37q87 0 138 66q51 67 51 177q0 75 -36.5 122t-101.5 47q-58 0 -101 -40q-42 -39 -51 -90zM137 0h-80l129 730h82l-43 -243h2q55 58 146 58q88 0 143 -69q57 -69 57 -174q0 -141 -73 -229t-185 -88q-57 0 -100 21t-65 54h-2z" />
    <glyph glyph-name="c" unicode="c" 
d="M468 191l80 -27q-26 -85 -86.5 -132t-146.5 -47q-97 0 -159 63q-60 64 -60 171q0 147 81 236q81 90 190 90q96 0 151 -61q55 -60 54 -151l-81 -6q0 64 -31.5 104t-93.5 40q-74 0 -130 -69q-55 -67 -55 -179q0 -75 38 -118.5t99 -43.5q111 0 150 130z" />
    <glyph glyph-name="d" unicode="d" 
d="M441 175l29 163q9 52 -28 92q-36 41 -101 41q-80 0 -133 -71q-51 -70 -51 -180q0 -68 34 -114q35 -47 99 -47q58 0 100 33.5t51 82.5zM493 0h-77l8 48h-2q-16 -24 -56 -43.5t-87 -19.5q-95 0 -151 63q-55 62 -55 165q0 149 76 240q77 92 188 92q50 0 90 -21t63 -54h2
l47 260h83z" />
    <glyph glyph-name="e" unicode="e" 
d="M475 163l62 -51q-90 -127 -235 -127q-100 0 -162 65t-62 179q0 133 78 224q80 92 195 92q97 0 159 -62t62 -164l-5 -78h-404q-1 -6 -1 -18q0 -66 35 -116q35 -48 106 -48q101 0 172 104zM171 307h319v3q0 2 0.5 9t0.5 10q0 63 -37 103t-104 40q-73 0 -121 -51
q-47 -50 -58 -114z" />
    <glyph glyph-name="f" unicode="f" 
d="M299 0h-82l80 460h-169l12 70h171l18 90q11 59 41 84.5t82 25.5h119l-14 -75h-92q-31 0 -43 -11.5t-19 -49.5l-13 -64h192l-13 -70h-189z" />
    <glyph glyph-name="g" unicode="g" 
d="M56 -91l73 30q16 -54 46.5 -79.5t85.5 -25.5q120 0 145 138l14 72h-2q-51 -59 -141 -59q-93 0 -151 63q-58 62 -58 164q0 150 77 242q78 91 189 91q50 0 91 -19.5t63 -51.5h2l10 56h86l-93 -531q-22 -122 -79 -180.5t-160 -58.5q-77 0 -128.5 39.5t-69.5 109.5zM441 175
l28 162q9 51 -29 92q-38 42 -101 42q-82 0 -134 -70t-52 -180q0 -68 35 -115q34 -46 102 -46q56 0 99 33t52 82z" />
    <glyph glyph-name="h" unicode="h" 
d="M158 0h-84l129 730h83l-44 -245h2q23 26 61 43t83 17q91 0 135 -59q45 -58 28 -150l-59 -336h-84l58 324q27 146 -99 146q-55 0 -97 -36t-52 -92z" />
    <glyph glyph-name="i" unicode="i" 
d="M454 638h-93l16 92h93zM342 460h-178l12 70h261l-81 -460h174l-12 -70h-440l12 70h183z" />
    <glyph glyph-name="j" unicode="j" 
d="M483 638h-93l16 92h92zM381 457h-203l12 73h287l-94 -536q-33 -189 -193 -189q-54 0 -94 30q-42 29 -52 59l63 46q12 -19 18 -26q9 -11 29.5 -23t41.5 -12q81 0 104 124z" />
    <glyph glyph-name="k" unicode="k" 
d="M184 0h-84l129 730h84l-78 -437h2l260 237h109l-236 -214l163 -316h-89l-136 268h-2l-89 -82z" />
    <glyph glyph-name="l" unicode="l" 
d="M367 657h-172l13 73h255l-116 -657h180l-13 -73h-440l13 73h177z" />
    <glyph glyph-name="m" unicode="m" 
d="M103 0h-77l93 530h72l-9 -51h2q15 29 40.5 47.5t52.5 18.5q35 0 57 -22.5t25 -59.5h2q18 37 48.5 59.5t68.5 22.5q59 0 86.5 -44t13.5 -123l-67 -378h-77l66 387q14 84 -48 84q-32 0 -57.5 -36t-32.5 -94l-59 -341h-70l66 386q10 85 -50 85q-32 0 -54.5 -34t-31.5 -96z
" />
    <glyph glyph-name="n" unicode="n" 
d="M146 0h-83l93 530h80l-7 -48h2q25 27 65.5 45t85.5 18q86 0 134 -55q49 -55 33 -145l-60 -345h-83l59 332q12 68 -16.5 103t-89.5 35q-58 0 -100 -35.5t-52 -92.5z" />
    <glyph glyph-name="o" unicode="o" 
d="M298 59q80 0 135 64t55 179q0 75 -37.5 122t-100.5 47q-79 0 -135 -65q-55 -64 -55 -178q0 -75 37.5 -122t100.5 -47zM299 -15q-98 0 -160 68q-61 68 -61 176q0 144 79 229q79 87 193 87q100 0 160 -68q61 -67 61 -176q0 -142 -80 -230q-80 -86 -192 -86z" />
    <glyph glyph-name="p" unicode="p" 
d="M207 342l-29 -167q-7 -43 31 -80q39 -36 100 -36q87 0 139 67q53 68 53 175q0 76 -37.5 123t-103.5 47q-58 0 -101 -40q-43 -38 -52 -89zM107 -225h-83l133 755h81l-9 -50h2q22 28 61.5 46.5t85.5 18.5q90 0 147 -68q58 -67 58 -173q0 -142 -75 -231q-73 -88 -185 -88
q-109 0 -163 75h-2z" />
    <glyph glyph-name="q" unicode="q" 
d="M440 174l30 166q9 51 -28 91t-103 40q-83 0 -135 -70t-52 -179q0 -69 34 -116q35 -47 101 -47q58 0 101 34t52 81zM454 -225h-83l48 272h-2q-19 -25 -59 -43.5t-84 -18.5q-90 0 -148 63q-58 64 -58 166q0 147 77 239q78 92 188 92q104 0 155 -71h2l10 56h87z" />
    <glyph glyph-name="r" unicode="r" 
d="M208 0h-84l93 530h80l-13 -77h2q24 37 71 61.5t95 24.5q63 0 103.5 -36.5t47.5 -104.5l-89 -20q-14 78 -90 78q-58 0 -105 -44q-45 -42 -59 -117z" />
    <glyph glyph-name="s" unicode="s" 
d="M87 182l79 12q16 -136 155 -136q72 0 112.5 28t40.5 72q0 23 -8.5 35.5t-41 27t-100.5 31.5q-107 27 -150 56q-42 28 -42 84q0 62 55 107q55 46 156 46q97 0 155 -46t65 -118l-76 -14q-18 108 -144 108q-62 0 -97.5 -23.5t-35.5 -57.5q0 -27 25 -40q28 -13 120 -38
q84 -22 130 -47q45 -23 55 -45q11 -24 11 -59q0 -75 -60 -127q-59 -53 -167 -53q-110 0 -172 56t-65 141z" />
    <glyph glyph-name="t" unicode="t" 
d="M432 0h-59q-74 0 -105 24t-31 78q0 31 8 79l50 279h-168l11 70h171l26 130h78l-23 -130h191l-12 -70h-191l-43 -242q-12 -69 -12 -92q0 -26 14.5 -36.5t49.5 -10.5h59z" />
    <glyph glyph-name="u" unicode="u" 
d="M93 184l60 346h84l-60 -343q-23 -126 105 -126q126 0 151 136l58 333h84l-93 -530h-83l9 51h-2q-7 -10 -19 -21q-15 -14 -49 -29q-35 -16 -78 -16q-87 0 -136 49t-31 150z" />
    <glyph glyph-name="v" unicode="v" 
d="M318 0h-73l-120 530h85l88 -414h2l229 414h95z" />
    <glyph glyph-name="w" unicode="w" 
d="M201 0h-77l6 530h79l-15 -399h2l111 229h74l29 -229h2l135 399h82l-190 -530h-74l-35 263h-2z" />
    <glyph glyph-name="x" unicode="x" 
d="M143 0h-99l227 273l-124 257h86l94 -206h2l161 206h99l-213 -258l132 -272h-86l-101 218h-2z" />
    <glyph glyph-name="y" unicode="y" 
d="M193 -225h-87l148 267l-118 488h84l90 -387h2l205 387h94z" />
    <glyph glyph-name="z" unicode="z" 
d="M500 -1l-445 1l11 63l403 393v2h-314l11 72h430l-11 -62l-398 -389v-2h328z" />
    <glyph glyph-name="braceleft" unicode="{" 
d="M177 -39l42 236q5 32 -4 45t-38 13h-29l16 89h28q29 0 43.5 14t20.5 47l38 206q11 65 44 92t95 27h78l-13 -70h-51q-41 0 -58 -15.5t-25 -60.5l-33 -182q-5 -28 -17 -49.5t-26 -32t-23.5 -15t-15.5 -5.5q8 -3 18.5 -11t21.5 -32.5t6 -56.5l-42 -239q-7 -39 5 -55.5
t51 -16.5h52l-12 -70h-64q-70 0 -95.5 33t-12.5 109z" />
    <glyph glyph-name="bar" unicode="|" 
d="M365 -300h-80v1075h80v-1075z" />
    <glyph glyph-name="braceright" unicode="}" 
d="M212 -181h-78l12 70h52q41 0 58 16t25 60l41 232q14 78 80 102q-8 3 -19 11q-13 10 -21.5 35t-3.5 54l34 189q6 40 -5.5 56t-50.5 16h-52l12 70h64q69 0 94.5 -33t12.5 -108l-33 -187q-5 -32 4 -45t38 -13h29l-16 -89h-28q-29 0 -43.5 -14t-20.5 -47l-46 -256
q-11 -65 -44 -92t-95 -27z" />
    <glyph glyph-name="asciitilde" unicode="~" 
d="M219 391q-38 0 -58 -32q-8 -14 -13 -26q-6 -15 -11 -31l-55 17q15 65 50 104t87 39q36 1 77.5 -21.5t77.5 -45t57 -20.5q40 0 57 32q13 22 14 25l11 32l55 -17q-15 -65 -50 -104t-87 -39q-36 -1 -78.5 21.5t-78 45t-55.5 20.5z" />
    <glyph glyph-name="nbspace" unicode="&#xa0;" horiz-adv-x="600" 
 />
    <glyph glyph-name="exclamdown" unicode="&#xa1;" 
d="M303 322h82l-87 -492h-82zM317 530h116l-20 -115h-116z" />
    <glyph glyph-name="cent" unicode="&#xa2;" 
d="M457 187l78 -24q-25 -85 -85 -131.5t-145 -46.5h-5l-16 -95h-40l17 99q-79 14 -126 77t-47 158q0 147 79 233q79 88 190 88h1l15 86h39l-16 -89q80 -14 123 -71q45 -59 42 -138l-78 -6q1 54 -24.5 93t-74.5 48l-71 -409q103 1 144 128zM170 227q0 -67 27.5 -109.5
t76.5 -54.5l71 408q-75 -5 -125 -71q-50 -67 -50 -173z" />
    <glyph glyph-name="sterling" unicode="&#xa3;" 
d="M521 0h-489l13 76h37q33 0 49.5 14t21.5 47l32 178h-99l12 66h99l21 121q19 103 76.5 158t145.5 55q84 0 132 -53t45 -152l-77 -7q0 72 -24 105t-80 33q-111 0 -136 -148l-20 -112h237l-12 -66h-238l-42 -239h310z" />
    <glyph glyph-name="currency" unicode="&#xa4;" 
d="M110 74l-40 40l65 65q-47 65 -47 150q0 82 47 149l-65 65l40 40l63 -64q67 57 151 57q89 0 153 -55l62 62l40 -40l-64 -64q46 -67 46 -150q0 -86 -47 -151l65 -64l-40 -40l-64 63q-65 -51 -151 -51q-89 0 -150 52zM325 161q64 0 105 42.5t41 124.5q0 84 -41 127.5
t-105 43.5q-62 0 -106 -41q-43 -40 -43 -130q0 -87 43 -127t106 -40z" />
    <glyph glyph-name="yen" unicode="&#xa5;" 
d="M261 144h-207l11 62h207l16 89h-208l12 62h171l-134 343h89l120 -323h2l234 323h99l-255 -343h166l-11 -62h-201l-16 -89h201l-11 -62h-201l-25 -144h-84z" />
    <glyph glyph-name="brokenbar" unicode="&#xa6;" 
d="M367 321h-79v327h79v-327zM367 -131h-79v327h79v-327z" />
    <glyph glyph-name="section" unicode="&#xa7;" 
d="M451 82q26 -34 26 -81q0 -76 -59 -129q-58 -52 -149 -52q-92 0 -142.5 54t-46.5 151l79 6q0 -70 26.5 -103.5t83.5 -33.5q56 0 90.5 30t34.5 79q0 53 -70 87l-128 68q-61 33 -86.5 64t-25.5 76q0 91 115 155q-26 34 -26 81q0 76 59 129q58 52 149 52q92 0 142.5 -54
t46.5 -151l-79 -6q0 70 -26.5 103.5t-83.5 33.5q-56 0 -90.5 -30t-34.5 -79q0 -53 70 -87l128 -68q61 -33 86.5 -64t25.5 -76q0 -91 -115 -155zM406 129q77 45 77 102q0 25 -17 44t-60 42l-128 67q-31 15 -34 22q-77 -45 -77 -102q0 -25 17 -44t60 -42l128 -67
q31 -15 34 -22z" />
    <glyph glyph-name="dieresis" unicode="&#xa8;" 
d="M266 612h-90l15 90h91zM459 612h-91l15 90h91z" />
    <glyph glyph-name="copyright" unicode="&#xa9;" 
d="M329 46q-108 0 -183 89q-74 89 -74 219q0 129 74 218q75 89 183 89q104 0 176 -89t72 -218q0 -130 -72 -219t-176 -89zM329 94q84 0 141 74q58 74 58 186q0 111 -58 184q-57 74 -141 74q-88 0 -148 -74t-60 -184q0 -111 60 -186q60 -74 148 -74zM396 307l52 -10
q-6 -62 -36.5 -99t-78.5 -37q-57 0 -94.5 51t-37.5 136q0 90 37 142.5t95 52.5q47 0 77.5 -36.5t35.5 -94.5l-52 -10q-3 41 -19 66t-42 25q-35 0 -56 -38.5t-21 -106.5q0 -65 21.5 -101.5t55.5 -36.5q56 0 63 97z" />
    <glyph glyph-name="ordfeminine" unicode="&#xaa;" 
d="M422 384h-51l6 36h-1q-28 -45 -90 -45q-45 0 -71 23t-26 62q0 41 27.5 66.5t90.5 37.5q64 12 79 19q17 8 20 25q3 19 -14.5 34t-46.5 15q-58 0 -78 -53l-47 19q12 39 45 61t80 22q56 0 88.5 -32t23.5 -88zM383 486l12 59h-1q-12 -12 -73 -26q-75 -16 -75 -53
q0 -39 53 -39q34 0 57 17t27 42z" />
    <glyph glyph-name="guillemotleft" unicode="&#xab;" 
d="M267 87h-76l-78 211l138 163h90l-149 -173zM463 87h-76l-78 211l138 163h90l-149 -173z" />
    <glyph glyph-name="logicalnot" unicode="&#xac;" 
d="M483 377h-397v74h477v-248h-80v174z" />
    <glyph glyph-name="registered" unicode="&#xae;" 
d="M180 530q0 -62 41 -106q42 -42 104 -42t104 43q43 43 43 105t-43 104q-42 42 -104 42t-104 -42q-41 -43 -41 -104zM450 405q-51 -51 -125 -51t-125 51t-51 125t51 125t125 51t125 -51t51 -125t-51 -125zM291 424h-27v210h64q76 0 76 -62q0 -48 -52 -60l47 -88h-32l-44 86
h-32v-86zM291 609v-74h38q46 0 46 37t-47 37h-37z" />
    <glyph glyph-name="overscore" unicode="&#xaf;" 
d="M464 620h-288l10 57h288z" />
    <glyph glyph-name="degree" unicode="&#xb0;" 
d="M324 487q-60 0 -97 40q-38 41 -38 101q0 59 39 101t96 42q59 0 98 -41q39 -40 39 -102q0 -61 -38.5 -101t-98.5 -40zM324 547q70 0 70 81q0 83 -70 83q-69 0 -69 -83q0 -81 69 -81z" />
    <glyph glyph-name="plusminus" unicode="&#xb1;" 
d="M287 418h-214v70h214v167h74v-167h215v-70h-215v-188h-74v188zM557 96h-457v70h457v-70z" />
    <glyph glyph-name="twosuperior" unicode="&#xb2;" 
d="M439 473h-282l9 49q11 65 39 98q29 33 101 62q73 29 96 50q26 23 26 54q0 27 -19.5 43t-50.5 16q-74 0 -94 -84l-62 15q10 59 52.5 94t101.5 35q62 0 99.5 -33t37.5 -85q0 -54 -35.5 -87t-115.5 -65q-58 -24 -78 -44q-21 -21 -25 -52h212z" />
    <glyph glyph-name="threesuperior" unicode="&#xb3;" 
d="M166 623l63 9q5 -105 92 -105q41 0 63 21.5t22 60.5q0 62 -76 62h-24l10 54h25q37 0 58 18t21 52q0 23 -17 37.5t-46 14.5q-63 0 -82 -66l-57 17q10 47 47.5 77t92.5 30q54 0 89.5 -29t35.5 -72q1 -36 -19.5 -64t-54.5 -40v-2q25 -9 42.5 -34t17.5 -57q0 -64 -39 -101.5
t-110 -37.5q-72 0 -112 41t-42 114z" />
    <glyph glyph-name="acute" unicode="&#xb4;" 
d="M307 595h-71l78 121h100z" />
    <glyph glyph-name="mu" unicode="&#xb5;" 
d="M189 -225h-79v755h80v-321q0 -72 37 -110t101 -38q61 0 96.5 37.5t35.5 100.5v331h80v-530h-80v51h-2q-3 -7 -18 -21q-17 -17 -50.5 -31t-67.5 -14q-89 0 -133 50v-260z" />
    <glyph glyph-name="paragraph" unicode="&#xb6;" 
d="M215 -136h-76l78 444q-60 2 -97 40.5t-37 98.5q0 87 56 140t141 53h286l-137 -776h-73l124 704h-142z" />
    <glyph glyph-name="middot" unicode="&#xb7;" 
d="M373 320h-117l21 116h117z" />
    <glyph glyph-name="cedilla" unicode="&#xb8;" 
d="M215 -172l31 40q32 -29 73 -29q58 0 58 43q0 17 -15.5 27t-38.5 10q-26 0 -47 -13l-6 -4l-34 18l47 80h47l-37 -58v-1q21 15 52 15q36 0 62 -20.5t26 -54.5q0 -44 -30 -69t-79 -25q-68 0 -109 41z" />
    <glyph glyph-name="onesuperior" unicode="&#xb9;" 
d="M449 473h-288l11 66h114l51 282l-103 -54l14 76l108 57h59l-65 -361h110z" />
    <glyph glyph-name="ordmasculine" unicode="&#xba;" 
d="M180 518q0 88 46 137q46 51 112 51q59 0 95.5 -40t36.5 -103q0 -89 -46 -138q-47 -50 -112 -50q-59 0 -95.5 40t-36.5 103zM240 524q0 -40 19 -66t52 -26q43 0 71.5 35t28.5 93q0 38 -19.5 64t-53.5 26q-43 0 -70.5 -34t-27.5 -92z" />
    <glyph glyph-name="guillemotright" unicode="&#xbb;" 
d="M199 87h-90l152 178l-74 196h76l78 -206zM399 87h-90l152 178l-74 196h76l78 -206z" />
    <glyph glyph-name="onequarter" unicode="&#xbc;" 
d="M302 -98h-205l11 61l216 276h101l-49 -278h52l-11 -59h-50l-14 -90h-66zM487 463h-288l11 66h114l51 282l-103 -54l14 76l108 57h59l-65 -361h110zM534 315h-430l11 68h430zM352 192l-180 -231h139l43 231h-2z" />
    <glyph glyph-name="onehalf" unicode="&#xbd;" 
d="M396 -188h-282l9 49q11 65 39 98q29 33 101 62q73 29 96 50q26 23 26 54q0 27 -19.5 43t-50.5 16q-75 0 -94 -84l-62 15q10 59 52.5 94t101.5 35q62 0 99.5 -33t37.5 -85q0 -54 -35.5 -87t-115.5 -65q-59 -24 -78 -43q-21 -21 -25 -53h212zM487 463h-288l11 66h114
l51 282l-103 -54l14 76l108 57h59l-65 -361h110zM534 315h-430l11 68h430z" />
    <glyph glyph-name="threequarters" unicode="&#xbe;" 
d="M534 316h-430l11 68h430zM204 613l63 9q5 -105 92 -105q41 0 63 21.5t22 60.5q0 62 -76 62h-24l10 54h25q37 0 58 18t21 52q0 23 -17 37.5t-46 14.5q-62 0 -82 -66l-57 17q10 47 47.5 77t92.5 30q54 0 89.5 -29t35.5 -72q1 -36 -19.5 -64t-54.5 -40v-2q25 -9 42.5 -34
t17.5 -57q0 -64 -39 -101.5t-110 -37.5q-72 0 -112 41t-42 114zM308 -98h-205l11 61l216 276h101l-49 -278h52l-11 -59h-50l-14 -90h-66zM358 192l-180 -231h139l43 231h-2z" />
    <glyph glyph-name="questiondown" unicode="&#xbf;" 
d="M342 340h80l-11 -56q-15 -80 -104 -130q-5 -3 -26 -14t-27.5 -15t-24 -15t-24 -17.5t-18.5 -19t-17 -23.5t-9 -26.5t-4 -31.5q0 -44 34 -74t94 -30q63 0 101.5 37.5t50.5 105.5l75 -16q-12 -89 -73 -144q-62 -56 -155 -56q-85 0 -143 46q-57 44 -62 115q-3 37 4 63
q10 50 49 89q38 38 79 58q109 49 119 101zM352 530h117l-21 -116h-117z" />
    <glyph glyph-name="Agrave" unicode="&#xc0;" 
d="M580 0h-84l-26 141h-318l-74 -141h-89l375 700h87zM390 590h-2l-201 -381h271zM443 765h-71l-107 121h100z" />
    <glyph glyph-name="Aacute" unicode="&#xc1;" 
d="M580 0h-84l-26 141h-318l-74 -141h-89l375 700h87zM390 590h-2l-201 -381h271zM455 765h-71l78 121h100z" />
    <glyph glyph-name="Acircumflex" unicode="&#xc2;" 
d="M580 0h-84l-26 141h-318l-74 -141h-89l375 700h87zM390 590h-2l-201 -381h271zM419 835l-86 -87l-41 45l78 78h101l62 -86l-51 -37z" />
    <glyph glyph-name="Atilde" unicode="&#xc3;" 
d="M580 0h-84l-26 141h-318l-74 -141h-89l375 700h87zM390 590h-2l-201 -381h271zM317 765h-46q33 94 103 94q29 0 60 -19t50 -19q26 0 40 33h46q-33 -94 -103 -94q-27 0 -61 19q-32 19 -49 19q-27 0 -40 -33z" />
    <glyph glyph-name="Adieresis" unicode="&#xc4;" 
d="M580 0h-84l-26 141h-318l-74 -141h-89l375 700h87zM390 590h-2l-201 -381h271zM362 765h-90l16 91h91zM555 765h-91l16 91h91z" />
    <glyph glyph-name="Aring" unicode="&#xc5;" 
d="M580 0h-84l-26 141h-318l-74 -141h-89l373 697q-43 25 -43 76q0 49 30.5 82t77.5 33q39 0 64.5 -25.5t25.5 -62.5t-17.5 -66t-47.5 -41zM390 590h-2l-201 -381h271zM411 729q23 0 39 19.5t16 50.5q0 21 -11.5 33t-29.5 12q-24 0 -39.5 -19t-15.5 -51q0 -20 12 -32.5
t29 -12.5z" />
    <glyph glyph-name="AE" unicode="&#xc6;" 
d="M65 0h-84l385 700h301l-13 -76h-169l-40 -227h141l-13 -73h-141l-44 -248h169l-13 -76h-248l26 149h-176zM412 637l-228 -416h151l79 416h-2z" />
    <glyph glyph-name="Ccedilla" unicode="&#xc7;" 
d="M214 -172l31 40q32 -29 73 -29q58 0 58 43q0 17 -15.5 27t-38.5 10q-26 0 -47 -13l-6 -4l-34 18l40 69q-89 16 -145 96q-54 79 -54 198q0 191 92 312q92 120 218 120q100 0 163 -68t62 -177l-87 -7q-2 80 -37 127t-104 47q-91 0 -155 -102q-64 -100 -64 -240
q0 -101 44 -166q45 -63 116 -63q64 0 107.5 50.5t62.5 137.5l86 -23q-22 -116 -89.5 -181t-170.5 -65h-1l-27 -43v-1q21 15 52 15q36 0 62 -20.5t26 -54.5q0 -44 -30 -69t-79 -25q-68 0 -109 41z" />
    <glyph glyph-name="Egrave" unicode="&#xc8;" 
d="M493 0h-412l123 700h412l-13 -75h-328l-40 -228h300l-12 -71h-301l-44 -249h329zM456 765h-71l-107 121h100z" />
    <glyph glyph-name="Eacute" unicode="&#xc9;" 
d="M493 0h-412l123 700h412l-13 -75h-328l-40 -228h300l-12 -71h-301l-44 -249h329zM431 765h-71l78 121h100z" />
    <glyph glyph-name="Ecircumflex" unicode="&#xca;" 
d="M493 0h-412l123 700h412l-13 -75h-328l-40 -228h300l-12 -71h-301l-44 -249h329zM418 835l-86 -87l-41 45l78 78h101l62 -86l-51 -37z" />
    <glyph glyph-name="Edieresis" unicode="&#xcb;" 
d="M493 0h-412l123 700h412l-13 -75h-328l-40 -228h300l-12 -71h-301l-44 -249h329zM356 765h-90l16 91h91zM549 765h-91l16 91h91z" />
    <glyph glyph-name="Igrave" unicode="&#xcc;" 
d="M330 625h-167l13 75h420l-13 -75h-168l-97 -550h168l-13 -75h-420l13 75h167zM423 765h-71l-107 121h100z" />
    <glyph glyph-name="Iacute" unicode="&#xcd;" 
d="M330 625h-167l13 75h420l-13 -75h-168l-97 -550h168l-13 -75h-420l13 75h167zM427 765h-71l78 121h100z" />
    <glyph glyph-name="Icircumflex" unicode="&#xce;" 
d="M330 625h-167l13 75h420l-13 -75h-168l-97 -550h168l-13 -75h-420l13 75h167zM397 835l-86 -87l-41 45l78 78h101l62 -86l-51 -37z" />
    <glyph glyph-name="Idieresis" unicode="&#xcf;" 
d="M330 625h-167l13 75h420l-13 -75h-168l-97 -550h168l-13 -75h-420l13 75h167zM342 765h-90l16 91h91zM535 765h-91l16 91h91z" />
    <glyph glyph-name="Eth" unicode="&#xd0;" 
d="M231 0h-167l58 331h-67l12 69h67l53 300h150q114 0 186 -76t72 -208q0 -210 -109 -317q-104 -99 -255 -99zM204 331l-45 -254h69q126 0 202 91q77 92 77 246q0 103 -48 157t-137 54h-66l-40 -225h187l-12 -69h-187z" />
    <glyph glyph-name="Ntilde" unicode="&#xd1;" 
d="M117 0h-80l123 700h90l182 -571h2l100 571h79l-123 -700h-90l-181 571h-2zM310 765h-46q33 94 103 94q29 0 60 -19t50 -19q27 0 40 33h46q-33 -94 -103 -94q-27 0 -61 19q-32 19 -49 19q-26 0 -40 -33z" />
    <glyph glyph-name="Ograve" unicode="&#xd2;" 
d="M294 66q90 0 155 96q65 98 65 245q0 106 -41 168t-113 62q-92 0 -158 -98q-66 -97 -66 -246q0 -107 41.5 -167t116.5 -60zM293 -15q-112 0 -179 82q-66 82 -66 221q0 98 27 181.5t73 136.5q96 109 215 109q108 0 174 -84q66 -83 66 -219q0 -98 -27 -181.5t-73 -136.5
q-95 -109 -210 -109zM414 765h-71l-107 121h100z" />
    <glyph glyph-name="Oacute" unicode="&#xd3;" 
d="M294 66q90 0 155 96q65 98 65 245q0 106 -41 168t-113 62q-92 0 -158 -98q-66 -97 -66 -246q0 -107 41.5 -167t116.5 -60zM293 -15q-112 0 -179 82q-66 82 -66 221q0 98 27 181.5t73 136.5q96 109 215 109q108 0 174 -84q66 -83 66 -219q0 -98 -27 -181.5t-73 -136.5
q-95 -109 -210 -109zM412 765h-71l78 121h100z" />
    <glyph glyph-name="Ocircumflex" unicode="&#xd4;" 
d="M294 66q90 0 155 96q65 98 65 245q0 106 -41 168t-113 62q-92 0 -158 -98q-66 -97 -66 -246q0 -107 41.5 -167t116.5 -60zM293 -15q-112 0 -179 82q-66 82 -66 221q0 98 27 181.5t73 136.5q96 109 215 109q108 0 174 -84q66 -83 66 -219q0 -98 -27 -181.5t-73 -136.5
q-95 -109 -210 -109zM383 835l-86 -87l-41 45l78 78h101l62 -86l-51 -37z" />
    <glyph glyph-name="Otilde" unicode="&#xd5;" 
d="M294 66q90 0 155 96q65 98 65 245q0 106 -41 168t-113 62q-92 0 -158 -98q-66 -97 -66 -246q0 -107 41.5 -167t116.5 -60zM293 -15q-112 0 -179 82q-66 82 -66 221q0 98 27 181.5t73 136.5q96 109 215 109q108 0 174 -84q66 -83 66 -219q0 -98 -27 -181.5t-73 -136.5
q-95 -109 -210 -109zM276 765h-46q33 94 103 94q29 0 60 -19t50 -19q27 0 40 33h46q-33 -94 -103 -94q-27 0 -61 19q-32 19 -49 19q-26 0 -40 -33z" />
    <glyph glyph-name="Odieresis" unicode="&#xd6;" 
d="M294 66q90 0 155 96q65 98 65 245q0 106 -41 168t-113 62q-92 0 -158 -98q-66 -97 -66 -246q0 -107 41.5 -167t116.5 -60zM293 -15q-112 0 -179 82q-66 82 -66 221q0 98 27 181.5t73 136.5q96 109 215 109q108 0 174 -84q66 -83 66 -219q0 -98 -27 -181.5t-73 -136.5
q-95 -109 -210 -109zM323 765h-90l16 91h91zM516 765h-91l16 91h91z" />
    <glyph glyph-name="multiply" unicode="&#xd7;" 
d="M156 118l-50 50l168 168l-158 159l50 50l158 -159l159 159l50 -50l-159 -159l169 -168l-50 -50l-169 168z" />
    <glyph glyph-name="Oslash" unicode="&#xd8;" 
d="M293 -15q-99 0 -162 63l-30 -41l-39 27l38 52q-52 77 -52 202q0 98 27 181.5t73 136.5q96 109 215 109q90 0 155 -62l29 40l37 -27l-36 -49q55 -82 55 -205q0 -98 -27 -181.5t-73 -136.5q-95 -109 -210 -109zM294 66q90 0 155 96q65 98 65 245q0 77 -22 133l-309 -421
q41 -53 111 -53zM136 293q0 -76 21 -130l310 421q-41 53 -107 53q-92 0 -158 -98q-66 -97 -66 -246z" />
    <glyph glyph-name="Ugrave" unicode="&#xd9;" 
d="M60 224l84 476h86l-82 -466q-14 -84 21.5 -127t116.5 -43t130.5 44t64.5 126l82 466h86l-85 -485q-20 -111 -93.5 -170.5t-190.5 -59.5q-116 0 -178 65q-62 64 -42 174zM438 765h-71l-107 121h100z" />
    <glyph glyph-name="Uacute" unicode="&#xda;" 
d="M60 224l84 476h86l-82 -466q-14 -84 21.5 -127t116.5 -43t130.5 44t64.5 126l82 466h86l-85 -485q-20 -111 -93.5 -170.5t-190.5 -59.5q-116 0 -178 65q-62 64 -42 174zM435 765h-71l78 121h100z" />
    <glyph glyph-name="Ucircumflex" unicode="&#xdb;" 
d="M60 224l84 476h86l-82 -466q-14 -84 21.5 -127t116.5 -43t130.5 44t64.5 126l82 466h86l-85 -485q-20 -111 -93.5 -170.5t-190.5 -59.5q-116 0 -178 65q-62 64 -42 174zM403 835l-86 -87l-41 45l78 78h101l62 -86l-51 -37z" />
    <glyph glyph-name="Udieresis" unicode="&#xdc;" 
d="M60 224l84 476h86l-82 -466q-14 -84 21.5 -127t116.5 -43t130.5 44t64.5 126l82 466h86l-85 -485q-20 -111 -93.5 -170.5t-190.5 -59.5q-116 0 -178 65q-62 64 -42 174zM344 765h-90l16 91h91zM537 765h-91l16 91h91z" />
    <glyph glyph-name="Yacute" unicode="&#xdd;" 
d="M307 0h-88l52 295l-159 405h91l121 -325h2l233 325h101l-301 -405zM415 765h-71l78 121h100z" />
    <glyph glyph-name="Thorn" unicode="&#xde;" 
d="M146 0h-82l123 700h82l-21 -117h134q87 0 145 -50q58 -49 58 -131q0 -114 -77 -182q-76 -67 -199 -67h-136zM235 508l-49 -279h134q74 0 127 45q54 45 54 126q0 51 -35.5 79.5t-99.5 28.5h-131z" />
    <glyph glyph-name="germandbls" unicode="&#xdf;" 
d="M152 0h-81l87 505q18 103 76 156.5t149 53.5q85 0 140 -48t55 -119q0 -116 -109 -162q40 -16 65 -52.5t25 -89.5q0 -114 -69.5 -179t-203.5 -65h-36l12 74h29q95 0 142.5 44.5t47.5 127.5q0 50 -32.5 76.5t-87.5 26.5h-50l11 67h45q56 0 95 32.5t39 88.5q0 48 -31.5 76.5
t-86.5 28.5q-63 0 -98 -39t-50 -123z" />
    <glyph glyph-name="agrave" unicode="&#xe0;" 
d="M441 256l12 69q11 69 -15 107.5t-86 38.5q-73 0 -128 -82q-55 -80 -55 -196q0 -58 28 -95t71 -37q53 0 104 48q52 48 69 147zM572 530l-93 -530h-74l10 61h-2q-20 -32 -59.5 -54t-92.5 -22q-70 0 -121 54t-51 153q0 149 79 250q79 103 188 103q85 0 121 -63h3l9 48h83z
M395 595h-71l-107 121h100z" />
    <glyph glyph-name="aacute" unicode="&#xe1;" 
d="M441 256l12 69q11 69 -15 107.5t-86 38.5q-73 0 -128 -82q-55 -80 -55 -196q0 -58 28 -95t71 -37q53 0 104 48q52 48 69 147zM572 530l-93 -530h-74l10 61h-2q-20 -32 -59.5 -54t-92.5 -22q-70 0 -121 54t-51 153q0 149 79 250q79 103 188 103q85 0 121 -63h3l9 48h83z
M412 595h-71l78 121h100z" />
    <glyph glyph-name="acircumflex" unicode="&#xe2;" 
d="M441 256l12 69q11 69 -15 107.5t-86 38.5q-73 0 -128 -82q-55 -80 -55 -196q0 -58 28 -95t71 -37q53 0 104 48q52 48 69 147zM572 530l-93 -530h-74l10 61h-2q-20 -32 -59.5 -54t-92.5 -22q-70 0 -121 54t-51 153q0 149 79 250q79 103 188 103q85 0 121 -63h3l9 48h83z
M373 669l-86 -87l-41 45l78 78h101l62 -87l-51 -36z" />
    <glyph glyph-name="atilde" unicode="&#xe3;" 
d="M441 256l12 69q11 69 -15 107.5t-86 38.5q-73 0 -128 -82q-55 -80 -55 -196q0 -58 28 -95t71 -37q53 0 104 48q52 48 69 147zM572 530l-93 -530h-74l10 61h-2q-20 -32 -59.5 -54t-92.5 -22q-70 0 -121 54t-51 153q0 149 79 250q79 103 188 103q85 0 121 -63h3l9 48h83z
M273 603h-46q35 93 103 93q29 0 60 -19t50 -19q26 0 40 33h46q-33 -93 -103 -93q-27 0 -61 18q-32 19 -49 19q-26 0 -40 -32z" />
    <glyph glyph-name="adieresis" unicode="&#xe4;" 
d="M441 256l12 69q11 69 -15 107.5t-86 38.5q-73 0 -128 -82q-55 -80 -55 -196q0 -58 28 -95t71 -37q53 0 104 48q52 48 69 147zM572 530l-93 -530h-74l10 61h-2q-20 -32 -59.5 -54t-92.5 -22q-70 0 -121 54t-51 153q0 149 79 250q79 103 188 103q85 0 121 -63h3l9 48h83z
M320 612h-90l15 90h91zM513 612h-91l15 90h91z" />
    <glyph glyph-name="aring" unicode="&#xe5;" 
d="M572 530l-93 -530h-74l10 61h-2q-20 -32 -59.5 -54t-92.5 -22q-70 0 -121 54t-51 153q0 128 61 225t154 121q-38 26 -38 74q0 49 30.5 82t77.5 33q39 0 64.5 -26t25.5 -63q0 -72 -54 -102q45 -17 67 -54h3l9 48h83zM441 256l12 69q11 69 -15 107.5t-86 38.5
q-73 0 -128 -82q-55 -80 -55 -196q0 -58 28 -95t71 -37q53 0 104 48q52 48 69 147zM358 567q23 0 39 19.5t16 50.5q0 21 -11.5 33t-29.5 12q-24 0 -39.5 -19t-15.5 -51q0 -20 12 -32.5t29 -12.5z" />
    <glyph glyph-name="ae" unicode="&#xe6;" 
d="M175 302q52 22 76 38q41 28 41 74q0 27 -14.5 43t-38.5 16q-32 0 -57.5 -27.5t-39.5 -75.5l-66 21q18 67 65 111q46 43 100 43q42 0 72 -23.5t37 -59.5h3q23 36 58.5 59.5t76.5 23.5q56 0 87.5 -46.5t31.5 -131.5q0 -39 -10 -107l-3 -19h-251q-5 -37 -5 -58
q0 -57 19.5 -90.5t57.5 -33.5q54 0 100 112l65 -30q-62 -156 -170 -156q-100 0 -127 105h-3q-31 -52 -67 -78.5t-86 -26.5t-80 32t-30 84q0 139 158 201zM357 307h174q7 32 7 67q0 98 -61 98q-44 0 -77 -54q-32 -51 -43 -111zM181 235q-87 -43 -87 -127q0 -22 14.5 -36
t38.5 -14q37 0 68 37q32 38 41 85l22 118h-2q-8 -19 -95 -63z" />
    <glyph glyph-name="ccedilla" unicode="&#xe7;" 
d="M228 -172l31 40q32 -29 73 -29q58 0 58 43q0 17 -15.5 27t-38.5 10q-26 0 -47 -13l-6 -4l-34 18l39 67q-87 8 -139.5 71t-52.5 161q0 147 81 236q81 90 190 90q96 0 151 -61q55 -60 54 -151l-81 -6q0 64 -31.5 104t-93.5 40q-74 0 -130 -69q-55 -67 -55 -179
q0 -75 38 -118.5t99 -43.5q111 0 150 130l80 -27q-50 -167 -214 -178l-28 -44v-1q21 15 52 15q36 0 62 -20.5t26 -54.5q0 -44 -30 -69t-79 -25q-68 0 -109 41z" />
    <glyph glyph-name="egrave" unicode="&#xe8;" 
d="M475 163l62 -51q-90 -127 -235 -127q-100 0 -162 65t-62 179q0 133 78 224q80 92 195 92q97 0 159 -62t62 -164l-5 -78h-404q-1 -6 -1 -18q0 -66 35 -116q35 -48 106 -48q101 0 172 104zM171 307h319v3q0 2 0.5 9t0.5 10q0 63 -37 103t-104 40q-73 0 -121 -51
q-47 -50 -58 -114zM397 595h-71l-107 121h100z" />
    <glyph glyph-name="eacute" unicode="&#xe9;" 
d="M475 163l62 -51q-90 -127 -235 -127q-100 0 -162 65t-62 179q0 133 78 224q80 92 195 92q97 0 159 -62t62 -164l-5 -78h-404q-1 -6 -1 -18q0 -66 35 -116q35 -48 106 -48q101 0 172 104zM171 307h319v3q0 2 0.5 9t0.5 10q0 63 -37 103t-104 40q-73 0 -121 -51
q-47 -50 -58 -114zM397 595h-71l78 121h100z" />
    <glyph glyph-name="ecircumflex" unicode="&#xea;" 
d="M475 163l62 -51q-90 -127 -235 -127q-100 0 -162 65t-62 179q0 133 78 224q80 92 195 92q97 0 159 -62t62 -164l-5 -78h-404q-1 -6 -1 -18q0 -66 35 -116q35 -48 106 -48q101 0 172 104zM171 307h319v3q0 2 0.5 9t0.5 10q0 63 -37 103t-104 40q-73 0 -121 -51
q-47 -50 -58 -114zM372 669l-86 -87l-41 45l78 78h101l62 -87l-51 -36z" />
    <glyph glyph-name="edieresis" unicode="&#xeb;" 
d="M475 163l62 -51q-90 -127 -235 -127q-100 0 -162 65t-62 179q0 133 78 224q80 92 195 92q97 0 159 -62t62 -164l-5 -78h-404q-1 -6 -1 -18q0 -66 35 -116q35 -48 106 -48q101 0 172 104zM171 307h319v3q0 2 0.5 9t0.5 10q0 63 -37 103t-104 40q-73 0 -121 -51
q-47 -50 -58 -114zM317 612h-90l15 90h91zM510 612h-91l15 90h91z" />
    <glyph glyph-name="igrave" unicode="&#xec;" 
d="M414 595h-71l-107 121h100zM342 460h-178l12 70h261l-81 -460h174l-12 -70h-440l12 70h183z" />
    <glyph glyph-name="iacute" unicode="&#xed;" 
d="M430 595h-71l78 121h100zM342 460h-178l12 70h261l-81 -460h174l-12 -70h-440l12 70h183z" />
    <glyph glyph-name="icircumflex" unicode="&#xee;" 
d="M342 460h-178l12 70h261l-81 -460h174l-12 -70h-440l12 70h183zM401 669l-86 -87l-41 45l78 78h101l62 -87l-51 -36z" />
    <glyph glyph-name="idieresis" unicode="&#xef;" 
d="M326 612h-90l15 90h91zM519 612h-91l15 90h91zM342 460h-178l12 70h261l-81 -460h174l-12 -70h-440l12 70h183z" />
    <glyph glyph-name="eth" unicode="&#xf0;" 
d="M283 61q86 0 136 74t50 180q0 69 -39.5 112.5t-106.5 43.5q-77 0 -131 -65q-54 -64 -54 -178q0 -73 40 -120q41 -47 105 -47zM422 642l-174 -23l-7 45l157 20q-18 30 -56 88l1 3h88q14 -23 45 -80l107 14l6 -45l-93 -12q61 -140 61 -287q0 -185 -77 -283
q-76 -97 -197 -97q-102 0 -164 68q-61 67 -61 176q0 142 78 229t185 87q50 0 90.5 -21t63.5 -53h2q-15 96 -55 171z" />
    <glyph glyph-name="ntilde" unicode="&#xf1;" 
d="M146 0h-83l93 530h80l-7 -48h2q25 27 65.5 45t85.5 18q86 0 134 -55q49 -55 33 -145l-60 -345h-83l59 332q12 68 -16.5 103t-89.5 35q-58 0 -100 -35.5t-52 -92.5zM291 603h-46q35 93 103 93q29 0 60 -19t50 -19q26 0 40 33h46q-33 -93 -103 -93q-27 0 -61 18
q-32 19 -49 19q-26 0 -40 -32z" />
    <glyph glyph-name="ograve" unicode="&#xf2;" 
d="M298 59q80 0 135 64t55 179q0 75 -37.5 122t-100.5 47q-79 0 -135 -65q-55 -64 -55 -178q0 -75 37.5 -122t100.5 -47zM299 -15q-98 0 -160 68q-61 68 -61 176q0 144 79 229q79 87 193 87q100 0 160 -68q61 -67 61 -176q0 -142 -80 -230q-80 -86 -192 -86zM407 595h-71
l-107 121h100z" />
    <glyph glyph-name="oacute" unicode="&#xf3;" 
d="M298 59q80 0 135 64t55 179q0 75 -37.5 122t-100.5 47q-79 0 -135 -65q-55 -64 -55 -178q0 -75 37.5 -122t100.5 -47zM299 -15q-98 0 -160 68q-61 68 -61 176q0 144 79 229q79 87 193 87q100 0 160 -68q61 -67 61 -176q0 -142 -80 -230q-80 -86 -192 -86zM399 595h-71
l78 121h100z" />
    <glyph glyph-name="ocircumflex" unicode="&#xf4;" 
d="M298 59q80 0 135 64t55 179q0 75 -37.5 122t-100.5 47q-79 0 -135 -65q-55 -64 -55 -178q0 -75 37.5 -122t100.5 -47zM299 -15q-98 0 -160 68q-61 68 -61 176q0 144 79 229q79 87 193 87q100 0 160 -68q61 -67 61 -176q0 -142 -80 -230q-80 -86 -192 -86zM370 669
l-86 -87l-41 45l78 78h101l62 -87l-51 -36z" />
    <glyph glyph-name="otilde" unicode="&#xf5;" 
d="M298 59q80 0 135 64t55 179q0 75 -37.5 122t-100.5 47q-79 0 -135 -65q-55 -64 -55 -178q0 -75 37.5 -122t100.5 -47zM299 -15q-98 0 -160 68q-61 68 -61 176q0 144 79 229q79 87 193 87q100 0 160 -68q61 -67 61 -176q0 -142 -80 -230q-80 -86 -192 -86zM262 603h-46
q34 93 103 93q29 0 60 -19t50 -19q27 0 40 33h46q-33 -93 -103 -93q-26 0 -61 18q-32 19 -49 19q-26 0 -40 -32z" />
    <glyph glyph-name="odieresis" unicode="&#xf6;" 
d="M298 59q80 0 135 64t55 179q0 75 -37.5 122t-100.5 47q-79 0 -135 -65q-55 -64 -55 -178q0 -75 37.5 -122t100.5 -47zM299 -15q-98 0 -160 68q-61 68 -61 176q0 144 79 229q79 87 193 87q100 0 160 -68q61 -67 61 -176q0 -142 -80 -230q-80 -86 -192 -86zM310 612h-90
l15 90h91zM503 612h-91l15 90h91z" />
    <glyph glyph-name="divide" unicode="&#xf7;" 
d="M253 566q0 30 20.5 50.5t50.5 20.5t50.5 -20.5t20.5 -50.5q0 -29 -20.5 -49.5t-50.5 -20.5t-50.5 20.5t-20.5 49.5zM253 141q0 30 20.5 50.5t50.5 20.5t50.5 -20.5t20.5 -50.5q0 -29 -20.5 -49.5t-50.5 -20.5t-50.5 20.5t-20.5 49.5zM517 319h-384v70h384v-70z" />
    <glyph glyph-name="oslash" unicode="&#xf8;" 
d="M102 16l-29 29l43 42q-38 61 -38 142q0 144 79 229q79 87 191 87q98 0 160 -71l40 38l28 -30l-44 -42q35 -62 35 -139q0 -144 -79 -230q-78 -86 -190 -86q-98 0 -157 69zM173 146l280 271q-37 54 -105 54q-79 0 -135 -65q-55 -64 -55 -178q0 -48 15 -82zM474 380
l-279 -269q37 -52 102 -52q80 0 135 64t55 179q0 45 -13 78z" />
    <glyph glyph-name="ugrave" unicode="&#xf9;" 
d="M93 184l60 346h84l-60 -343q-23 -126 105 -126q126 0 151 136l58 333h84l-93 -530h-83l9 51h-2q-7 -10 -19 -21q-15 -14 -49 -29q-35 -16 -78 -16q-87 0 -136 49t-31 150zM413 595h-71l-107 121h100z" />
    <glyph glyph-name="uacute" unicode="&#xfa;" 
d="M93 184l60 346h84l-60 -343q-23 -126 105 -126q126 0 151 136l58 333h84l-93 -530h-83l9 51h-2q-7 -10 -19 -21q-15 -14 -49 -29q-35 -16 -78 -16q-87 0 -136 49t-31 150zM401 595h-71l78 121h100z" />
    <glyph glyph-name="ucircumflex" unicode="&#xfb;" 
d="M93 184l60 346h84l-60 -343q-23 -126 105 -126q126 0 151 136l58 333h84l-93 -530h-83l9 51h-2q-7 -10 -19 -21q-15 -14 -49 -29q-35 -16 -78 -16q-87 0 -136 49t-31 150zM381 669l-86 -87l-41 45l78 78h101l62 -87l-51 -36z" />
    <glyph glyph-name="udieresis" unicode="&#xfc;" 
d="M93 184l60 346h84l-60 -343q-23 -126 105 -126q126 0 151 136l58 333h84l-93 -530h-83l9 51h-2q-7 -10 -19 -21q-15 -14 -49 -29q-35 -16 -78 -16q-87 0 -136 49t-31 150zM321 612h-90l15 90h91zM514 612h-91l15 90h91z" />
    <glyph glyph-name="yacute" unicode="&#xfd;" 
d="M193 -225h-87l148 267l-118 488h84l90 -387h2l205 387h94zM415 595h-71l78 121h100z" />
    <glyph glyph-name="thorn" unicode="&#xfe;" 
d="M106 -225h-81l167 948h79l-40 -233h2q55 55 143 55q90 0 147 -68t57 -173q0 -142 -74 -231q-73 -88 -184 -88q-108 0 -164 75h-2zM206 342l-29 -167q-7 -43 31 -80q39 -36 99 -36q87 0 139 67q53 68 53 175q0 76 -37 123t-103 47q-59 0 -102 -40q-43 -39 -51 -89z" />
    <glyph glyph-name="ydieresis" unicode="&#xff;" 
d="M193 -225h-87l148 267l-118 488h84l90 -387h2l205 387h94zM325 612h-90l15 90h91zM518 612h-91l15 90h91z" />
    <glyph glyph-name="Amacron" unicode="&#x100;" 
d="M580 0h-84l-26 141h-318l-74 -141h-89l375 700h87zM390 590h-2l-201 -381h271zM558 765h-288l10 57h288z" />
    <glyph glyph-name="amacron" unicode="&#x101;" 
d="M441 256l12 69q11 69 -15 107.5t-86 38.5q-73 0 -128 -82q-55 -80 -55 -196q0 -58 28 -95t71 -37q53 0 104 48q52 48 69 147zM572 530l-93 -530h-74l10 61h-2q-20 -32 -59.5 -54t-92.5 -22q-70 0 -121 54t-51 153q0 149 79 250q79 103 188 103q85 0 121 -63h3l9 48h83z
M517 620h-288l10 57h288z" />
    <glyph glyph-name="Abreve" unicode="&#x102;" 
d="M580 0h-84l-26 141h-318l-74 -141h-89l375 700h87zM390 590h-2l-201 -381h271zM306 872h45q0 -56 69 -56q68 0 86 56h48q-10 -56 -46.5 -87.5t-90.5 -31.5q-49 0 -80 25t-33 67q0 13 2 27z" />
    <glyph glyph-name="abreve" unicode="&#x103;" 
d="M441 256l12 69q11 69 -15 107.5t-86 38.5q-73 0 -128 -82q-55 -80 -55 -196q0 -58 28 -95t71 -37q53 0 104 48q52 48 69 147zM572 530l-93 -530h-74l10 61h-2q-20 -32 -59.5 -54t-92.5 -22q-70 0 -121 54t-51 153q0 149 79 250q79 103 188 103q85 0 121 -63h3l9 48h83z
M253 704h45q0 -56 69 -56q68 0 86 56h48q-10 -56 -46.5 -87.5t-90.5 -31.5q-49 0 -80 25t-33 67q0 13 2 27z" />
    <glyph glyph-name="Aogonek" unicode="&#x104;" 
d="M525 0h-29l-26 141h-318l-74 -141h-89l375 700h87l129 -700q-80 -72 -80 -117q0 -39 47 -39q32 0 66 37l32 -28q-53 -63 -119 -63q-44 0 -72 18t-28 55q0 76 99 137zM390 590h-2l-201 -381h271z" />
    <glyph glyph-name="aogonek" unicode="&#x105;" 
d="M512 -119l32 -28q-52 -63 -119 -63q-44 0 -72 18t-28 55q0 76 99 137h-19l10 61h-2q-20 -32 -59.5 -54t-92.5 -22q-70 0 -121 54t-51 153q0 149 79 250q79 103 188 103q85 0 121 -63h3l9 48h83l-93 -530q-80 -72 -80 -117q0 -39 47 -39q32 0 66 37zM441 256l12 69
q11 69 -15 107.5t-86 38.5q-73 0 -128 -82q-55 -80 -55 -196q0 -58 28 -95t71 -37q53 0 104 48q52 48 69 147z" />
    <glyph glyph-name="Cacute" unicode="&#x106;" 
d="M494 254l86 -23q-22 -116 -89.5 -181t-170.5 -65q-108 0 -176 83t-68 215q0 191 92 312q92 120 218 120q100 0 163 -68t62 -177l-87 -7q-2 80 -37 127t-104 47q-91 0 -155 -102q-64 -100 -64 -240q0 -101 44 -166q45 -63 116 -63q64 0 107.5 50.5t62.5 137.5zM443 765
h-71l78 121h100z" />
    <glyph glyph-name="cacute" unicode="&#x107;" 
d="M468 191l80 -27q-26 -85 -86.5 -132t-146.5 -47q-97 0 -159 63q-60 64 -60 171q0 147 81 236q81 90 190 90q96 0 151 -61q55 -60 54 -151l-81 -6q0 64 -31.5 104t-93.5 40q-74 0 -130 -69q-55 -67 -55 -179q0 -75 38 -118.5t99 -43.5q111 0 150 130zM409 595h-71l78 121
h100z" />
    <glyph glyph-name="Ccircumflex" unicode="&#x108;" 
d="M494 254l86 -23q-22 -116 -89.5 -181t-170.5 -65q-108 0 -176 83t-68 215q0 191 92 312q92 120 218 120q100 0 163 -68t62 -177l-87 -7q-2 80 -37 127t-104 47q-91 0 -155 -102q-64 -100 -64 -240q0 -101 44 -166q45 -63 116 -63q64 0 107.5 50.5t62.5 137.5zM399 835
l-86 -87l-41 45l78 78h101l62 -86l-51 -37z" />
    <glyph glyph-name="ccircumflex" unicode="&#x109;" 
d="M468 191l80 -27q-26 -85 -86.5 -132t-146.5 -47q-97 0 -159 63q-60 64 -60 171q0 147 81 236q81 90 190 90q96 0 151 -61q55 -60 54 -151l-81 -6q0 64 -31.5 104t-93.5 40q-74 0 -130 -69q-55 -67 -55 -179q0 -75 38 -118.5t99 -43.5q111 0 150 130zM392 669l-86 -87
l-41 45l78 78h101l62 -87l-51 -36z" />
    <glyph glyph-name="Cdotaccent" unicode="&#x10a;" 
d="M494 254l86 -23q-22 -116 -89.5 -181t-170.5 -65q-108 0 -176 83t-68 215q0 191 92 312q92 120 218 120q100 0 163 -68t62 -177l-87 -7q-2 80 -37 127t-104 47q-91 0 -155 -102q-64 -100 -64 -240q0 -101 44 -166q45 -63 116 -63q64 0 107.5 50.5t62.5 137.5zM452 765
h-96l16 96h97z" />
    <glyph glyph-name="cdotaccent" unicode="&#x10b;" 
d="M468 191l80 -27q-26 -85 -86.5 -132t-146.5 -47q-97 0 -159 63q-60 64 -60 171q0 147 81 236q81 90 190 90q96 0 151 -61q55 -60 54 -151l-81 -6q0 64 -31.5 104t-93.5 40q-74 0 -130 -69q-55 -67 -55 -179q0 -75 38 -118.5t99 -43.5q111 0 150 130zM435 608h-96l16 96
h97z" />
    <glyph glyph-name="Ccaron" unicode="&#x10c;" 
d="M494 254l86 -23q-22 -116 -89.5 -181t-170.5 -65q-108 0 -176 83t-68 215q0 191 92 312q92 120 218 120q100 0 163 -68t62 -177l-87 -7q-2 80 -37 127t-104 47q-91 0 -155 -102q-64 -100 -64 -240q0 -101 44 -166q45 -63 116 -63q64 0 107.5 50.5t62.5 137.5zM457 765
h-100l-62 87l50 36l63 -87l87 87l41 -45z" />
    <glyph glyph-name="ccaron" unicode="&#x10d;" 
d="M468 191l80 -27q-26 -85 -86.5 -132t-146.5 -47q-97 0 -159 63q-60 64 -60 171q0 147 81 236q81 90 190 90q96 0 151 -61q55 -60 54 -151l-81 -6q0 64 -31.5 104t-93.5 40q-74 0 -130 -69q-55 -67 -55 -179q0 -75 38 -118.5t99 -43.5q111 0 150 130zM439 594h-100l-62 87
l49 36l62 -87l87 87l43 -45z" />
    <glyph glyph-name="Dcaron" unicode="&#x10e;" 
d="M238 625l-97 -548h99q126 0 202 91q77 92 77 246q0 103 -48 157t-137 54h-96zM243 0h-199l123 700h182q114 0 187 -76t73 -208q0 -209 -110 -317q-104 -99 -256 -99zM392 765h-100l-62 87l50 36l63 -87l87 87l41 -45z" />
    <glyph glyph-name="dcaron" unicode="&#x10f;" 
d="M441 175l29 163q9 52 -28 92q-36 41 -101 41q-80 0 -133 -71q-51 -70 -51 -180q0 -68 34 -114q35 -47 99 -47q58 0 100 33.5t51 82.5zM493 0h-77l8 48h-2q-16 -24 -56 -43.5t-87 -19.5q-95 0 -151 63q-55 62 -55 165q0 149 76 240q77 92 188 92q50 0 90 -21t63 -54h2
l47 260h83zM708 579h-55l44 151h78z" />
    <glyph glyph-name="Dcroat" unicode="&#x110;" 
d="M231 0h-167l58 331h-67l12 69h67l53 300h150q114 0 186 -76t72 -208q0 -210 -109 -317q-104 -99 -255 -99zM204 331l-45 -254h69q126 0 202 91q77 92 77 246q0 103 -48 157t-137 54h-66l-40 -225h187l-12 -69h-187z" />
    <glyph glyph-name="dslash" unicode="&#x111;" 
d="M485 0h-75l8 48h-2q-16 -24 -56 -43.5t-87 -19.5q-91 0 -148 63q-56 65 -56 165q0 149 75 240q77 92 187 92q51 0 91 -21t62 -54h2l31 175h-150l10 55h150l6 30h81l-6 -30h71l-10 -55h-70zM435 175l29 163q9 52 -28 92q-36 41 -101 41q-80 0 -133 -71q-51 -70 -51 -180
q0 -68 34 -114q35 -47 99 -47q58 0 100 33.5t51 82.5z" />
    <glyph glyph-name="Emacron" unicode="&#x112;" 
d="M493 0h-412l123 700h412l-13 -75h-328l-40 -228h300l-12 -71h-301l-44 -249h329zM562 765h-288l10 57h288z" />
    <glyph glyph-name="emacron" unicode="&#x113;" 
d="M475 163l62 -51q-90 -127 -235 -127q-100 0 -162 65t-62 179q0 133 78 224q80 92 195 92q97 0 159 -62t62 -164l-5 -78h-404q-1 -6 -1 -18q0 -66 35 -116q35 -48 106 -48q101 0 172 104zM171 307h319v3q0 2 0.5 9t0.5 10q0 63 -37 103t-104 40q-73 0 -121 -51
q-47 -50 -58 -114zM509 620h-288l10 57h288z" />
    <glyph glyph-name="Ebreve" unicode="&#x114;" 
d="M493 0h-412l123 700h412l-13 -75h-328l-40 -228h300l-12 -71h-301l-44 -249h329zM301 872h45q0 -56 69 -56q68 0 86 56h48q-10 -56 -46.5 -87.5t-90.5 -31.5q-49 0 -80 25t-33 67q0 13 2 27z" />
    <glyph glyph-name="ebreve" unicode="&#x115;" 
d="M475 163l62 -51q-90 -127 -235 -127q-100 0 -162 65t-62 179q0 133 78 224q80 92 195 92q97 0 159 -62t62 -164l-5 -78h-404q-1 -6 -1 -18q0 -66 35 -116q35 -48 106 -48q101 0 172 104zM171 307h319v3q0 2 0.5 9t0.5 10q0 63 -37 103t-104 40q-73 0 -121 -51
q-47 -50 -58 -114zM255 704h45q0 -56 69 -56q68 0 86 56h48q-10 -56 -46.5 -87.5t-90.5 -31.5q-49 0 -80 25t-33 67q0 13 2 27z" />
    <glyph glyph-name="Edotaccent" unicode="&#x116;" 
d="M493 0h-412l123 700h412l-13 -75h-328l-40 -228h300l-12 -71h-301l-44 -249h329zM463 765h-96l16 96h97z" />
    <glyph glyph-name="edotaccent" unicode="&#x117;" 
d="M475 163l62 -51q-90 -127 -235 -127q-100 0 -162 65t-62 179q0 133 78 224q80 92 195 92q97 0 159 -62t62 -164l-5 -78h-404q-1 -6 -1 -18q0 -66 35 -116q35 -48 106 -48q101 0 172 104zM171 307h319v3q0 2 0.5 9t0.5 10q0 63 -37 103t-104 40q-73 0 -121 -51
q-47 -50 -58 -114zM420 608h-96l16 96h97z" />
    <glyph glyph-name="Eogonek" unicode="&#x118;" 
d="M366 0h-285l123 700h412l-13 -75h-328l-40 -228h300l-12 -71h-301l-44 -249h329l-14 -77h-72q-80 -72 -80 -117q0 -39 47 -39q32 0 66 37l32 -28q-53 -63 -119 -63q-44 0 -72 18t-28 55q0 76 99 137z" />
    <glyph glyph-name="eogonek" unicode="&#x119;" 
d="M367 -119l32 -28q-53 -63 -119 -63q-44 0 -72 18t-28 55q0 68 81 125q-85 13 -134 77t-49 164q0 133 78 224q80 92 195 92q97 0 159 -62t62 -164l-5 -78h-404q-1 -6 -1 -18q0 -66 35 -116q35 -48 106 -48q101 0 172 104l62 -51q-85 -118 -219 -126q-64 -63 -64 -103
q0 -39 47 -39q32 0 66 37zM171 307h319v3q0 2 0.5 9t0.5 10q0 63 -37 103t-104 40q-73 0 -121 -51q-47 -50 -58 -114z" />
    <glyph glyph-name="Ecaron" unicode="&#x11a;" 
d="M493 0h-412l123 700h412l-13 -75h-328l-40 -228h300l-12 -71h-301l-44 -249h329zM464 765h-100l-62 87l50 36l63 -87l87 87l41 -45z" />
    <glyph glyph-name="ecaron" unicode="&#x11b;" 
d="M475 163l62 -51q-90 -127 -235 -127q-100 0 -162 65t-62 179q0 133 78 224q80 92 195 92q97 0 159 -62t62 -164l-5 -78h-404q-1 -6 -1 -18q0 -66 35 -116q35 -48 106 -48q101 0 172 104zM171 307h319v3q0 2 0.5 9t0.5 10q0 63 -37 103t-104 40q-73 0 -121 -51
q-47 -50 -58 -114zM424 594h-100l-62 87l49 36l62 -87l87 87l43 -45z" />
    <glyph glyph-name="Gcircumflex" unicode="&#x11c;" 
d="M377 715q98 0 159 -67q62 -66 63 -172l-87 -8q-10 168 -141 168q-91 0 -155 -99q-64 -98 -64 -242q0 -104 43.5 -166t115.5 -62q75 0 124 54q49 55 63 141h-172l14 77h258l-10 -66q-19 -130 -94 -209t-186 -79q-110 0 -178 83q-67 83 -67 221q0 190 94 308t220 118z
M389 835l-86 -87l-41 45l78 78h101l62 -86l-51 -37z" />
    <glyph glyph-name="gcircumflex" unicode="&#x11d;" 
d="M56 -91l73 30q16 -54 46.5 -79.5t85.5 -25.5q120 0 145 138l14 72h-2q-51 -59 -141 -59q-93 0 -151 63q-58 62 -58 164q0 150 77 242q78 91 189 91q50 0 91 -19.5t63 -51.5h2l10 56h86l-93 -531q-22 -122 -79 -180.5t-160 -58.5q-77 0 -128.5 39.5t-69.5 109.5zM441 175
l28 162q9 51 -29 92q-38 42 -101 42q-82 0 -134 -70t-52 -180q0 -68 35 -115q34 -46 102 -46q56 0 99 33t52 82zM354 669l-86 -87l-41 45l78 78h101l62 -87l-51 -36z" />
    <glyph glyph-name="Gbreve" unicode="&#x11e;" 
d="M377 715q98 0 159 -67q62 -66 63 -172l-87 -8q-10 168 -141 168q-91 0 -155 -99q-64 -98 -64 -242q0 -104 43.5 -166t115.5 -62q75 0 124 54q49 55 63 141h-172l14 77h258l-10 -66q-19 -130 -94 -209t-186 -79q-110 0 -178 83q-67 83 -67 221q0 190 94 308t220 118z
M282 872h45q0 -56 69 -56q68 0 86 56h48q-10 -56 -46.5 -87.5t-90.5 -31.5q-49 0 -80 25t-33 67q0 13 2 27z" />
    <glyph glyph-name="gbreve" unicode="&#x11f;" 
d="M56 -91l73 30q16 -54 46.5 -79.5t85.5 -25.5q120 0 145 138l14 72h-2q-51 -59 -141 -59q-93 0 -151 63q-58 62 -58 164q0 150 77 242q78 91 189 91q50 0 91 -19.5t63 -51.5h2l10 56h86l-93 -531q-22 -122 -79 -180.5t-160 -58.5q-77 0 -128.5 39.5t-69.5 109.5zM441 175
l28 162q9 51 -29 92q-38 42 -101 42q-82 0 -134 -70t-52 -180q0 -68 35 -115q34 -46 102 -46q56 0 99 33t52 82zM236 704h45q0 -56 69 -56q68 0 86 56h48q-10 -56 -46.5 -87.5t-90.5 -31.5q-49 0 -80 25t-33 67q0 13 2 27z" />
    <glyph glyph-name="Gdotaccent" unicode="&#x120;" 
d="M377 715q98 0 159 -67q62 -66 63 -172l-87 -8q-10 168 -141 168q-91 0 -155 -99q-64 -98 -64 -242q0 -104 43.5 -166t115.5 -62q75 0 124 54q49 55 63 141h-172l14 77h258l-10 -66q-19 -130 -94 -209t-186 -79q-110 0 -178 83q-67 83 -67 221q0 190 94 308t220 118z
M432 765h-96l16 96h97z" />
    <glyph glyph-name="gdotaccent" unicode="&#x121;" 
d="M56 -91l73 30q16 -54 46.5 -79.5t85.5 -25.5q120 0 145 138l14 72h-2q-51 -59 -141 -59q-93 0 -151 63q-58 62 -58 164q0 150 77 242q78 91 189 91q50 0 91 -19.5t63 -51.5h2l10 56h86l-93 -531q-22 -122 -79 -180.5t-160 -58.5q-77 0 -128.5 39.5t-69.5 109.5zM441 175
l28 162q9 51 -29 92q-38 42 -101 42q-82 0 -134 -70t-52 -180q0 -68 35 -115q34 -46 102 -46q56 0 99 33t52 82zM405 608h-96l16 96h97z" />
    <glyph glyph-name="Gcommaaccent" unicode="&#x122;" 
d="M377 715q98 0 159 -67q62 -66 63 -172l-87 -8q-10 168 -141 168q-91 0 -155 -99q-64 -98 -64 -242q0 -104 43.5 -166t115.5 -62q75 0 124 54q49 55 63 141h-172l14 77h258l-10 -66q-19 -130 -94 -209t-186 -79q-110 0 -178 83q-67 83 -67 221q0 190 94 308t220 118z
M224 -229l5 36q51 7 58 50h-50l16 92h102l-14 -78q-8 -49 -36 -73t-81 -27z" />
    <glyph glyph-name="gcommaaccent" unicode="&#x123;" 
d="M56 -91l73 30q16 -54 46.5 -79.5t85.5 -25.5q120 0 145 138l14 72h-2q-51 -59 -141 -59q-93 0 -151 63q-58 62 -58 164q0 150 77 242q78 91 189 91q50 0 91 -19.5t63 -51.5h2l10 56h86l-93 -531q-22 -122 -79 -180.5t-160 -58.5q-77 0 -128.5 39.5t-69.5 109.5zM441 175
l28 162q9 51 -29 92q-38 42 -101 42q-82 0 -134 -70t-52 -180q0 -68 35 -115q34 -46 102 -46q56 0 99 33t52 82zM395 597h-88l11 66q8 42 32.5 63t69.5 24l-4 -25q-44 -6 -50 -47h44z" />
    <glyph glyph-name="Hcircumflex" unicode="&#x124;" 
d="M111 0h-84l123 700h84l-53 -301h304l53 301h84l-123 -700h-84l57 326h-303zM394 835l-86 -87l-41 45l78 78h101l62 -86l-51 -37z" />
    <glyph glyph-name="hcircumflex" unicode="&#x125;" 
d="M158 0h-84l129 730h83l-44 -245h2q23 26 61 43t83 17q91 0 135 -59q45 -58 28 -150l-59 -336h-84l58 324q27 146 -99 146q-55 0 -97 -36t-52 -92zM423 669l-86 -87l-41 45l78 78h101l62 -87l-51 -36z" />
    <glyph glyph-name="Hbar" unicode="&#x126;" 
d="M137 0h-83l89 505h-50l13 73h50l21 122h83l-21 -122h252l21 122h83l-21 -122h50l-13 -73h-50l-89 -505h-83l57 325h-252zM226 505l-19 -106h252l19 106h-252z" />
    <glyph glyph-name="hbar" unicode="&#x127;" 
d="M165 0h-82l114 645h-67l10 55h67l5 30h82l-6 -30h139l-10 -55h-139l-28 -160h2q52 60 143 60q90 0 134 -59q43 -58 27 -150l-59 -336h-81l58 324q26 146 -99 146q-55 0 -97 -36t-52 -92z" />
    <glyph glyph-name="Itilde" unicode="&#x128;" 
d="M330 625h-167l13 75h420l-13 -75h-168l-97 -550h168l-13 -75h-420l13 75h167zM297 765h-46q33 94 103 94q29 0 60 -19t50 -19q26 0 40 33h46q-33 -94 -103 -94q-27 0 -61 19q-32 19 -49 19q-27 0 -40 -33z" />
    <glyph glyph-name="itilde" unicode="&#x129;" 
d="M251 603h-46q35 93 103 93q29 0 60 -19t50 -19q26 0 40 33h46q-33 -93 -103 -93q-27 0 -61 18q-32 19 -49 19q-26 0 -40 -32zM342 460h-178l12 70h261l-81 -460h174l-12 -70h-440l12 70h183z" />
    <glyph glyph-name="Imacron" unicode="&#x12a;" 
d="M330 625h-167l13 75h420l-13 -75h-168l-97 -550h168l-13 -75h-420l13 75h167zM539 765h-288l10 57h288z" />
    <glyph glyph-name="imacron" unicode="&#x12b;" 
d="M504 620h-288l10 57h288zM342 460h-178l12 70h261l-81 -460h174l-12 -70h-440l12 70h183z" />
    <glyph glyph-name="Ibreve" unicode="&#x12c;" 
d="M330 625h-167l13 75h420l-13 -75h-168l-97 -550h168l-13 -75h-420l13 75h167zM282 872h45q0 -56 69 -56q68 0 86 56h48q-10 -56 -46.5 -87.5t-90.5 -31.5q-49 0 -80 25t-33 67q0 13 2 27z" />
    <glyph glyph-name="ibreve" unicode="&#x12d;" 
d="M272 704h45q0 -56 69 -56q68 0 86 56h48q-10 -56 -46.5 -87.5t-90.5 -31.5q-49 0 -80 25t-33 67q0 13 2 27zM342 460h-178l12 70h261l-81 -460h174l-12 -70h-440l12 70h183z" />
    <glyph glyph-name="Iogonek" unicode="&#x12e;" 
d="M326 -119l32 -28q-53 -63 -119 -63q-44 0 -72 18t-28 55q0 76 99 137h-185l13 75h167l97 550h-167l13 75h420l-13 -75h-168l-97 -550h168l-13 -75h-180q-80 -72 -80 -117q0 -39 47 -39q32 0 66 37z" />
    <glyph glyph-name="iogonek" unicode="&#x12f;" 
d="M342 460h-178l12 70h261l-81 -460h174l-12 -70h-189q-80 -72 -80 -117q0 -39 47 -39q32 0 66 37l32 -28q-52 -63 -119 -63q-44 0 -72 18t-28 55q0 76 99 137h-196l12 70h183zM454 638h-93l16 92h93z" />
    <glyph glyph-name="Idot" unicode="&#x130;" 
d="M330 625h-167l13 75h420l-13 -75h-168l-97 -550h168l-13 -75h-420l13 75h167zM440 765h-96l16 96h97z" />
    <glyph glyph-name="dotlessi" unicode="&#x131;" 
d="M342 460h-178l12 70h261l-81 -460h174l-12 -70h-440l12 70h183z" />
    <glyph glyph-name="Jcircumflex" unicode="&#x134;" 
d="M483 625h-266l14 75h350l-84 -472q-43 -243 -239 -243q-91 0 -140 56t-47 150l82 6q3 -74 26 -104t84 -30q60 0 98 40.5t50 111.5zM440 835l-86 -87l-41 45l78 78h101l62 -86l-51 -37z" />
    <glyph glyph-name="jcircumflex" unicode="&#x135;" 
d="M381 457h-203l12 73h287l-94 -536q-33 -189 -193 -189q-54 0 -94 30q-42 29 -52 59l63 46q12 -19 18 -26q9 -11 29.5 -23t41.5 -12q81 0 104 124zM422 669l-86 -87l-41 45l78 78h101l62 -87l-51 -36z" />
    <glyph glyph-name="Kcommaaccent" unicode="&#x136;" 
d="M139 0h-83l123 700h83l-59 -337h2l338 337h109l-316 -312l216 -388h-96l-182 334h-2l-90 -94zM205 -229l5 36q51 7 58 50h-50l16 92h102l-14 -78q-8 -49 -36 -73t-81 -27z" />
    <glyph glyph-name="kcommaaccent" unicode="&#x137;" 
d="M184 0h-84l129 730h84l-78 -437h2l260 237h109l-236 -214l163 -316h-89l-136 268h-2l-89 -82zM236 -229l5 36q51 7 58 50h-50l16 92h102l-14 -78q-8 -49 -36 -73t-81 -27z" />
    <glyph glyph-name="kgreenlandic" unicode="&#x138;" 
d="M174 0h-80l94 530h81l-44 -238l265 238h106l-236 -214l163 -316h-86l-139 267l-91 -83z" />
    <glyph glyph-name="Lacute" unicode="&#x139;" 
d="M522 0h-419l123 700h84l-109 -626h334zM325 765h-71l78 121h100z" />
    <glyph glyph-name="lacute" unicode="&#x13a;" 
d="M367 657h-172l13 73h255l-116 -657h180l-13 -73h-440l13 73h177zM464 770h-71l78 121h100z" />
    <glyph glyph-name="Lcommaaccent" unicode="&#x13b;" 
d="M522 0h-419l123 700h84l-109 -626h334zM284 -229l5 36q51 7 58 50h-50l16 92h102l-14 -78q-8 -49 -36 -73t-81 -27z" />
    <glyph glyph-name="lcommaaccent" unicode="&#x13c;" 
d="M367 657h-172l13 73h255l-116 -657h180l-13 -73h-440l13 73h177zM210 -229l5 36q51 7 58 50h-50l16 92h102l-14 -78q-8 -49 -36 -73t-81 -27z" />
    <glyph glyph-name="Lcaron" unicode="&#x13d;" 
d="M522 0h-419l123 700h84l-109 -626h334zM501 579h-55l44 151h78z" />
    <glyph glyph-name="lcaron" unicode="&#x13e;" 
d="M367 657h-172l13 73h255l-116 -657h180l-13 -73h-440l13 73h177zM610 579h-55l44 151h78z" />
    <glyph glyph-name="Ldot" unicode="&#x13f;" 
d="M522 0h-419l123 700h84l-109 -626h334zM483 320h-117l21 116h117z" />
    <glyph glyph-name="ldot" unicode="&#x140;" 
d="M367 657h-172l13 73h255l-116 -657h180l-13 -73h-440l13 73h177zM574 322h-117l21 116h117z" />
    <glyph glyph-name="Lslash" unicode="&#x141;" 
d="M534 0h-386l59 337l-79 -55l-27 41l118 83l52 294h82l-42 -237l132 93l28 -41l-172 -120l-56 -321h305z" />
    <glyph glyph-name="lslash" unicode="&#x142;" 
d="M367 657h-172l13 73h255l-38 -215l85 59l27 -40l-123 -87l-1 -1l-66 -373h180l-13 -73h-440l13 73h177l56 318l-86 -59l-27 40l125 87z" />
    <glyph glyph-name="Nacute" unicode="&#x143;" 
d="M117 0h-80l123 700h90l182 -571h2l100 571h79l-123 -700h-90l-181 571h-2zM430 765h-71l78 121h100z" />
    <glyph glyph-name="nacute" unicode="&#x144;" 
d="M146 0h-83l93 530h80l-7 -48h2q25 27 65.5 45t85.5 18q86 0 134 -55q49 -55 33 -145l-60 -345h-83l59 332q12 68 -16.5 103t-89.5 35q-58 0 -100 -35.5t-52 -92.5zM432 595h-71l78 121h100z" />
    <glyph glyph-name="Ncommaaccent" unicode="&#x145;" 
d="M117 0h-80l123 700h90l182 -571h2l100 571h79l-123 -700h-90l-181 571h-2zM205 -229l5 36q51 7 58 50h-50l16 92h102l-14 -78q-8 -49 -36 -73t-81 -27z" />
    <glyph glyph-name="ncommaaccent" unicode="&#x146;" 
d="M146 0h-83l93 530h80l-7 -48h2q25 27 65.5 45t85.5 18q86 0 134 -55q49 -55 33 -145l-60 -345h-83l59 332q12 68 -16.5 103t-89.5 35q-58 0 -100 -35.5t-52 -92.5zM200 -229l5 36q51 7 58 50h-50l16 92h102l-14 -78q-8 -49 -36 -73t-81 -27z" />
    <glyph glyph-name="Ncaron" unicode="&#x147;" 
d="M117 0h-80l123 700h90l182 -571h2l100 571h79l-123 -700h-90l-181 571h-2zM442 765h-100l-62 87l50 36l63 -87l87 87l41 -45z" />
    <glyph glyph-name="ncaron" unicode="&#x148;" 
d="M146 0h-83l93 530h80l-7 -48h2q25 27 65.5 45t85.5 18q86 0 134 -55q49 -55 33 -145l-60 -345h-83l59 332q12 68 -16.5 103t-89.5 35q-58 0 -100 -35.5t-52 -92.5zM440 594h-100l-62 87l49 36l62 -87l87 87l43 -45z" />
    <glyph glyph-name="Eng" unicode="&#x14a;" 
d="M100 0h-81l123 700h71l239 -544h2l95 544h82l-135 -771q-12 -67 -47 -97.5t-98 -30.5h-36l15 81h33q27 0 40.5 13.5t20.5 48.5l12 64l-238 536h-2z" />
    <glyph glyph-name="eng" unicode="&#x14b;" 
d="M356 -202h-36l14 81h18q27 0 38 9.5t16 36.5l72 407q25 138 -108 138q-58 0 -100 -35.5t-52 -92.5l-60 -342h-82l93 530h79l-8 -47h2q23 26 64 44t85 18q91 0 137 -55.5t30 -148.5l-76 -431q-19 -112 -126 -112z" />
    <glyph glyph-name="Omacron" unicode="&#x14c;" 
d="M294 66q90 0 155 96q65 98 65 245q0 106 -41 168t-113 62q-92 0 -158 -98q-66 -97 -66 -246q0 -107 41.5 -167t116.5 -60zM293 -15q-112 0 -179 82q-66 82 -66 221q0 98 27 181.5t73 136.5q96 109 215 109q108 0 174 -84q66 -83 66 -219q0 -98 -27 -181.5t-73 -136.5
q-95 -109 -210 -109zM513 765h-288l10 57h288z" />
    <glyph glyph-name="omacron" unicode="&#x14d;" 
d="M298 59q80 0 135 64t55 179q0 75 -37.5 122t-100.5 47q-79 0 -135 -65q-55 -64 -55 -178q0 -75 37.5 -122t100.5 -47zM299 -15q-98 0 -160 68q-61 68 -61 176q0 144 79 229q79 87 193 87q100 0 160 -68q61 -67 61 -176q0 -142 -80 -230q-80 -86 -192 -86zM505 620h-288
l10 57h288z" />
    <glyph glyph-name="Obreve" unicode="&#x14e;" 
d="M294 66q90 0 155 96q65 98 65 245q0 106 -41 168t-113 62q-92 0 -158 -98q-66 -97 -66 -246q0 -107 41.5 -167t116.5 -60zM293 -15q-112 0 -179 82q-66 82 -66 221q0 98 27 181.5t73 136.5q96 109 215 109q108 0 174 -84q66 -83 66 -219q0 -98 -27 -181.5t-73 -136.5
q-95 -109 -210 -109zM262 872h45q0 -56 69 -56q68 0 86 56h48q-10 -56 -46.5 -87.5t-90.5 -31.5q-49 0 -80 25t-33 67q0 13 2 27z" />
    <glyph glyph-name="obreve" unicode="&#x14f;" 
d="M298 59q80 0 135 64t55 179q0 75 -37.5 122t-100.5 47q-79 0 -135 -65q-55 -64 -55 -178q0 -75 37.5 -122t100.5 -47zM299 -15q-98 0 -160 68q-61 68 -61 176q0 144 79 229q79 87 193 87q100 0 160 -68q61 -67 61 -176q0 -142 -80 -230q-80 -86 -192 -86zM260 704h45
q0 -56 69 -56q68 0 86 56h48q-10 -56 -46.5 -87.5t-90.5 -31.5q-49 0 -80 25t-33 67q0 13 2 27z" />
    <glyph glyph-name="Ohungarumlaut" unicode="&#x150;" 
d="M294 66q90 0 155 96q65 98 65 245q0 106 -41 168t-113 62q-92 0 -158 -98q-66 -97 -66 -246q0 -107 41.5 -167t116.5 -60zM293 -15q-112 0 -179 82q-66 82 -66 221q0 98 27 181.5t73 136.5q96 109 215 109q108 0 174 -84q66 -83 66 -219q0 -98 -27 -181.5t-73 -136.5
q-95 -109 -210 -109zM337 765h-62l75 115h91zM473 765h-62l75 115h91z" />
    <glyph glyph-name="ohungarumlaut" unicode="&#x151;" 
d="M298 59q80 0 135 64t55 179q0 75 -37.5 122t-100.5 47q-79 0 -135 -65q-55 -64 -55 -178q0 -75 37.5 -122t100.5 -47zM299 -15q-98 0 -160 68q-61 68 -61 176q0 144 79 229q79 87 193 87q100 0 160 -68q61 -67 61 -176q0 -142 -80 -230q-80 -86 -192 -86zM325 599h-62
l75 115h91zM461 599h-62l75 115h91z" />
    <glyph glyph-name="OE" unicode="&#x152;" 
d="M534 0h-243l8 47h-2q-39 -62 -106 -62q-45 0 -78 36.5t-48 119t10 215.5q30 169 101 264t144 95q34 0 56.5 -17.5t27.5 -44.5h2l8 47h243l-13 -76h-156l-39 -219h128l-13 -73h-128l-45 -256h156zM317 146l71 407q-2 36 -19 58t-46 22q-52 0 -94 -70t-65 -207
q-21 -110 -15 -174.5t24.5 -90t49.5 -25.5q59 0 94 80z" />
    <glyph glyph-name="oe" unicode="&#x153;" 
d="M413 -15q-45 0 -76.5 30t-37.5 79h-2q-22 -50 -59.5 -79.5t-77.5 -29.5q-57 0 -89 46t-32 132q0 149 60 265q60 117 144 117q42 0 71.5 -32t34.5 -81h2q56 113 138 113q50 0 80.5 -48t30.5 -133q0 -42 -8 -106l-3 -17h-227q-1 -5 -1 -59q0 -55 16 -89t43 -34q42 0 81 106
l66 -27q-54 -153 -154 -153zM165 59q50 0 87 91q38 93 38 215q0 50 -14 78t-38 28q-48 0 -87 -96t-39 -218q0 -98 53 -98zM373 307h153q5 28 5 63q0 44 -13.5 73t-36.5 29q-37 0 -68 -52t-40 -113z" />
    <glyph glyph-name="Racute" unicode="&#x154;" 
d="M136 0h-83l123 700h218q96 0 151.5 -48t55.5 -133q0 -93 -56.5 -154.5t-156.5 -79.5l109 -285h-90l-104 279h-118zM247 625l-48 -272h126q86 0 137.5 44t51.5 120q0 53 -34.5 80.5t-98.5 27.5h-134zM398 765h-71l78 121h100z" />
    <glyph glyph-name="racute" unicode="&#x155;" 
d="M208 0h-84l93 530h80l-13 -77h2q24 37 71 61.5t95 24.5q63 0 103.5 -36.5t47.5 -104.5l-89 -20q-14 78 -90 78q-58 0 -105 -44q-45 -42 -59 -117zM432 595h-71l78 121h100z" />
    <glyph glyph-name="Rcommaaccent" unicode="&#x156;" 
d="M136 0h-83l123 700h218q96 0 151.5 -48t55.5 -133q0 -93 -56.5 -154.5t-156.5 -79.5l109 -285h-90l-104 279h-118zM247 625l-48 -272h126q86 0 137.5 44t51.5 120q0 53 -34.5 80.5t-98.5 27.5h-134zM192 -229l5 36q51 7 58 50h-50l16 92h102l-14 -78q-8 -49 -36 -73
t-81 -27z" />
    <glyph glyph-name="rcommaaccent" unicode="&#x157;" 
d="M208 0h-84l93 530h80l-13 -77h2q24 37 71 61.5t95 24.5q63 0 103.5 -36.5t47.5 -104.5l-89 -20q-14 78 -90 78q-58 0 -105 -44q-45 -42 -59 -117zM80 -229l5 36q51 7 58 50h-50l16 92h102l-14 -78q-8 -49 -36 -73t-81 -27z" />
    <glyph glyph-name="Rcaron" unicode="&#x158;" 
d="M136 0h-83l123 700h218q96 0 151.5 -48t55.5 -133q0 -93 -56.5 -154.5t-156.5 -79.5l109 -285h-90l-104 279h-118zM247 625l-48 -272h126q86 0 137.5 44t51.5 120q0 53 -34.5 80.5t-98.5 27.5h-134zM413 765h-100l-62 87l50 36l63 -87l87 87l41 -45z" />
    <glyph glyph-name="rcaron" unicode="&#x159;" 
d="M208 0h-84l93 530h80l-13 -77h2q24 37 71 61.5t95 24.5q63 0 103.5 -36.5t47.5 -104.5l-89 -20q-14 78 -90 78q-58 0 -105 -44q-45 -42 -59 -117zM467 594h-100l-62 87l49 36l62 -87l87 87l43 -45z" />
    <glyph glyph-name="Sacute" unicode="&#x15a;" 
d="M60 250l88 10q2 -98 42 -147t126 -49q67 0 115 42t48 103q0 36 -29 65q-30 30 -114 61q-115 43 -161 82q-45 41 -45 107q0 77 63 134q65 57 170 57q98 0 162 -55q66 -56 67 -147l-86 -10q-4 62 -41 98.5t-105 36.5q-63 0 -103 -32.5t-40 -79.5q0 -35 29 -58
q26 -21 136 -64q104 -42 142 -83q41 -44 41 -109q0 -95 -70 -161q-71 -66 -183 -66q-120 0 -185.5 68.5t-66.5 196.5zM408 765h-71l78 121h100z" />
    <glyph glyph-name="sacute" unicode="&#x15b;" 
d="M87 182l79 12q16 -136 155 -136q72 0 112.5 28t40.5 72q0 23 -8.5 35.5t-41 27t-100.5 31.5q-107 27 -150 56q-42 28 -42 84q0 62 55 107q55 46 156 46q97 0 155 -46t65 -118l-76 -14q-18 108 -144 108q-62 0 -97.5 -23.5t-35.5 -57.5q0 -27 25 -40q28 -13 120 -38
q84 -22 130 -47q45 -23 55 -45q11 -24 11 -59q0 -75 -60 -127q-59 -53 -167 -53q-110 0 -172 56t-65 141zM399 595h-71l78 121h100z" />
    <glyph glyph-name="Scircumflex" unicode="&#x15c;" 
d="M60 250l88 10q2 -98 42 -147t126 -49q67 0 115 42t48 103q0 36 -29 65q-30 30 -114 61q-115 43 -161 82q-45 41 -45 107q0 77 63 134q65 57 170 57q98 0 162 -55q66 -56 67 -147l-86 -10q-4 62 -41 98.5t-105 36.5q-63 0 -103 -32.5t-40 -79.5q0 -35 29 -58
q26 -21 136 -64q104 -42 142 -83q41 -44 41 -109q0 -95 -70 -161q-71 -66 -183 -66q-120 0 -185.5 68.5t-66.5 196.5zM379 835l-86 -87l-41 45l78 78h101l62 -86l-51 -37z" />
    <glyph glyph-name="scircumflex" unicode="&#x15d;" 
d="M87 182l79 12q16 -136 155 -136q72 0 112.5 28t40.5 72q0 23 -8.5 35.5t-41 27t-100.5 31.5q-107 27 -150 56q-42 28 -42 84q0 62 55 107q55 46 156 46q97 0 155 -46t65 -118l-76 -14q-18 108 -144 108q-62 0 -97.5 -23.5t-35.5 -57.5q0 -27 25 -40q28 -13 120 -38
q84 -22 130 -47q45 -23 55 -45q11 -24 11 -59q0 -75 -60 -127q-59 -53 -167 -53q-110 0 -172 56t-65 141zM362 669l-86 -87l-41 45l78 78h101l62 -87l-51 -36z" />
    <glyph glyph-name="Scedilla" unicode="&#x15e;" 
d="M216 -172l31 40q32 -29 73 -29q58 0 58 43q0 17 -15.5 27t-38.5 10q-26 0 -47 -13l-6 -4l-34 18l39 67q-103 10 -159 78t-57 185l88 10q2 -98 42 -147t126 -49q67 0 115 42t48 103q0 36 -29 65q-30 30 -114 61q-115 43 -161 82q-45 41 -45 107q0 77 63 134q65 57 170 57
q98 0 162 -55q66 -56 67 -147l-86 -10q-4 62 -41 98.5t-105 36.5q-63 0 -103 -32.5t-40 -79.5q0 -35 29 -58q26 -21 136 -64q104 -42 142 -83q41 -44 41 -109q0 -93 -67 -159q-68 -65 -177 -68l-27 -43v-1q21 15 52 15q36 0 62 -20.5t26 -54.5q0 -44 -30 -69t-79 -25
q-68 0 -109 41z" />
    <glyph glyph-name="scedilla" unicode="&#x15f;" 
d="M245 -172l31 40q32 -29 73 -29q58 0 58 43q0 17 -15.5 27t-38.5 10q-26 0 -47 -13l-6 -4l-34 18l38 66q-100 4 -158 59q-56 56 -59 137l79 12q16 -136 155 -136q72 0 112.5 28t40.5 72q0 23 -8.5 35.5t-41 27t-100.5 31.5q-107 27 -150 56q-42 28 -42 84q0 62 55 107
q55 46 156 46q97 0 155 -46t65 -118l-76 -14q-18 108 -144 108q-62 0 -97.5 -23.5t-35.5 -57.5q0 -27 25 -40q28 -13 120 -38q84 -22 130 -47q45 -23 55 -45q11 -24 11 -59q0 -72 -53.5 -122t-146.5 -57l-28 -44v-1q21 15 52 15q36 0 62 -20.5t26 -54.5q0 -44 -30 -69
t-79 -25q-68 0 -109 41z" />
    <glyph glyph-name="Scaron" unicode="&#x160;" 
d="M60 250l88 10q2 -98 42 -147t126 -49q67 0 115 42t48 103q0 36 -29 65q-30 30 -114 61q-115 43 -161 82q-45 41 -45 107q0 77 63 134q65 57 170 57q98 0 162 -55q66 -56 67 -147l-86 -10q-4 62 -41 98.5t-105 36.5q-63 0 -103 -32.5t-40 -79.5q0 -35 29 -58
q26 -21 136 -64q104 -42 142 -83q41 -44 41 -109q0 -95 -70 -161q-71 -66 -183 -66q-120 0 -185.5 68.5t-66.5 196.5zM428 765h-100l-62 87l50 36l63 -87l87 87l41 -45z" />
    <glyph glyph-name="scaron" unicode="&#x161;" 
d="M87 182l79 12q16 -136 155 -136q72 0 112.5 28t40.5 72q0 23 -8.5 35.5t-41 27t-100.5 31.5q-107 27 -150 56q-42 28 -42 84q0 62 55 107q55 46 156 46q97 0 155 -46t65 -118l-76 -14q-18 108 -144 108q-62 0 -97.5 -23.5t-35.5 -57.5q0 -27 25 -40q28 -13 120 -38
q84 -22 130 -47q45 -23 55 -45q11 -24 11 -59q0 -75 -60 -127q-59 -53 -167 -53q-110 0 -172 56t-65 141zM417 594h-100l-62 87l49 36l62 -87l87 87l43 -45z" />
    <glyph glyph-name="Tcommaaccent" unicode="&#x162;" 
d="M312 0h-88l110 625h-233l12 75h553l-13 -75h-231zM181 -229l5 36q51 7 58 50h-50l16 92h102l-14 -78q-8 -49 -36 -73t-81 -27z" />
    <glyph glyph-name="tcommaaccent" unicode="&#x163;" 
d="M432 0h-59q-74 0 -105 24t-31 78q0 31 8 79l50 279h-168l11 70h171l26 130h78l-23 -130h191l-12 -70h-191l-43 -242q-12 -69 -12 -92q0 -26 14.5 -36.5t49.5 -10.5h59zM184 -229l5 36q51 7 58 50h-50l16 92h102l-14 -78q-8 -49 -36 -73t-81 -27z" />
    <glyph glyph-name="Tcaron" unicode="&#x164;" 
d="M312 0h-88l110 625h-233l12 75h553l-13 -75h-231zM448 765h-100l-62 87l50 36l63 -87l87 87l41 -45z" />
    <glyph glyph-name="tcaron" unicode="&#x165;" 
d="M432 0h-59q-74 0 -105 24t-31 78q0 31 8 79l50 279h-168l11 70h171l26 130h78l-23 -130h191l-12 -70h-191l-43 -242q-12 -69 -12 -92q0 -26 14.5 -36.5t49.5 -10.5h59zM553 579h-55l44 151h78z" />
    <glyph glyph-name="Tbar" unicode="&#x166;" 
d="M311 0h-86l60 340h-141l10 56h140l41 229h-224l12 75h528l-13 -75h-217l-41 -229h141l-9 -56h-141z" />
    <glyph glyph-name="tbar" unicode="&#x167;" 
d="M432 0h-59q-74 0 -105 24t-31 78q0 31 8 79l16 92h-167l11 65h168l22 122h-168l11 70h171l26 130h78l-23 -130h191l-12 -70h-191l-22 -122h191l-11 -65h-191l-10 -55q-12 -69 -12 -92q0 -26 14.5 -36.5t49.5 -10.5h59z" />
    <glyph glyph-name="Utilde" unicode="&#x168;" 
d="M60 224l84 476h86l-82 -466q-14 -84 21.5 -127t116.5 -43t130.5 44t64.5 126l82 466h86l-85 -485q-20 -111 -93.5 -170.5t-190.5 -59.5q-116 0 -178 65q-62 64 -42 174zM308 765h-46q33 94 103 94q29 0 60 -19t50 -19q26 0 40 33h46q-33 -94 -103 -94q-27 0 -61 19
q-32 19 -49 19q-26 0 -40 -33z" />
    <glyph glyph-name="utilde" unicode="&#x169;" 
d="M93 184l60 346h84l-60 -343q-23 -126 105 -126q126 0 151 136l58 333h84l-93 -530h-83l9 51h-2q-7 -10 -19 -21q-15 -14 -49 -29q-35 -16 -78 -16q-87 0 -136 49t-31 150zM277 603h-46q35 93 103 93q29 0 60 -19t50 -19q27 0 40 33h46q-33 -93 -103 -93q-27 0 -61 18
q-32 19 -49 19q-26 0 -40 -32z" />
    <glyph glyph-name="Umacron" unicode="&#x16a;" 
d="M60 224l84 476h86l-82 -466q-14 -84 21.5 -127t116.5 -43t130.5 44t64.5 126l82 466h86l-85 -485q-20 -111 -93.5 -170.5t-190.5 -59.5q-116 0 -178 65q-62 64 -42 174zM545 765h-288l10 57h288z" />
    <glyph glyph-name="umacron" unicode="&#x16b;" 
d="M93 184l60 346h84l-60 -343q-23 -126 105 -126q126 0 151 136l58 333h84l-93 -530h-83l9 51h-2q-7 -10 -19 -21q-15 -14 -49 -29q-35 -16 -78 -16q-87 0 -136 49t-31 150zM518 620h-288l10 57h288z" />
    <glyph glyph-name="Ubreve" unicode="&#x16c;" 
d="M60 224l84 476h86l-82 -466q-14 -84 21.5 -127t116.5 -43t130.5 44t64.5 126l82 466h86l-85 -485q-20 -111 -93.5 -170.5t-190.5 -59.5q-116 0 -178 65q-62 64 -42 174zM294 872h45q0 -56 69 -56q68 0 86 56h48q-10 -56 -46.5 -87.5t-90.5 -31.5q-49 0 -80 25t-33 67
q0 13 2 27z" />
    <glyph glyph-name="ubreve" unicode="&#x16d;" 
d="M93 184l60 346h84l-60 -343q-23 -126 105 -126q126 0 151 136l58 333h84l-93 -530h-83l9 51h-2q-7 -10 -19 -21q-15 -14 -49 -29q-35 -16 -78 -16q-87 0 -136 49t-31 150zM251 704h45q0 -56 69 -56q68 0 86 56h48q-10 -56 -46.5 -87.5t-90.5 -31.5q-49 0 -80 25t-33 67
q0 13 2 27z" />
    <glyph glyph-name="Uring" unicode="&#x16e;" 
d="M60 224l84 476h86l-82 -466q-14 -84 21.5 -127t116.5 -43t130.5 44t64.5 126l82 466h86l-85 -485q-20 -111 -93.5 -170.5t-190.5 -59.5q-116 0 -178 65q-62 64 -42 174zM397 685q-39 0 -64.5 25.5t-25.5 62.5q0 49 30.5 82t77.5 33q39 0 64.5 -25.5t25.5 -62.5
q0 -50 -30 -82.5t-78 -32.5zM399 729q23 0 39 19.5t16 50.5q0 21 -11.5 33t-29.5 12q-24 0 -39.5 -19t-15.5 -51q0 -20 12 -32.5t29 -12.5z" />
    <glyph glyph-name="uring" unicode="&#x16f;" 
d="M93 184l60 346h84l-60 -343q-23 -126 105 -126q126 0 151 136l58 333h84l-93 -530h-83l9 51h-2q-7 -10 -19 -21q-15 -14 -49 -29q-35 -16 -78 -16q-87 0 -136 49t-31 150zM361 523q-39 0 -64.5 25.5t-25.5 63.5q0 49 30.5 82t77.5 33q39 0 64.5 -26t25.5 -63
q0 -50 -30 -82.5t-78 -32.5zM363 567q23 0 39 19.5t16 50.5q0 21 -11.5 33t-29.5 12q-24 0 -39.5 -19t-15.5 -51q0 -20 12 -32.5t29 -12.5z" />
    <glyph glyph-name="Uhungarumlaut" unicode="&#x170;" 
d="M60 224l84 476h86l-82 -466q-14 -84 21.5 -127t116.5 -43t130.5 44t64.5 126l82 466h86l-85 -485q-20 -111 -93.5 -170.5t-190.5 -59.5q-116 0 -178 65q-62 64 -42 174zM362 765h-62l75 115h91zM498 765h-62l75 115h91z" />
    <glyph glyph-name="uhungarumlaut" unicode="&#x171;" 
d="M93 184l60 346h84l-60 -343q-23 -126 105 -126q126 0 151 136l58 333h84l-93 -530h-83l9 51h-2q-7 -10 -19 -21q-15 -14 -49 -29q-35 -16 -78 -16q-87 0 -136 49t-31 150zM334 611h-62l75 115h91zM470 611h-62l75 115h91z" />
    <glyph glyph-name="Uogonek" unicode="&#x172;" 
d="M361 -119l32 -28q-53 -63 -119 -63q-44 0 -72 18t-28 55q0 67 78 123q-105 8 -157 72q-53 65 -35 166l84 476h86l-82 -466q-14 -84 21.5 -127t116.5 -43t130.5 44t64.5 126l82 466h86l-85 -485q-18 -102 -82.5 -161t-168.5 -67q-65 -62 -65 -104q0 -39 47 -39q32 0 66 37
z" />
    <glyph glyph-name="uogonek" unicode="&#x173;" 
d="M515 -119l32 -28q-53 -63 -119 -63q-44 0 -72 18t-28 55q0 76 99 137h-28l9 51h-2q-7 -10 -19 -21q-15 -14 -49 -29q-35 -16 -78 -16q-87 0 -136 49t-31 150l60 346h84l-60 -343q-23 -126 105 -126q126 0 151 136l58 333h84l-93 -530q-80 -72 -80 -117q0 -39 47 -39
q32 0 66 37z" />
    <glyph glyph-name="Wcircumflex" unicode="&#x174;" 
d="M182 0h-98l44 700h85l-47 -578h2l172 408h53l29 -408h2l155 578h85l-202 -700h-97l-26 370h-2zM418 835l-86 -87l-41 45l78 78h101l62 -86l-51 -37z" />
    <glyph glyph-name="wcircumflex" unicode="&#x175;" 
d="M201 0h-77l6 530h79l-15 -399h2l111 229h74l29 -229h2l135 399h82l-190 -530h-74l-35 263h-2zM396 669l-86 -87l-41 45l78 78h101l62 -87l-51 -36z" />
    <glyph glyph-name="Ycircumflex" unicode="&#x176;" 
d="M307 0h-88l52 295l-159 405h91l121 -325h2l233 325h101l-301 -405zM398 835l-86 -87l-41 45l78 78h101l62 -86l-51 -37z" />
    <glyph glyph-name="ycircumflex" unicode="&#x177;" 
d="M193 -225h-87l148 267l-118 488h84l90 -387h2l205 387h94zM393 669l-86 -87l-41 45l78 78h101l62 -87l-51 -36z" />
    <glyph glyph-name="Ydieresis" unicode="&#x178;" 
d="M307 0h-88l52 295l-159 405h91l121 -325h2l233 325h101l-301 -405zM324 765h-90l16 91h91zM517 765h-91l16 91h91z" />
    <glyph glyph-name="Zacute" unicode="&#x179;" 
d="M514 0h-501l11 67l491 556v3h-369l13 74h480l-11 -67l-491 -551v-2h392zM429 765h-71l78 121h100z" />
    <glyph glyph-name="zacute" unicode="&#x17a;" 
d="M500 -1l-445 1l11 63l403 393v2h-314l11 72h430l-11 -62l-398 -389v-2h328zM400 595h-71l78 121h100z" />
    <glyph glyph-name="Zdotaccent" unicode="&#x17b;" 
d="M514 0h-501l11 67l491 556v3h-369l13 74h480l-11 -67l-491 -551v-2h392zM452 765h-96l16 96h97z" />
    <glyph glyph-name="zdotaccent" unicode="&#x17c;" 
d="M500 -1l-445 1l11 63l403 393v2h-314l11 72h430l-11 -62l-398 -389v-2h328zM437 608h-96l16 96h97z" />
    <glyph glyph-name="Zcaron" unicode="&#x17d;" 
d="M514 0h-501l11 67l491 556v3h-369l13 74h480l-11 -67l-491 -551v-2h392zM455 765h-100l-62 87l50 36l63 -87l87 87l41 -45z" />
    <glyph glyph-name="zcaron" unicode="&#x17e;" 
d="M500 -1l-445 1l11 63l403 393v2h-314l11 72h430l-11 -62l-398 -389v-2h328zM438 594h-100l-62 87l49 36l62 -87l87 87l43 -45z" />
    <glyph glyph-name="longs" unicode="&#x17f;" 
d="M300 0h-81l81 458h-160l12 72h161l11 60q11 59 43.5 84.5t91.5 25.5h127l-14 -74h-111q-30 0 -42.5 -12t-19.5 -50z" />
    <glyph glyph-name="florin" unicode="&#x192;" 
d="M268 -173h-80l100 572h-98l11 66h98l25 132q28 148 141 148q67 0 116 -57l-48 -55q-30 36 -62 36q-29 0 -45.5 -19t-25.5 -66l-21 -119h143l-11 -66h-143z" />
    <glyph glyph-name="Aringacute" unicode="&#x1fa;" 
d="M580 0h-84l-26 141h-318l-74 -141h-89l373 697q-43 25 -43 76q0 49 29.5 81.5t75.5 33.5l54 83h100l-92 -104q31 -25 31 -67q0 -37 -17.5 -66t-47.5 -41zM390 590h-2l-201 -381h271zM411 729q23 0 39 19.5t16 50.5q0 21 -11.5 33t-29.5 12q-24 0 -39.5 -19t-15.5 -51
q0 -20 12 -32.5t29 -12.5z" />
    <glyph glyph-name="aringacute" unicode="&#x1fb;" 
d="M572 530l-93 -530h-74l10 61h-2q-20 -32 -59.5 -54t-92.5 -22q-70 0 -121 54t-51 153q0 128 61 225t154 121q-38 26 -38 74q0 47 28.5 80t72.5 35l56 86h100l-93 -105q34 -28 34 -70q0 -72 -54 -102q45 -17 67 -54h3l9 48h83zM441 256l12 69q11 69 -15 107.5t-86 38.5
q-73 0 -128 -82q-55 -80 -55 -196q0 -58 28 -95t71 -37q53 0 104 48q52 48 69 147zM358 567q23 0 39 19.5t16 50.5q0 21 -11.5 33t-29.5 12q-24 0 -39.5 -19t-15.5 -51q0 -20 12 -32.5t29 -12.5z" />
    <glyph glyph-name="AEacute" unicode="&#x1fc;" 
d="M65 0h-84l385 700h301l-13 -76h-169l-40 -227h141l-13 -73h-141l-44 -248h169l-13 -76h-248l26 149h-176zM412 637l-228 -416h151l79 416h-2zM462 765h-71l78 121h100z" />
    <glyph glyph-name="aeacute" unicode="&#x1fd;" 
d="M175 302q52 22 76 38q41 28 41 74q0 27 -14.5 43t-38.5 16q-32 0 -57.5 -27.5t-39.5 -75.5l-66 21q18 67 65 111q46 43 100 43q42 0 72 -23.5t37 -59.5h3q23 36 58.5 59.5t76.5 23.5q56 0 87.5 -46.5t31.5 -131.5q0 -39 -10 -107l-3 -19h-251q-5 -37 -5 -58
q0 -57 19.5 -90.5t57.5 -33.5q54 0 100 112l65 -30q-62 -156 -170 -156q-100 0 -127 105h-3q-31 -52 -67 -78.5t-86 -26.5t-80 32t-30 84q0 139 158 201zM357 307h174q7 32 7 67q0 98 -61 98q-44 0 -77 -54q-32 -51 -43 -111zM181 235q-87 -43 -87 -127q0 -22 14.5 -36
t38.5 -14q37 0 68 37q32 38 41 85l22 118h-2q-8 -19 -95 -63zM290 595h-71l78 121h100z" />
    <glyph glyph-name="Oslashacute" unicode="&#x1fe;" 
d="M293 -15q-99 0 -162 63l-30 -41l-39 27l38 52q-52 77 -52 202q0 98 27 181.5t73 136.5q96 109 215 109q90 0 155 -62l29 40l37 -27l-36 -49q55 -82 55 -205q0 -98 -27 -181.5t-73 -136.5q-95 -109 -210 -109zM294 66q90 0 155 96q65 98 65 245q0 77 -22 133l-309 -421
q41 -53 111 -53zM136 293q0 -76 21 -130l310 421q-41 53 -107 53q-92 0 -158 -98q-66 -97 -66 -246zM419 765h-71l78 121h100z" />
    <glyph glyph-name="oslashacute" unicode="&#x1ff;" 
d="M396 595h-71l78 121h100zM102 16l-29 29l43 42q-38 61 -38 142q0 144 79 229q79 87 191 87q98 0 160 -71l40 38l28 -30l-44 -42q35 -62 35 -139q0 -144 -79 -230q-78 -86 -190 -86q-98 0 -157 69zM173 146l280 271q-37 54 -105 54q-79 0 -135 -65q-55 -64 -55 -178
q0 -48 15 -82zM474 380l-279 -269q37 -52 102 -52q80 0 135 64t55 179q0 45 -13 78z" />
    <glyph glyph-name="Scommaaccent" unicode="&#x218;" 
d="M60 250l88 10q2 -98 42 -147t126 -49q67 0 115 42t48 103q0 36 -29 65q-30 30 -114 61q-115 43 -161 82q-45 41 -45 107q0 77 63 134q65 57 170 57q98 0 162 -55q66 -56 67 -147l-86 -10q-4 62 -41 98.5t-105 36.5q-63 0 -103 -32.5t-40 -79.5q0 -35 29 -58
q26 -21 136 -64q104 -42 142 -83q41 -44 41 -109q0 -95 -70 -161q-71 -66 -183 -66q-120 0 -185.5 68.5t-66.5 196.5zM235 -229l5 36q51 7 58 50h-50l16 92h102l-14 -78q-8 -49 -36 -73t-81 -27z" />
    <glyph glyph-name="scommaaccent" unicode="&#x219;" 
d="M87 182l79 12q16 -136 155 -136q72 0 112.5 28t40.5 72q0 23 -8.5 35.5t-41 27t-100.5 31.5q-107 27 -150 56q-42 28 -42 84q0 62 55 107q55 46 156 46q97 0 155 -46t65 -118l-76 -14q-18 108 -144 108q-62 0 -97.5 -23.5t-35.5 -57.5q0 -27 25 -40q28 -13 120 -38
q84 -22 130 -47q45 -23 55 -45q11 -24 11 -59q0 -75 -60 -127q-59 -53 -167 -53q-110 0 -172 56t-65 141zM239 -229l5 36q51 7 58 50h-50l16 92h102l-14 -78q-8 -49 -36 -73t-81 -27z" />
    <glyph glyph-name="dotlessj" unicode="&#x237;" 
d="M381 457h-203l12 73h287l-94 -536q-33 -189 -193 -189q-54 0 -94 30q-42 29 -52 59l63 46q12 -19 18 -26q9 -11 29.5 -23t41.5 -12q81 0 104 124z" />
    <glyph glyph-name="circumflex" unicode="&#x2c6;" 
d="M331 669l-86 -87l-41 45l78 78h101l62 -87l-51 -36z" />
    <glyph glyph-name="caron" unicode="&#x2c7;" 
d="M366 594h-100l-62 87l49 36l62 -87l87 87l43 -45z" />
    <glyph glyph-name="breve" unicode="&#x2d8;" 
d="M202 704h45q0 -56 69 -56q68 0 86 56h48q-10 -56 -46.5 -87.5t-90.5 -31.5q-49 0 -80 25t-33 67q0 13 2 27z" />
    <glyph glyph-name="dotaccent" unicode="&#x2d9;" 
d="M364 608h-96l16 96h97z" />
    <glyph glyph-name="ring" unicode="&#x2da;" 
d="M316 523q-39 0 -64.5 25.5t-25.5 63.5q0 49 30.5 82t77.5 33q39 0 64.5 -26t25.5 -63q0 -50 -30 -82.5t-78 -32.5zM318 567q23 0 39 19.5t16 50.5q0 21 -11.5 33t-29.5 12q-24 0 -39.5 -19t-15.5 -51q0 -20 12 -32.5t29 -12.5z" />
    <glyph glyph-name="ogonek" unicode="&#x2db;" 
d="M402 -119l32 -28q-52 -63 -119 -63q-44 0 -72 18t-28 55q0 76 99 137h55q-80 -72 -80 -117q0 -39 47 -39q32 0 66 37z" />
    <glyph glyph-name="tilde" unicode="&#x2dc;" 
d="M221 603h-46q35 93 103 93q29 0 60 -19t50 -19q27 0 40 33h46q-33 -93 -103 -93q-27 0 -61 18q-32 19 -49 19q-26 0 -40 -32z" />
    <glyph glyph-name="hungarumlaut" unicode="&#x2dd;" 
d="M236 595h-62l75 115h91zM372 595h-62l75 115h91z" />
    <glyph glyph-name="uni0312" unicode="&#x312;" 
d="M356 597h-88l11 66q8 42 32.5 63t69.5 24l-4 -25q-44 -6 -50 -47h44z" />
    <glyph glyph-name="pi" unicode="&#x3c0;" 
d="M194 86l-24 -86h-85l10 35q4 12 23 93t29 140q11 60 23 167q11 102 11 184h-108v81h504v-81h-79v-470q0 -93 13 -149h-81q-17 31 -17 143v476h-147q0 -137 -24 -292q-24 -157 -48 -241z" />
    <glyph glyph-name="Wgrave" unicode="&#x1e80;" 
d="M182 0h-98l44 700h85l-47 -578h2l172 408h53l29 -408h2l155 578h85l-202 -700h-97l-26 370h-2zM432 765h-71l-107 121h100z" />
    <glyph glyph-name="wgrave" unicode="&#x1e81;" 
d="M201 0h-77l6 530h79l-15 -399h2l111 229h74l29 -229h2l135 399h82l-190 -530h-74l-35 263h-2zM421 595h-71l-107 121h100z" />
    <glyph glyph-name="Wacute" unicode="&#x1e82;" 
d="M182 0h-98l44 700h85l-47 -578h2l172 408h53l29 -408h2l155 578h85l-202 -700h-97l-26 370h-2zM450 765h-71l78 121h100z" />
    <glyph glyph-name="wacute" unicode="&#x1e83;" 
d="M201 0h-77l6 530h79l-15 -399h2l111 229h74l29 -229h2l135 399h82l-190 -530h-74l-35 263h-2zM419 595h-71l78 121h100z" />
    <glyph glyph-name="Wdieresis" unicode="&#x1e84;" 
d="M182 0h-98l44 700h85l-47 -578h2l172 408h53l29 -408h2l155 578h85l-202 -700h-97l-26 370h-2zM354 765h-90l16 91h91zM547 765h-91l16 91h91z" />
    <glyph glyph-name="wdieresis" unicode="&#x1e85;" 
d="M201 0h-77l6 530h79l-15 -399h2l111 229h74l29 -229h2l135 399h82l-190 -530h-74l-35 263h-2zM338 612h-90l15 90h91zM531 612h-91l15 90h91z" />
    <glyph glyph-name="Ygrave" unicode="&#x1ef2;" 
d="M307 0h-88l52 295l-159 405h91l121 -325h2l233 325h101l-301 -405zM415 765h-71l-107 121h100z" />
    <glyph glyph-name="ygrave" unicode="&#x1ef3;" 
d="M193 -225h-87l148 267l-118 488h84l90 -387h2l205 387h94zM411 595h-71l-107 121h100z" />
    <glyph glyph-name="endash" unicode="&#x2013;" 
d="M538 306h-439l13 72h439z" />
    <glyph glyph-name="emdash" unicode="&#x2014;" 
d="M583 306h-529l13 72h529z" />
    <glyph glyph-name="quoteleft" unicode="&#x2018;" 
d="M257 598l17 102h121l-19 -115h-48q-11 -58 37 -65l-9 -51q-55 6 -82 39.5t-17 89.5z" />
    <glyph glyph-name="quoteright" unicode="&#x2019;" 
d="M244 469l10 55q49 9 59 61h-49l20 115h122l-20 -110q-19 -111 -142 -121z" />
    <glyph glyph-name="quotesinglbase" unicode="&#x201a;" 
d="M244 -116l10 55q49 9 59 61h-49l20 115h122l-20 -110q-19 -111 -142 -121z" />
    <glyph glyph-name="quotedblleft" unicode="&#x201c;" 
d="M347 598l17 102h121l-19 -115h-48q-11 -58 37 -65l-9 -51q-55 6 -82 39.5t-17 89.5zM167 598l17 102h121l-19 -115h-48q-11 -58 37 -65l-9 -51q-55 6 -82 39.5t-17 89.5z" />
    <glyph glyph-name="quotedblright" unicode="&#x201d;" 
d="M334 472l10 55q49 9 59 61h-49l20 115h122l-20 -110q-19 -111 -142 -121zM153 472l10 55q49 9 59 61h-49l20 115h122l-20 -110q-19 -111 -142 -121z" />
    <glyph glyph-name="quotedblbase" unicode="&#x201e;" 
d="M335 -116l10 55q49 9 59 61h-49l20 115h122l-20 -110q-19 -111 -142 -121zM153 -116l10 55q49 9 59 61h-49l20 115h122l-20 -110q-19 -111 -142 -121z" />
    <glyph glyph-name="dagger" unicode="&#x2020;" 
d="M261 -225h-77l116 654h-219l12 72h219l41 229h77l-41 -229h219l-12 -72h-219z" />
    <glyph glyph-name="daggerdbl" unicode="&#x2021;" 
d="M270 -225h-77l40 225h-219l12 68h219l65 365h-219l11 68h219l41 229h77l-41 -229h219l-11 -68h-219l-65 -365h219l-12 -68h-219z" />
    <glyph glyph-name="bullet" unicode="&#x2022;" 
d="M324 267q-39 0 -64 26t-25 66t25 66t64 26q41 0 66 -26t25 -66t-25 -66t-66 -26z" />
    <glyph glyph-name="ellipsis" unicode="&#x2026;" 
d="M143 0h-115l20 115h116zM345 0h-115l20 115h116zM542 0h-116l21 115h115z" />
    <glyph glyph-name="perthousand" unicode="&#x2030;" 
d="M115 11q0 108 42 170.5t107 62.5q56 0 87 -58q40 58 104 58q51 0 81 -47t30 -124q0 -108 -42 -170.5t-107 -62.5q-56 0 -87 58q-40 -58 -104 -58q-51 0 -81 47t-30 124zM70 630q0 108 42 170.5t107 62.5q51 0 81 -47t30 -124q0 -108 -42 -170.5t-107 -62.5q-51 0 -81 47
t-30 124zM462 448l-372 -216l-34 60l372 216zM138 636q0 -58 9.5 -86t34.5 -28q38 0 59 43.5t21 123.5q0 111 -44 111q-38 0 -59 -43t-21 -121zM183 17q0 -58 9.5 -86t34.5 -28q38 0 59 43.5t21 123.5q0 111 -44 111q-38 0 -59 -43t-21 -121zM374 17q0 -58 9.5 -86t34.5 -28
q38 0 59 43.5t21 123.5q0 111 -44 111q-38 0 -59 -43t-21 -121z" />
    <glyph glyph-name="guilsinglleft" unicode="&#x2039;" 
d="M365 87h-76l-78 211l138 163h90l-149 -173z" />
    <glyph glyph-name="guilsinglright" unicode="&#x203a;" 
d="M299 87h-90l152 178l-75 196h77l78 -206z" />
    <glyph glyph-name="fraction" unicode="&#x2044;" 
d="M535 320h-430l9 60h430z" />
    <glyph glyph-name="zerosuperior" unicode="&#x2070;" 
d="M299 468q-63 0 -101 42t-38 123q0 110 52 190q52 82 140 82q61 0 99.5 -42.5t38.5 -121.5q0 -113 -52 -193q-51 -80 -139 -80zM305 532q52 1 84 60.5t34 130.5l-194 -125q13 -66 76 -66zM344 843q-50 0 -82 -57q-31 -55 -36 -125l192 123q-17 59 -74 59z" />
    <glyph glyph-name="foursuperior" unicode="&#x2074;" 
d="M364 563h-205l11 61l216 276h101l-49 -278h52l-11 -59h-50l-14 -90h-66zM414 853l-180 -231h139l43 231h-2z" />
    <glyph glyph-name="fivesuperior" unicode="&#x2075;" 
d="M167 597l62 17q16 -85 91 -85q45 0 72.5 29t27.5 74q0 36 -22 57.5t-59 21.5q-59 0 -93 -39l-49 32l62 196h220l-12 -61h-168l-34 -105q1 0 1 -0.5t1 -0.5q37 28 83 28q58 0 95.5 -35t37.5 -92q0 -74 -46 -120q-45 -46 -118 -46q-61 0 -103 35.5t-49 93.5z" />
    <glyph glyph-name="sixsuperior" unicode="&#x2076;" 
d="M317 528q40 0 68.5 28t28.5 70q0 34 -22 57.5t-61 23.5q-42 0 -70 -27.5t-28 -66.5q0 -38 23.5 -61.5t60.5 -23.5zM234 713q1 -1 2 -1q6 8 14 15q38 30 91 30q60 0 97.5 -36.5t37.5 -93.5q0 -70 -46 -115q-46 -44 -114 -44t-111 46t-43 124q0 113 56 190q57 77 141 77
q60 0 93.5 -36.5t35.5 -90.5l-59 -7q-9 76 -73 76q-44 0 -77 -36t-45 -98z" />
    <glyph glyph-name="sevensuperior" unicode="&#x2077;" 
d="M237 473h-76l248 364v2h-215l11 61h284l-11 -66z" />
    <glyph glyph-name="eightsuperior" unicode="&#x2078;" 
d="M345 730q33 0 53 17t20 46q0 57 -64 57q-33 0 -53 -18t-20 -46q0 -25 17 -40.5t47 -15.5zM404 610q0 29 -22 48t-58 19q-39 0 -65.5 -23t-26.5 -58q0 -32 21 -50t61 -18t65 22.5t25 59.5zM307 468q-60 0 -98.5 32.5t-38.5 85.5q0 47 28 81t70 43v2q-47 27 -47 78
q0 48 38 81.5t99 33.5q57 0 89 -30t32 -77q0 -70 -72 -95v-2q27 -12 43.5 -38.5t16.5 -59.5q0 -61 -44 -98t-116 -37z" />
    <glyph glyph-name="ninesuperior" unicode="&#x2079;" 
d="M168 584l62 13q9 -70 73 -70q42 0 71 37t39 100h-2q-32 -45 -104 -45q-51 0 -88 34t-37 97q0 68 45 111q47 44 111 44t104 -47t40 -126q0 -119 -50 -192q-50 -72 -131 -72q-58 0 -93.5 31t-39.5 85zM318 675q43 0 69 24.5t26 62.5t-21.5 61.5t-56.5 23.5q-39 0 -65 -28
t-26 -67q0 -32 21.5 -54.5t52.5 -22.5z" />
    <glyph glyph-name="plussuperior" unicode="&#x207a;" 
d="M324 517h-63l27 156h-136l10 57h136l24 137h63l-24 -137h136l-10 -57h-136z" />
    <glyph glyph-name="minussuperior" unicode="&#x207b;" 
d="M477 730l-10 -57h-295l10 57h295z" />
    <glyph glyph-name="zeroinferior" unicode="&#x2080;" 
d="M299 -205q-63 0 -101 42t-38 123q0 110 52 190q52 82 140 82q61 0 99.5 -42.5t38.5 -121.5q0 -113 -52 -192q-51 -81 -139 -81zM305 -141q51 0 83 60q32 59 35 131l-194 -125q13 -66 76 -66zM344 170q-50 0 -82 -57q-31 -55 -36 -125l192 123q-17 59 -74 59z" />
    <glyph glyph-name="oneinferior" unicode="&#x2081;" 
d="M449 -200h-288l11 66h114l51 282l-103 -54l14 76l108 57h59l-65 -361h110z" />
    <glyph glyph-name="twoinferior" unicode="&#x2082;" 
d="M439 -200h-282l9 49q11 65 39 98q29 33 101 62q73 29 96 50q26 23 26 54q0 27 -19.5 43t-50.5 16q-74 0 -94 -84l-62 15q10 59 52.5 94t101.5 35q62 0 99.5 -33t37.5 -85q0 -54 -35.5 -87t-115.5 -65q-59 -24 -78 -43q-21 -21 -25 -53h212z" />
    <glyph glyph-name="threeinferior" unicode="&#x2083;" 
d="M166 -50l63 9q5 -105 92 -105q41 0 63 21.5t22 60.5q0 62 -76 62h-24l10 54h25q37 0 58 18t21 52q0 23 -17 37.5t-46 14.5q-63 0 -82 -66l-57 17q10 47 47.5 77t92.5 30q54 0 89.5 -29t35.5 -72q1 -36 -19.5 -64t-54.5 -40v-2q25 -9 42.5 -34t17.5 -57q0 -64 -39 -101.5
t-110 -37.5q-72 0 -112 41t-42 114z" />
    <glyph glyph-name="fourinferior" unicode="&#x2084;" 
d="M364 -110h-205l11 61l216 276h101l-49 -278h52l-11 -59h-50l-14 -90h-66zM414 180l-180 -231h139l43 231h-2z" />
    <glyph glyph-name="fiveinferior" unicode="&#x2085;" 
d="M167 -76l62 17q16 -85 91 -85q45 0 72.5 29t27.5 74q0 36 -22 57.5t-59 21.5q-59 0 -93 -39l-49 32l62 196h220l-12 -61h-168l-34 -105q1 0 1 -0.5t1 -0.5q37 28 83 28q58 0 95.5 -35t37.5 -92q0 -75 -45.5 -120.5t-118.5 -45.5q-61 0 -103 35.5t-49 93.5z" />
    <glyph glyph-name="sixinferior" unicode="&#x2086;" 
d="M317 -146q40 0 68.5 28t28.5 70q0 34 -22 57.5t-61 23.5q-42 0 -70 -27.5t-28 -66.5q0 -38 23.5 -61.5t60.5 -23.5zM234 39q1 -1 2 -1q6 8 14 15q38 30 91 30q60 0 97.5 -36.5t37.5 -93.5q0 -71 -46 -114q-45 -45 -114 -45q-68 0 -111 46t-43 124q0 113 56 190
q57 77 141 77q60 0 93.5 -36.5t35.5 -90.5l-59 -7q-9 76 -73 76q-44 0 -77 -36t-45 -98z" />
    <glyph glyph-name="seveninferior" unicode="&#x2087;" 
d="M237 -200h-76l248 364v2h-215l11 61h284l-11 -66z" />
    <glyph glyph-name="eightinferior" unicode="&#x2088;" 
d="M345 57q33 0 53 17t20 46q0 57 -64 57q-33 0 -53 -18t-20 -46q0 -25 17 -40.5t47 -15.5zM404 -63q0 29 -22 48t-58 19q-39 0 -65.5 -23t-26.5 -58q0 -32 21 -50t61 -18t65 22.5t25 59.5zM307 -205q-60 0 -98.5 32.5t-38.5 85.5q0 47 28 81t70 43v2q-47 27 -47 78
q0 48 38 81.5t99 33.5q57 0 89 -30t32 -77q0 -69 -72 -95v-2q27 -12 43.5 -38.5t16.5 -59.5q0 -61 -44 -98t-116 -37z" />
    <glyph glyph-name="nineinferior" unicode="&#x2089;" 
d="M168 -89l62 13q9 -70 73 -70q42 0 71 37t39 100h-2q-32 -45 -104 -45q-51 0 -88 34t-37 97q0 67 45 111q47 44 111 44t104 -47t40 -126q0 -119 -50 -192q-50 -72 -131 -72q-58 0 -93.5 31t-39.5 85zM318 2q43 0 69 24.5t26 62.5t-21.5 61.5t-56.5 23.5q-39 0 -65 -28
t-26 -67q0 -32 21.5 -54.5t52.5 -22.5z" />
    <glyph glyph-name="Euro" unicode="&#x20ac;" 
d="M421 389h-227q-8 -59 -8 -87h220l-12 -67h-203q10 -79 46 -124t92 -45q54 0 91.5 49t55.5 134l89 -18q-21 -118 -83 -182t-162 -64q-91 0 -150 68q-60 69 -70 182h-51l12 67h37q0 41 7 87h-29l12 67h31q33 120 105 189q73 70 162 70q94 0 153 -68q59 -67 57 -177l-87 -5
q-5 172 -126 172q-54 0 -101 -49.5t-72 -131.5h223z" />
    <glyph glyph-name="trademark" unicode="&#x2122;" 
d="M197 361h-56l50 286h-74l9 53h198l-9 -53h-68zM350 361h-56l59 339h74l31 -132h2l76 132h81l-59 -339h-56l46 263h-2l-78 -138h-40l-30 137h-2z" />
    <glyph glyph-name="Omega" unicode="&#x2126;" 
d="M280 0h-221v70h122q-55 38 -90 116q-35 81 -35 175q0 172 76 263t193 91q116 0 192 -91q77 -92 77 -263q0 -95 -36 -175q-34 -78 -90 -116h123v-70h-231v67q63 13 105 87t42 193q0 141 -49.5 215.5t-132.5 74.5q-82 0 -132 -75t-50 -215q0 -119 39 -193q41 -74 98 -87
v-67z" />
    <glyph glyph-name="onethird" unicode="&#x2153;" 
d="M119 -38l63 9q4 -105 92 -105q41 0 63 21.5t22 60.5q0 62 -76 62h-24l10 54h25q37 0 58 18t21 52q0 23 -17 37.5t-46 14.5q-62 0 -82 -66l-57 17q10 47 47.5 77t92.5 30q54 0 89.5 -29t35.5 -72q1 -36 -19.5 -64t-54.5 -40v-2q25 -9 42.5 -34t17.5 -57q0 -64 -39 -101.5
t-110 -37.5q-72 0 -112 41t-42 114zM487 463h-288l11 66h114l51 282l-103 -54l14 76l108 57h59l-65 -361h110zM534 315h-430l11 68h430z" />
    <glyph glyph-name="twothirds" unicode="&#x2154;" 
d="M534 316h-430l11 68h430zM476 463h-282l9 49q11 65 39 98q29 33 101 62q73 29 96 50q26 23 26 54q0 27 -19.5 43t-50.5 16q-75 0 -94 -84l-62 15q10 59 52.5 94t101.5 35q62 0 99.5 -33t37.5 -85q0 -54 -35.5 -87t-115.5 -65q-58 -24 -78 -44q-21 -21 -25 -52h212z
M116 -38l63 9q4 -105 92 -105q41 0 63 21.5t22 60.5q0 62 -76 62h-24l10 54h25q37 0 58 18t21 52q0 23 -17 37.5t-46 14.5q-63 0 -82 -66l-57 17q10 47 47.5 77t92.5 30q54 0 89.5 -29t35.5 -72q1 -36 -19.5 -64t-54.5 -40v-2q25 -9 42.5 -34t17.5 -57q0 -64 -39 -101.5
t-110 -37.5q-72 0 -112 41t-42 114z" />
    <glyph glyph-name="onefifth" unicode="&#x2155;" 
d="M124 -64l62 17q16 -85 91 -85q45 0 72.5 29t27.5 74q0 36 -22 57.5t-59 21.5q-58 0 -93 -39l-49 32l62 196h220l-12 -61h-168l-34 -105l1 -1h1q37 28 83 28q58 0 95.5 -35t37.5 -92q0 -75 -46 -120.5t-118 -45.5q-61 0 -103 35.5t-49 93.5zM487 463h-288l11 66h114
l51 282l-103 -54l14 76l108 57h59l-65 -361h110zM534 315h-430l11 68h430z" />
    <glyph glyph-name="twofifths" unicode="&#x2156;" 
d="M124 -64l62 17q16 -85 91 -85q45 0 72.5 29t27.5 74q0 36 -22 57.5t-59 21.5q-58 0 -93 -39l-49 32l62 196h220l-12 -61h-168l-34 -105l1 -1h1q37 28 83 28q58 0 95.5 -35t37.5 -92q0 -75 -46 -120.5t-118 -45.5q-61 0 -103 35.5t-49 93.5zM534 316h-430l11 68h430z
M476 463h-282l9 49q11 65 39 98q29 33 101 62q73 29 96 50q26 23 26 54q0 27 -19.5 43t-50.5 16q-75 0 -94 -84l-62 15q10 59 52.5 94t101.5 35q62 0 99.5 -33t37.5 -85q0 -54 -35.5 -87t-115.5 -65q-58 -24 -78 -44q-21 -21 -25 -52h212z" />
    <glyph glyph-name="threefifths" unicode="&#x2157;" 
d="M127 -64l62 17q16 -85 91 -85q45 0 72.5 29t27.5 74q0 36 -22 57.5t-59 21.5q-59 0 -93 -39l-49 32l62 196h220l-12 -61h-168l-34 -105q1 0 1 -0.5t1 -0.5q37 28 83 28q58 0 95.5 -35t37.5 -92q0 -75 -45.5 -120.5t-118.5 -45.5q-61 0 -103 35.5t-49 93.5zM534 316h-430
l11 68h430zM204 613l63 9q5 -105 92 -105q41 0 63 21.5t22 60.5q0 62 -76 62h-24l10 54h25q37 0 58 18t21 52q0 23 -17 37.5t-46 14.5q-62 0 -82 -66l-57 17q10 47 47.5 77t92.5 30q54 0 89.5 -29t35.5 -72q1 -36 -19.5 -64t-54.5 -40v-2q25 -9 42.5 -34t17.5 -57
q0 -64 -39 -101.5t-110 -37.5q-72 0 -112 41t-42 114z" />
    <glyph glyph-name="fourfifths" unicode="&#x2158;" 
d="M534 316h-430l11 68h430zM355 553h-205l11 61l216 276h101l-49 -278h52l-11 -59h-50l-14 -90h-66zM405 843l-180 -231h139l43 231h-2zM118 -65l62 17q16 -85 91 -85q45 0 72.5 29t27.5 74q0 36 -22 57.5t-59 21.5q-58 0 -93 -39l-49 32l62 196h220l-12 -61h-168l-34 -105
h1l1 -1q37 28 83 28q58 0 95.5 -35t37.5 -92q0 -74 -46 -120t-118 -46q-61 0 -103 35.5t-49 93.5z" />
    <glyph glyph-name="onesixth" unicode="&#x2159;" 
d="M189 52q1 -1 2 -1q6 8 14 15q37 30 91 30q60 0 97.5 -36.5t37.5 -93.5q0 -71 -46 -114q-45 -45 -114 -45q-68 0 -111 46t-43 124q0 113 56 190q57 77 141 77q60 0 93.5 -36.5t35.5 -90.5l-59 -7q-9 76 -73 76q-44 0 -77 -36t-45 -98zM487 463h-288l11 66h114l51 282
l-103 -54l14 76l108 57h59l-65 -361h110zM534 315h-430l11 68h430zM272 -133q40 0 68.5 28t28.5 70q0 34 -22 57.5t-61 23.5q-42 0 -70 -27.5t-28 -66.5q0 -38 23.5 -61.5t60.5 -23.5z" />
    <glyph glyph-name="fivesixths" unicode="&#x215a;" 
d="M534 316h-430l11 68h430zM189 587l62 17q16 -85 91 -85q45 0 72.5 29t27.5 74q0 36 -22 57.5t-59 21.5q-59 0 -93 -39l-49 32l62 196h220l-12 -61h-168l-34 -105q1 0 1 -0.5t1 -0.5q37 28 83 28q58 0 95.5 -35t37.5 -92q0 -74 -46 -120q-45 -46 -118 -46q-61 0 -103 35.5
t-49 93.5zM281 -133q40 0 68.5 28t28.5 70q0 34 -22 57.5t-61 23.5q-42 0 -70 -27.5t-28 -66.5q0 -38 23.5 -61.5t60.5 -23.5zM198 52q1 -1 2 -1q6 8 14 15q38 30 91 30q60 0 97.5 -36.5t37.5 -93.5q0 -71 -46 -114q-45 -45 -114 -45q-68 0 -111 46t-43 124q0 113 56 190
q57 77 141 77q60 0 93.5 -36.5t35.5 -90.5l-59 -7q-9 76 -73 76q-44 0 -77 -36t-45 -98z" />
    <glyph glyph-name="oneeighth" unicode="&#x215b;" 
d="M261 -193q-60 0 -98.5 32.5t-38.5 85.5q0 47 28 81t70 43v2q-47 27 -47 78q0 48 38 81.5t99 33.5q57 0 89 -30t32 -77q0 -69 -72 -95v-2q27 -12 43.5 -38.5t16.5 -59.5q0 -61 -44 -98t-116 -37zM487 463h-288l11 66h114l51 282l-103 -54l14 76l108 57h59l-65 -361h110z
M534 315h-430l11 68h430zM358 -51q0 29 -22 48t-58 19q-39 0 -65.5 -23t-26.5 -58q0 -32 21 -50t61 -18t65 22.5t25 59.5zM299 69q33 0 53 17t20 46q0 57 -64 57q-33 0 -53 -18t-20 -46q0 -25 17 -40.5t47 -15.5z" />
    <glyph glyph-name="threeeighths" unicode="&#x215c;" 
d="M316 69q33 0 53 17t20 46q0 57 -64 57q-33 0 -53 -18t-20 -46q0 -25 17 -40.5t47 -15.5zM375 -51q0 29 -22 48t-58 19q-39 0 -65.5 -23t-26.5 -58q0 -32 21 -50t61 -18t65 22.5t25 59.5zM278 -193q-60 0 -98.5 32.5t-38.5 85.5q0 47 28 81t70 43v2q-47 27 -47 78
q0 48 38 81.5t99 33.5q57 0 89 -30t32 -77q0 -69 -72 -95v-2q27 -12 43.5 -38.5t16.5 -59.5q0 -61 -44 -98t-116 -37zM534 316h-430l11 68h430zM204 613l63 9q5 -105 92 -105q41 0 63 21.5t22 60.5q0 62 -76 62h-24l10 54h25q37 0 58 18t21 52q0 23 -17 37.5t-46 14.5
q-62 0 -82 -66l-57 17q10 47 47.5 77t92.5 30q54 0 89.5 -29t35.5 -72q1 -36 -19.5 -64t-54.5 -40v-2q25 -9 42.5 -34t17.5 -57q0 -64 -39 -101.5t-110 -37.5q-72 0 -112 41t-42 114z" />
    <glyph glyph-name="fiveeighths" unicode="&#x215d;" 
d="M534 316h-430l11 68h430zM306 69q33 0 53 17t20 46q0 57 -64 57q-33 0 -53 -18t-20 -46q0 -25 17 -40.5t47 -15.5zM365 -51q0 29 -22 48t-58 19q-39 0 -65.5 -23t-26.5 -58q0 -32 21 -50t61 -18t65 22.5t25 59.5zM268 -193q-60 0 -98.5 32.5t-38.5 85.5q0 47 28 81t70 43
v2q-47 27 -47 78q0 48 38 81.5t99 33.5q57 0 89 -30t32 -77q0 -69 -72 -95v-2q27 -12 43.5 -38.5t16.5 -59.5q0 -61 -44 -98t-116 -37zM189 587l62 17q16 -85 91 -85q45 0 72.5 29t27.5 74q0 36 -22 57.5t-59 21.5q-59 0 -93 -39l-49 32l62 196h220l-12 -61h-168l-34 -105
q1 0 1 -0.5t1 -0.5q37 28 83 28q58 0 95.5 -35t37.5 -92q0 -74 -46 -120q-45 -46 -118 -46q-61 0 -103 35.5t-49 93.5z" />
    <glyph glyph-name="seveneighths" unicode="&#x215e;" 
d="M534 316h-430l11 68h430zM306 69q33 0 53 17t20 46q0 57 -64 57q-33 0 -53 -18t-20 -46q0 -25 17 -40.5t47 -15.5zM365 -51q0 29 -22 48t-58 19q-39 0 -65.5 -23t-26.5 -58q0 -32 21 -50t61 -18t65 22.5t25 59.5zM268 -193q-60 0 -98.5 32.5t-38.5 85.5q0 47 28 81t70 43
v2q-47 27 -47 78q0 48 38 81.5t99 33.5q57 0 89 -30t32 -77q0 -69 -72 -95v-2q27 -12 43.5 -38.5t16.5 -59.5q0 -61 -44 -98t-116 -37zM307 463h-76l248 364v2h-215l11 61h284l-11 -66z" />
    <glyph glyph-name="leftwardsarrow" unicode="&#x2190;" 
d="M95 385h481v-77h-481l127 -207l-72 -44l-175 289l174 286l72 -43z" />
    <glyph glyph-name="upwardsarrow" unicode="&#x2191;" 
d="M568 400l-205 129v-487h-77l1 487l-205 -129l-42 70l285 172l285 -172z" />
    <glyph glyph-name="rightwordsarrow" unicode="&#x2192;" 
d="M506 308h-481v77h481l-126 204l72 43l174 -286l-175 -289l-72 44z" />
    <glyph glyph-name="downwardsarrow" unicode="&#x2193;" 
d="M286 642h77v-487l205 129l42 -70l-285 -172l-285 172l42 70l205 -129z" />
    <glyph glyph-name="leftrightarrow" unicode="&#x2194;" 
d="M390 105l128 203h-386l128 -203l-69 -43l-172 284l170 280l70 -43l-126 -199h384l-125 199l70 43l169 -280l-172 -284z" />
    <glyph glyph-name="updownarrow" unicode="&#x2195;" 
d="M325 37l-287 173l42 69l204 -129v387l-204 -129l-42 70l287 172l286 -172l-42 -70l-204 129v-387l204 129l42 -69z" />
    <glyph glyph-name="northwestarrow" unicode="&#x2196;" 
d="M243 488l346 -347l-52 -53l-347 347l-55 -238l-74 18l78 324l324 79l17 -75z" />
    <glyph glyph-name="northeastarrow" unicode="&#x2197;" 
d="M410 435l-347 -347l-52 53l346 347l-237 55l17 75l324 -79l78 -324l-74 -18z" />
    <glyph glyph-name="southeastarrow" unicode="&#x2198;" 
d="M357 200l-346 347l52 53l347 -347l55 238l74 -18l-78 -324l-324 -79l-17 75z" />
    <glyph glyph-name="southwestarrow" unicode="&#x2199;" 
d="M190 253l347 347l52 -53l-346 -347l237 -55l-17 -75l-324 79l-78 324l74 18z" />
    <glyph glyph-name="downwardsarrowwithtiprightwards" unicode="&#x21b3;" 
d="M505 307h-481v393h83v-314h399l-125 203l72 43l173 -286l-176 -289l-72 43z" />
    <glyph glyph-name="downwardsarrowwithtipleftwards" unicode="&#x21b5;" 
d="M493 700h83v-393h-481l127 -207l-72 -43l-176 289l173 286l72 -43l-125 -203h399v314z" />
    <glyph glyph-name="partialdiff" unicode="&#x2202;" 
d="M232 676l-10 -7l-38 55q9 10 38 26q64 38 121 38q76 -1 128 -52t75 -136t22 -201q0 -188 -62 -301t-192 -113q-108 0 -170 65.5t-62 179.5t55 191q55 78 167 79q78 0 190 -50q-2 122 -40 195q-39 74 -112 74q-52 0 -110 -43zM314 58q162 3 176 320q-103 52 -181 52
q-76 0 -113.5 -54.5t-37.5 -145.5q1 -77 41.5 -124.5t114.5 -47.5z" />
    <glyph glyph-name="increment" unicode="&#x2206;" 
d="M619 0h-589l250 700h89zM324 600l-181 -523h362z" />
    <glyph glyph-name="product" unicode="&#x220f;" 
d="M263 -141h-78v716h-125v75h529v-75h-122v-716h-78v716h-126v-716z" />
    <glyph glyph-name="summation" unicode="&#x2211;" 
d="M567 -100h-484v94l240 316l-230 296v94h474v-77h-385l240 -312l-255 -334h400v-77z" />
    <glyph glyph-name="minus" unicode="&#x2212;" 
d="M583 344h-516v70h516v-70z" />
    <glyph glyph-name="radical" unicode="&#x221a;" 
d="M373 0h-86l-119 345h-135v72h194l103 -307l203 590h83z" />
    <glyph glyph-name="infinity" unicode="&#x221e;" 
d="M445 112q-37 0 -69.5 23t-50.5 60q-18 -37 -52.5 -60t-72.5 -23q-63 0 -105 54q-41 56 -41 137q0 82 41 138q40 55 104 55q39 0 73.5 -25.5t52.5 -65.5q16 40 49.5 65.5t71.5 25.5q64 0 104 -55q41 -56 41 -138t-42 -137q-41 -54 -104 -54zM300 303q-39 118 -99 118
q-29 0 -47 -22q-28 -34 -28 -96q0 -23 5 -50q6 -26 25 -46t47 -20q59 0 97 116zM350 303q36 -116 92 -116q30 0 48 21q29 34 29 95q0 18 -3 36t-10.5 38t-23 32t-38.5 12q-57 0 -94 -118z" />
    <glyph glyph-name="integral" unicode="&#x222b;" 
d="M154 -240v74q76 2 102 28q27 26 27 97v575q0 116 48 163q48 48 164 48v-74q-82 -2 -107 -30t-25 -109v-561q0 -117 -48 -164q-47 -47 -161 -47z" />
    <glyph glyph-name="approxequal" unicode="&#x2248;" 
d="M132 408l-51 28q14 54 49 92q37 40 92 40q36 1 77.5 -21.5t77.5 -45t57 -20.5q40 0 57 32q13 22 14 25l11 32l52 -27q-16 -60 -49.5 -96.5t-84.5 -36.5q-46 -2 -118 43.5t-95 43.5q-62 0 -89 -89zM132 190l-51 28q14 54 49 92q37 40 92 40q36 1 77.5 -21.5t77.5 -45
t57 -20.5q40 0 57 32q13 22 14 25l11 32l52 -28q-15 -59 -49 -95.5t-85 -36.5q-46 -2 -118 43.5t-95 43.5q-60 0 -89 -89z" />
    <glyph glyph-name="notequal" unicode="&#x2260;" 
d="M219 141l-48 28l49 86h-127v70h166l66 115h-232v70h271l65 113l49 -28l-49 -85h127v-70h-166l-67 -115h233v-70h-272z" />
    <glyph glyph-name="lessequal" unicode="&#x2264;" 
d="M498 142l-390 235v70l391 233l36 -60l-347 -208l347 -209zM541 0h-433v70h433v-70z" />
    <glyph glyph-name="greaterequal" unicode="&#x2265;" 
d="M541 70v-70h-433v70h433zM541 447v-70l-390 -235l-37 61l347 209l-348 208l37 60z" />
    <glyph glyph-name="lozenge" unicode="&#x25ca;" 
d="M381 0h-113l-203 356l204 344h111l205 -344zM147 356l178 -309l178 309l-178 295z" />
    <glyph glyph-name="commaaccent" unicode="&#xf6c3;" 
d="M259 -229l5 36q51 7 58 50h-50l16 92h102l-14 -78q-8 -49 -36 -73t-81 -27z" />
    <glyph glyph-name="apple" unicode="&#xf8ff;" 
d="M58 0h-26v423q0 116 86 204q85 88 206 88q122 0 207 -88q87 -87 87 -204v-423h-28l-65 65l-68 -65l-63 65l-71 -65l-69 65l-63 -65l-67 65zM382 377q0 -29 20.5 -49.5t49.5 -20.5t50.5 21t21.5 49q0 30 -21.5 51t-50.5 21t-49.5 -21t-20.5 -51zM127 377q0 -29 21 -49.5
t50 -20.5q30 0 50.5 20.5t20.5 49.5q0 30 -20.5 51t-50.5 21q-29 0 -50 -21t-21 -51z" />
    <glyph glyph-name="CR.001" horiz-adv-x="333" 
 />
    <glyph glyph-name="grave.cap" 
d="M414 765h-71l-107 121h100z" />
    <glyph glyph-name="acute.cap" 
d="M307 765h-71l78 121h100z" />
    <glyph glyph-name="circumflex.cap" 
d="M331 835l-86 -87l-41 45l78 78h101l62 -86l-51 -37z" />
    <glyph glyph-name="caron.cap" 
d="M366 765h-100l-62 87l50 36l63 -87l87 87l41 -45z" />
    <glyph glyph-name="tilde.cap" 
d="M221 765h-46q33 94 103 94q29 0 60 -19t50 -19q27 0 40 33h46q-33 -94 -103 -94q-27 0 -61 19q-32 19 -49 19q-27 0 -40 -33z" />
    <glyph glyph-name="dieresis.cap" 
d="M265 765h-90l16 91h91zM458 765h-91l16 91h91z" />
    <glyph glyph-name="macron.cap" 
d="M464 765h-288l10 57h288z" />
    <glyph glyph-name="breve.cap" 
d="M202 872h45q0 -56 69 -56q68 0 86 56h48q-10 -56 -46.5 -87.5t-90.5 -31.5q-49 0 -80 25t-33 67q0 13 2 27z" />
    <glyph glyph-name="ring.cap" 
d="M316 685q-39 0 -64.5 25.5t-25.5 62.5q0 49 30.5 82t77.5 33q39 0 64.5 -25.5t25.5 -62.5q0 -50 -30 -82.5t-78 -32.5zM318 729q23 0 39 19.5t16 50.5q0 21 -11.5 33t-29.5 12q-24 0 -39.5 -19t-15.5 -51q0 -20 12 -32.5t29 -12.5z" />
    <glyph glyph-name="hungarumlaut.cap" 
d="M236 765h-62l75 115h91zM372 765h-62l75 115h91z" />
    <glyph glyph-name="dotaccent.cap" 
d="M364 765h-96l16 96h97z" />
    <glyph glyph-name="caron.alt" 
d="M319 579h-55l44 151h78z" />
    <glyph glyph-name="parenleft.cap" 
d="M337 -96l-60 -35q-118 211 -118 410q0 162 74.5 305.5t213.5 252.5l44 -50q-257 -203 -258 -495q-2 -200 104 -388z" />
    <glyph glyph-name="parenright.cap" 
d="M202 -131l-42 53q254 205 256 492q1 196 -103 388l59 35q116 -208 118 -415q0 -162 -74.5 -305t-213.5 -248z" />
    <glyph glyph-name="bracketleft.cap" 
d="M356 -109h-226l163 921h226l-10 -60h-160l-142 -802h160z" />
    <glyph glyph-name="bracketright.cap" 
d="M293 812h226l-163 -921h-226l10 59h160l142 802h-160z" />
    <glyph glyph-name="braceleft.cap" 
d="M175 21l44 246q5 32 -4 45t-38 13h-29l16 89h28q29 0 43.5 14t20.5 47l38 216q11 65 44 92t95 27h68l-11 -60h-51q-41 0 -58 -15.5t-25 -60.5l-35 -202q-6 -36 -25.5 -61t-33 -32t-23.5 -9q8 -3 18.5 -11t21.5 -32.5t6 -56.5l-46 -259q-7 -39 5 -55.5t51 -16.5h52
l-10 -60h-54q-70 0 -95.5 33t-12.5 109z" />
    <glyph glyph-name="braceright.cap" 
d="M211 -121h-68l10 60h52q41 0 58 16t25 60l45 252q14 78 80 102q-8 3 -19 11q-13 10 -21.5 35t-3.5 54l38 209q6 40 -5.5 56t-50.5 16h-52l10 60h54q69 0 94.5 -33t12.5 -108l-35 -197q-5 -32 4 -45t38 -13h29l-16 -89h-28q-29 0 -43.5 -14t-20.5 -47l-48 -266
q-11 -65 -44 -92t-95 -27z" />
    <glyph glyph-name="published" 
d="M288 492v-128h47q81 0 81 63q0 65 -82 65h-46zM329 46q-108 0 -183 89q-74 89 -74 219q0 129 74 218q75 89 183 89q104 0 176 -89t72 -218q0 -130 -72 -219t-176 -89zM329 94q84 0 141 74q58 74 58 186q0 111 -58 184q-57 74 -141 74q-88 0 -148 -74t-60 -184
q0 -111 60 -186q60 -74 148 -74zM339 317h-51v-150h-49v370h100q127 0 127 -110q0 -54 -33 -82t-94 -28z" />
    <glyph glyph-name="zero.numr" 
d="M299 268q-63 0 -101 42t-38 123q0 110 52 190q52 82 140 82q61 0 99.5 -42.5t38.5 -121.5q0 -113 -52 -193q-51 -80 -139 -80zM305 332q52 1 84 60.5t34 130.5l-194 -125q13 -66 76 -66zM344 643q-50 0 -82 -57q-31 -55 -36 -125l192 123q-17 59 -74 59z" />
    <glyph glyph-name="one.numr" 
d="M449 273h-288l11 66h114l51 282l-103 -54l14 76l108 57h59l-65 -361h110z" />
    <glyph glyph-name="two.numr" 
d="M439 273h-282l9 49q11 65 39 98q29 33 101 62q73 29 96 50q26 23 26 54q0 27 -19.5 43t-50.5 16q-74 0 -94 -84l-62 15q10 59 52.5 94t101.5 35q62 0 99.5 -33t37.5 -85q0 -54 -35.5 -87t-115.5 -65q-58 -24 -78 -44q-21 -21 -25 -52h212z" />
    <glyph glyph-name="three.numr" 
d="M166 423l63 9q5 -105 92 -105q41 0 63 21.5t22 60.5q0 62 -76 62h-24l10 54h25q37 0 58 18t21 52q0 23 -17 37.5t-46 14.5q-63 0 -82 -66l-57 17q10 47 47.5 77t92.5 30q54 0 89.5 -29t35.5 -72q1 -36 -19.5 -64t-54.5 -40v-2q25 -9 42.5 -34t17.5 -57q0 -64 -39 -101.5
t-110 -37.5q-72 0 -112 41t-42 114z" />
    <glyph glyph-name="four.numr" 
d="M364 363h-205l11 61l216 276h101l-49 -278h52l-11 -59h-50l-14 -90h-66zM414 653l-180 -231h139l43 231h-2z" />
    <glyph glyph-name="five.numr" 
d="M167 397l62 17q16 -85 91 -85q45 0 72.5 29t27.5 74q0 36 -22 57.5t-59 21.5q-59 0 -93 -39l-49 32l62 196h220l-12 -61h-168l-34 -105q1 0 1 -0.5t1 -0.5q37 28 83 28q58 0 95.5 -35t37.5 -92q0 -74 -46 -120q-45 -46 -118 -46q-61 0 -103 35.5t-49 93.5z" />
    <glyph glyph-name="six.numr" 
d="M317 328q40 0 68.5 28t28.5 70q0 34 -22 57.5t-61 23.5q-42 0 -70 -27.5t-28 -66.5q0 -38 23.5 -61.5t60.5 -23.5zM234 513q1 -1 2 -1q6 8 14 15q38 30 91 30q60 0 97.5 -36.5t37.5 -93.5q0 -70 -46 -115q-46 -44 -114 -44t-111 46t-43 124q0 113 56 190q57 77 141 77
q60 0 93.5 -36.5t35.5 -90.5l-59 -7q-9 76 -73 76q-44 0 -77 -36t-45 -98z" />
    <glyph glyph-name="seven.numr" 
d="M236 273h-76l248 364v2h-215l11 61h284l-11 -66z" />
    <glyph glyph-name="eight.numr" 
d="M345 530q33 0 53 17t20 46q0 57 -64 57q-33 0 -53 -18t-20 -46q0 -25 17 -40.5t47 -15.5zM404 410q0 29 -22 48t-58 19q-39 0 -65.5 -23t-26.5 -58q0 -32 21 -50t61 -18t65 22.5t25 59.5zM307 268q-60 0 -98.5 32.5t-38.5 85.5q0 47 28 81t70 43v2q-47 27 -47 78
q0 48 38 81.5t99 33.5q57 0 89 -30t32 -77q0 -70 -72 -95v-2q27 -12 43.5 -38.5t16.5 -59.5q0 -61 -44 -98t-116 -37z" />
    <glyph glyph-name="nine.numr" 
d="M168 384l62 13q9 -70 73 -70q42 0 71 37t39 100h-2q-32 -45 -104 -45q-51 0 -88 34t-37 97q0 68 45 111q47 44 111 44t104 -47t40 -126q0 -119 -50 -192q-50 -72 -131 -72q-58 0 -93.5 31t-39.5 85zM318 475q43 0 69 24.5t26 62.5t-21.5 61.5t-56.5 23.5q-39 0 -65 -28
t-26 -67q0 -32 21.5 -54.5t52.5 -22.5z" />
    <glyph glyph-name="zero.dnom" 
d="M299 -5q-63 0 -101 42t-38 123q0 110 52 190q52 82 140 82q61 0 99.5 -42.5t38.5 -121.5q0 -113 -52 -193q-51 -80 -139 -80zM305 59q52 1 84 60.5t34 130.5l-194 -125q13 -66 76 -66zM344 370q-50 0 -82 -57q-31 -55 -36 -125l192 123q-17 59 -74 59z" />
    <glyph glyph-name="one.dnom" 
d="M449 0h-288l11 66h114l51 282l-103 -54l14 76l108 57h59l-65 -361h110z" />
    <glyph glyph-name="two.dnom" 
d="M439 0h-282l9 49q11 65 39 98q29 33 101 62q73 29 96 50q26 23 26 54q0 27 -19.5 43t-50.5 16q-74 0 -94 -84l-62 15q10 59 52.5 94t101.5 35q62 0 99.5 -33t37.5 -85q0 -54 -35.5 -87t-115.5 -65q-58 -24 -78 -44q-21 -21 -25 -52h212z" />
    <glyph glyph-name="three.dnom" 
d="M166 150l63 9q5 -105 92 -105q41 0 63 21.5t22 60.5q0 62 -76 62h-24l10 54h25q37 0 58 18t21 52q0 23 -17 37.5t-46 14.5q-63 0 -82 -66l-57 17q10 47 47.5 77t92.5 30q54 0 89.5 -29t35.5 -72q1 -36 -19.5 -64t-54.5 -40v-2q25 -9 42.5 -34t17.5 -57q0 -64 -39 -101.5
t-110 -37.5q-72 0 -112 41t-42 114z" />
    <glyph glyph-name="four.dnom" 
d="M364 90h-205l11 61l216 276h101l-49 -278h52l-11 -59h-50l-14 -90h-66zM414 380l-180 -231h139l43 231h-2z" />
    <glyph glyph-name="five.dnom" 
d="M167 124l62 17q16 -85 91 -85q45 0 72.5 29t27.5 74q0 36 -22 57.5t-59 21.5q-59 0 -93 -39l-49 32l62 196h220l-12 -61h-168l-34 -105q1 0 1 -0.5t1 -0.5q37 28 83 28q58 0 95.5 -35t37.5 -92q0 -75 -45.5 -120.5t-118.5 -45.5q-61 0 -103 35.5t-49 93.5z" />
    <glyph glyph-name="six.dnom" 
d="M317 55q40 0 68.5 28t28.5 70q0 34 -22 57.5t-61 23.5q-42 0 -70 -27.5t-28 -66.5q0 -38 23.5 -61.5t60.5 -23.5zM234 240q1 -1 2 -1q6 8 14 15q38 30 91 30q60 0 97.5 -36.5t37.5 -93.5q0 -70 -46 -115q-46 -44 -114 -44t-111 46t-43 124q0 113 56 190q57 77 141 77
q60 0 93.5 -36.5t35.5 -90.5l-59 -7q-9 76 -73 76q-44 0 -77 -36t-45 -98z" />
    <glyph glyph-name="seven.dnom" 
d="M237 0h-76l248 364v2h-215l11 61h284l-11 -66z" />
    <glyph glyph-name="eight.dnom" 
d="M345 257q33 0 53 17t20 46q0 57 -64 57q-33 0 -53 -18t-20 -46q0 -25 17 -40.5t47 -15.5zM404 137q0 29 -22 48t-58 19q-39 0 -65.5 -23t-26.5 -58q0 -32 21 -50t61 -18t65 22.5t25 59.5zM307 -5q-60 0 -98.5 32.5t-38.5 85.5q0 47 28 81t70 43v2q-47 27 -47 78
q0 48 38 81.5t99 33.5q57 0 89 -30t32 -77q0 -69 -72 -95v-2q27 -12 43.5 -38.5t16.5 -59.5q0 -61 -44 -98t-116 -37z" />
    <glyph glyph-name="nine.dnom" 
d="M168 111l62 13q9 -70 73 -70q42 0 71 37t39 100h-2q-32 -45 -104 -45q-51 0 -88 34t-37 97q0 67 45 111q47 44 111 44t104 -47t40 -126q0 -119 -50 -192q-50 -72 -131 -72q-58 0 -93.5 31t-39.5 85zM318 202q43 0 69 24.5t26 62.5t-21.5 61.5t-56.5 23.5q-39 0 -65 -28
t-26 -67q0 -32 21.5 -54.5t52.5 -22.5z" />
    <glyph glyph-name="plusinferior" 
d="M324 -156h-63l27 156h-136l10 57h136l24 137h63l-24 -137h136l-10 -57h-136z" />
    <glyph glyph-name="minusinferior" 
d="M477 57l-10 -57h-295l10 57h295z" />
  </font>
</defs>
</svg>
