<?xml version="1.0" standalone="no"?>
<!DOCTYPE svg PUBLIC "-//W3C//DTD SVG 1.1//EN" "http://www.w3.org/Graphics/SVG/1.1/DTD/svg11.dtd" >
<svg xmlns="http://www.w3.org/2000/svg" xmlns:xlink="http://www.w3.org/1999/xlink" version="1.1">
<metadata>
Created by FontForge 20170731 at Mon Nov 16 19:32:02 2015
 By ,,,
Copyright (c) 2011 by Timo Gaessner, 123buero for Milieu Grotesque. All rights reserved.
</metadata>
<defs>
<font id="MaisonNeue-LightItalic" horiz-adv-x="650" >
  <font-face 
    font-family="Maison Neue"
    font-weight="300"
    font-style="italic"
    font-stretch="normal"
    units-per-em="1000"
    panose-1="2 0 0 0 0 0 0 0 0 0"
    ascent="775"
    descent="-225"
    x-height="530"
    cap-height="700"
    bbox="-80 -300 1270 973"
    underline-thickness="50"
    underline-position="-200"
    slope="-10"
    unicode-range="U+000D-FB02"
  />
<missing-glyph horiz-adv-x="726" 
d="M96 0h-26v423q0 116 86 204q85 88 206 88q122 0 207 -88q87 -87 87 -204v-423h-28l-65 65l-68 -65l-63 65l-71 -65l-69 65l-63 -65l-67 65zM493 396l-63 64l-14 -14l63 -64l-63 -63l14 -14l63 63l64 -63l14 14l-64 63l64 64l-14 14zM233 396l-63 64l-14 -14l63 -64
l-63 -63l14 -14l63 63l64 -63l14 14l-64 63l64 64l-14 14z" />
    <glyph glyph-name="fi" unicode="fi" horiz-adv-x="531" 
d="M391 0h-65l82 470h-205l-83 -470h-65l83 470h-74l10 60h74l11 60q11 59 40.5 84.5t79.5 25.5h71l-12 -62h-52q-34 0 -46.5 -13t-19.5 -55l-7 -40h271zM502 617h-81l14 83h81z" />
    <glyph glyph-name="fl" unicode="fl" horiz-adv-x="527" 
d="M383 0h-65l83 470h-198l-83 -470h-65l83 470h-73l10 60h73l10 52q11 64 42.5 91t85.5 27h69l-10 -60h-58q-33 0 -46 -13t-20 -55l-8 -42h198l36 200h65z" />
    <glyph glyph-name=".notdef" horiz-adv-x="726" 
d="M96 0h-26v423q0 116 86 204q85 88 206 88q122 0 207 -88q87 -87 87 -204v-423h-28l-65 65l-68 -65l-63 65l-71 -65l-69 65l-63 -65l-67 65zM493 396l-63 64l-14 -14l63 -64l-63 -63l14 -14l63 63l64 -63l14 14l-64 63l64 64l-14 14zM233 396l-63 64l-14 -14l63 -64
l-63 -63l14 -14l63 63l64 -63l14 14l-64 63l64 64l-14 14z" />
    <glyph glyph-name=".null" horiz-adv-x="0" 
 />
    <glyph glyph-name="nonmarkingreturn" horiz-adv-x="333" 
 />
    <glyph glyph-name="NULL" horiz-adv-x="0" 
 />
    <glyph glyph-name="NULL" horiz-adv-x="0" 
 />
    <glyph glyph-name="CR.001" unicode="&#xd;" horiz-adv-x="250" 
 />
    <glyph glyph-name="space" unicode=" " horiz-adv-x="225" 
 />
    <glyph glyph-name="exclam" unicode="!" horiz-adv-x="282" 
d="M154 201h-65l88 499h65zM146 0h-106l19 106h106z" />
    <glyph glyph-name="quotedbl" unicode="&#x22;" horiz-adv-x="309" 
d="M115 484h-55l38 216h55zM241 484h-55l38 216h55z" />
    <glyph glyph-name="numbersign" unicode="#" horiz-adv-x="669" 
d="M199 164h-55l36 150h-130l9 50h133l34 135h-112l9 49h115l37 152h55l-37 -152h146l37 152h55l-37 -152h125l-9 -49h-128l-34 -135h107l-9 -50h-110l-36 -150h-55l36 150h-146zM281 499l-33 -135h145l34 135h-146z" />
    <glyph glyph-name="dollar" unicode="$" horiz-adv-x="674" 
d="M50 244l69 9q3 -177 151 -202l54 300q-117 38 -158 74q-43 37 -43 102q0 76 68 132q70 56 183 56h14l11 60h41l-12 -64q85 -14 135.5 -66.5t50.5 -128.5l-69 -7q-5 119 -127 141l-44 -245q126 -41 168 -83q45 -42 45 -110q0 -91 -74 -159t-197 -68h-17l-15 -83h-40l15 87
q-98 15 -153.5 80.5t-55.5 174.5zM519 211q0 41 -30 69q-28 30 -127 60l-52 -292h13q81 0 139 47q57 47 57 116zM192 530q0 -37 25 -59q24 -21 119 -53l42 236h-8q-80 0 -129 -36t-49 -88z" />
    <glyph glyph-name="percent" unicode="%" horiz-adv-x="929" 
d="M80 483q0 106 55 167q56 62 133 62q69 0 110 -50q42 -50 42 -126q0 -106 -56 -168q-55 -61 -132 -61q-69 0 -110.5 49.5t-41.5 126.5zM139 487q0 -56 24 -91t67 -35q57 0 94 47.5t37 127.5q0 55 -24.5 89t-68.5 34q-57 0 -93 -46t-36 -126zM509 164q0 106 55 167
q56 62 133 62q69 0 110 -50q42 -49 42 -126q0 -106 -56 -168q-55 -61 -132 -61q-69 0 -110.5 49.5t-41.5 126.5zM568 168q0 -56 24 -91t67 -35q57 0 94 47.5t37 127.5q0 55 -24.5 89t-68.5 34q-57 0 -93 -46t-36 -126zM252 -67l-45 27l489 815l44 -28z" />
    <glyph glyph-name="ampersand" unicode="&#x26;" horiz-adv-x="658" 
d="M477 368h64l-35 -195l107 -121l-47 -43l-84 96q-29 -63 -95 -91q-67 -29 -135 -29q-108 0 -167.5 49t-59.5 135q0 158 179 253l-24 33q-22 34 -22 84q0 75 53 125q54 51 137 51q87 0 133 -44.5t48 -122.5l-64 -6q-3 54 -29.5 83.5t-85.5 29.5q-60 0 -93.5 -34t-33.5 -82
q0 -27 13 -51t46 -61l170 -194zM256 45q33 0 67 8q36 9 68.5 36.5t43.5 67.5l-198 220q-147 -73 -147 -197q0 -135 166 -135z" />
    <glyph glyph-name="quotesingle" unicode="'" horiz-adv-x="183" 
d="M135 484h-55l38 216h55z" />
    <glyph glyph-name="parenleft" unicode="(" horiz-adv-x="372" 
d="M257 -151l-54 -30q-56 104 -86 196q-32 99 -32 214q0 160 74.5 303t213.5 255l39 -44q-262 -206 -262 -508q0 -192 107 -386z" />
    <glyph glyph-name="parenright" unicode=")" horiz-adv-x="405" 
d="M145 757l52 30q118 -217 118 -416q0 -161 -74.5 -303.5t-213.5 -248.5l-37 48q260 209 260 504q0 195 -105 386z" />
    <glyph glyph-name="asterisk" unicode="*" horiz-adv-x="447" 
d="M321 342l-86 139l-113 -117l-36 39l103 103l-119 80l30 42l117 -78l26 150h54l-25 -152l130 73l25 -44l-141 -80l81 -122z" />
    <glyph glyph-name="plus" unicode="+" horiz-adv-x="508" 
d="M284 130h-60v228h-199v55h199v202h60v-202h199v-55h-199v-228z" />
    <glyph glyph-name="comma" unicode="," horiz-adv-x="289" 
d="M39 0l19 106h111l-18 -101q-20 -105 -131 -112l9 48q48 7 57 59h-47z" />
    <glyph glyph-name="hyphen" unicode="-" horiz-adv-x="481" 
d="M399 318h-329l12 60h329z" />
    <glyph glyph-name="period" unicode="." horiz-adv-x="295" 
d="M156 0h-106l19 106h106z" />
    <glyph glyph-name="slash" unicode="/" horiz-adv-x="368" 
d="M340 746l48 -22l-360 -758l-48 20z" />
    <glyph glyph-name="zero" unicode="0" horiz-adv-x="630" 
d="M358 655q-74 0 -132 -66q-57 -64 -84 -155q-27 -88 -27 -177q0 -99 40.5 -154t115.5 -55q74 0 131 63q56 61 84.5 148.5t28.5 183.5q0 97 -42.5 154.5t-114.5 57.5zM265 -15q-101 0 -158 69.5t-57 202.5q0 174 80 312q40 67 101.5 106.5t132.5 39.5q96 0 156 -72t60 -200
q0 -118 -35 -223q-34 -101 -108 -169q-73 -66 -172 -66z" />
    <glyph glyph-name="one" unicode="1" horiz-adv-x="397" 
d="M189 0h-65l109 612l-168 -95l14 83l178 100h55z" />
    <glyph glyph-name="two" unicode="2" horiz-adv-x="571" 
d="M454 0h-434l8 50q18 109 62 168q44 57 157 107q135 58 181 101t46 112q0 47 -37 81q-37 36 -105 36q-71 0 -116.5 -42t-61.5 -120l-64 14q18 97 85 152q68 56 157 56q98 0 153 -54q56 -54 56 -127q0 -74 -47 -130q-20 -23 -58 -48q-39 -25 -71 -41q-21 -10 -91 -41
q-88 -39 -126 -80q-37 -40 -51 -130h369z" />
    <glyph glyph-name="three" unicode="3" horiz-adv-x="576" 
d="M20 233l67 10q9 -198 172 -198q81 0 127 48.5t46 125.5q0 62 -39.5 96t-104.5 34h-34l11 60h46q64 0 106.5 38t42.5 100q0 49 -35 78.5t-95 29.5q-62 0 -101 -35.5t-53 -92.5l-62 19q11 62 67 115q57 54 149 54q88 0 141 -45.5t54 -118.5q1 -64 -37 -110.5t-98 -62.5v-2
q48 -16 77.5 -58.5t29.5 -105.5q0 -95 -63 -161q-62 -66 -176 -66q-111 0 -172.5 66.5t-65.5 181.5z" />
    <glyph glyph-name="four" unicode="4" horiz-adv-x="562" 
d="M343 171h-323l11 59l368 470h100l-82 -469h90l-11 -60h-88l-30 -171h-65zM423 640l-320 -409h248l74 409h-2z" />
    <glyph glyph-name="five" unicode="5" horiz-adv-x="600" 
d="M40 192l63 15q26 -162 172 -162q88 0 142 62q54 61 54 152q0 67 -41.5 108.5t-112.5 41.5q-44 0 -86 -17t-62 -37l-18 -18l-54 35l103 328h334l-10 -60h-280l-73 -233l18 16q9 8 53 26q39 16 85 16q91 0 149 -57q59 -57 59 -149q0 -121 -72 -198q-72 -76 -189 -76
q-100 0 -162 60t-72 147z" />
    <glyph glyph-name="six" unicode="6" horiz-adv-x="625" 
d="M299 48q84 0 136 55q53 56 53 147q0 62 -42 109q-41 47 -119 47q-84 0 -140 -52q-56 -51 -56 -128q0 -83 48 -131q50 -47 120 -47zM134 372l2 -1q21 30 72 60t122 30q104 0 163 -65q60 -65 60 -146q0 -124 -72 -195q-70 -70 -182 -70q-104 0 -175 74q-69 73 -69 198
q0 197 94 327q95 131 223 131q96 0 145 -61q52 -61 53 -138l-64 -9q-4 61 -36 105q-31 43 -100 43q-81 0 -145 -76q-66 -78 -91 -207z" />
    <glyph glyph-name="seven" unicode="7" horiz-adv-x="528" 
d="M93 0h-83l454 639v1h-368l12 60h440l-12 -68z" />
    <glyph glyph-name="eight" unicode="8" horiz-adv-x="570" 
d="M308 408q69 0 111 37t42 97q0 53 -34 84.5t-101 31.5q-64 0 -107 -38q-41 -38 -41 -91q0 -51 34.5 -86t95.5 -35zM261 50q80 0 129 46t49 120q0 61 -42.5 97t-115.5 36q-76 0 -131 -46q-54 -45 -54 -112t42.5 -104t122.5 -37zM256 -15q-107 0 -167 54q-59 56 -59 138
q0 89 52 142q51 54 118 71v2q-85 40 -85 141q0 71 57 126q59 56 160 56q94 0 143 -52q50 -52 50 -119q0 -63 -34 -106.5t-90 -59.5v-2q42 -15 74 -58q33 -44 33 -105q0 -103 -70 -166q-71 -62 -182 -62z" />
    <glyph glyph-name="nine" unicode="9" horiz-adv-x="587" 
d="M50 177l64 13q6 -67 41 -106t98 -39q89 0 146 84q57 82 71 208h-3q-23 -39 -77 -66t-120 -27q-86 0 -145 57q-58 57 -58 160q0 109 73 181q73 73 174 73t164 -75q64 -74 64 -208q0 -204 -82 -325q-83 -122 -211 -122q-85 0 -140 53q-55 55 -59 139zM279 302q78 0 134 50
q55 51 55 124q0 81 -42.5 130t-114.5 49q-79 0 -130 -58q-50 -59 -50 -136q0 -71 40.5 -115t107.5 -44z" />
    <glyph glyph-name="colon" unicode=":" horiz-adv-x="308" 
d="M156 0h-106l19 106h106zM219 424h-106l19 106h106z" />
    <glyph glyph-name="semicolon" unicode=";" horiz-adv-x="298" 
d="M39 0l19 106h111l-18 -101q-20 -105 -131 -112l9 48q48 7 57 59h-47zM219 424h-106l19 106h106z" />
    <glyph glyph-name="less" unicode="&#x3c;" horiz-adv-x="542" 
d="M440 82l-390 235v70l391 233l31 -50l-366 -218l365 -221z" />
    <glyph glyph-name="equal" unicode="=" horiz-adv-x="603" 
d="M533 257h-463v60h463v-60zM533 420h-463v60h463v-60z" />
    <glyph glyph-name="greater" unicode="&#x3e;" horiz-adv-x="542" 
d="M71 620l391 -233v-70l-390 -235l-31 49l365 221l-366 218z" />
    <glyph glyph-name="question" unicode="?" horiz-adv-x="572" 
d="M232 0h-106l19 106h106zM238 178h-65l12 64q12 65 70 102l98 61q51 32 72.5 62t21.5 79q0 45 -36 77t-100 32t-104.5 -38t-53.5 -108l-63 13q12 83 71 138t152 55q84 0 141 -48q58 -46 58 -121q0 -63 -27.5 -104.5t-82.5 -77.5l-104 -67q-42 -27 -47 -56z" />
    <glyph glyph-name="at" unicode="@" horiz-adv-x="738" 
d="M447 77l20 -45q-71 -46 -173 -46q-123 0 -186 83q-63 84 -63 213q0 169 91 297q45 64 117.5 100.5t159.5 36.5q125 0 202 -84q78 -84 78 -209q0 -133 -43.5 -201.5t-121.5 -68.5q-60 0 -82 48h-2q-40 -48 -108 -48q-60 0 -95.5 41t-35.5 112q0 92 50 157t124 65
q54 0 85 -43h2l6 33h53l-42 -249q-5 -32 7.5 -51t39.5 -19q54 0 83.5 58t29.5 166q0 105 -63 176q-63 70 -175 70q-76 0 -137.5 -34.5t-98.5 -92.5q-74 -117 -74 -260q0 -116 52 -182.5t155 -66.5q68 0 145 44zM433 273l20 117q7 41 -15.5 67t-62.5 26q-53 0 -87 -51
q-33 -51 -33 -121q0 -112 84 -112q38 0 63 20.5t31 53.5z" />
    <glyph glyph-name="A" unicode="A" horiz-adv-x="602" 
d="M527 0h-65l-27 149h-337l-78 -149h-70l375 700h73zM349 621h-2l-220 -418h298z" />
    <glyph glyph-name="B" unicode="B" horiz-adv-x="643" 
d="M285 0h-255l123 700h246q91 0 140 -42.5t49 -112.5q0 -73 -39 -117q-38 -43 -87 -58v-2q43 -15 69.5 -56t26.5 -95q0 -94 -68 -156q-67 -61 -205 -61zM208 640l-42 -240h180q83 0 130 39t47 99q0 48 -32 75t-96 27h-187zM156 342l-49 -280h196q86 0 138 46q53 47 53 113
q0 57 -37 88t-107 31z" />
    <glyph glyph-name="C" unicode="C" horiz-adv-x="652" 
d="M50 289q0 187 98 306q98 120 232 120q104 0 170 -69q68 -68 66 -172l-68 -5q-2 77 -44 130t-132 53q-107 0 -180 -106t-73 -257q0 -107 51 -173q53 -65 139 -65q79 0 132 53.5t74 143.5l70 -19q-24 -113 -98 -178.5t-181 -65.5q-118 0 -187 83q-69 84 -69 221z" />
    <glyph glyph-name="D" unicode="D" horiz-adv-x="662" 
d="M208 640l-102 -578h133q143 0 226 96q82 97 82 256q0 109 -51 167.5t-149 58.5h-139zM252 0h-222l123 700h205q123 0 191 -75.5t68 -208.5q0 -211 -112 -317q-105 -99 -253 -99z" />
    <glyph glyph-name="E" unicode="E" horiz-adv-x="576" 
d="M443 0h-413l123 700h413l-10 -60h-348l-44 -250h320l-10 -58h-320l-48 -271h348z" />
    <glyph glyph-name="F" unicode="F" horiz-adv-x="567" 
d="M95 0h-65l123 700h414l-10 -60h-349l-49 -275h321l-10 -58h-321z" />
    <glyph glyph-name="G" unicode="G" horiz-adv-x="664" 
d="M380 715q100 0 168 -66q66 -65 68 -170l-70 -6q-3 82 -46.5 130.5t-127.5 48.5q-106 0 -179 -106q-74 -106 -74 -257q0 -106 53 -173q53 -65 141 -65q91 0 150 63q59 65 75 158h-188l11 63h258l-9 -55q-19 -129 -100 -213q-79 -82 -200 -82q-119 0 -190 83
q-70 83 -70 221q0 187 98 306q98 120 232 120z" />
    <glyph glyph-name="H" unicode="H" horiz-adv-x="652" 
d="M96 0h-66l123 700h66l-54 -307h337l54 307h66l-123 -700h-66l59 333h-337z" />
    <glyph glyph-name="I" unicode="I" horiz-adv-x="250" 
d="M97 0h-67l123 700h67z" />
    <glyph glyph-name="J" unicode="J" horiz-adv-x="452" 
d="M-5 150l65 14q14 -116 96 -116q41 0 68 32t37 90l94 530h67l-94 -532q-32 -183 -178 -183q-63 0 -105.5 45t-49.5 120z" />
    <glyph glyph-name="K" unicode="K" horiz-adv-x="588" 
d="M514 700h89l-318 -311l217 -389h-75l-187 344h-2l-100 -100l-43 -244h-65l123 700h65l-62 -354h2z" />
    <glyph glyph-name="L" unicode="L" horiz-adv-x="480" 
d="M404 0h-374l123 700h67l-112 -640h307z" />
    <glyph glyph-name="M" unicode="M" horiz-adv-x="840" 
d="M724 605l-354 -605h-16l-151 605h-2l-106 -605h-65l123 700h96l134 -561h2l322 561h103l-123 -700h-67l106 605h-2z" />
    <glyph glyph-name="N" unicode="N" horiz-adv-x="662" 
d="M95 0h-65l123 700h56l255 -574h2l101 574h65l-123 -700h-53l-258 574h-2z" />
    <glyph glyph-name="O" unicode="O" horiz-adv-x="687" 
d="M380 652q-109 0 -185 -103t-76 -260q0 -107 52 -172q52 -66 136 -66q111 0 186 101q75 102 75 259q0 108 -51 174q-51 67 -137 67zM307 -15q-116 0 -187 83q-70 83 -70 221q0 98 28.5 181.5t76.5 135.5q101 109 225 109q116 0 187 -84q70 -82 70 -220q0 -98 -28 -181
t-76 -137q-99 -108 -226 -108z" />
    <glyph glyph-name="P" unicode="P" horiz-adv-x="608" 
d="M95 0h-65l123 700h237q93 0 145.5 -48t52.5 -128q0 -117 -76 -184q-76 -66 -203 -66h-166zM208 640l-54 -305h168q82 0 141 48t59 141q0 55 -36.5 85.5t-109.5 30.5h-168z" />
    <glyph glyph-name="Q" unicode="Q" horiz-adv-x="707" 
d="M307 -15q-116 0 -187 83q-70 83 -70 221q0 98 28.5 181.5t76.5 135.5q101 109 225 109q116 0 187 -84q70 -82 70 -220q0 -176 -84 -292l76 -90l-44 -35l-69 81q-90 -90 -209 -90zM380 652q-109 0 -185 -103t-76 -260q0 -107 52 -172q52 -66 136 -66q95 0 165 76l-153 183
l44 35l144 -172q61 100 61 238q0 108 -51 174q-51 67 -137 67z" />
    <glyph glyph-name="R" unicode="R" horiz-adv-x="638" 
d="M95 0h-65l123 700h257q93 0 145.5 -46.5t52.5 -129.5q0 -96 -56 -156.5t-159 -76.5l112 -291h-73l-109 285h-178zM208 640l-52 -295h175q95 0 153 48t58 131q0 116 -146 116h-188z" />
    <glyph glyph-name="S" unicode="S" horiz-adv-x="621" 
d="M30 244l69 9q4 -205 194 -205q77 0 133 47q55 46 55 116q0 39 -29 70q-28 29 -123 61q-129 41 -178 80q-48 38 -48 105q0 76 65 132t176 56q102 0 166 -55q66 -54 66 -144l-68 -7q-2 67 -44.5 106t-123.5 39q-74 0 -121 -36t-47 -88q1 -29 12 -44.5t49.5 -34.5t126.5 -50
q112 -38 150 -79q39 -40 39 -110q0 -93 -71 -161q-70 -66 -192 -66q-116 0 -186 67t-70 192z" />
    <glyph glyph-name="T" unicode="T" horiz-adv-x="565" 
d="M245 0h-71l113 640h-217l10 60h505l-10 -60h-217z" />
    <glyph glyph-name="U" unicode="U" horiz-adv-x="682" 
d="M76 228l83 472h68l-82 -466q-32 -186 144 -186q182 0 213 184l82 468h68l-83 -472q-43 -243 -283 -243q-117 0 -173.5 64.5t-36.5 178.5z" />
    <glyph glyph-name="V" unicode="V" horiz-adv-x="641" 
d="M298 0h-98l-120 700h72l106 -636l323 636h80z" />
    <glyph glyph-name="W" unicode="W" horiz-adv-x="919" 
d="M582 0l-73 630h-3l-295 -630h-98l-3 700h72l-1 -620h2l286 620h98l68 -620h2l217 620h75l-249 -700h-98z" />
    <glyph glyph-name="X" unicode="X" horiz-adv-x="539" 
d="M264 309l-234 -309h-80l279 361l-142 339h69l115 -287h2l206 287h80l-250 -339l152 -361h-70l-125 309h-2z" />
    <glyph glyph-name="Y" unicode="Y" horiz-adv-x="558" 
d="M245 0h-67l52 295l-160 405h70l130 -338h2l246 338h80l-301 -405z" />
    <glyph glyph-name="Z" unicode="Z" horiz-adv-x="618" 
d="M490 0h-495l8 48l514 590v2h-385l10 60h476l-8 -48l-512 -587v-2h404z" />
    <glyph glyph-name="bracketleft" unicode="[" horiz-adv-x="418" 
d="M277 -182h-217l161 912h217l-9 -50h-162l-143 -812h162z" />
    <glyph glyph-name="backslash" unicode="\" horiz-adv-x="468" 
d="M438 -16l-48 -20l-360 758l48 22z" />
    <glyph glyph-name="bracketright" unicode="]" horiz-adv-x="428" 
d="M141 730h217l-161 -912h-217l9 50h162l143 812h-162z" />
    <glyph glyph-name="asciicircum" unicode="^" horiz-adv-x="540" 
d="M146 325h-66l173 375h34l173 -375h-67l-123 282z" />
    <glyph glyph-name="underscore" unicode="_" horiz-adv-x="532" 
d="M462 -130h-502v60h502v-60z" />
    <glyph glyph-name="grave" unicode="`" horiz-adv-x="296" 
d="M226 595h-59l-107 120h88z" />
    <glyph glyph-name="a" unicode="a" horiz-adv-x="548" 
d="M391 254l12 75q11 73 -16.5 114.5t-89.5 41.5q-73 0 -133 -86q-59 -86 -59 -203q0 -68 32 -108.5t83 -40.5q62 0 108 51t63 156zM508 530l-93 -530h-59l10 61h-2q-20 -32 -59.5 -54t-92.5 -22q-70 0 -121 54t-51 153q0 149 79 250q79 103 188 103q85 0 121 -63h3l9 48h68
z" />
    <glyph glyph-name="b" unicode="b" horiz-adv-x="582" 
d="M157 349l-33 -187q-7 -42 34 -80q40 -37 104 -37q92 0 148 71q55 71 55 185q0 78 -38 131t-109 53q-61 0 -107 -43q-47 -44 -54 -93zM94 0h-64l129 730h65l-44 -246h2q58 61 153 61q87 0 142 -70q55 -68 55 -174q0 -139 -74 -228q-73 -88 -181 -88q-117 0 -169 78h-2z
" />
    <glyph glyph-name="c" unicode="c" horiz-adv-x="561" 
d="M421 184l63 -21q-25 -86 -83.5 -132t-142.5 -46q-98 0 -158 64q-60 65 -60 174q0 145 81 233q81 89 187 89q94 0 149 -61q56 -62 53 -149l-67 -5q2 64 -32 109q-33 46 -103 46q-80 0 -141 -72q-60 -71 -60 -189q0 -81 42.5 -129t108.5 -48q122 0 163 137z" />
    <glyph glyph-name="d" unicode="d" horiz-adv-x="589" 
d="M245 -15q-96 0 -150.5 63t-54.5 167q0 150 76 239q76 91 186 91q103 0 157 -78h2l47 263h66l-129 -730h-60l8 49h-2q-17 -24 -58 -44q-42 -20 -88 -20zM252 45q61 0 104 34q44 35 53 83l33 187q9 51 -30 93q-37 43 -105 43q-89 0 -144 -76q-55 -74 -55 -189
q0 -70 36 -123q37 -52 108 -52z" />
    <glyph glyph-name="e" unicode="e" horiz-adv-x="576" 
d="M442 155l53 -40q-94 -130 -237 -130q-98 0 -158 65q-60 64 -60 179q0 133 77 225q78 91 192 91q98 0 157 -62q60 -61 60 -162l-3 -75h-415q-1 -7 -1 -17q0 -49 13 -87q14 -42 50.5 -69.5t87.5 -27.5q112 0 184 110zM114 301h348q1 8 1 24q0 67 -40 113q-39 47 -114 47
q-79 0 -132 -57t-63 -127z" />
    <glyph glyph-name="f" unicode="f" horiz-adv-x="355" 
d="M74 530h74l11 60q11 59 40.5 84.5t79.5 25.5h81l-12 -62h-62q-34 0 -46.5 -13t-19.5 -55l-7 -40h131l-11 -60h-130l-83 -470h-65l83 470h-74z" />
    <glyph glyph-name="g" unicode="g" horiz-adv-x="586" 
d="M30 -91l61 23q16 -57 48 -84.5t91 -27.5q123 0 153 152l14 72h-2q-24 -27 -63 -43t-81 -16q-94 0 -151 64t-57 166q0 148 77 239q76 91 187 91q49 0 90 -19.5t65 -53.5h2l11 58h71l-93 -531q-21 -122 -76.5 -180.5t-153.5 -58.5q-74 0 -124.5 39.5t-68.5 109.5zM417 162
l33 187q9 51 -31 93q-40 43 -107 43q-88 0 -145 -76q-56 -76 -56 -189q0 -71 37 -123t110 -52q59 0 105 35q45 34 54 82z" />
    <glyph glyph-name="h" unicode="h" horiz-adv-x="557" 
d="M96 0h-66l129 730h66l-44 -246h2q23 26 62 43.5t84 17.5q93 0 136 -60q43 -59 27 -150l-59 -335h-66l58 324q28 160 -107 160q-58 0 -105 -39q-45 -38 -56 -100z" />
    <glyph glyph-name="i" unicode="i" horiz-adv-x="235" 
d="M95 0h-65l93 530h65zM206 617h-81l14 83h81z" />
    <glyph glyph-name="j" unicode="j" horiz-adv-x="240" 
d="M-30 -195h-30l11 65h14q30 0 41 9t16 38l107 613h65l-109 -622q-18 -103 -115 -103zM211 617h-81l14 83h81z" />
    <glyph glyph-name="k" unicode="k" horiz-adv-x="504" 
d="M95 0h-65l129 730h65l-81 -455h2l280 255h89l-235 -213l162 -317h-71l-141 278h-2l-98 -88z" />
    <glyph glyph-name="l" unicode="l" horiz-adv-x="241" 
d="M97 0h-67l129 730h67z" />
    <glyph glyph-name="m" unicode="m" horiz-adv-x="826" 
d="M95 0h-65l93 530h58l-9 -51h2q56 66 137 66q52 0 89 -25.5t47 -60.5h2q23 38 64.5 62t92.5 24q79 0 125 -52q46 -50 31 -136l-63 -357h-65l61 358q11 61 -16.5 94t-80.5 33q-57 0 -93.5 -36.5t-48.5 -105.5l-60 -343h-65l63 358q10 59 -16 93t-80 34q-60 0 -95.5 -38
t-47.5 -104z" />
    <glyph glyph-name="n" unicode="n" horiz-adv-x="567" 
d="M96 0h-66l93 530h64l-7 -47h2q22 26 64 44t87 18q88 0 136 -54q49 -54 34 -140l-61 -351h-66l60 337q12 73 -18 110t-96 37q-63 0 -108.5 -38t-56.5 -101z" />
    <glyph glyph-name="o" unicode="o" horiz-adv-x="574" 
d="M40 229q0 146 79 231t188 85q99 0 158 -69q59 -70 59 -175q0 -146 -79 -231t-188 -85q-99 0 -158 69q-59 71 -59 175zM105 229q0 -79 39 -132q40 -52 110 -52q85 0 145 68t60 188q0 79 -40 131q-39 53 -109 53q-86 0 -146 -68q-59 -68 -59 -188z" />
    <glyph glyph-name="p" unicode="p" horiz-adv-x="571" 
d="M146 349l-33 -187q-7 -42 34 -80q40 -37 104 -37q93 0 149 71q56 73 56 185q0 81 -39 132.5t-110 51.5q-61 0 -107 -43q-46 -44 -54 -93zM45 -225h-65l133 755h63l-9 -51h2q58 66 149 66q92 0 147 -69q56 -70 56 -175q0 -141 -73 -229q-72 -87 -181 -87q-111 0 -169 78
h-2z" />
    <glyph glyph-name="q" unicode="q" horiz-adv-x="583" 
d="M245 -15q-91 0 -148 64t-57 166q0 150 76 239q76 91 186 91q105 0 157 -73h2l11 58h71l-133 -755h-65l48 274h-2q-17 -24 -58 -44q-42 -20 -88 -20zM252 45q59 0 105 35q46 34 55 82l34 187q9 51 -30 93q-39 43 -109 43q-89 0 -144 -76q-55 -74 -55 -189q0 -70 36 -123
q37 -52 108 -52z" />
    <glyph glyph-name="r" unicode="r" horiz-adv-x="343" 
d="M95 0h-65l93 530h63l-10 -56h2q22 32 55 49t67 17q29 0 39 -8l4 -2l-24 -66q-11 8 -41 8q-47 0 -80 -35t-45 -105z" />
    <glyph glyph-name="s" unicode="s" horiz-adv-x="502" 
d="M30 182l64 9q14 -147 140 -147q69 0 109 32.5t40 82.5q0 31 -26 52q-25 22 -106 42q-102 26 -138 56q-38 32 -38 82q0 65 51 109q52 45 143 45q83 0 133.5 -44.5t54.5 -117.5l-61 -8q-5 52 -38 82.5t-88 30.5q-61 0 -97 -27.5t-36 -64.5q0 -33 28 -49q31 -18 125 -43
q87 -23 121.5 -58.5t34.5 -93.5q0 -63 -55 -115q-53 -52 -152 -52q-95 0 -151 56q-55 55 -58 141z" />
    <glyph glyph-name="t" unicode="t" horiz-adv-x="335" 
d="M77 143l57 327h-74l10 60h76l24 130h63l-23 -130h130l-11 -60h-130l-56 -318q-9 -49 1 -68.5t48 -19.5h38l-12 -64h-40q-127 0 -101 143z" />
    <glyph glyph-name="u" unicode="u" horiz-adv-x="562" 
d="M55 181l61 349h65l-61 -349q-24 -136 118 -136q67 0 108 39.5t53 112.5l58 333h65l-93 -530h-65l9 51h-2q-3 -5 -16 -18q-11 -11 -48 -30q-37 -18 -82 -18q-85 0 -136 47t-34 149z" />
    <glyph glyph-name="v" unicode="v" horiz-adv-x="525" 
d="M233 0h-52l-121 530h67l94 -434h2l243 434h74z" />
    <glyph glyph-name="w" unicode="w" horiz-adv-x="770" 
d="M175 0h-66l-24 530h66l14 -414h2l221 414h71l75 -414h2l169 414h70l-220 -530h-63l-80 451z" />
    <glyph glyph-name="x" unicode="x" horiz-adv-x="489" 
d="M55 0h-75l225 272l-121 258h66l96 -213h2l169 213h77l-210 -258l129 -272h-69l-104 225h-2z" />
    <glyph glyph-name="y" unicode="y" horiz-adv-x="522" 
d="M532 530l-415 -755h-67l163 293l-111 462h65l89 -379h2l200 379h74z" />
    <glyph glyph-name="z" unicode="z" horiz-adv-x="572" 
d="M443 0h-438l9 49l423 419v2h-328l10 60h423l-8 -47l-421 -419v-2h341z" />
    <glyph glyph-name="braceleft" unicode="{" horiz-adv-x="384" 
d="M68 -47l43 245q5 32 -4.5 45t-38.5 13h-28l16 89h28q29 0 43.5 14t20.5 47l40 217q11 58 42 82.5t88 24.5h66l-9 -50h-50q-44 0 -60 -15.5t-25 -59.5l-37 -202q-6 -35 -27 -61q-29 -34 -62 -41q7 -2 15 -7t20 -15.5t17.5 -31t0.5 -46.5l-47 -264q-6 -38 6 -53t51 -15h53
l-9 -50h-54q-65 0 -88 32t-11 102z" />
    <glyph glyph-name="bar" unicode="|" horiz-adv-x="195" 
d="M125 -300h-55v1075h55v-1075z" />
    <glyph glyph-name="braceright" unicode="}" horiz-adv-x="403" 
d="M286 596l-34 -193q-5 -32 4.5 -45t38.5 -13h28l-16 -89h-28q-29 0 -43.5 -14t-20.5 -47l-49 -269q-11 -58 -42 -82.5t-88 -24.5h-66l9 50h50q44 0 60 15.5t25 59.5l46 254q6 35 27 61q28 33 61 41q-12 4 -34 22q-28 27 -18 78l38 212q6 38 -6 53t-51 15h-53l9 50h55
q65 0 87.5 -32t10.5 -102z" />
    <glyph glyph-name="asciitilde" unicode="~" horiz-adv-x="595" 
d="M194 400q-40 0 -60 -31q-13 -23 -25 -58l-49 15q14 60 48 98t85 38q36 1 76.5 -21.5t75 -45t56.5 -20.5q41 0 59 31q11 17 14 25q4 9 12 33l49 -15q-14 -60 -48 -98t-85 -38q-36 -2 -77 20.5t-75.5 45t-55.5 21.5z" />
    <glyph glyph-name="nbspace" unicode="&#xa0;" horiz-adv-x="225" 
 />
    <glyph glyph-name="exclamdown" unicode="&#xa1;" horiz-adv-x="292" 
d="M88 329h65l-88 -499h-65zM96 530h106l-19 -106h-106z" />
    <glyph glyph-name="cent" unicode="&#xa2;" horiz-adv-x="621" 
d="M451 181l63 -18q-25 -86 -83.5 -132t-142.5 -46h-12l-16 -95h-35l17 100q-79 14 -125.5 78.5t-46.5 160.5q0 144 80 230q81 86 188 86h2l15 86h35l-16 -89q77 -13 122.5 -70.5t43.5 -136.5l-64 -5q1 59 -28 101.5t-84 51.5l-77 -438h1q120 0 163 136zM137 229
q0 -74 31 -121t85 -59l76 436q-81 -5 -136 -73q-56 -68 -56 -183z" />
    <glyph glyph-name="sterling" unicode="&#xa3;" horiz-adv-x="679" 
d="M537 0h-487l11 60h38q38 0 54.5 14.5t22.5 51.5l34 193h-104l11 59h104l22 127q18 101 73.5 155.5t141.5 54.5q82 0 127 -51.5t43 -148.5l-63 -5q0 76 -25 110.5t-86 34.5q-116 0 -145 -158l-21 -119h258l-11 -59h-258l-45 -259h316z" />
    <glyph glyph-name="currency" unicode="&#xa4;" horiz-adv-x="749" 
d="M160 74l-40 40l65 65q-47 65 -47 150q0 82 47 149l-65 65l40 40l63 -64q67 57 151 57q89 0 153 -55l62 62l40 -40l-64 -64q46 -67 46 -150q0 -86 -47 -151l65 -64l-40 -40l-64 63q-65 -51 -151 -51q-89 0 -150 52zM375 147q65 0 112 44q47 45 47 137q0 94 -47 139
q-46 46 -112 46q-67 0 -114 -46q-47 -45 -47 -139q0 -92 47 -137q49 -44 114 -44z" />
    <glyph glyph-name="yen" unicode="&#xa5;" horiz-adv-x="644" 
d="M301 0h-67l25 146h-209l10 55h209l17 93h-210l10 55h178l-138 351h70l130 -338h2l246 338h80l-261 -351h175l-10 -55h-205l-17 -93h206l-10 -55h-206z" />
    <glyph glyph-name="brokenbar" unicode="&#xa6;" horiz-adv-x="285" 
d="M175 321h-65v327h65v-327zM175 -131h-65v327h65v-327z" />
    <glyph glyph-name="section" unicode="&#xa7;" horiz-adv-x="545" 
d="M311 137l30 -19q87 48 87 114q0 27 -17 47t-61 44l-136 72l-30 19q-87 -46 -87 -114q0 -27 17 -47t61 -44zM344 -5q0 31 -17.5 51.5t-58.5 42.5l-124 65q-63 33 -88.5 64.5t-25.5 76.5q0 88 116 156q-30 37 -30 88q0 74 57 125t144 51q91 0 141.5 -55.5t45.5 -153.5
l-65 -3q0 79 -29 115.5t-92 36.5q-62 0 -99.5 -33t-37.5 -85q0 -31 17.5 -51.5t58.5 -42.5l124 -65q63 -33 88.5 -64.5t25.5 -76.5q0 -89 -114 -156h-2q30 -37 30 -88q0 -74 -57 -125t-144 -51q-92 0 -142 55.5t-45 153.5l65 3q0 -79 29 -115.5t92 -36.5q62 0 99.5 33
t37.5 85z" />
    <glyph glyph-name="dieresis" unicode="&#xa8;" horiz-adv-x="425" 
d="M151 617h-81l14 83h81zM341 617h-81l14 83h81z" />
    <glyph glyph-name="copyright" unicode="&#xa9;" horiz-adv-x="705" 
d="M45 354q0 130 88 218q89 89 219 89t219 -89t89 -218q0 -130 -89 -219t-219 -89q-131 0 -219 88t-88 220zM352 94q111 0 185 74q74 76 74 186t-74 184t-185 74q-110 0 -184 -74t-74 -184t74 -186q74 -74 184 -74zM439 307l52 -10q-8 -62 -43.5 -99t-91.5 -37
q-67 0 -109.5 50.5t-42.5 136.5q0 90 42.5 142.5t109.5 52.5q56 0 91.5 -36.5t41.5 -94.5l-52 -10q-12 91 -81 91q-44 0 -70.5 -38.5t-26.5 -106.5q0 -65 26.5 -101.5t70.5 -36.5q73 0 83 97z" />
    <glyph glyph-name="ordfeminine" unicode="&#xaa;" horiz-adv-x="367" 
d="M299 384h-46l6 37h-1q-28 -46 -90 -46q-46 0 -72 21.5t-26 59.5q0 48 31.5 71.5t99.5 36.5q53 10 69 18q16 7 18 29q2 19 -16.5 34.5t-47.5 15.5q-60 0 -80 -56l-44 18q27 83 120 83q53 0 89 -30q35 -30 25 -91zM266 484l12 61h-1q-8 -10 -76 -23q-80 -15 -80 -58
q0 -20 14 -31t38 -11q39 0 63.5 17t29.5 45z" />
    <glyph glyph-name="guillemotleft" unicode="&#xab;" horiz-adv-x="537" 
d="M213 87h-65l-78 210l139 164h78l-149 -173zM403 87h-65l-78 210l139 164h78l-149 -173z" />
    <glyph glyph-name="logicalnot" unicode="&#xac;" horiz-adv-x="637" 
d="M482 391h-412v60h477v-238h-65v178z" />
    <glyph glyph-name="registered" unicode="&#xae;" horiz-adv-x="437" 
d="M241 379q65 0 108 43t43 108q0 64 -43 107q-44 44 -108 44t-107 -43t-43 -108t43 -108t107 -43zM366 405q-51 -51 -125 -51t-125 51t-51 125t51 125t125 51t125 -51t51 -125t-51 -125zM202 423h-22v213h62q77 0 77 -63q0 -49 -55 -59l47 -91h-27l-45 90h-37v-90zM202 614
v-79h42q51 0 51 38q0 41 -51 41h-42z" />
    <glyph glyph-name="overscore" unicode="&#xaf;" horiz-adv-x="437" 
d="M358 620h-288l9 50h288z" />
    <glyph glyph-name="degree" unicode="&#xb0;" horiz-adv-x="395" 
d="M227 767q58 0 95 -40q38 -41 38 -99t-38 -98q-38 -39 -95 -39t-94.5 39.5t-37.5 97.5q0 57 38 98t94 41zM299 628q0 86 -72 86t-72 -86q0 -43 19.5 -63.5t52.5 -20.5t52.5 20.5t19.5 63.5z" />
    <glyph glyph-name="plusminus" unicode="&#xb1;" horiz-adv-x="598" 
d="M518 101h-438v60h438v-60zM329 225h-60v193h-199v55h199v177h60v-177h199v-55h-199v-193z" />
    <glyph glyph-name="twosuperior" unicode="&#xb2;" horiz-adv-x="358" 
d="M334 473h-274l8 43q10 65 38 99q29 35 98 63q72 30 99 53t27 58q0 29 -20.5 46t-53.5 17q-76 0 -96 -87l-56 12q10 59 51.5 93.5t99.5 34.5q61 0 97 -33t36 -82q0 -53 -36 -86t-119 -68q-57 -24 -76 -46q-18 -21 -26 -59h214z" />
    <glyph glyph-name="threesuperior" unicode="&#xb3;" horiz-adv-x="381" 
d="M80 622l56 7q3 -110 94 -110q44 0 67 23.5t23 65.5q0 67 -79 67h-23l9 49h26q37 0 59 19.5t22 55.5q0 24 -18.5 39.5t-48.5 15.5q-32 0 -54 -19t-31 -50l-50 15q9 45 45.5 75t90.5 30q53 0 87.5 -28.5t34.5 -71.5q2 -80 -73 -104v-2q58 -19 58 -94q0 -63 -38 -100
t-108 -37q-69 0 -108 40.5t-41 113.5z" />
    <glyph glyph-name="acute" unicode="&#xb4;" horiz-adv-x="285" 
d="M119 595h-59l77 120h88z" />
    <glyph glyph-name="mu" unicode="&#xb5;" horiz-adv-x="596" 
d="M139 -225h-64v755h65v-324q0 -77 41 -119t111 -42q65 0 104.5 42t39.5 110v333h65v-530h-65v51h-2q-6 -7 -18 -18q-9 -9 -49 -30q-37 -18 -79 -18q-100 0 -149 57v-267z" />
    <glyph glyph-name="paragraph" unicode="&#xb6;" horiz-adv-x="555" 
d="M176 -136h-70l78 444q-60 2 -97 40.5t-37 98.5q0 88 55 140q56 53 142 53h278l-137 -776h-66l126 716h-146z" />
    <glyph glyph-name="middot" unicode="&#xb7;" horiz-adv-x="285" 
d="M186 332h-106l19 106h106z" />
    <glyph glyph-name="cedilla" unicode="&#xb8;" horiz-adv-x="313" 
d="M40 -176l27 40q29 -29 73 -29q63 0 63 47q0 41 -58 41q-26 0 -49 -13l-6 -5l-29 15l47 80h43l-37 -58q22 14 51 14q36 0 62 -21t26 -55q0 -44 -29.5 -67.5t-78.5 -23.5q-27 0 -52 8t-37 15.5t-16 11.5z" />
    <glyph glyph-name="onesuperior" unicode="&#xb9;" horiz-adv-x="279" 
d="M188 473h-55l64 355l-102 -55l13 69l108 58h49z" />
    <glyph glyph-name="ordmasculine" unicode="&#xba;" horiz-adv-x="366" 
d="M65 519q0 87 45 137q47 50 110 50q59 0 95 -40t36 -104q0 -88 -46 -137q-45 -50 -109 -50q-59 0 -95 40t-36 104zM120 523q0 -40 19.5 -68t53.5 -28q45 0 74 36t29 98q0 39 -20 66.5t-54 27.5q-46 0 -74 -35.5t-28 -96.5z" />
    <glyph glyph-name="guillemotright" unicode="&#xbb;" horiz-adv-x="532" 
d="M118 461h65l77 -205l-142 -169h-78l152 178zM310 461h65l77 -205l-142 -169h-78l152 178z" />
    <glyph glyph-name="onequarter" unicode="&#xbc;" horiz-adv-x="967" 
d="M226 -67l-45 27l489 815l44 -28zM203 273h-55l64 355l-102 -55l13 69l108 58h49zM712 93h-202l10 54l220 280h88l-49 -281h53l-10 -53h-52l-14 -93h-59zM762 384l-186 -238h144l44 238h-2z" />
    <glyph glyph-name="onehalf" unicode="&#xbd;" horiz-adv-x="986" 
d="M226 -68l-45 27l489 815l44 -28zM203 272h-55l64 355l-102 -55l13 69l108 58h49zM842 0h-274l8 43q10 65 38 99q29 35 98 63q72 30 99 53t27 58q0 29 -20.5 46t-53.5 17q-76 0 -96 -87l-56 12q10 59 51.5 93.5t99.5 34.5q61 0 97 -33t36 -82q0 -53 -36 -86t-119 -68
q-57 -24 -76 -46q-18 -21 -26 -59h214z" />
    <glyph glyph-name="threequarters" unicode="&#xbe;" horiz-adv-x="991" 
d="M283 -67l-45 27l489 815l44 -28zM70 422l56 7q3 -110 94 -110q44 0 67 23.5t23 65.5q0 67 -79 67h-23l9 49h26q37 0 59 19.5t22 55.5q0 24 -18.5 39.5t-48.5 15.5q-32 0 -54 -19t-31 -50l-50 15q9 45 45.5 75t90.5 30q53 0 87.5 -28.5t34.5 -71.5q2 -80 -73 -104v-2
q58 -19 58 -94q0 -63 -38 -100t-108 -37q-69 0 -108 40.5t-41 113.5zM756 93h-202l10 54l220 280h88l-49 -281h53l-10 -53h-52l-14 -93h-59zM806 384l-186 -238h144l44 238h-2z" />
    <glyph glyph-name="questiondown" unicode="&#xbf;" horiz-adv-x="552" 
d="M290 530h106l-19 -106h-106zM284 352h65l-12 -64q-12 -65 -70 -102l-98 -61q-51 -32 -72.5 -62t-21.5 -79q0 -45 36 -77t100 -32t104.5 38t53.5 108l63 -13q-12 -84 -72 -138q-58 -55 -151 -55q-83 0 -142 48q-57 47 -57 121q0 63 27.5 104.5t82.5 77.5l104 67
q42 27 47 56z" />
    <glyph glyph-name="Agrave" unicode="&#xc0;" horiz-adv-x="602" 
d="M527 0h-65l-27 149h-337l-78 -149h-70l375 700h73zM349 621h-2l-220 -418h298zM392 765h-59l-107 120h88z" />
    <glyph glyph-name="Aacute" unicode="&#xc1;" horiz-adv-x="602" 
d="M527 0h-65l-27 149h-337l-78 -149h-70l375 700h73zM349 621h-2l-220 -418h298zM406 765h-59l78 120h88z" />
    <glyph glyph-name="Acircumflex" unicode="&#xc2;" horiz-adv-x="602" 
d="M527 0h-65l-27 149h-337l-78 -149h-70l375 700h73zM349 621h-2l-220 -418h298zM288 747l-36 40l79 78h90l62 -86l-45 -32l-63 88z" />
    <glyph glyph-name="Atilde" unicode="&#xc3;" horiz-adv-x="602" 
d="M527 0h-65l-27 149h-337l-78 -149h-70l375 700h73zM349 621h-2l-220 -418h298zM266 765h-40q34 88 100 88q25 0 56 -19q31 -18 49 -18q26 0 40 32h40q-33 -88 -99 -88q-26 0 -57 18q-31 19 -49 19q-26 0 -40 -32z" />
    <glyph glyph-name="Adieresis" unicode="&#xc4;" horiz-adv-x="602" 
d="M527 0h-65l-27 149h-337l-78 -149h-70l375 700h73zM349 621h-2l-220 -418h298zM501 765h-81l15 83h81zM311 765h-81l15 83h81z" />
    <glyph glyph-name="Aring" unicode="&#xc5;" horiz-adv-x="602" 
d="M271 773q0 49 30 81.5t78 32.5q37 0 62.5 -25t25.5 -61q0 -38 -18.5 -67t-49.5 -40l128 -694h-65l-27 149h-337l-78 -149h-70l372 694q-51 22 -51 79zM349 621h-2l-220 -418h298zM419 800q0 22 -12.5 34.5t-30.5 12.5q-24 0 -40.5 -20t-16.5 -53q0 -22 12.5 -34.5
t30.5 -12.5q24 0 40.5 20t16.5 53z" />
    <glyph glyph-name="AE" unicode="&#xc6;" horiz-adv-x="866" 
d="M355 0l28 158h-256l-86 -158h-76l388 700h508l-10 -60h-318l-43 -242h291l-10 -58h-291l-49 -280h318l-11 -60h-383zM468 640h-79l-232 -426h235z" />
    <glyph glyph-name="Ccedilla" unicode="&#xc7;" horiz-adv-x="652" 
d="M231 -176l27 40q29 -29 73 -29q63 0 63 47q0 41 -58 41q-27 0 -48 -13l-7 -5l-29 15l38 66q-112 5 -176 87t-64 216q0 187 98 306q98 120 232 120q104 0 170 -69q68 -68 66 -172l-68 -5q-2 77 -44 130t-132 53q-107 0 -180 -106t-73 -257q0 -107 51 -173q53 -65 139 -65
q79 0 132 53.5t74 143.5l70 -19q-22 -104 -88.5 -169t-163.5 -74l-28 -44q22 14 51 14q36 0 62 -21t26 -55q0 -44 -29.5 -67.5t-78.5 -23.5q-27 0 -52 8t-37 15.5t-16 11.5z" />
    <glyph glyph-name="Egrave" unicode="&#xc8;" horiz-adv-x="576" 
d="M443 0h-413l123 700h413l-10 -60h-348l-44 -250h320l-10 -58h-320l-48 -271h348zM418 765h-59l-107 120h88z" />
    <glyph glyph-name="Eacute" unicode="&#xc9;" horiz-adv-x="576" 
d="M443 0h-413l123 700h413l-10 -60h-348l-44 -250h320l-10 -58h-320l-48 -271h348zM391 765h-59l78 120h88z" />
    <glyph glyph-name="Ecircumflex" unicode="&#xca;" horiz-adv-x="576" 
d="M443 0h-413l123 700h413l-10 -60h-348l-44 -250h320l-10 -58h-320l-48 -271h348zM286 747l-36 40l79 78h90l62 -86l-45 -32l-63 88z" />
    <glyph glyph-name="Edieresis" unicode="&#xcb;" horiz-adv-x="576" 
d="M443 0h-413l123 700h413l-10 -60h-348l-44 -250h320l-10 -58h-320l-48 -271h348zM507 765h-81l15 83h81zM317 765h-81l15 83h81z" />
    <glyph glyph-name="Igrave" unicode="&#xcc;" horiz-adv-x="250" 
d="M97 0h-67l123 700h67zM218 765h-59l-107 120h88z" />
    <glyph glyph-name="Iacute" unicode="&#xcd;" horiz-adv-x="250" 
d="M97 0h-67l123 700h67zM225 765h-59l78 120h88z" />
    <glyph glyph-name="Icircumflex" unicode="&#xce;" horiz-adv-x="250" 
d="M97 0h-67l123 700h67zM111 747l-36 40l79 78h90l62 -86l-45 -32l-63 88z" />
    <glyph glyph-name="Idieresis" unicode="&#xcf;" horiz-adv-x="250" 
d="M97 0h-67l123 700h67zM326 765h-81l15 83h81zM136 765h-81l15 83h81z" />
    <glyph glyph-name="Eth" unicode="&#xd0;" horiz-adv-x="671" 
d="M266 0h-222l59 338h-68l10 60h69l53 302h205q123 0 191 -75.5t68 -208.5q0 -211 -112 -317q-105 -99 -253 -99zM168 338l-48 -276h133q143 0 226 96q82 97 82 256q0 109 -51 167.5t-149 58.5h-139l-43 -242h202l-10 -60h-203z" />
    <glyph glyph-name="Ntilde" unicode="&#xd1;" horiz-adv-x="662" 
d="M95 0h-65l123 700h56l255 -574h2l101 574h65l-123 -700h-53l-258 574h-2zM312 765h-40q34 88 100 88q25 0 56 -19q31 -18 49 -18q26 0 40 32h40q-33 -88 -99 -88q-26 0 -57 18q-31 19 -49 19q-26 0 -40 -32z" />
    <glyph glyph-name="Ograve" unicode="&#xd2;" horiz-adv-x="687" 
d="M380 652q-109 0 -185 -103t-76 -260q0 -107 52 -172q52 -66 136 -66q111 0 186 101q75 102 75 259q0 108 -51 174q-51 67 -137 67zM307 -15q-116 0 -187 83q-70 83 -70 221q0 98 28.5 181.5t76.5 135.5q101 109 225 109q116 0 187 -84q70 -82 70 -220q0 -98 -28 -181
t-76 -137q-99 -108 -226 -108zM430 765h-59l-107 120h88z" />
    <glyph glyph-name="Oacute" unicode="&#xd3;" horiz-adv-x="687" 
d="M380 652q-109 0 -185 -103t-76 -260q0 -107 52 -172q52 -66 136 -66q111 0 186 101q75 102 75 259q0 108 -51 174q-51 67 -137 67zM307 -15q-116 0 -187 83q-70 83 -70 221q0 98 28.5 181.5t76.5 135.5q101 109 225 109q116 0 187 -84q70 -82 70 -220q0 -98 -28 -181
t-76 -137q-99 -108 -226 -108zM424 765h-59l78 120h88z" />
    <glyph glyph-name="Ocircumflex" unicode="&#xd4;" horiz-adv-x="687" 
d="M380 652q-109 0 -185 -103t-76 -260q0 -107 52 -172q52 -66 136 -66q111 0 186 101q75 102 75 259q0 108 -51 174q-51 67 -137 67zM307 -15q-116 0 -187 83q-70 83 -70 221q0 98 28.5 181.5t76.5 135.5q101 109 225 109q116 0 187 -84q70 -82 70 -220q0 -98 -28 -181
t-76 -137q-99 -108 -226 -108zM321 747l-36 40l79 78h90l62 -86l-45 -32l-63 88z" />
    <glyph glyph-name="Otilde" unicode="&#xd5;" horiz-adv-x="687" 
d="M380 652q-109 0 -185 -103t-76 -260q0 -107 52 -172q52 -66 136 -66q111 0 186 101q75 102 75 259q0 108 -51 174q-51 67 -137 67zM307 -15q-116 0 -187 83q-70 83 -70 221q0 98 28.5 181.5t76.5 135.5q101 109 225 109q116 0 187 -84q70 -82 70 -220q0 -98 -28 -181
t-76 -137q-99 -108 -226 -108zM301 765h-40q34 88 100 88q25 0 56 -19q31 -18 49 -18q26 0 40 32h40q-33 -88 -99 -88q-25 0 -57 18q-31 19 -49 19q-26 0 -40 -32z" />
    <glyph glyph-name="Odieresis" unicode="&#xd6;" horiz-adv-x="687" 
d="M380 652q-109 0 -185 -103t-76 -260q0 -107 52 -172q52 -66 136 -66q111 0 186 101q75 102 75 259q0 108 -51 174q-51 67 -137 67zM307 -15q-116 0 -187 83q-70 83 -70 221q0 98 28.5 181.5t76.5 135.5q101 109 225 109q116 0 187 -84q70 -82 70 -220q0 -98 -28 -181
t-76 -137q-99 -108 -226 -108zM536 765h-81l15 83h81zM346 765h-81l15 83h81z" />
    <glyph glyph-name="multiply" unicode="&#xd7;" horiz-adv-x="591" 
d="M123 121l-43 43l172 172l-162 162l43 43l162 -162l163 162l43 -43l-163 -162l173 -172l-43 -43l-173 172z" />
    <glyph glyph-name="Oslash" unicode="&#xd8;" horiz-adv-x="687" 
d="M307 -15q-109 0 -178 74l-30 -36l-33 26l36 43q-52 82 -52 197q0 98 28.5 181.5t76.5 135.5q101 109 225 109q109 0 179 -76l32 38l31 -27l-37 -44q52 -79 52 -195q0 -98 -28 -181t-76 -137q-99 -108 -226 -108zM380 652q-109 0 -185 -103t-76 -260q0 -81 31 -139
l366 437q-53 65 -136 65zM568 411q0 78 -30 139l-364 -437q51 -62 133 -62q111 0 186 101q75 102 75 259z" />
    <glyph glyph-name="Ugrave" unicode="&#xd9;" horiz-adv-x="682" 
d="M76 228l83 472h68l-82 -466q-32 -186 144 -186q182 0 213 184l82 468h68l-83 -472q-43 -243 -283 -243q-117 0 -173.5 64.5t-36.5 178.5zM445 765h-59l-107 120h88z" />
    <glyph glyph-name="Uacute" unicode="&#xda;" horiz-adv-x="682" 
d="M76 228l83 472h68l-82 -466q-32 -186 144 -186q182 0 213 184l82 468h68l-83 -472q-43 -243 -283 -243q-117 0 -173.5 64.5t-36.5 178.5zM436 765h-59l78 120h88z" />
    <glyph glyph-name="Ucircumflex" unicode="&#xdb;" horiz-adv-x="682" 
d="M76 228l83 472h68l-82 -466q-32 -186 144 -186q182 0 213 184l82 468h68l-83 -472q-43 -243 -283 -243q-117 0 -173.5 64.5t-36.5 178.5zM326 747l-36 40l79 78h90l62 -86l-45 -32l-63 88z" />
    <glyph glyph-name="Udieresis" unicode="&#xdc;" horiz-adv-x="682" 
d="M76 228l83 472h68l-82 -466q-32 -186 144 -186q182 0 213 184l82 468h68l-83 -472q-43 -243 -283 -243q-117 0 -173.5 64.5t-36.5 178.5zM542 765h-81l15 83h81zM352 765h-81l15 83h81z" />
    <glyph glyph-name="Yacute" unicode="&#xdd;" horiz-adv-x="558" 
d="M245 0h-67l52 295l-160 405h70l130 -338h2l246 338h80l-301 -405zM355 765h-59l78 120h88z" />
    <glyph glyph-name="Thorn" unicode="&#xde;" horiz-adv-x="588" 
d="M85 0h-65l123 700h65l-21 -116h173q86 0 141 -49q57 -48 57 -127q0 -115 -79 -182q-77 -67 -200 -67h-166zM346 524h-169l-54 -305h169q83 0 141 49q59 50 59 140q0 54 -38.5 85t-107.5 31z" />
    <glyph glyph-name="germandbls" unicode="&#xdf;" horiz-adv-x="582" 
d="M97 0h-67l90 510q18 101 75 153t148 52q84 0 139 -47q55 -46 55 -120q0 -48 -22 -85q-34 -56 -93 -76q41 -13 66.5 -49.5t25.5 -93.5q0 -115 -69 -179.5t-206 -64.5h-32l11 60h27q103 0 153 48.5t50 137.5q0 55 -34 82.5t-94 27.5h-50l10 59h51q55 0 98 32q42 33 42 94
q0 52 -34 83t-96 31q-129 0 -157 -159z" />
    <glyph glyph-name="agrave" unicode="&#xe0;" horiz-adv-x="548" 
d="M391 254l12 75q11 73 -16.5 114.5t-89.5 41.5q-73 0 -133 -86q-59 -86 -59 -203q0 -68 32 -108.5t83 -40.5q62 0 108 51t63 156zM508 530l-93 -530h-59l10 61h-2q-20 -32 -59.5 -54t-92.5 -22q-70 0 -121 54t-51 153q0 149 79 250q79 103 188 103q85 0 121 -63h3l9 48h68
zM329 595h-59l-107 120h88z" />
    <glyph glyph-name="aacute" unicode="&#xe1;" horiz-adv-x="548" 
d="M391 254l12 75q11 73 -16.5 114.5t-89.5 41.5q-73 0 -133 -86q-59 -86 -59 -203q0 -68 32 -108.5t83 -40.5q62 0 108 51t63 156zM508 530l-93 -530h-59l10 61h-2q-20 -32 -59.5 -54t-92.5 -22q-70 0 -121 54t-51 153q0 149 79 250q79 103 188 103q85 0 121 -63h3l9 48h68
zM333 595h-59l77 120h88z" />
    <glyph glyph-name="acircumflex" unicode="&#xe2;" horiz-adv-x="548" 
d="M391 254l12 75q11 73 -16.5 114.5t-89.5 41.5q-73 0 -133 -86q-59 -86 -59 -203q0 -68 32 -108.5t83 -40.5q62 0 108 51t63 156zM508 530l-93 -530h-59l10 61h-2q-20 -32 -59.5 -54t-92.5 -22q-70 0 -121 54t-51 153q0 149 79 250q79 103 188 103q85 0 121 -63h3l9 48h68
zM213 582l-36 40l79 78h90l62 -86l-45 -32l-63 88z" />
    <glyph glyph-name="atilde" unicode="&#xe3;" horiz-adv-x="548" 
d="M391 254l12 75q11 73 -16.5 114.5t-89.5 41.5q-73 0 -133 -86q-59 -86 -59 -203q0 -68 32 -108.5t83 -40.5q62 0 108 51t63 156zM508 530l-93 -530h-59l10 61h-2q-20 -32 -59.5 -54t-92.5 -22q-70 0 -121 54t-51 153q0 149 79 250q79 103 188 103q85 0 121 -63h3l9 48h68
zM194 605h-40q34 88 100 88q25 0 56 -19q31 -18 49 -18q26 0 40 32h40q-33 -88 -99 -88q-26 0 -57 18q-31 19 -49 19q-26 0 -40 -32z" />
    <glyph glyph-name="adieresis" unicode="&#xe4;" horiz-adv-x="548" 
d="M391 254l12 75q11 73 -16.5 114.5t-89.5 41.5q-73 0 -133 -86q-59 -86 -59 -203q0 -68 32 -108.5t83 -40.5q62 0 108 51t63 156zM508 530l-93 -530h-59l10 61h-2q-20 -32 -59.5 -54t-92.5 -22q-70 0 -121 54t-51 153q0 149 79 250q79 103 188 103q85 0 121 -63h3l9 48h68
zM257 617h-81l14 83h81zM447 617h-81l14 83h81z" />
    <glyph glyph-name="aring" unicode="&#xe5;" horiz-adv-x="548" 
d="M314 723q37 0 62.5 -25t25.5 -61q0 -68 -49 -98q49 -13 75 -57h3l9 48h68l-93 -530h-59l10 61h-2q-20 -32 -59.5 -54t-92.5 -22q-70 0 -121 54t-51 153q0 125 59 220q58 94 148 123q-41 26 -41 74q0 49 30 81.5t78 32.5zM391 254l12 75q11 73 -16.5 114.5t-89.5 41.5
q-73 0 -133 -86q-59 -86 -59 -203q0 -68 32 -108.5t83 -40.5q62 0 108 51t63 156zM354 636q0 22 -12.5 34.5t-30.5 12.5q-24 0 -40.5 -20t-16.5 -53q0 -22 12.5 -34.5t30.5 -12.5q24 0 40.5 20t16.5 53z" />
    <glyph glyph-name="ae" unicode="&#xe6;" horiz-adv-x="933" 
d="M791 160l54 -34q-36 -66 -96 -103.5t-136 -37.5q-64 0 -115.5 32.5t-77.5 90.5h-2q-48 -123 -218 -123q-78 0 -124 38.5t-46 101.5q0 141 176 168l69 12q73 12 92 22q49 22 44 60q0 44 -34.5 70.5t-91.5 26.5q-103 0 -139 -102l-59 22q22 68 75.5 104.5t129.5 36.5
q57 0 102.5 -25.5t68.5 -74.5h2q75 100 199 100q96 0 158 -63q61 -62 61 -169l-3 -67h-417q-1 -7 -1 -17q0 -49 13 -87q14 -42 50.5 -69.5t87.5 -27.5q114 0 178 115zM469 301h348q1 8 1 24q0 66 -41 113t-113 47q-80 0 -132 -57q-53 -57 -63 -127zM375 155l18 134h-2
q-12 -18 -68 -30l-50 -11l-61 -11q-63 -11 -90 -36.5t-27 -68.5q0 -42 29.5 -64.5t85.5 -22.5q67 0 111.5 32.5t53.5 77.5z" />
    <glyph glyph-name="ccedilla" unicode="&#xe7;" horiz-adv-x="561" 
d="M181 -176l27 40q29 -29 73 -29q63 0 63 47q0 41 -58 41q-27 0 -48 -13l-7 -5l-29 15l38 66q-91 6 -145.5 69.5t-54.5 167.5q0 145 81 233q81 89 187 89q94 0 149 -61q56 -62 53 -149l-67 -5q2 64 -32 109q-33 46 -103 46q-80 0 -141 -72q-60 -71 -60 -189
q0 -81 42.5 -129t108.5 -48q122 0 163 137l63 -21q-23 -79 -75 -124.5t-126 -52.5l-28 -44q22 14 51 14q36 0 62 -21t26 -55q0 -44 -29.5 -67.5t-78.5 -23.5q-27 0 -52 8t-37 15.5t-16 11.5z" />
    <glyph glyph-name="egrave" unicode="&#xe8;" horiz-adv-x="576" 
d="M442 155l53 -40q-94 -130 -237 -130q-98 0 -158 65q-60 64 -60 179q0 133 77 225q78 91 192 91q98 0 157 -62q60 -61 60 -162l-3 -75h-415q-1 -7 -1 -17q0 -49 13 -87q14 -42 50.5 -69.5t87.5 -27.5q112 0 184 110zM114 301h348q1 8 1 24q0 67 -40 113q-39 47 -114 47
q-79 0 -132 -57t-63 -127zM351 595h-59l-107 120h88z" />
    <glyph glyph-name="eacute" unicode="&#xe9;" horiz-adv-x="576" 
d="M442 155l53 -40q-94 -130 -237 -130q-98 0 -158 65q-60 64 -60 179q0 133 77 225q78 91 192 91q98 0 157 -62q60 -61 60 -162l-3 -75h-415q-1 -7 -1 -17q0 -49 13 -87q14 -42 50.5 -69.5t87.5 -27.5q112 0 184 110zM114 301h348q1 8 1 24q0 67 -40 113q-39 47 -114 47
q-79 0 -132 -57t-63 -127zM349 595h-59l77 120h88z" />
    <glyph glyph-name="ecircumflex" unicode="&#xea;" horiz-adv-x="576" 
d="M442 155l53 -40q-94 -130 -237 -130q-98 0 -158 65q-60 64 -60 179q0 133 77 225q78 91 192 91q98 0 157 -62q60 -61 60 -162l-3 -75h-415q-1 -7 -1 -17q0 -49 13 -87q14 -42 50.5 -69.5t87.5 -27.5q112 0 184 110zM114 301h348q1 8 1 24q0 67 -40 113q-39 47 -114 47
q-79 0 -132 -57t-63 -127zM249 582l-36 40l79 78h90l62 -86l-45 -32l-63 88z" />
    <glyph glyph-name="edieresis" unicode="&#xeb;" horiz-adv-x="576" 
d="M442 155l53 -40q-94 -130 -237 -130q-98 0 -158 65q-60 64 -60 179q0 133 77 225q78 91 192 91q98 0 157 -62q60 -61 60 -162l-3 -75h-415q-1 -7 -1 -17q0 -49 13 -87q14 -42 50.5 -69.5t87.5 -27.5q112 0 184 110zM114 301h348q1 8 1 24q0 67 -40 113q-39 47 -114 47
q-79 0 -132 -57t-63 -127zM272 617h-81l14 83h81zM462 617h-81l14 83h81z" />
    <glyph glyph-name="igrave" unicode="&#xec;" horiz-adv-x="232" 
d="M95 0h-65l93 530h65zM193 595h-59l-107 120h88z" />
    <glyph glyph-name="iacute" unicode="&#xed;" horiz-adv-x="232" 
d="M95 0h-65l93 530h65zM194 595h-59l77 120h88z" />
    <glyph glyph-name="icircumflex" unicode="&#xee;" horiz-adv-x="232" 
d="M95 0h-65l93 530h65zM85 582l-36 40l79 78h90l62 -86l-45 -32l-63 88z" />
    <glyph glyph-name="idieresis" unicode="&#xef;" horiz-adv-x="232" 
d="M95 0h-65l93 530h65zM111 617h-81l14 83h81zM301 617h-81l14 83h81z" />
    <glyph glyph-name="eth" unicode="&#xf0;" horiz-adv-x="593" 
d="M228 621l-6 41l166 22q-25 42 -55 88l1 3h77q22 -33 46 -82l105 14l6 -41l-93 -12q62 -150 62 -288q0 -196 -87 -293q-79 -88 -192 -88q-100 0 -159 69q-59 70 -59 175q0 145 78 230q78 86 183 86q113 0 166 -84h2q-20 110 -58 184zM259 47q95 0 150 79q56 80 56 192
q0 69 -44 118q-43 49 -118 49q-81 0 -140 -69q-58 -67 -58 -187q0 -77 42 -130q43 -52 112 -52z" />
    <glyph glyph-name="ntilde" unicode="&#xf1;" horiz-adv-x="567" 
d="M96 0h-66l93 530h64l-7 -47h2q22 26 64 44t87 18q88 0 136 -54q49 -54 34 -140l-61 -351h-66l60 337q12 73 -18 110t-96 37q-63 0 -108.5 -38t-56.5 -101zM236 605h-40q34 88 100 88q25 0 56 -19q31 -18 49 -18q26 0 40 32h40q-33 -88 -99 -88q-26 0 -57 18
q-31 19 -49 19q-26 0 -40 -32z" />
    <glyph glyph-name="ograve" unicode="&#xf2;" horiz-adv-x="574" 
d="M40 229q0 146 79 231t188 85q99 0 158 -69q59 -70 59 -175q0 -146 -79 -231t-188 -85q-99 0 -158 69q-59 71 -59 175zM105 229q0 -79 39 -132q40 -52 110 -52q85 0 145 68t60 188q0 79 -40 131q-39 53 -109 53q-86 0 -146 -68q-59 -68 -59 -188zM342 595h-59l-107 120h88
z" />
    <glyph glyph-name="oacute" unicode="&#xf3;" horiz-adv-x="574" 
d="M40 229q0 146 79 231t188 85q99 0 158 -69q59 -70 59 -175q0 -146 -79 -231t-188 -85q-99 0 -158 69q-59 71 -59 175zM105 229q0 -79 39 -132q40 -52 110 -52q85 0 145 68t60 188q0 79 -40 131q-39 53 -109 53q-86 0 -146 -68q-59 -68 -59 -188zM332 595h-59l77 120h88z
" />
    <glyph glyph-name="ocircumflex" unicode="&#xf4;" horiz-adv-x="574" 
d="M40 229q0 146 79 231t188 85q99 0 158 -69q59 -70 59 -175q0 -146 -79 -231t-188 -85q-99 0 -158 69q-59 71 -59 175zM105 229q0 -79 39 -132q40 -52 110 -52q85 0 145 68t60 188q0 79 -40 131q-39 53 -109 53q-86 0 -146 -68q-59 -68 -59 -188zM227 582l-36 40l79 78h90
l62 -86l-45 -32l-63 88z" />
    <glyph glyph-name="otilde" unicode="&#xf5;" horiz-adv-x="574" 
d="M40 229q0 146 79 231t188 85q99 0 158 -69q59 -70 59 -175q0 -146 -79 -231t-188 -85q-99 0 -158 69q-59 71 -59 175zM105 229q0 -79 39 -132q40 -52 110 -52q85 0 145 68t60 188q0 79 -40 131q-39 53 -109 53q-86 0 -146 -68q-59 -68 -59 -188zM206 605h-40
q34 88 100 88q25 0 56 -19q32 -18 49 -18q26 0 40 32h40q-33 -88 -99 -88q-26 0 -57 18q-31 19 -49 19q-26 0 -40 -32z" />
    <glyph glyph-name="odieresis" unicode="&#xf6;" horiz-adv-x="574" 
d="M40 229q0 146 79 231t188 85q99 0 158 -69q59 -70 59 -175q0 -146 -79 -231t-188 -85q-99 0 -158 69q-59 71 -59 175zM105 229q0 -79 39 -132q40 -52 110 -52q85 0 145 68t60 188q0 79 -40 131q-39 53 -109 53q-86 0 -146 -68q-59 -68 -59 -188zM264 617h-81l14 83h81z
M454 617h-81l14 83h81z" />
    <glyph glyph-name="divide" unicode="&#xf7;" horiz-adv-x="434" 
d="M409 324h-384v60h384v-60zM153 143q0 27 18.5 45.5t44.5 18.5q27 0 45.5 -18.5t18.5 -45.5q0 -26 -18.5 -44.5t-45.5 -18.5q-26 0 -44.5 18.5t-18.5 44.5zM153 566q0 27 18.5 45.5t44.5 18.5q27 0 45.5 -18.5t18.5 -45.5q0 -26 -18.5 -44.5t-45.5 -18.5q-26 0 -44.5 18.5
t-18.5 44.5z" />
    <glyph glyph-name="oslash" unicode="&#xf8;" horiz-adv-x="610" 
d="M58 229q0 146 79 231t188 85q105 0 167 -80l43 39l25 -29l-48 -43q30 -60 30 -131q0 -146 -79 -231t-188 -85q-107 0 -168 81l-42 -38l-25 28l47 43q-29 56 -29 130zM477 301q0 47 -15 86l-308 -278q40 -64 118 -64q85 0 145 68t60 188zM123 229q0 -49 14 -85l307 278
q-41 63 -116 63q-86 0 -146 -68q-59 -68 -59 -188z" />
    <glyph glyph-name="ugrave" unicode="&#xf9;" horiz-adv-x="562" 
d="M352 595h-59l-107 120h88zM55 181l61 349h65l-61 -349q-24 -136 118 -136q67 0 108 39.5t53 112.5l58 333h65l-93 -530h-65l9 51h-2q-3 -5 -16 -18q-11 -11 -48 -30q-37 -18 -82 -18q-85 0 -136 47t-34 149z" />
    <glyph glyph-name="uacute" unicode="&#xfa;" horiz-adv-x="562" 
d="M349 595h-59l77 120h88zM55 181l61 349h65l-61 -349q-24 -136 118 -136q67 0 108 39.5t53 112.5l58 333h65l-93 -530h-65l9 51h-2q-3 -5 -16 -18q-11 -11 -48 -30q-37 -18 -82 -18q-85 0 -136 47t-34 149z" />
    <glyph glyph-name="ucircumflex" unicode="&#xfb;" horiz-adv-x="562" 
d="M246 582l-36 40l79 78h90l62 -86l-45 -32l-63 88zM55 181l61 349h65l-61 -349q-24 -136 118 -136q67 0 108 39.5t53 112.5l58 333h65l-93 -530h-65l9 51h-2q-3 -5 -16 -18q-11 -11 -48 -30q-37 -18 -82 -18q-85 0 -136 47t-34 149z" />
    <glyph glyph-name="udieresis" unicode="&#xfc;" horiz-adv-x="562" 
d="M277 617h-81l14 83h81zM467 617h-81l14 83h81zM55 181l61 349h65l-61 -349q-24 -136 118 -136q67 0 108 39.5t53 112.5l58 333h65l-93 -530h-65l9 51h-2q-3 -5 -16 -18q-11 -11 -48 -30q-37 -18 -82 -18q-85 0 -136 47t-34 149z" />
    <glyph glyph-name="yacute" unicode="&#xfd;" horiz-adv-x="522" 
d="M532 530l-415 -755h-67l163 293l-111 462h65l89 -379h2l200 379h74zM338 595h-59l77 120h88z" />
    <glyph glyph-name="thorn" unicode="&#xfe;" horiz-adv-x="571" 
d="M45 -225h-65l168 955h63l-42 -241h2q61 56 147 56q92 0 147 -69q56 -70 56 -175q0 -141 -73 -229q-72 -87 -181 -87q-119 0 -169 78h-2zM146 349l-33 -187q-7 -42 34 -80q40 -37 104 -37q93 0 149 71q56 73 56 185q0 81 -39 132.5t-110 51.5q-61 0 -107 -43
q-46 -44 -54 -93z" />
    <glyph glyph-name="ydieresis" unicode="&#xff;" horiz-adv-x="522" 
d="M532 530l-415 -755h-67l163 293l-111 462h65l89 -379h2l200 379h74zM263 617h-81l14 83h81zM453 617h-81l14 83h81z" />
    <glyph glyph-name="Amacron" unicode="&#x100;" horiz-adv-x="602" 
d="M527 0h-65l-27 149h-337l-78 -149h-70l375 700h73zM349 621h-2l-220 -418h298zM514 765h-288l9 50h288z" />
    <glyph glyph-name="amacron" unicode="&#x101;" horiz-adv-x="548" 
d="M391 254l12 75q11 73 -16.5 114.5t-89.5 41.5q-73 0 -133 -86q-59 -86 -59 -203q0 -68 32 -108.5t83 -40.5q62 0 108 51t63 156zM508 530l-93 -530h-59l10 61h-2q-20 -32 -59.5 -54t-92.5 -22q-70 0 -121 54t-51 153q0 149 79 250q79 103 188 103q85 0 121 -63h3l9 48h68
zM452 620h-288l9 50h288z" />
    <glyph glyph-name="Abreve" unicode="&#x102;" horiz-adv-x="602" 
d="M527 0h-65l-27 149h-337l-78 -149h-70l375 700h73zM349 621h-2l-220 -418h298zM263 870h37q0 -59 74 -59q73 0 91 59h40q-10 -56 -45 -85.5t-90 -29.5q-56 0 -86 30.5t-21 84.5z" />
    <glyph glyph-name="abreve" unicode="&#x103;" horiz-adv-x="548" 
d="M391 254l12 75q11 73 -16.5 114.5t-89.5 41.5q-73 0 -133 -86q-59 -86 -59 -203q0 -68 32 -108.5t83 -40.5q62 0 108 51t63 156zM508 530l-93 -530h-59l10 61h-2q-20 -32 -59.5 -54t-92.5 -22q-70 0 -121 54t-51 153q0 149 79 250q79 103 188 103q85 0 121 -63h3l9 48h68
zM194 700h37q0 -59 74 -59q73 0 91 59h40q-10 -56 -45 -85.5t-90 -29.5q-56 0 -86 30.5t-21 84.5z" />
    <glyph glyph-name="Aogonek" unicode="&#x104;" horiz-adv-x="602" 
d="M527 0h-65l-27 149h-337l-78 -149h-70l375 700h73zM349 621h-2l-220 -418h298zM562 -122l29 -24q-50 -62 -114 -62q-42 0 -71 18t-29 55q0 73 99 135h51q-80 -74 -80 -118q0 -40 49 -40q33 0 66 36z" />
    <glyph glyph-name="aogonek" unicode="&#x105;" horiz-adv-x="548" 
d="M450 -122l29 -24q-50 -62 -114 -62q-42 0 -71 18t-29 55q0 73 99 135h-8l10 61h-2q-20 -32 -59.5 -54t-92.5 -22q-70 0 -121 54t-51 153q0 149 79 250q79 103 188 103q85 0 121 -63h3l9 48h68l-93 -530q-80 -74 -80 -118q0 -40 49 -40q33 0 66 36zM391 254l12 75
q11 73 -16.5 114.5t-89.5 41.5q-73 0 -133 -86q-59 -86 -59 -203q0 -68 32 -108.5t83 -40.5q62 0 108 51t63 156z" />
    <glyph glyph-name="Cacute" unicode="&#x106;" horiz-adv-x="652" 
d="M50 289q0 187 98 306q98 120 232 120q104 0 170 -69q68 -68 66 -172l-68 -5q-2 77 -44 130t-132 53q-107 0 -180 -106t-73 -257q0 -107 51 -173q53 -65 139 -65q79 0 132 53.5t74 143.5l70 -19q-24 -113 -98 -178.5t-181 -65.5q-118 0 -187 83q-69 84 -69 221zM428 765
h-59l78 120h88z" />
    <glyph glyph-name="cacute" unicode="&#x107;" horiz-adv-x="561" 
d="M421 184l63 -21q-25 -86 -83.5 -132t-142.5 -46q-98 0 -158 64q-60 65 -60 174q0 145 81 233q81 89 187 89q94 0 149 -61q56 -62 53 -149l-67 -5q2 64 -32 109q-33 46 -103 46q-80 0 -141 -72q-60 -71 -60 -189q0 -81 42.5 -129t108.5 -48q122 0 163 137zM351 595h-59
l77 120h88z" />
    <glyph glyph-name="Ccircumflex" unicode="&#x108;" horiz-adv-x="652" 
d="M50 289q0 187 98 306q98 120 232 120q104 0 170 -69q68 -68 66 -172l-68 -5q-2 77 -44 130t-132 53q-107 0 -180 -106t-73 -257q0 -107 51 -173q53 -65 139 -65q79 0 132 53.5t74 143.5l70 -19q-24 -113 -98 -178.5t-181 -65.5q-118 0 -187 83q-69 84 -69 221zM313 752
l-36 40l79 78h90l62 -86l-45 -32l-63 88z" />
    <glyph glyph-name="ccircumflex" unicode="&#x109;" horiz-adv-x="561" 
d="M421 184l63 -21q-25 -86 -83.5 -132t-142.5 -46q-98 0 -158 64q-60 65 -60 174q0 145 81 233q81 89 187 89q94 0 149 -61q56 -62 53 -149l-67 -5q2 64 -32 109q-33 46 -103 46q-80 0 -141 -72q-60 -71 -60 -189q0 -81 42.5 -129t108.5 -48q122 0 163 137zM243 582l-36 40
l79 78h90l62 -86l-45 -32l-63 88z" />
    <glyph glyph-name="Cdotaccent" unicode="&#x10a;" horiz-adv-x="652" 
d="M50 289q0 187 98 306q98 120 232 120q104 0 170 -69q68 -68 66 -172l-68 -5q-2 77 -44 130t-132 53q-107 0 -180 -106t-73 -257q0 -107 51 -173q53 -65 139 -65q79 0 132 53.5t74 143.5l70 -19q-24 -113 -98 -178.5t-181 -65.5q-118 0 -187 83q-69 84 -69 221zM439 765
h-86l15 88h86z" />
    <glyph glyph-name="cdotaccent" unicode="&#x10b;" horiz-adv-x="561" 
d="M421 184l63 -21q-25 -86 -83.5 -132t-142.5 -46q-98 0 -158 64q-60 65 -60 174q0 145 81 233q81 89 187 89q94 0 149 -61q56 -62 53 -149l-67 -5q2 64 -32 109q-33 46 -103 46q-80 0 -141 -72q-60 -71 -60 -189q0 -81 42.5 -129t108.5 -48q122 0 163 137zM369 612h-86
l15 88h86z" />
    <glyph glyph-name="Ccaron" unicode="&#x10c;" horiz-adv-x="652" 
d="M50 289q0 187 98 306q98 120 232 120q104 0 170 -69q68 -68 66 -172l-68 -5q-2 77 -44 130t-132 53q-107 0 -180 -106t-73 -257q0 -107 51 -173q53 -65 139 -65q79 0 132 53.5t74 143.5l70 -19q-24 -113 -98 -178.5t-181 -65.5q-118 0 -187 83q-69 84 -69 221zM488 883
l36 -40l-79 -78h-90l-62 86l45 32l63 -88z" />
    <glyph glyph-name="ccaron" unicode="&#x10d;" horiz-adv-x="561" 
d="M421 184l63 -21q-25 -86 -83.5 -132t-142.5 -46q-98 0 -158 64q-60 65 -60 174q0 145 81 233q81 89 187 89q94 0 149 -61q56 -62 53 -149l-67 -5q2 64 -32 109q-33 46 -103 46q-80 0 -141 -72q-60 -71 -60 -189q0 -81 42.5 -129t108.5 -48q122 0 163 137zM414 712l38 -40
l-79 -78h-90l-62 86l43 32l63 -88z" />
    <glyph glyph-name="Dcaron" unicode="&#x10e;" horiz-adv-x="662" 
d="M208 640l-102 -578h133q143 0 226 96q82 97 82 256q0 109 -51 167.5t-149 58.5h-139zM252 0h-222l123 700h205q123 0 191 -75.5t68 -208.5q0 -211 -112 -317q-105 -99 -253 -99zM431 883l36 -40l-79 -78h-90l-62 86l45 32l63 -88z" />
    <glyph glyph-name="dcaron" unicode="&#x10f;" horiz-adv-x="618" 
d="M245 -15q-96 0 -150.5 63t-54.5 167q0 150 76 239q76 91 186 91q103 0 157 -78h2l47 263h66l-129 -730h-60l8 49h-2q-17 -24 -58 -44q-42 -20 -88 -20zM252 45q61 0 104 34q44 35 53 83l33 187q9 51 -30 93q-37 43 -105 43q-89 0 -144 -76q-55 -74 -55 -189
q0 -70 36 -123q37 -52 108 -52zM658 584h-49l48 146h71z" />
    <glyph glyph-name="Dcroat" unicode="&#x110;" horiz-adv-x="666" 
d="M256 0h-222l59 338h-68l10 60h69l53 302h205q123 0 191 -75.5t68 -208.5q0 -211 -112 -317q-105 -99 -253 -99zM158 338l-48 -276h133q143 0 226 96q82 97 82 256q0 109 -51 167.5t-149 58.5h-139l-43 -242h202l-10 -60h-203z" />
    <glyph glyph-name="dslash" unicode="&#x111;" horiz-adv-x="589" 
d="M495 655h-151l8 45h150l6 30h66l-6 -30h71l-8 -45h-70l-116 -655h-60l8 49h-2q-17 -24 -58 -44q-42 -20 -88 -20q-92 0 -149 64q-56 65 -56 166q0 150 76 239q76 91 186 91q106 0 157 -78h2zM252 45q61 0 104 34q44 35 53 83l33 187q9 51 -30 93q-37 43 -105 43
q-89 0 -144 -76q-55 -74 -55 -189q0 -70 36 -123q37 -52 108 -52z" />
    <glyph glyph-name="Emacron" unicode="&#x112;" horiz-adv-x="576" 
d="M443 0h-413l123 700h413l-10 -60h-348l-44 -250h320l-10 -58h-320l-48 -271h348zM508 765h-288l9 50h288z" />
    <glyph glyph-name="emacron" unicode="&#x113;" horiz-adv-x="576" 
d="M442 155l53 -40q-94 -130 -237 -130q-98 0 -158 65q-60 64 -60 179q0 133 77 225q78 91 192 91q98 0 157 -62q60 -61 60 -162l-3 -75h-415q-1 -7 -1 -17q0 -49 13 -87q14 -42 50.5 -69.5t87.5 -27.5q112 0 184 110zM114 301h348q1 8 1 24q0 67 -40 113q-39 47 -114 47
q-79 0 -132 -57t-63 -127zM468 620h-288l9 50h288z" />
    <glyph glyph-name="Ebreve" unicode="&#x114;" horiz-adv-x="576" 
d="M443 0h-413l123 700h413l-10 -60h-348l-44 -250h320l-10 -58h-320l-48 -271h348zM269 870h37q0 -59 74 -59q73 0 91 59h40q-10 -56 -45 -85.5t-90 -29.5q-56 0 -86 30.5t-21 84.5z" />
    <glyph glyph-name="ebreve" unicode="&#x115;" horiz-adv-x="576" 
d="M442 155l53 -40q-94 -130 -237 -130q-98 0 -158 65q-60 64 -60 179q0 133 77 225q78 91 192 91q98 0 157 -62q60 -61 60 -162l-3 -75h-415q-1 -7 -1 -17q0 -49 13 -87q14 -42 50.5 -69.5t87.5 -27.5q112 0 184 110zM114 301h348q1 8 1 24q0 67 -40 113q-39 47 -114 47
q-79 0 -132 -57t-63 -127zM212 700h37q0 -59 74 -59q73 0 91 59h40q-10 -56 -45 -85.5t-90 -29.5q-56 0 -86 30.5t-21 84.5z" />
    <glyph glyph-name="Edotaccent" unicode="&#x116;" horiz-adv-x="576" 
d="M443 0h-413l123 700h413l-10 -60h-348l-44 -250h320l-10 -58h-320l-48 -271h348zM422 765h-86l15 88h86z" />
    <glyph glyph-name="edotaccent" unicode="&#x117;" horiz-adv-x="576" 
d="M442 155l53 -40q-94 -130 -237 -130q-98 0 -158 65q-60 64 -60 179q0 133 77 225q78 91 192 91q98 0 157 -62q60 -61 60 -162l-3 -75h-415q-1 -7 -1 -17q0 -49 13 -87q14 -42 50.5 -69.5t87.5 -27.5q112 0 184 110zM114 301h348q1 8 1 24q0 67 -40 113q-39 47 -114 47
q-79 0 -132 -57t-63 -127zM366 612h-86l15 88h86z" />
    <glyph glyph-name="Eogonek" unicode="&#x118;" horiz-adv-x="576" 
d="M327 0h-297l123 700h413l-10 -60h-348l-44 -250h320l-10 -58h-320l-48 -271h348l-11 -61h-65q-80 -74 -80 -118q0 -40 49 -40q33 0 66 36l29 -24q-50 -62 -114 -62q-42 0 -71 18t-29 55q0 73 99 135z" />
    <glyph glyph-name="eogonek" unicode="&#x119;" horiz-adv-x="576" 
d="M348 -122l29 -24q-50 -62 -114 -62q-42 0 -71 18t-29 55q0 65 77 121q-92 6 -146 71t-54 172q0 133 77 225q78 91 192 91q98 0 157 -62q60 -61 60 -162l-3 -75h-415q-1 -7 -1 -17q0 -49 13 -87q14 -42 50.5 -69.5t87.5 -27.5q112 0 184 110l53 -40q-79 -110 -195 -127
q-67 -63 -67 -106q0 -40 49 -40q33 0 66 36zM114 301h348q1 8 1 24q0 67 -40 113q-39 47 -114 47q-79 0 -132 -57t-63 -127z" />
    <glyph glyph-name="Ecaron" unicode="&#x11a;" horiz-adv-x="576" 
d="M443 0h-413l123 700h413l-10 -60h-348l-44 -250h320l-10 -58h-320l-48 -271h348zM468 883l36 -40l-79 -78h-90l-62 86l45 32l63 -88z" />
    <glyph glyph-name="ecaron" unicode="&#x11b;" horiz-adv-x="576" 
d="M442 155l53 -40q-94 -130 -237 -130q-98 0 -158 65q-60 64 -60 179q0 133 77 225q78 91 192 91q98 0 157 -62q60 -61 60 -162l-3 -75h-415q-1 -7 -1 -17q0 -49 13 -87q14 -42 50.5 -69.5t87.5 -27.5q112 0 184 110zM114 301h348q1 8 1 24q0 67 -40 113q-39 47 -114 47
q-79 0 -132 -57t-63 -127zM410 712l38 -40l-79 -78h-90l-62 86l43 32l63 -88z" />
    <glyph glyph-name="Gcircumflex" unicode="&#x11c;" horiz-adv-x="664" 
d="M380 715q100 0 168 -66q66 -65 68 -170l-70 -6q-3 82 -46.5 130.5t-127.5 48.5q-106 0 -179 -106q-74 -106 -74 -257q0 -106 53 -173q53 -65 141 -65q91 0 150 63q59 65 75 158h-188l11 63h258l-9 -55q-19 -129 -100 -213q-79 -82 -200 -82q-119 0 -190 83
q-70 83 -70 221q0 187 98 306q98 120 232 120zM304 747l-36 40l79 78h90l62 -86l-45 -32l-63 88z" />
    <glyph glyph-name="gcircumflex" unicode="&#x11d;" horiz-adv-x="586" 
d="M30 -91l61 23q16 -57 48 -84.5t91 -27.5q123 0 153 152l14 72h-2q-24 -27 -63 -43t-81 -16q-94 0 -151 64t-57 166q0 148 77 239q76 91 187 91q49 0 90 -19.5t65 -53.5h2l11 58h71l-93 -531q-21 -122 -76.5 -180.5t-153.5 -58.5q-74 0 -124.5 39.5t-68.5 109.5zM417 162
l33 187q9 51 -31 93q-40 43 -107 43q-88 0 -145 -76q-56 -76 -56 -189q0 -71 37 -123t110 -52q59 0 105 35q45 34 54 82zM240 582l-36 40l79 78h90l62 -86l-45 -32l-63 88z" />
    <glyph glyph-name="Gbreve" unicode="&#x11e;" horiz-adv-x="664" 
d="M380 715q100 0 168 -66q66 -65 68 -170l-70 -6q-3 82 -46.5 130.5t-127.5 48.5q-106 0 -179 -106q-74 -106 -74 -257q0 -106 53 -173q53 -65 141 -65q91 0 150 63q59 65 75 158h-188l11 63h258l-9 -55q-19 -129 -100 -213q-79 -82 -200 -82q-119 0 -190 83
q-70 83 -70 221q0 187 98 306q98 120 232 120zM288 870h37q0 -59 74 -59q73 0 91 59h40q-10 -56 -45 -85.5t-90 -29.5q-56 0 -86 30.5t-21 84.5z" />
    <glyph glyph-name="gbreve" unicode="&#x11f;" horiz-adv-x="586" 
d="M30 -91l61 23q16 -57 48 -84.5t91 -27.5q123 0 153 152l14 72h-2q-24 -27 -63 -43t-81 -16q-94 0 -151 64t-57 166q0 148 77 239q76 91 187 91q49 0 90 -19.5t65 -53.5h2l11 58h71l-93 -531q-21 -122 -76.5 -180.5t-153.5 -58.5q-74 0 -124.5 39.5t-68.5 109.5zM417 162
l33 187q9 51 -31 93q-40 43 -107 43q-88 0 -145 -76q-56 -76 -56 -189q0 -71 37 -123t110 -52q59 0 105 35q45 34 54 82zM220 700h37q0 -59 74 -59q73 0 91 59h40q-10 -56 -45 -85.5t-90 -29.5q-56 0 -86 30.5t-21 84.5z" />
    <glyph glyph-name="Gdotaccent" unicode="&#x120;" horiz-adv-x="664" 
d="M380 715q100 0 168 -66q66 -65 68 -170l-70 -6q-3 82 -46.5 130.5t-127.5 48.5q-106 0 -179 -106q-74 -106 -74 -257q0 -106 53 -173q53 -65 141 -65q91 0 150 63q59 65 75 158h-188l11 63h258l-9 -55q-19 -129 -100 -213q-79 -82 -200 -82q-119 0 -190 83
q-70 83 -70 221q0 187 98 306q98 120 232 120zM432 765h-86l15 88h86z" />
    <glyph glyph-name="gdotaccent" unicode="&#x121;" horiz-adv-x="586" 
d="M30 -91l61 23q16 -57 48 -84.5t91 -27.5q123 0 153 152l14 72h-2q-24 -27 -63 -43t-81 -16q-94 0 -151 64t-57 166q0 148 77 239q76 91 187 91q49 0 90 -19.5t65 -53.5h2l11 58h71l-93 -531q-21 -122 -76.5 -180.5t-153.5 -58.5q-74 0 -124.5 39.5t-68.5 109.5zM417 162
l33 187q9 51 -31 93q-40 43 -107 43q-88 0 -145 -76q-56 -76 -56 -189q0 -71 37 -123t110 -52q59 0 105 35q45 34 54 82zM378 612h-86l15 88h86z" />
    <glyph glyph-name="Gcommaaccent" unicode="&#x122;" horiz-adv-x="664" 
d="M380 715q100 0 168 -66q66 -65 68 -170l-70 -6q-3 82 -46.5 130.5t-127.5 48.5q-106 0 -179 -106q-74 -106 -74 -257q0 -106 53 -173q53 -65 141 -65q91 0 150 63q59 65 75 158h-188l11 63h258l-9 -55q-19 -129 -100 -213q-79 -82 -200 -82q-119 0 -190 83
q-70 83 -70 221q0 187 98 306q98 120 232 120zM238 -218l5 32q29 4 41.5 15t16.5 33h-49l15 85h95l-13 -70q-8 -48 -34 -70t-77 -25z" />
    <glyph glyph-name="gcommaaccent" unicode="&#x123;" horiz-adv-x="586" 
d="M30 -91l61 23q16 -57 48 -84.5t91 -27.5q123 0 153 152l14 72h-2q-24 -27 -63 -43t-81 -16q-94 0 -151 64t-57 166q0 148 77 239q76 91 187 91q49 0 90 -19.5t65 -53.5h2l11 58h71l-93 -531q-21 -122 -76.5 -180.5t-153.5 -58.5q-74 0 -124.5 39.5t-68.5 109.5zM417 162
l33 187q9 51 -31 93q-40 43 -107 43q-88 0 -145 -76q-56 -76 -56 -189q0 -71 37 -123t110 -52q59 0 105 35q45 34 54 82zM388 730l-3 -18q-42 -8 -48 -43h41l-13 -72h-78l10 55q7 39 28 57t63 21z" />
    <glyph glyph-name="Hcircumflex" unicode="&#x124;" horiz-adv-x="652" 
d="M96 0h-66l123 700h66l-54 -307h337l54 307h66l-123 -700h-66l59 333h-337zM322 747l-36 40l79 78h90l62 -86l-45 -32l-63 88z" />
    <glyph glyph-name="hcircumflex" unicode="&#x125;" horiz-adv-x="557" 
d="M96 0h-66l129 730h66l-44 -246h2q23 26 62 43.5t84 17.5q93 0 136 -60q43 -59 27 -150l-59 -335h-66l58 324q28 160 -107 160q-58 0 -105 -39q-45 -38 -56 -100zM274 582l-36 40l79 78h90l62 -86l-45 -32l-63 88z" />
    <glyph glyph-name="Hbar" unicode="&#x126;" horiz-adv-x="646" 
d="M118 507h-49l9 55h50l25 138h66l-25 -138h337l25 138h66l-25 -138h48l-9 -55h-49l-88 -507h-66l59 333h-337l-59 -333h-66zM184 507l-19 -114h337l19 114h-337z" />
    <glyph glyph-name="hbar" unicode="&#x127;" horiz-adv-x="552" 
d="M136 655h-69l8 45h69l5 30h66l-5 -30h151l-8 -45h-151l-31 -171h2q23 26 62 43.5t84 17.5q93 0 136 -60q43 -59 27 -150l-59 -335h-66l58 324q28 160 -107 160q-58 0 -105 -39q-45 -38 -56 -100l-61 -345h-66z" />
    <glyph glyph-name="Itilde" unicode="&#x128;" horiz-adv-x="250" 
d="M97 0h-67l123 700h67zM96 765h-40q34 88 100 88q25 0 56 -19q31 -18 49 -18q26 0 40 32h40q-33 -88 -99 -88q-26 0 -57 18q-31 19 -49 19q-26 0 -40 -32z" />
    <glyph glyph-name="itilde" unicode="&#x129;" horiz-adv-x="232" 
d="M95 0h-65l93 530h65zM61 605h-40q34 88 100 88q25 0 56 -19q31 -18 49 -18q26 0 40 32h40q-33 -88 -99 -88q-25 0 -57 18q-31 19 -49 19q-26 0 -40 -32z" />
    <glyph glyph-name="Imacron" unicode="&#x12a;" horiz-adv-x="250" 
d="M97 0h-67l123 700h67zM340 765h-288l9 50h288z" />
    <glyph glyph-name="imacron" unicode="&#x12b;" horiz-adv-x="232" 
d="M95 0h-65l93 530h65zM303 620h-288l9 50h288z" />
    <glyph glyph-name="Ibreve" unicode="&#x12c;" horiz-adv-x="250" 
d="M97 0h-67l123 700h67zM84 870h37q0 -59 74 -59q73 0 91 59h40q-10 -56 -45 -85.5t-90 -29.5q-56 0 -86 30.5t-21 84.5z" />
    <glyph glyph-name="ibreve" unicode="&#x12d;" horiz-adv-x="232" 
d="M95 0h-65l93 530h65zM49 700h37q0 -59 74 -59q73 0 91 59h40q-10 -56 -45 -85.5t-90 -29.5q-56 0 -86 30.5t-21 84.5z" />
    <glyph glyph-name="Iogonek" unicode="&#x12e;" horiz-adv-x="250" 
d="M46 0h-16l123 700h67l-123 -700q-80 -74 -80 -118q0 -40 49 -40q33 0 66 36l29 -24q-50 -62 -114 -62q-42 0 -71 18t-29 55q0 73 99 135z" />
    <glyph glyph-name="iogonek" unicode="&#x12f;" horiz-adv-x="235" 
d="M44 0h-14l93 530h65l-93 -530q-80 -74 -80 -118q0 -40 49 -40q33 0 66 36l29 -24q-50 -62 -114 -62q-42 0 -71 18t-29 55q0 73 99 135zM206 617h-81l14 83h81z" />
    <glyph glyph-name="Idot" unicode="&#x130;" horiz-adv-x="250" 
d="M97 0h-67l123 700h67zM235 765h-86l15 88h86z" />
    <glyph glyph-name="dotlessi" unicode="&#x131;" horiz-adv-x="232" 
d="M95 0h-65l93 530h65z" />
    <glyph glyph-name="IJ" unicode="&#x132;" horiz-adv-x="668" 
d="M97 0h-67l123 700h67zM191 150l65 14q14 -116 96 -116q41 0 68 32t37 90l94 530h67l-94 -532q-32 -183 -178 -183q-63 0 -105.5 45t-49.5 120z" />
    <glyph glyph-name="ij" unicode="&#x133;" horiz-adv-x="456" 
d="M75 0h-65l93 530h65zM186 617h-81l14 83h81zM161 -195h-30l11 65h14q30 0 41 9t16 38l107 613h65l-109 -622q-18 -103 -115 -103zM402 617h-81l14 83h81z" />
    <glyph glyph-name="Jcircumflex" unicode="&#x134;" horiz-adv-x="452" 
d="M-5 150l65 14q14 -116 96 -116q41 0 68 32t37 90l94 530h67l-94 -532q-32 -183 -178 -183q-63 0 -105.5 45t-49.5 120zM319 747l-36 40l79 78h90l62 -86l-45 -32l-63 88z" />
    <glyph glyph-name="jcircumflex" unicode="&#x135;" horiz-adv-x="249" 
d="M-30 -195h-30l11 65h14q30 0 41 9t16 38l107 613h65l-109 -622q-18 -103 -115 -103zM92 582l-36 40l79 78h90l62 -86l-45 -32l-63 88z" />
    <glyph glyph-name="Kcommaaccent" unicode="&#x136;" horiz-adv-x="588" 
d="M514 700h89l-318 -311l217 -389h-75l-187 344h-2l-100 -100l-43 -244h-65l123 700h65l-62 -354h2zM174 -218l5 32q29 4 41.5 15t16.5 33h-49l15 85h95l-13 -70q-8 -48 -34 -70t-77 -25z" />
    <glyph glyph-name="kcommaaccent" unicode="&#x137;" horiz-adv-x="504" 
d="M95 0h-65l129 730h65l-81 -455h2l280 255h89l-235 -213l162 -317h-71l-141 278h-2l-98 -88zM163 -218l5 32q29 4 41.5 15t16.5 33h-49l15 85h95l-13 -70q-8 -48 -34 -70t-77 -25z" />
    <glyph glyph-name="kgreenlandic" unicode="&#x138;" horiz-adv-x="494" 
d="M85 0h-65l95 530h65l-47 -255l284 255h87l-235 -213l162 -317h-71l-143 278l-98 -88z" />
    <glyph glyph-name="Lacute" unicode="&#x139;" horiz-adv-x="480" 
d="M404 0h-374l123 700h67l-112 -640h307zM227 765h-59l78 120h88z" />
    <glyph glyph-name="lacute" unicode="&#x13a;" horiz-adv-x="241" 
d="M97 0h-67l129 730h67zM224 765h-59l78 120h88z" />
    <glyph glyph-name="Lcommaaccent" unicode="&#x13b;" horiz-adv-x="480" 
d="M404 0h-374l123 700h67l-112 -640h307zM162 -218l5 32q29 4 41.5 15t16.5 33h-49l15 85h95l-13 -70q-8 -48 -34 -70t-77 -25z" />
    <glyph glyph-name="lcommaaccent" unicode="&#x13c;" horiz-adv-x="241" 
d="M97 0h-67l129 730h67zM-18 -218l5 32q29 4 41.5 15t16.5 33h-49l15 85h95l-13 -70q-8 -48 -34 -70t-77 -25z" />
    <glyph glyph-name="Lcaron" unicode="&#x13d;" horiz-adv-x="480" 
d="M404 0h-374l123 700h67l-112 -640h307zM404 584h-49l48 146h71z" />
    <glyph glyph-name="lcaron" unicode="&#x13e;" horiz-adv-x="269" 
d="M97 0h-67l129 730h67zM309 584h-49l48 146h71z" />
    <glyph glyph-name="Ldot" unicode="&#x13f;" horiz-adv-x="480" 
d="M404 0h-374l123 700h67l-112 -640h307zM383 332h-106l19 106h106z" />
    <glyph glyph-name="ldot" unicode="&#x140;" horiz-adv-x="319" 
d="M97 0h-67l129 730h67zM330 332h-106l19 106h106z" />
    <glyph glyph-name="Lslash" unicode="&#x141;" horiz-adv-x="484" 
d="M408 0h-374l59 340l-82 -58l-26 38l120 84l52 296h65l-44 -249l1 1l128 90l26 -38l-166 -116l-57 -328h309z" />
    <glyph glyph-name="lslash" unicode="&#x142;" horiz-adv-x="224" 
d="M89 0h-67l72 408l-89 -62l-25 38l125 87l46 259h67l-39 -217l85 59l25 -38l-121 -85z" />
    <glyph glyph-name="Nacute" unicode="&#x143;" horiz-adv-x="662" 
d="M95 0h-65l123 700h56l255 -574h2l101 574h65l-123 -700h-53l-258 574h-2zM427 765h-59l78 120h88z" />
    <glyph glyph-name="nacute" unicode="&#x144;" horiz-adv-x="567" 
d="M96 0h-66l93 530h64l-7 -47h2q22 26 64 44t87 18q88 0 136 -54q49 -54 34 -140l-61 -351h-66l60 337q12 73 -18 110t-96 37q-63 0 -108.5 -38t-56.5 -101zM369 595h-59l77 120h88z" />
    <glyph glyph-name="Ncommaaccent" unicode="&#x145;" horiz-adv-x="662" 
d="M95 0h-65l123 700h56l255 -574h2l101 574h65l-123 -700h-53l-258 574h-2zM209 -218l5 32q29 4 41.5 15t16.5 33h-49l15 85h95l-13 -70q-8 -48 -34 -70t-77 -25z" />
    <glyph glyph-name="ncommaaccent" unicode="&#x146;" horiz-adv-x="567" 
d="M96 0h-66l93 530h64l-7 -47h2q22 26 64 44t87 18q88 0 136 -54q49 -54 34 -140l-61 -351h-66l60 337q12 73 -18 110t-96 37q-63 0 -108.5 -38t-56.5 -101zM171 -218l5 32q29 4 41.5 15t16.5 33h-49l15 85h95l-13 -70q-8 -48 -34 -70t-77 -25z" />
    <glyph glyph-name="Ncaron" unicode="&#x147;" horiz-adv-x="662" 
d="M95 0h-65l123 700h56l255 -574h2l101 574h65l-123 -700h-53l-258 574h-2zM486 883l36 -40l-79 -78h-90l-62 86l45 32l63 -88z" />
    <glyph glyph-name="ncaron" unicode="&#x148;" horiz-adv-x="567" 
d="M96 0h-66l93 530h64l-7 -47h2q22 26 64 44t87 18q88 0 136 -54q49 -54 34 -140l-61 -351h-66l60 337q12 73 -18 110t-96 37q-63 0 -108.5 -38t-56.5 -101zM416 712l38 -40l-79 -78h-90l-62 86l43 32l63 -88z" />
    <glyph glyph-name="Eng" unicode="&#x14a;" horiz-adv-x="662" 
d="M95 0h-65l123 700h56l255 -574h2l101 574h65l-135 -768q-12 -65 -45 -94t-94 -29h-30l12 64h32q30 0 44 13.5t22 54.5l13 70l-253 563h-2z" />
    <glyph glyph-name="eng" unicode="&#x14b;" horiz-adv-x="557" 
d="M86 0h-66l93 530h64l-8 -46h2q23 25 64.5 43t87.5 18q93 0 139 -53.5t31 -140.5l-77 -443q-18 -103 -116 -103h-30l11 65h16q30 0 40.5 9t15.5 38l75 420q27 147 -116 147q-63 0 -108.5 -38t-56.5 -101z" />
    <glyph glyph-name="Omacron" unicode="&#x14c;" horiz-adv-x="687" 
d="M380 652q-109 0 -185 -103t-76 -260q0 -107 52 -172q52 -66 136 -66q111 0 186 101q75 102 75 259q0 108 -51 174q-51 67 -137 67zM307 -15q-116 0 -187 83q-70 83 -70 221q0 98 28.5 181.5t76.5 135.5q101 109 225 109q116 0 187 -84q70 -82 70 -220q0 -98 -28 -181
t-76 -137q-99 -108 -226 -108zM530 765h-288l9 50h288z" />
    <glyph glyph-name="omacron" unicode="&#x14d;" horiz-adv-x="574" 
d="M40 229q0 146 79 231t188 85q99 0 158 -69q59 -70 59 -175q0 -146 -79 -231t-188 -85q-99 0 -158 69q-59 71 -59 175zM105 229q0 -79 39 -132q40 -52 110 -52q85 0 145 68t60 188q0 79 -40 131q-39 53 -109 53q-86 0 -146 -68q-59 -68 -59 -188zM464 620h-288l9 50h288z
" />
    <glyph glyph-name="Obreve" unicode="&#x14e;" horiz-adv-x="687" 
d="M380 652q-109 0 -185 -103t-76 -260q0 -107 52 -172q52 -66 136 -66q111 0 186 101q75 102 75 259q0 108 -51 174q-51 67 -137 67zM307 -15q-116 0 -187 83q-70 83 -70 221q0 98 28.5 181.5t76.5 135.5q101 109 225 109q116 0 187 -84q70 -82 70 -220q0 -98 -28 -181
t-76 -137q-99 -108 -226 -108zM289 870h37q0 -59 74 -59q73 0 91 59h40q-10 -56 -45 -85.5t-90 -29.5q-56 0 -86 30.5t-21 84.5z" />
    <glyph glyph-name="obreve" unicode="&#x14f;" horiz-adv-x="574" 
d="M40 229q0 146 79 231t188 85q99 0 158 -69q59 -70 59 -175q0 -146 -79 -231t-188 -85q-99 0 -158 69q-59 71 -59 175zM105 229q0 -79 39 -132q40 -52 110 -52q85 0 145 68t60 188q0 79 -40 131q-39 53 -109 53q-86 0 -146 -68q-59 -68 -59 -188zM205 700h37q0 -59 74 -59
q73 0 91 59h40q-10 -56 -45 -85.5t-90 -29.5q-56 0 -86 30.5t-21 84.5z" />
    <glyph glyph-name="Ohungarumlaut" unicode="&#x150;" horiz-adv-x="687" 
d="M380 652q-109 0 -185 -103t-76 -260q0 -107 52 -172q52 -66 136 -66q111 0 186 101q75 102 75 259q0 108 -51 174q-51 67 -137 67zM307 -15q-116 0 -187 83q-70 83 -70 221q0 98 28.5 181.5t76.5 135.5q101 109 225 109q116 0 187 -84q70 -82 70 -220q0 -98 -28 -181
t-76 -137q-99 -108 -226 -108zM341 765h-54l75 115h83zM470 765h-54l75 115h83z" />
    <glyph glyph-name="ohungarumlaut" unicode="&#x151;" horiz-adv-x="574" 
d="M40 229q0 146 79 231t188 85q99 0 158 -69q59 -70 59 -175q0 -146 -79 -231t-188 -85q-99 0 -158 69q-59 71 -59 175zM105 229q0 -79 39 -132q40 -52 110 -52q85 0 145 68t60 188q0 79 -40 131q-39 53 -109 53q-86 0 -146 -68q-59 -68 -59 -188zM275 595h-54l75 115h83z
M404 595h-54l75 115h83z" />
    <glyph glyph-name="OE" unicode="&#x152;" horiz-adv-x="948" 
d="M302 -15q-115 0 -184 83q-68 85 -68 221q0 98 29 181t78 136q98 109 230 109q97 0 165 -65l9 50h382l-10 -60h-317l-44 -250h289l-10 -58h-289l-48 -272h317l-11 -60h-375l7 43h-2q-14 -20 -59 -40q-43 -18 -89 -18zM309 51q44 0 86 18.5t63 45.5l82 464
q-20 32 -62.5 52.5t-90.5 20.5q-113 0 -189 -103q-77 -104 -77 -260q0 -111 50.5 -174.5t137.5 -63.5z" />
    <glyph glyph-name="oe" unicode="&#x153;" horiz-adv-x="997" 
d="M855 160l56 -35q-36 -65 -97 -102.5t-137 -37.5q-70 0 -122 35.5t-77 100.5q-35 -64 -94 -100t-127 -36q-99 0 -158 69q-59 71 -59 175q0 146 79 231t188 85q69 0 121 -36t77 -100q36 64 95 100t128 36q98 0 158 -62q61 -61 61 -162l-3 -75h-417q-1 -7 -1 -17
q0 -49 13 -87q14 -42 50.5 -69.5t87.5 -27.5q114 0 178 115zM105 229q0 -79 39 -132q40 -52 110 -52q85 0 145 68t60 188q0 79 -40 131q-39 53 -109 53q-86 0 -146 -68q-59 -68 -59 -188zM533 301h348q1 8 1 24q0 67 -40 113q-39 47 -114 47q-80 0 -132 -57
q-53 -57 -63 -127z" />
    <glyph glyph-name="Racute" unicode="&#x154;" horiz-adv-x="638" 
d="M95 0h-65l123 700h257q93 0 145.5 -46.5t52.5 -129.5q0 -96 -56 -156.5t-159 -76.5l112 -291h-73l-109 285h-178zM208 640l-52 -295h175q95 0 153 48t58 131q0 116 -146 116h-188zM387 765h-59l78 120h88z" />
    <glyph glyph-name="racute" unicode="&#x155;" horiz-adv-x="343" 
d="M95 0h-65l93 530h63l-10 -56h2q22 32 55 49t67 17q29 0 39 -8l4 -2l-24 -66q-11 8 -41 8q-47 0 -80 -35t-45 -105zM256 595h-59l77 120h88z" />
    <glyph glyph-name="Rcommaaccent" unicode="&#x156;" horiz-adv-x="638" 
d="M95 0h-65l123 700h257q93 0 145.5 -46.5t52.5 -129.5q0 -96 -56 -156.5t-159 -76.5l112 -291h-73l-109 285h-178zM208 640l-52 -295h175q95 0 153 48t58 131q0 116 -146 116h-188zM205 -218l5 32q29 4 41.5 15t16.5 33h-49l15 85h95l-13 -70q-8 -48 -34 -70t-77 -25z" />
    <glyph glyph-name="rcommaaccent" unicode="&#x157;" horiz-adv-x="343" 
d="M95 0h-65l93 530h63l-10 -56h2q22 32 55 49t67 17q29 0 39 -8l4 -2l-24 -66q-11 8 -41 8q-47 0 -80 -35t-45 -105zM-20 -218l5 32q29 4 41.5 15t16.5 33h-49l15 85h95l-13 -70q-8 -48 -34 -70t-77 -25z" />
    <glyph glyph-name="Rcaron" unicode="&#x158;" horiz-adv-x="638" 
d="M95 0h-65l123 700h257q93 0 145.5 -46.5t52.5 -129.5q0 -96 -56 -156.5t-159 -76.5l112 -291h-73l-109 285h-178zM208 640l-52 -295h175q95 0 153 48t58 131q0 116 -146 116h-188zM444 883l36 -40l-79 -78h-90l-62 86l45 32l63 -88z" />
    <glyph glyph-name="rcaron" unicode="&#x159;" horiz-adv-x="343" 
d="M95 0h-65l93 530h63l-10 -56h2q22 32 55 49t67 17q29 0 39 -8l4 -2l-24 -66q-11 8 -41 8q-47 0 -80 -35t-45 -105zM319 712l38 -40l-79 -78h-90l-62 86l43 32l63 -88z" />
    <glyph glyph-name="Sacute" unicode="&#x15a;" horiz-adv-x="621" 
d="M30 244l69 9q4 -205 194 -205q77 0 133 47q55 46 55 116q0 39 -29 70q-28 29 -123 61q-129 41 -178 80q-48 38 -48 105q0 76 65 132t176 56q102 0 166 -55q66 -54 66 -144l-68 -7q-2 67 -44.5 106t-123.5 39q-74 0 -121 -36t-47 -88q1 -29 12 -44.5t49.5 -34.5t126.5 -50
q112 -38 150 -79q39 -40 39 -110q0 -93 -71 -161q-70 -66 -192 -66q-116 0 -186 67t-70 192zM381 765h-59l78 120h88z" />
    <glyph glyph-name="sacute" unicode="&#x15b;" horiz-adv-x="502" 
d="M30 182l64 9q14 -147 140 -147q69 0 109 32.5t40 82.5q0 31 -26 52q-25 22 -106 42q-102 26 -138 56q-38 32 -38 82q0 65 51 109q52 45 143 45q83 0 133.5 -44.5t54.5 -117.5l-61 -8q-5 52 -38 82.5t-88 30.5q-61 0 -97 -27.5t-36 -64.5q0 -33 28 -49q31 -18 125 -43
q87 -23 121.5 -58.5t34.5 -93.5q0 -63 -55 -115q-53 -52 -152 -52q-95 0 -151 56q-55 55 -58 141zM315 595h-59l77 120h88z" />
    <glyph glyph-name="Scircumflex" unicode="&#x15c;" horiz-adv-x="621" 
d="M30 244l69 9q4 -205 194 -205q77 0 133 47q55 46 55 116q0 39 -29 70q-28 29 -123 61q-129 41 -178 80q-48 38 -48 105q0 76 65 132t176 56q102 0 166 -55q66 -54 66 -144l-68 -7q-2 67 -44.5 106t-123.5 39q-74 0 -121 -36t-47 -88q1 -29 12 -44.5t49.5 -34.5t126.5 -50
q112 -38 150 -79q39 -40 39 -110q0 -93 -71 -161q-70 -66 -192 -66q-116 0 -186 67t-70 192zM271 747l-36 40l79 78h90l62 -86l-45 -32l-63 88z" />
    <glyph glyph-name="scircumflex" unicode="&#x15d;" horiz-adv-x="502" 
d="M30 182l64 9q14 -147 140 -147q69 0 109 32.5t40 82.5q0 31 -26 52q-25 22 -106 42q-102 26 -138 56q-38 32 -38 82q0 65 51 109q52 45 143 45q83 0 133.5 -44.5t54.5 -117.5l-61 -8q-5 52 -38 82.5t-88 30.5q-61 0 -97 -27.5t-36 -64.5q0 -33 28 -49q31 -18 125 -43
q87 -23 121.5 -58.5t34.5 -93.5q0 -63 -55 -115q-53 -52 -152 -52q-95 0 -151 56q-55 55 -58 141zM205 582l-36 40l79 78h90l62 -86l-45 -32l-63 88z" />
    <glyph glyph-name="Scedilla" unicode="&#x15e;" horiz-adv-x="621" 
d="M209 -176l27 40q29 -29 73 -29q63 0 63 47q0 41 -58 41q-27 0 -48 -13l-7 -5l-29 15l38 66q-107 4 -173 71q-65 68 -65 187l69 9q4 -205 194 -205q77 0 133 47q55 46 55 116q0 39 -29 70q-28 29 -123 61q-129 41 -178 80q-48 38 -48 105q0 76 65 132t176 56
q102 0 166 -55q66 -54 66 -144l-68 -7q-2 67 -44.5 106t-123.5 39q-74 0 -121 -36t-47 -88q1 -29 12 -44.5t49.5 -34.5t126.5 -50q112 -38 150 -79q39 -40 39 -110q0 -90 -64 -154q-65 -64 -174 -72l-28 -44q22 14 51 14q36 0 62 -21t26 -55q0 -44 -29.5 -67.5t-78.5 -23.5
q-27 0 -52 8t-37 15.5t-16 11.5z" />
    <glyph glyph-name="scedilla" unicode="&#x15f;" horiz-adv-x="502" 
d="M162 -176l27 40q29 -29 73 -29q63 0 63 47q0 41 -58 41q-26 0 -49 -13l-6 -5l-29 15l38 66q-86 5 -137 59t-54 137l64 9q14 -147 140 -147q69 0 109 32.5t40 82.5q0 31 -26 52q-25 22 -106 42q-102 26 -138 56q-38 32 -38 82q0 65 51 109q52 45 143 45q83 0 133.5 -44.5
t54.5 -117.5l-61 -8q-5 52 -38 82.5t-88 30.5q-61 0 -97 -27.5t-36 -64.5q0 -33 28 -49q31 -18 125 -43q87 -23 121.5 -58.5t34.5 -93.5q0 -57 -48 -108q-49 -51 -134 -58l-28 -44q22 14 51 14q36 0 62 -21t26 -55q0 -44 -29.5 -67.5t-78.5 -23.5q-27 0 -52 8t-37 15.5
t-16 11.5z" />
    <glyph glyph-name="Scaron" unicode="&#x160;" horiz-adv-x="621" 
d="M30 244l69 9q4 -205 194 -205q77 0 133 47q55 46 55 116q0 39 -29 70q-28 29 -123 61q-129 41 -178 80q-48 38 -48 105q0 76 65 132t176 56q102 0 166 -55q66 -54 66 -144l-68 -7q-2 67 -44.5 106t-123.5 39q-74 0 -121 -36t-47 -88q1 -29 12 -44.5t49.5 -34.5t126.5 -50
q112 -38 150 -79q39 -40 39 -110q0 -93 -71 -161q-70 -66 -192 -66q-116 0 -186 67t-70 192zM446 883l36 -40l-79 -78h-90l-62 86l45 32l63 -88z" />
    <glyph glyph-name="scaron" unicode="&#x161;" horiz-adv-x="502" 
d="M30 182l64 9q14 -147 140 -147q69 0 109 32.5t40 82.5q0 31 -26 52q-25 22 -106 42q-102 26 -138 56q-38 32 -38 82q0 65 51 109q52 45 143 45q83 0 133.5 -44.5t54.5 -117.5l-61 -8q-5 52 -38 82.5t-88 30.5q-61 0 -97 -27.5t-36 -64.5q0 -33 28 -49q31 -18 125 -43
q87 -23 121.5 -58.5t34.5 -93.5q0 -63 -55 -115q-53 -52 -152 -52q-95 0 -151 56q-55 55 -58 141zM373 712l38 -40l-79 -78h-90l-62 86l43 32l63 -88z" />
    <glyph glyph-name="Tcommaaccent" unicode="&#x162;" horiz-adv-x="565" 
d="M245 0h-71l113 640h-217l10 60h505l-10 -60h-217zM126 -218l5 32q29 4 41.5 15t16.5 33h-49l15 85h95l-13 -70q-8 -48 -34 -70t-77 -25z" />
    <glyph glyph-name="tcommaaccent" unicode="&#x163;" horiz-adv-x="335" 
d="M77 143l57 327h-74l10 60h76l24 130h63l-23 -130h130l-11 -60h-130l-56 -318q-9 -49 1 -68.5t48 -19.5h38l-12 -64h-40q-127 0 -101 143zM55 -218l5 32q29 4 41.5 15t16.5 33h-49l15 85h95l-13 -70q-8 -48 -34 -70t-77 -25z" />
    <glyph glyph-name="Tcaron" unicode="&#x164;" horiz-adv-x="565" 
d="M245 0h-71l113 640h-217l10 60h505l-10 -60h-217zM420 883l36 -40l-79 -78h-90l-62 86l45 32l63 -88z" />
    <glyph glyph-name="tcaron" unicode="&#x165;" horiz-adv-x="335" 
d="M77 143l57 327h-74l10 60h76l24 130h63l-23 -130h130l-11 -60h-130l-56 -318q-9 -49 1 -68.5t48 -19.5h38l-12 -64h-40q-127 0 -101 143zM344 584h-49l48 146h71z" />
    <glyph glyph-name="Tbar" unicode="&#x166;" horiz-adv-x="555" 
d="M233 338h-127l9 55h128l44 247h-217l10 60h505l-10 -60h-217l-44 -247h126l-9 -55h-127l-59 -338h-71z" />
    <glyph glyph-name="tbar" unicode="&#x167;" horiz-adv-x="335" 
d="M77 143l19 110h-75l10 55h74l29 162h-74l10 60h76l24 130h63l-23 -130h130l-11 -60h-130l-29 -162h130l-10 -55h-129l-18 -101q-9 -49 1 -68.5t48 -19.5h38l-12 -64h-40q-127 0 -101 143z" />
    <glyph glyph-name="Utilde" unicode="&#x168;" horiz-adv-x="682" 
d="M76 228l83 472h68l-82 -466q-32 -186 144 -186q182 0 213 184l82 468h68l-83 -472q-43 -243 -283 -243q-117 0 -173.5 64.5t-36.5 178.5zM315 765h-40q34 88 100 88q25 0 56 -19q31 -18 49 -18q26 0 40 32h40q-33 -88 -99 -88q-25 0 -57 18q-31 19 -49 19q-26 0 -40 -32z
" />
    <glyph glyph-name="utilde" unicode="&#x169;" horiz-adv-x="562" 
d="M55 181l61 349h65l-61 -349q-24 -136 118 -136q67 0 108 39.5t53 112.5l58 333h65l-93 -530h-65l9 51h-2q-3 -5 -16 -18q-11 -11 -48 -30q-37 -18 -82 -18q-85 0 -136 47t-34 149zM241 605h-40q34 88 100 88q25 0 56 -19q31 -18 49 -18q26 0 40 32h40q-33 -88 -99 -88
q-25 0 -57 18q-31 19 -49 19q-26 0 -40 -32z" />
    <glyph glyph-name="Umacron" unicode="&#x16a;" horiz-adv-x="682" 
d="M76 228l83 472h68l-82 -466q-32 -186 144 -186q182 0 213 184l82 468h68l-83 -472q-43 -243 -283 -243q-117 0 -173.5 64.5t-36.5 178.5zM555 765h-288l9 50h288z" />
    <glyph glyph-name="umacron" unicode="&#x16b;" horiz-adv-x="562" 
d="M55 181l61 349h65l-61 -349q-24 -136 118 -136q67 0 108 39.5t53 112.5l58 333h65l-93 -530h-65l9 51h-2q-3 -5 -16 -18q-11 -11 -48 -30q-37 -18 -82 -18q-85 0 -136 47t-34 149zM467 620h-288l9 50h288z" />
    <glyph glyph-name="Ubreve" unicode="&#x16c;" horiz-adv-x="682" 
d="M76 228l83 472h68l-82 -466q-32 -186 144 -186q182 0 213 184l82 468h68l-83 -472q-43 -243 -283 -243q-117 0 -173.5 64.5t-36.5 178.5zM310 870h37q0 -59 74 -59q73 0 91 59h40q-10 -56 -45 -85.5t-90 -29.5q-56 0 -86 30.5t-21 84.5z" />
    <glyph glyph-name="ubreve" unicode="&#x16d;" horiz-adv-x="562" 
d="M55 181l61 349h65l-61 -349q-24 -136 118 -136q67 0 108 39.5t53 112.5l58 333h65l-93 -530h-65l9 51h-2q-3 -5 -16 -18q-11 -11 -48 -30q-37 -18 -82 -18q-85 0 -136 47t-34 149zM222 700h37q0 -59 74 -59q73 0 91 59h40q-10 -56 -45 -85.5t-90 -29.5q-56 0 -86 30.5
t-21 84.5z" />
    <glyph glyph-name="Uring" unicode="&#x16e;" horiz-adv-x="682" 
d="M76 228l83 472h68l-82 -466q-32 -186 144 -186q182 0 213 184l82 468h68l-83 -472q-43 -243 -283 -243q-117 0 -173.5 64.5t-36.5 178.5zM320 773q0 49 30 81.5t78 32.5q37 0 62.5 -25t25.5 -61q0 -49 -30 -81.5t-78 -32.5q-37 0 -62.5 25t-25.5 61zM468 800
q0 22 -12.5 34.5t-30.5 12.5q-24 0 -40.5 -20t-16.5 -53q0 -22 12.5 -34.5t30.5 -12.5q24 0 40.5 20t16.5 53z" />
    <glyph glyph-name="uring" unicode="&#x16f;" horiz-adv-x="562" 
d="M55 181l61 349h65l-61 -349q-24 -136 118 -136q67 0 108 39.5t53 112.5l58 333h65l-93 -530h-65l9 51h-2q-3 -5 -16 -18q-11 -11 -48 -30q-37 -18 -82 -18q-85 0 -136 47t-34 149zM233 609q0 49 30 81.5t78 32.5q37 0 62.5 -25t25.5 -61q0 -49 -30 -81.5t-78 -32.5
q-37 0 -62.5 25t-25.5 61zM381 636q0 22 -12.5 34.5t-30.5 12.5q-24 0 -40.5 -20t-16.5 -53q0 -22 12.5 -34.5t30.5 -12.5q24 0 40.5 20t16.5 53z" />
    <glyph glyph-name="Uhungarumlaut" unicode="&#x170;" horiz-adv-x="682" 
d="M76 228l83 472h68l-82 -466q-32 -186 144 -186q182 0 213 184l82 468h68l-83 -472q-43 -243 -283 -243q-117 0 -173.5 64.5t-36.5 178.5zM373 765h-54l75 115h83zM502 765h-54l75 115h83z" />
    <glyph glyph-name="uhungarumlaut" unicode="&#x171;" horiz-adv-x="562" 
d="M282 611h-54l75 115h83zM411 611h-54l75 115h83zM55 181l61 349h65l-61 -349q-24 -136 118 -136q67 0 108 39.5t53 112.5l58 333h65l-93 -530h-65l9 51h-2q-3 -5 -16 -18q-11 -11 -48 -30q-37 -18 -82 -18q-85 0 -136 47t-34 149z" />
    <glyph glyph-name="Uogonek" unicode="&#x172;" horiz-adv-x="682" 
d="M369 -122l29 -24q-50 -62 -114 -62q-42 0 -71 18t-29 55q0 65 77 121q-105 7 -154.5 70.5t-30.5 171.5l83 472h68l-82 -466q-32 -186 144 -186q182 0 213 184l82 468h68l-83 -472q-40 -226 -250 -241q-65 -63 -65 -105q0 -40 49 -40q33 0 66 36z" />
    <glyph glyph-name="uogonek" unicode="&#x173;" horiz-adv-x="562" 
d="M464 -122l29 -24q-50 -62 -114 -62q-42 0 -71 18t-29 55q0 73 99 135h-14l9 51h-2q-3 -5 -16 -18q-11 -11 -48 -30q-37 -18 -82 -18q-85 0 -136 47t-34 149l61 349h65l-61 -349q-24 -136 118 -136q67 0 108 39.5t53 112.5l58 333h65l-93 -530q-80 -74 -80 -118
q0 -40 49 -40q33 0 66 36z" />
    <glyph glyph-name="Wcircumflex" unicode="&#x174;" horiz-adv-x="919" 
d="M582 0l-73 630h-3l-295 -630h-98l-3 700h72l-1 -620h2l286 620h98l68 -620h2l217 620h75l-249 -700h-98zM440 747l-36 40l79 78h90l62 -86l-45 -32l-63 88z" />
    <glyph glyph-name="wcircumflex" unicode="&#x175;" horiz-adv-x="770" 
d="M175 0h-66l-24 530h66l14 -414h2l221 414h71l75 -414h2l169 414h70l-220 -530h-63l-80 451zM345 582l-36 40l79 78h90l62 -86l-45 -32l-63 88z" />
    <glyph glyph-name="Ycircumflex" unicode="&#x176;" horiz-adv-x="558" 
d="M245 0h-67l52 295l-160 405h70l130 -338h2l246 338h80l-301 -405zM259 747l-36 40l79 78h90l62 -86l-45 -32l-63 88z" />
    <glyph glyph-name="ycircumflex" unicode="&#x177;" horiz-adv-x="522" 
d="M532 530l-415 -755h-67l163 293l-111 462h65l89 -379h2l200 379h74zM238 582l-36 40l79 78h90l62 -86l-45 -32l-63 88z" />
    <glyph glyph-name="Ydieresis" unicode="&#x178;" horiz-adv-x="558" 
d="M245 0h-67l52 295l-160 405h70l130 -338h2l246 338h80l-301 -405zM475 765h-81l15 83h81zM285 765h-81l15 83h81z" />
    <glyph glyph-name="Zacute" unicode="&#x179;" horiz-adv-x="618" 
d="M490 0h-495l8 48l514 590v2h-385l10 60h476l-8 -48l-512 -587v-2h404zM388 765h-59l78 120h88z" />
    <glyph glyph-name="zacute" unicode="&#x17a;" horiz-adv-x="572" 
d="M443 0h-438l9 49l423 419v2h-328l10 60h423l-8 -47l-421 -419v-2h341zM338 595h-59l77 120h88z" />
    <glyph glyph-name="Zdotaccent" unicode="&#x17b;" horiz-adv-x="618" 
d="M490 0h-495l8 48l514 590v2h-385l10 60h476l-8 -48l-512 -587v-2h404zM412 765h-86l15 88h86z" />
    <glyph glyph-name="zdotaccent" unicode="&#x17c;" horiz-adv-x="572" 
d="M443 0h-438l9 49l423 419v2h-328l10 60h423l-8 -47l-421 -419v-2h341zM358 612h-86l15 88h86z" />
    <glyph glyph-name="Zcaron" unicode="&#x17d;" horiz-adv-x="618" 
d="M490 0h-495l8 48l514 590v2h-385l10 60h476l-8 -48l-512 -587v-2h404zM470 883l36 -40l-79 -78h-90l-62 86l45 32l63 -88z" />
    <glyph glyph-name="zcaron" unicode="&#x17e;" horiz-adv-x="572" 
d="M443 0h-438l9 49l423 419v2h-328l10 60h423l-8 -47l-421 -419v-2h341zM407 712l38 -40l-79 -78h-90l-62 86l43 32l63 -88z" />
    <glyph glyph-name="longs" unicode="&#x17f;" horiz-adv-x="315" 
d="M85 530h58l11 60q11 59 40.5 84.5t79.5 25.5h71l-12 -62h-52q-33 0 -46 -13t-20 -55l-100 -570h-65l83 470h-58z" />
    <glyph glyph-name="florin" unicode="&#x192;" horiz-adv-x="472" 
d="M144 -173h-64l102 585h-98l9 53h98l26 136q29 144 135 144q66 0 110 -57l-45 -43q-31 40 -62 40q-32 0 -49.5 -21t-28.5 -77l-22 -122h145l-9 -53h-145z" />
    <glyph glyph-name="Aringacute" unicode="&#x1fa;" horiz-adv-x="602" 
d="M271 773q0 48 27 79t72 34l56 87h88l-88 -99q41 -26 41 -73q0 -38 -18.5 -67t-49.5 -40l128 -694h-65l-27 149h-337l-78 -149h-70l372 694q-51 22 -51 79zM349 621h-2l-220 -418h298zM419 800q0 22 -12.5 34.5t-30.5 12.5q-24 0 -40.5 -20t-16.5 -53q0 -22 12.5 -34.5
t30.5 -12.5q24 0 40.5 20t16.5 53z" />
    <glyph glyph-name="aringacute" unicode="&#x1fb;" horiz-adv-x="548" 
d="M206 609q0 43 23.5 74t62.5 38l57 88h88l-84 -95q49 -24 49 -77q0 -68 -49 -98q49 -13 75 -57h3l9 48h68l-93 -530h-59l10 61h-2q-20 -32 -59.5 -54t-92.5 -22q-70 0 -121 54t-51 153q0 125 59 220q58 94 148 123q-41 26 -41 74zM391 254l12 75q11 73 -16.5 114.5
t-89.5 41.5q-73 0 -133 -86q-59 -86 -59 -203q0 -68 32 -108.5t83 -40.5q62 0 108 51t63 156zM354 636q0 22 -12.5 34.5t-30.5 12.5q-24 0 -40.5 -20t-16.5 -53q0 -22 12.5 -34.5t30.5 -12.5q24 0 40.5 20t16.5 53z" />
    <glyph glyph-name="AEacute" unicode="&#x1fc;" horiz-adv-x="866" 
d="M355 0l28 158h-256l-86 -158h-76l388 700h508l-10 -60h-318l-43 -242h291l-10 -58h-291l-49 -280h318l-11 -60h-383zM468 640h-79l-232 -426h235zM477 765h-59l78 120h88z" />
    <glyph glyph-name="aeacute" unicode="&#x1fd;" horiz-adv-x="933" 
d="M791 160l54 -34q-36 -66 -96 -103.5t-136 -37.5q-64 0 -115.5 32.5t-77.5 90.5h-2q-48 -123 -218 -123q-78 0 -124 38.5t-46 101.5q0 141 176 168l69 12q73 12 92 22q49 22 44 60q0 44 -34.5 70.5t-91.5 26.5q-103 0 -139 -102l-59 22q22 68 75.5 104.5t129.5 36.5
q57 0 102.5 -25.5t68.5 -74.5h2q75 100 199 100q96 0 158 -63q61 -62 61 -169l-3 -67h-417q-1 -7 -1 -17q0 -49 13 -87q14 -42 50.5 -69.5t87.5 -27.5q114 0 178 115zM469 301h348q1 8 1 24q0 66 -41 113t-113 47q-80 0 -132 -57q-53 -57 -63 -127zM375 155l18 134h-2
q-12 -18 -68 -30l-50 -11l-61 -11q-63 -11 -90 -36.5t-27 -68.5q0 -42 29.5 -64.5t85.5 -22.5q67 0 111.5 32.5t53.5 77.5zM329 595h-59l77 120h88z" />
    <glyph glyph-name="Oslashacute" unicode="&#x1fe;" horiz-adv-x="687" 
d="M439 765h-59l78 120h88zM307 -15q-109 0 -178 74l-30 -36l-33 26l36 43q-52 82 -52 197q0 98 28.5 181.5t76.5 135.5q101 109 225 109q109 0 179 -76l32 38l31 -27l-37 -44q52 -79 52 -195q0 -98 -28 -181t-76 -137q-99 -108 -226 -108zM380 652q-109 0 -185 -103
t-76 -260q0 -81 31 -139l366 437q-53 65 -136 65zM568 411q0 78 -30 139l-364 -437q51 -62 133 -62q111 0 186 101q75 102 75 259z" />
    <glyph glyph-name="oslashacute" unicode="&#x1ff;" horiz-adv-x="610" 
d="M361 595h-59l77 120h88zM58 229q0 146 79 231t188 85q105 0 167 -80l43 39l25 -29l-48 -43q30 -60 30 -131q0 -146 -79 -231t-188 -85q-107 0 -168 81l-42 -38l-25 28l47 43q-29 56 -29 130zM477 301q0 47 -15 86l-308 -278q40 -64 118 -64q85 0 145 68t60 188zM123 229
q0 -49 14 -85l307 278q-41 63 -116 63q-86 0 -146 -68q-59 -68 -59 -188z" />
    <glyph glyph-name="Scommaaccent" unicode="&#x218;" horiz-adv-x="621" 
d="M30 244l69 9q4 -205 194 -205q77 0 133 47q55 46 55 116q0 39 -29 70q-28 29 -123 61q-129 41 -178 80q-48 38 -48 105q0 76 65 132t176 56q102 0 166 -55q66 -54 66 -144l-68 -7q-2 67 -44.5 106t-123.5 39q-74 0 -121 -36t-47 -88q1 -29 12 -44.5t49.5 -34.5t126.5 -50
q112 -38 150 -79q39 -40 39 -110q0 -93 -71 -161q-70 -66 -192 -66q-116 0 -186 67t-70 192zM218 -218l5 32q29 4 41.5 15t16.5 33h-49l15 85h95l-13 -70q-8 -48 -34 -70t-77 -25z" />
    <glyph glyph-name="scommaaccent" unicode="&#x219;" horiz-adv-x="502" 
d="M30 182l64 9q14 -147 140 -147q69 0 109 32.5t40 82.5q0 31 -26 52q-25 22 -106 42q-102 26 -138 56q-38 32 -38 82q0 65 51 109q52 45 143 45q83 0 133.5 -44.5t54.5 -117.5l-61 -8q-5 52 -38 82.5t-88 30.5q-61 0 -97 -27.5t-36 -64.5q0 -33 28 -49q31 -18 125 -43
q87 -23 121.5 -58.5t34.5 -93.5q0 -63 -55 -115q-53 -52 -152 -52q-95 0 -151 56q-55 55 -58 141zM169 -218l5 32q29 4 41.5 15t16.5 33h-49l15 85h95l-13 -70q-8 -48 -34 -70t-77 -25z" />
    <glyph glyph-name="dotlessj" unicode="&#x237;" horiz-adv-x="249" 
d="M-30 -195h-30l11 65h14q30 0 41 9t16 38l107 613h65l-109 -622q-18 -103 -115 -103z" />
    <glyph glyph-name="circumflex" unicode="&#x2c6;" horiz-adv-x="372" 
d="M109 582l-36 40l79 78h90l62 -86l-45 -32l-63 88z" />
    <glyph glyph-name="caron" unicode="&#x2c7;" horiz-adv-x="371" 
d="M263 712l38 -40l-79 -78h-90l-62 86l43 32l63 -88z" />
    <glyph glyph-name="breve" unicode="&#x2d8;" horiz-adv-x="298" 
d="M53 700h37q0 -59 74 -59q73 0 91 59h40q-10 -56 -45 -85.5t-90 -29.5q-56 0 -86 30.5t-21 84.5z" />
    <glyph glyph-name="dotaccent" unicode="&#x2d9;" horiz-adv-x="241" 
d="M156 612h-86l15 88h86z" />
    <glyph glyph-name="ring" unicode="&#x2da;" horiz-adv-x="318" 
d="M61 609q0 49 30 81.5t78 32.5q37 0 62.5 -25t25.5 -61q0 -49 -30 -81.5t-78 -32.5q-37 0 -62.5 25t-25.5 61zM209 636q0 22 -12.5 34.5t-30.5 12.5q-24 0 -40.5 -20t-16.5 -53q0 -22 12.5 -34.5t30.5 -12.5q24 0 40.5 20t16.5 53z" />
    <glyph glyph-name="ogonek" unicode="&#x2db;" horiz-adv-x="304" 
d="M225 -122l29 -24q-50 -62 -114 -62q-42 0 -71 18t-29 55q0 73 99 135h51q-80 -74 -80 -118q0 -40 49 -40q33 0 66 36z" />
    <glyph glyph-name="tilde" unicode="&#x2dc;" horiz-adv-x="425" 
d="M110 605h-40q34 88 100 88q25 0 56 -19q31 -18 49 -18q26 0 40 32h40q-33 -88 -99 -88q-26 0 -57 18q-31 19 -49 19q-26 0 -40 -32z" />
    <glyph glyph-name="hungarumlaut" unicode="&#x2dd;" horiz-adv-x="467" 
d="M144 595h-54l75 115h83zM273 595h-54l75 115h83z" />
    <glyph glyph-name="uni0312" unicode="&#x312;" horiz-adv-x="301" 
d="M201 730l-3 -18q-42 -8 -48 -43h41l-13 -72h-78l10 55q7 39 28 57t63 21z" />
    <glyph glyph-name="pi" unicode="&#x3c0;" horiz-adv-x="744" 
d="M217 86l-24 -86h-71l10 35q3 10 23 94q18 76 29 142q11 59 23 171q11 105 11 190h-108v68h574v-68h-80v-483q0 -93 13 -149h-68q-17 31 -17 143v489h-243q0 -144 -24 -301q-24 -159 -48 -245z" />
    <glyph glyph-name="Wgrave" unicode="&#x1e80;" horiz-adv-x="919" 
d="M582 0l-73 630h-3l-295 -630h-98l-3 700h72l-1 -620h2l286 620h98l68 -620h2l217 620h75l-249 -700h-98zM551 765h-59l-107 120h88z" />
    <glyph glyph-name="wgrave" unicode="&#x1e81;" horiz-adv-x="770" 
d="M175 0h-66l-24 530h66l14 -414h2l221 414h71l75 -414h2l169 414h70l-220 -530h-63l-80 451zM449 595h-59l-107 120h88z" />
    <glyph glyph-name="Wacute" unicode="&#x1e82;" horiz-adv-x="919" 
d="M582 0l-73 630h-3l-295 -630h-98l-3 700h72l-1 -620h2l286 620h98l68 -620h2l217 620h75l-249 -700h-98zM547 765h-59l78 120h88z" />
    <glyph glyph-name="wacute" unicode="&#x1e83;" horiz-adv-x="770" 
d="M175 0h-66l-24 530h66l14 -414h2l221 414h71l75 -414h2l169 414h70l-220 -530h-63l-80 451zM452 595h-59l77 120h88z" />
    <glyph glyph-name="Wdieresis" unicode="&#x1e84;" horiz-adv-x="919" 
d="M582 0l-73 630h-3l-295 -630h-98l-3 700h72l-1 -620h2l286 620h98l68 -620h2l217 620h75l-249 -700h-98zM665 765h-81l15 83h81zM475 765h-81l15 83h81z" />
    <glyph glyph-name="wdieresis" unicode="&#x1e85;" horiz-adv-x="770" 
d="M175 0h-66l-24 530h66l14 -414h2l221 414h71l75 -414h2l169 414h70l-220 -530h-63l-80 451zM375 617h-81l14 83h81zM565 617h-81l14 83h81z" />
    <glyph glyph-name="Ygrave" unicode="&#x1ef2;" horiz-adv-x="558" 
d="M245 0h-67l52 295l-160 405h70l130 -338h2l246 338h80l-301 -405zM356 765h-59l-107 120h88z" />
    <glyph glyph-name="ygrave" unicode="&#x1ef3;" horiz-adv-x="522" 
d="M532 530l-415 -755h-67l163 293l-111 462h65l89 -379h2l200 379h74zM354 595h-59l-107 120h88z" />
    <glyph glyph-name="endash" unicode="&#x2013;" 
d="M569 318h-499l11 60h499z" />
    <glyph glyph-name="emdash" unicode="&#x2014;" horiz-adv-x="1000" 
d="M889 318h-789l11 60h789z" />
    <glyph glyph-name="quoteleft" unicode="&#x2018;" horiz-adv-x="249" 
d="M102 604l16 96h111l-18 -106h-45q-10 -57 34 -64l-7 -43q-49 5 -74 36.5t-17 80.5z" />
    <glyph glyph-name="quoteright" unicode="&#x2019;" horiz-adv-x="259" 
d="M109 594l19 106h111l-18 -101q-20 -105 -131 -112l9 48q48 7 57 59h-47z" />
    <glyph glyph-name="quotesinglbase" unicode="&#x201a;" horiz-adv-x="289" 
d="M19 0l19 106h111l-18 -101q-20 -105 -131 -112l9 48q48 7 57 59h-47z" />
    <glyph glyph-name="quotedblleft" unicode="&#x201c;" horiz-adv-x="418" 
d="M102 604l16 96h111l-18 -106h-45q-10 -57 34 -64l-7 -43q-49 5 -74 36.5t-17 80.5zM271 604l16 96h111l-18 -106h-45q-10 -57 34 -64l-7 -43q-49 5 -74 36.5t-17 80.5z" />
    <glyph glyph-name="quotedblright" unicode="&#x201d;" horiz-adv-x="429" 
d="M89 597l19 106h111l-18 -101q-20 -105 -131 -112l9 48q48 7 57 59h-47zM259 597l19 106h111l-18 -101q-20 -105 -131 -112l9 48q48 7 57 59h-47z" />
    <glyph glyph-name="quotedblbase" unicode="&#x201e;" horiz-adv-x="459" 
d="M39 0l19 106h111l-18 -101q-20 -105 -131 -112l9 48q48 7 57 59h-47zM209 0l19 106h111l-18 -101q-20 -105 -131 -112l9 48q48 7 57 59h-47z" />
    <glyph glyph-name="dagger" unicode="&#x2020;" horiz-adv-x="553" 
d="M206 -225h-65l118 666h-219l10 60h219l41 229h65l-41 -229h219l-10 -60h-219z" />
    <glyph glyph-name="daggerdbl" unicode="&#x2021;" horiz-adv-x="581" 
d="M224 -225h-65l40 225h-219l10 55h219l69 391h-219l9 55h219l41 229h65l-41 -229h219l-9 -55h-219l-69 -391h219l-10 -55h-219z" />
    <glyph glyph-name="bullet" unicode="&#x2022;" horiz-adv-x="321" 
d="M218 310q-22 -23 -58 -23t-58 23t-22 59t22 59t58 23t58 -23q23 -23 23 -59t-23 -59z" />
    <glyph glyph-name="ellipsis" unicode="&#x2026;" horiz-adv-x="762" 
d="M156 0h-106l19 106h106zM393 0h-106l19 106h106zM623 0h-106l19 106h106z" />
    <glyph glyph-name="perthousand" unicode="&#x2030;" horiz-adv-x="1350" 
d="M930 164q0 106 55 167q56 62 133 62q69 0 110 -50q42 -49 42 -126q0 -106 -56 -168q-55 -61 -132 -61q-69 0 -110.5 49.5t-41.5 126.5zM989 168q0 -56 24 -91t67 -35q57 0 94 47.5t37 127.5q0 55 -24.5 89t-68.5 34q-57 0 -93 -46t-36 -126zM60 483q0 106 55 167
q56 62 133 62q69 0 110 -50q42 -50 42 -126q0 -106 -56 -168q-55 -61 -132 -61q-69 0 -110.5 49.5t-41.5 126.5zM119 487q0 -56 24 -91t67 -35q57 0 94 47.5t37 127.5q0 55 -24.5 89t-68.5 34q-57 0 -93 -46t-36 -126zM489 164q0 106 55 167q56 62 133 62q69 0 110 -50
q42 -49 42 -126q0 -106 -56 -168q-55 -61 -132 -61q-69 0 -110.5 49.5t-41.5 126.5zM548 168q0 -56 24 -91t67 -35q57 0 94 47.5t37 127.5q0 55 -24.5 89t-68.5 34q-57 0 -93 -46t-36 -126zM232 -67l-45 27l489 815l44 -28z" />
    <glyph glyph-name="guilsinglleft" unicode="&#x2039;" horiz-adv-x="347" 
d="M213 87h-65l-78 210l139 164h78l-149 -173z" />
    <glyph glyph-name="guilsinglright" unicode="&#x203a;" horiz-adv-x="340" 
d="M118 461h65l77 -205l-142 -169h-78l152 178z" />
    <glyph glyph-name="fraction" unicode="&#x2044;" horiz-adv-x="373" 
d="M-35 -67l-45 27l489 815l44 -28z" />
    <glyph glyph-name="zerosuperior" unicode="&#x2070;" horiz-adv-x="385" 
d="M259 850q-57 0 -92 -69q-35 -68 -35 -144q0 -55 22 -83.5t62 -28.5q57 0 92 68t35 145q0 54 -22.5 83t-61.5 29zM211 468q-63 0 -99.5 42t-36.5 123q0 108 52 190t139 82q59 0 96.5 -43t37.5 -120q0 -112 -51 -193t-138 -81z" />
    <glyph glyph-name="foursuperior" unicode="&#x2074;" horiz-adv-x="382" 
d="M267 566h-202l10 54l220 280h88l-49 -281h53l-10 -53h-52l-14 -93h-59zM317 857l-186 -238h144l44 238h-2z" />
    <glyph glyph-name="fivesuperior" unicode="&#x2075;" horiz-adv-x="380" 
d="M75 597l54 14q17 -90 95 -90q47 0 76.5 32.5t29.5 80.5q0 37 -22.5 59.5t-61.5 22.5q-25 0 -48 -9t-33 -17t-15 -14l-44 29l62 195h215l-11 -54h-168l-37 -113l2 -1q34 29 85 29q56 0 93.5 -35t37.5 -91q0 -74 -46 -120q-45 -47 -116 -47q-60 0 -100.5 36t-47.5 93z" />
    <glyph glyph-name="sixsuperior" unicode="&#x2076;" horiz-adv-x="373" 
d="M233 521q43 0 73 30.5t30 77.5q0 35 -23.5 60t-64.5 25q-43 0 -73.5 -29.5t-30.5 -69.5q0 -41 25.5 -67.5t63.5 -26.5zM144 713l2 -1l12 13q11 11 39.5 22.5t57.5 11.5q62 0 99.5 -37.5t37.5 -92.5q0 -71 -45 -116t-114 -45q-68 0 -110.5 46t-42.5 124q0 114 56 191
q57 76 140 76q59 0 92 -35.5t35 -89.5l-52 -7q-8 82 -77 82q-46 0 -81 -38t-49 -104z" />
    <glyph glyph-name="sevensuperior" unicode="&#x2077;" horiz-adv-x="383" 
d="M143 473h-68l265 371v2h-217l9 54h281l-10 -56z" />
    <glyph glyph-name="eightsuperior" unicode="&#x2078;" horiz-adv-x="343" 
d="M231 729q37 0 57.5 17.5t20.5 49.5q0 28 -17.5 44.5t-50.5 16.5q-34 0 -55.5 -19t-21.5 -49q0 -28 17.5 -44t49.5 -16zM295 609q0 31 -22.5 51t-60.5 20q-43 0 -70 -24t-27 -62q0 -34 22.5 -53.5t63.5 -19.5q42 0 68 24t26 64zM194 468q-58 0 -96 33t-38 84q0 49 28 83.5
t71 43.5v2q-48 27 -48 78q0 46 38 79.5t96 33.5q55 0 86.5 -30.5t31.5 -75.5q0 -35 -19.5 -60t-52.5 -35v-2q26 -13 43 -38.5t17 -59.5q0 -62 -43 -99t-114 -37z" />
    <glyph glyph-name="ninesuperior" unicode="&#x2079;" horiz-adv-x="387" 
d="M90 584l55 12q9 -76 75 -76q45 0 76.5 41t40.5 108h-2q-33 -49 -108 -49q-53 0 -88.5 35t-35.5 96q0 67 45 110q46 44 108 44q64 0 102.5 -46.5t38.5 -125.5q0 -120 -50 -193q-49 -72 -129 -72q-55 0 -89.5 31.5t-38.5 84.5zM235 670q44 0 72.5 26t28.5 65q0 41 -23 67
t-60 26q-41 0 -68.5 -30.5t-27.5 -72.5q0 -34 22.5 -57.5t55.5 -23.5z" />
    <glyph glyph-name="plussuperior" unicode="&#x207a;" horiz-adv-x="449" 
d="M278 517h-52l28 160h-139l8 48h140l24 142h52l-25 -142h140l-8 -48h-141z" />
    <glyph glyph-name="minussuperior" unicode="&#x207b;" horiz-adv-x="419" 
d="M424 725l-8 -48h-301l8 48h301z" />
    <glyph glyph-name="zeroinferior" unicode="&#x2080;" horiz-adv-x="375" 
d="M164 177q-58 0 -92 -69q-35 -68 -35 -144q0 -55 22 -83.5t62 -28.5q57 0 92 68t35 145q0 54 -22.5 83t-61.5 29zM116 -205q-63 0 -99.5 42t-36.5 123q0 108 52 190t139 82q59 0 96.5 -43t37.5 -120q0 -112 -51 -193t-138 -81z" />
    <glyph glyph-name="oneinferior" unicode="&#x2081;" horiz-adv-x="300" 
d="M113 -200h-55l64 355l-102 -55l13 69l108 58h49z" />
    <glyph glyph-name="twoinferior" unicode="&#x2082;" horiz-adv-x="373" 
d="M249 -200h-274l8 43q10 65 38 100q30 34 98 62q72 30 99 53t27 58q0 29 -20.5 46t-53.5 17q-77 0 -96 -87l-56 12q10 59 51.5 93.5t99.5 34.5q61 0 97 -33t36 -82q0 -53 -36 -86t-119 -68q-57 -24 -76 -46q-18 -21 -26 -59h214z" />
    <glyph glyph-name="threeinferior" unicode="&#x2083;" horiz-adv-x="371" 
d="M-20 -51l56 7q3 -110 94 -110q44 0 67 23.5t23 65.5q0 67 -79 67h-23l9 49h26q37 0 59 19.5t22 55.5q0 24 -18.5 39.5t-48.5 15.5q-32 0 -54 -19t-31 -50l-50 15q9 45 45.5 75t90.5 30q53 0 87.5 -28.5t34.5 -71.5q2 -80 -73 -104v-2q58 -19 58 -94q0 -63 -38 -100
t-108 -37q-69 0 -108 40.5t-41 113.5z" />
    <glyph glyph-name="fourinferior" unicode="&#x2084;" horiz-adv-x="382" 
d="M172 -107h-202l10 54l220 280h88l-49 -281h53l-10 -53h-52l-14 -93h-59zM222 184l-186 -238h144l44 238h-2z" />
    <glyph glyph-name="fiveinferior" unicode="&#x2085;" horiz-adv-x="375" 
d="M-20 -76l54 14q16 -90 95 -90q47 0 76.5 32.5t29.5 80.5q0 37 -22.5 59.5t-61.5 22.5q-25 0 -48 -9t-33 -17t-15 -14l-44 29l62 195h215l-11 -54h-168l-37 -113l2 -1q34 29 85 29q56 0 93.5 -35t37.5 -91q0 -74 -46 -120q-45 -47 -116 -47q-60 0 -100.5 36t-47.5 93z" />
    <glyph glyph-name="sixinferior" unicode="&#x2086;" horiz-adv-x="388" 
d="M143 -153q43 0 73 30.5t30 77.5q0 35 -23.5 60t-64.5 25q-43 0 -73.5 -29.5t-30.5 -69.5q0 -41 25.5 -67.5t63.5 -26.5zM54 39l2 -1l12 13q11 11 39.5 22.5t57.5 11.5q62 0 99.5 -37.5t37.5 -92.5q0 -71 -45 -116t-114 -45q-68 0 -110.5 46t-42.5 124q0 114 56 191
q57 76 140 76q59 0 92 -35.5t35 -89.5l-52 -7q-8 82 -77 82q-46 0 -81 -38t-49 -104z" />
    <glyph glyph-name="seveninferior" unicode="&#x2087;" horiz-adv-x="328" 
d="M23 -200h-68l265 371v2h-217l9 54h281l-10 -56z" />
    <glyph glyph-name="eightinferior" unicode="&#x2088;" horiz-adv-x="373" 
d="M161 56q78 0 78 67q0 28 -17.5 44.5t-50.5 16.5q-34 0 -55.5 -19t-21.5 -49q0 -28 17.5 -44t49.5 -16zM225 -64q0 31 -22.5 51t-60.5 20q-43 0 -70 -24t-27 -62q0 -34 22.5 -53.5t63.5 -19.5q42 0 68 24t26 64zM124 -205q-58 0 -96 33t-38 84q0 49 28 83.5t71 43.5v2
q-48 27 -48 78q0 46 38 79.5t96 33.5q55 0 86.5 -30.5t31.5 -75.5q0 -35 -19.5 -60t-52.5 -35v-2q26 -13 43 -38.5t17 -59.5q0 -62 -43 -99t-114 -37z" />
    <glyph glyph-name="nineinferior" unicode="&#x2089;" horiz-adv-x="372" 
d="M-5 -89l55 12q9 -76 75 -76q45 0 76.5 41t40.5 108h-2q-33 -49 -108 -49q-53 0 -88.5 35t-35.5 96q0 66 45 110q46 44 108 44q64 0 102.5 -46.5t38.5 -125.5q0 -120 -50 -193q-50 -72 -129 -72q-55 0 -89.5 31.5t-38.5 84.5zM140 -3q44 0 72.5 26t28.5 65q0 41 -23 67
t-60 26q-41 0 -68.5 -30.5t-27.5 -72.5q0 -34 22.5 -57.5t55.5 -23.5z" />
    <glyph glyph-name="Euro" unicode="&#x20ac;" horiz-adv-x="745" 
d="M67 402l11 60h86q39 116 122 184q82 69 182 69q104 0 170 -69q68 -68 66 -172l-66 -6q-1 79 -45 133q-43 54 -133 54q-74 0 -135 -54q-60 -51 -92 -139h230l-11 -60h-236q-10 -45 -12 -93h232l-11 -60h-219q8 -92 59.5 -146.5t131.5 -54.5q79 0 133 53.5t76 145.5l67 -18
q-24 -113 -98 -178.5t-181 -65.5q-108 0 -176 71t-79 193h-99l11 60h87q1 46 10 93h-81z" />
    <glyph glyph-name="trademark" unicode="&#x2122;" horiz-adv-x="736" 
d="M365 361h-50l59 339h77l54 -265h2l149 265h80l-59 -339h-50l51 289h-2l-161 -289h-40l-57 289h-2zM166 361h-49l51 294h-108l8 45h258l-8 -45h-101z" />
    <glyph glyph-name="Omega" unicode="&#x2126;" horiz-adv-x="718" 
d="M314 0h-251v60h137q-60 34 -101 119q-39 85 -39 182q0 172 82 263t207 91q124 0 206 -91q83 -92 83 -263q0 -99 -40 -182q-41 -85 -101 -119h138v-60h-251v60q77 14 129 91q54 78 54 196q0 152 -62 229q-61 78 -156 78t-156 -79q-62 -79 -62 -228q0 -117 53 -197
q52 -78 130 -90v-60z" />
    <glyph glyph-name="onethird" unicode="&#x2153;" horiz-adv-x="974" 
d="M226 -67l-45 27l489 815l44 -28zM203 273h-55l64 355l-102 -55l13 69l108 58h49zM553 149l56 7q3 -110 94 -110q44 0 67 23.5t23 65.5q0 67 -79 67h-23l9 49h26q37 0 59 19.5t22 55.5q0 24 -18.5 39.5t-48.5 15.5q-32 0 -54 -19t-31 -50l-50 15q9 45 45.5 75t90.5 30
q53 0 87.5 -28.5t34.5 -71.5q2 -80 -73 -104v-2q58 -19 58 -94q0 -63 -38 -100t-108 -37q-69 0 -108 40.5t-41 113.5z" />
    <glyph glyph-name="twothirds" unicode="&#x2154;" horiz-adv-x="1079" 
d="M318 -67l-45 27l489 815l44 -28zM334 273h-274l8 43q10 65 38 99q29 35 98 63q72 30 99 53t27 58q0 29 -20.5 46t-53.5 17q-76 0 -96 -87l-56 12q10 59 51.5 93.5t99.5 34.5q61 0 97 -33t36 -82q0 -53 -36 -86t-119 -68q-57 -24 -76 -46q-18 -21 -26 -59h214zM638 151
l56 7q3 -110 94 -110q44 0 67 23.5t23 65.5q0 67 -79 67h-23l9 49h26q37 0 59 19.5t22 55.5q0 24 -18.5 39.5t-48.5 15.5q-32 0 -54 -19t-31 -50l-50 15q9 45 45.5 75t90.5 30q53 0 87.5 -28.5t34.5 -71.5q2 -80 -73 -104v-2q58 -19 58 -94q0 -63 -38 -100t-108 -37
q-69 0 -108 40.5t-41 113.5z" />
    <glyph glyph-name="onefifth" unicode="&#x2155;" horiz-adv-x="964" 
d="M226 -67l-45 27l489 815l44 -28zM203 273h-55l64 355l-102 -55l13 69l108 58h49zM554 124l54 14q16 -90 95 -90q47 0 76.5 32.5t29.5 80.5q0 37 -22.5 59.5t-61.5 22.5q-25 0 -48 -9t-33 -17t-15 -14l-44 29l62 195h215l-11 -54h-168l-37 -113l2 -1q34 29 85 29
q56 0 93.5 -35t37.5 -91q0 -74 -46 -120q-45 -47 -116 -47q-60 0 -100.5 36t-47.5 93z" />
    <glyph glyph-name="twofifths" unicode="&#x2156;" horiz-adv-x="1097" 
d="M338 -67l-45 27l489 815l44 -28zM354 273h-274l8 43q10 65 38 99q29 35 98 63q72 30 99 53t27 58q0 29 -20.5 46t-53.5 17q-76 0 -96 -87l-56 12q10 59 51.5 93.5t99.5 34.5q61 0 97 -33t36 -82q0 -53 -36 -86t-119 -68q-57 -24 -76 -46q-18 -21 -26 -59h214zM667 124
l54 14q17 -90 95 -90q47 0 76.5 32.5t29.5 80.5q0 37 -22.5 59.5t-61.5 22.5q-25 0 -48 -9t-33 -17t-15 -14l-44 29l62 195h215l-11 -54h-168l-37 -113l2 -1q34 29 85 29q56 0 93.5 -35t37.5 -91q0 -74 -46 -120q-45 -47 -116 -47q-60 0 -100.5 36t-47.5 93z" />
    <glyph glyph-name="threefifths" unicode="&#x2157;" horiz-adv-x="1054" 
d="M283 -67l-45 27l489 815l44 -28zM70 422l56 7q3 -110 94 -110q44 0 67 23.5t23 65.5q0 67 -79 67h-23l9 49h26q37 0 59 19.5t22 55.5q0 24 -18.5 39.5t-48.5 15.5q-32 0 -54 -19t-31 -50l-50 15q9 45 45.5 75t90.5 30q53 0 87.5 -28.5t34.5 -71.5q2 -80 -73 -104v-2
q58 -19 58 -94q0 -63 -38 -100t-108 -37q-69 0 -108 40.5t-41 113.5zM624 124l54 14q16 -90 95 -90q47 0 76.5 32.5t29.5 80.5q0 37 -22.5 59.5t-61.5 22.5q-25 0 -48 -9t-33 -17t-15 -14l-44 29l62 195h215l-11 -54h-168l-37 -113l2 -1q34 29 85 29q56 0 93.5 -35t37.5 -91
q0 -74 -46 -120q-45 -47 -116 -47q-60 0 -100.5 36t-47.5 93z" />
    <glyph glyph-name="fourfifths" unicode="&#x2158;" horiz-adv-x="1049" 
d="M300 -67l-45 27l489 815l44 -28zM257 366h-202l10 54l220 280h88l-49 -281h53l-10 -53h-52l-14 -93h-59zM307 657l-186 -238h144l44 238h-2zM639 124l54 14q17 -90 95 -90q47 0 76.5 32.5t29.5 80.5q0 37 -22.5 59.5t-61.5 22.5q-25 0 -48 -9t-33 -17t-15 -14l-44 29
l62 195h215l-11 -54h-168l-37 -113l2 -1q34 29 85 29q56 0 93.5 -35t37.5 -91q0 -74 -46 -120q-45 -47 -116 -47q-60 0 -100.5 36t-47.5 93z" />
    <glyph glyph-name="onesixth" unicode="&#x2159;" horiz-adv-x="983" 
d="M226 -67l-45 27l489 815l44 -28zM203 273h-55l64 355l-102 -55l13 69l108 58h49zM708 48q43 0 73 30.5t30 77.5q0 35 -23.5 60t-64.5 25q-43 0 -73.5 -29.5t-30.5 -69.5q0 -41 25.5 -67.5t63.5 -26.5zM619 240l2 -1l12 13q11 11 39.5 22.5t57.5 11.5q62 0 99.5 -37.5
t37.5 -92.5q0 -72 -44.5 -116.5t-114.5 -44.5q-68 0 -110.5 46t-42.5 124q0 114 56 191q57 76 140 76q59 0 92 -35.5t35 -89.5l-52 -7q-8 82 -77 82q-46 0 -81 -38t-49 -104z" />
    <glyph glyph-name="fivesixths" unicode="&#x215a;" horiz-adv-x="1041" 
d="M300 -67l-45 27l489 815l44 -28zM80 397l54 14q17 -90 95 -90q47 0 76.5 32.5t29.5 80.5q0 37 -22.5 59.5t-61.5 22.5q-25 0 -48 -9t-33 -17t-15 -14l-44 29l62 195h215l-11 -54h-168l-37 -113l2 -1q34 29 85 29q56 0 93.5 -35t37.5 -91q0 -74 -46 -120q-45 -47 -116 -47
q-60 0 -100.5 36t-47.5 93zM786 48q43 0 73 30.5t30 77.5q0 35 -23.5 60t-64.5 25q-43 0 -73.5 -29.5t-30.5 -69.5q0 -41 25.5 -67.5t63.5 -26.5zM697 240l2 -1l12 13q11 11 39.5 22.5t57.5 11.5q62 0 99.5 -37.5t37.5 -92.5q0 -72 -44.5 -116.5t-114.5 -44.5
q-68 0 -110.5 46t-42.5 124q0 114 56 191q57 76 140 76q59 0 92 -35.5t35 -89.5l-52 -7q-8 82 -77 82q-46 0 -81 -38t-49 -104z" />
    <glyph glyph-name="oneeighth" unicode="&#x215b;" horiz-adv-x="958" 
d="M226 -67l-45 27l489 815l44 -28zM203 273h-55l64 355l-102 -55l13 69l108 58h49zM716 256q78 0 78 67q0 28 -17.5 44.5t-50.5 16.5q-34 0 -55.5 -19t-21.5 -49q0 -28 17.5 -44t49.5 -16zM780 136q0 31 -22.5 51t-60.5 20q-43 0 -70 -24t-27 -62q0 -34 22.5 -53.5
t63.5 -19.5q42 0 68 24t26 64zM679 -5q-58 0 -96 33t-38 84q0 49 28 83.5t71 43.5v2q-48 27 -48 78q0 46 38 79.5t96 33.5q54 0 86 -30.5t32 -75.5q0 -35 -19.5 -60t-52.5 -35v-2q26 -13 43 -38.5t17 -59.5q0 -62 -43 -99t-114 -37z" />
    <glyph glyph-name="threeeighths" unicode="&#x215c;" horiz-adv-x="1040" 
d="M283 -67l-45 27l489 815l44 -28zM70 422l56 7q3 -110 94 -110q44 0 67 23.5t23 65.5q0 67 -79 67h-23l9 49h26q37 0 59 19.5t22 55.5q0 24 -18.5 39.5t-48.5 15.5q-32 0 -54 -19t-31 -50l-50 15q9 45 45.5 75t90.5 30q53 0 87.5 -28.5t34.5 -71.5q2 -80 -73 -104v-2
q58 -19 58 -94q0 -63 -38 -100t-108 -37q-69 0 -108 40.5t-41 113.5zM798 256q78 0 78 67q0 28 -17.5 44.5t-50.5 16.5q-34 0 -55.5 -19t-21.5 -49q0 -28 17.5 -44t49.5 -16zM862 136q0 31 -22.5 51t-60.5 20q-43 0 -70 -24t-27 -62q0 -34 22.5 -53.5t63.5 -19.5q42 0 68 24
t26 64zM761 -5q-58 0 -96 33t-38 84q0 49 28 83.5t71 43.5v2q-48 27 -48 78q0 46 38 79.5t96 33.5q54 0 86 -30.5t32 -75.5q0 -35 -19.5 -60t-52.5 -35v-2q26 -13 43 -38.5t17 -59.5q0 -62 -43 -99t-114 -37z" />
    <glyph glyph-name="fiveeighths" unicode="&#x215d;" horiz-adv-x="1031" 
d="M280 -67l-45 27l489 815l44 -28zM60 397l54 14q16 -90 95 -90q47 0 76.5 32.5t29.5 80.5q0 37 -22.5 59.5t-61.5 22.5q-25 0 -48 -9t-33 -17t-15 -14l-44 29l62 195h215l-11 -54h-168l-37 -113l2 -1q34 29 85 29q56 0 93.5 -35t37.5 -91q0 -74 -46 -120q-45 -47 -116 -47
q-60 0 -100.5 36t-47.5 93zM789 256q78 0 78 67q0 28 -17.5 44.5t-50.5 16.5q-34 0 -55.5 -19t-21.5 -49q0 -28 17.5 -44t49.5 -16zM853 136q0 31 -22.5 51t-60.5 20q-43 0 -70 -24t-27 -62q0 -34 22.5 -53.5t63.5 -19.5q42 0 68 24t26 64zM752 -5q-58 0 -96 33t-38 84
q0 49 28 83.5t71 43.5v2q-48 27 -48 78q0 46 38 79.5t96 33.5q55 0 86.5 -30.5t31.5 -75.5q0 -35 -19.5 -60t-52.5 -35v-2q26 -13 43 -38.5t17 -59.5q0 -62 -43 -99t-114 -37z" />
    <glyph glyph-name="seveneighths" unicode="&#x215e;" horiz-adv-x="1005" 
d="M251 -67l-45 27l489 815l44 -28zM763 256q78 0 78 67q0 28 -17.5 44.5t-50.5 16.5q-34 0 -55.5 -19t-21.5 -49q0 -28 17.5 -44t49.5 -16zM827 136q0 31 -22.5 51t-60.5 20q-43 0 -70 -24t-27 -62q0 -34 22.5 -53.5t63.5 -19.5q42 0 68 24t26 64zM726 -5q-58 0 -96 33
t-38 84q0 49 28 83.5t71 43.5v2q-48 27 -48 78q0 46 38 79.5t96 33.5q55 0 86.5 -30.5t31.5 -75.5q0 -35 -19.5 -60t-52.5 -35v-2q26 -13 43 -38.5t17 -59.5q0 -62 -43 -99t-114 -37zM153 273h-68l265 371v2h-217l9 54h281l-10 -56z" />
    <glyph glyph-name="leftwardsarrow" unicode="&#x2190;" horiz-adv-x="711" 
d="M136 379h490v-65h-490l128 -209l-64 -39l-170 280l168 277l64 -38z" />
    <glyph glyph-name="upwardsarrow" unicode="&#x2191;" horiz-adv-x="640" 
d="M352 542l1 -498h-66l1 498l-206 -130l-37 60l275 166l275 -166l-37 -60z" />
    <glyph glyph-name="rightwordsarrow" unicode="&#x2192;" horiz-adv-x="711" 
d="M560 314h-490v65h490l-126 206l64 38l168 -277l-170 -280l-64 39z" />
    <glyph glyph-name="downwardsarrow" unicode="&#x2193;" horiz-adv-x="636" 
d="M268 142l-1 498h66l-1 -498l206 130l37 -60l-275 -166l-275 166l37 60z" />
    <glyph glyph-name="leftrightarrow" unicode="&#x2194;" horiz-adv-x="862" 
d="M591 110l129 204h-578l129 -204l-60 -38l-166 274l163 269l61 -38l-126 -200h576l-126 200l61 38l163 -269l-166 -274z" />
    <glyph glyph-name="updownarrow" unicode="&#x2195;" horiz-adv-x="644" 
d="M322 -43l-277 166l37 60l205 -130v579l-205 -129l-37 60l277 166l277 -166l-37 -60l-205 129v-579l205 130l37 -60z" />
    <glyph glyph-name="northwestarrow" unicode="&#x2196;" horiz-adv-x="617" 
d="M212 484l355 -355l-43 -43l-355 355l-56 -241l-63 15l75 313l312 76l14 -64z" />
    <glyph glyph-name="northeastarrow" unicode="&#x2197;" horiz-adv-x="617" 
d="M428 441l-355 -355l-43 43l355 355l-239 56l14 64l312 -76l75 -313l-63 -15z" />
    <glyph glyph-name="southeastarrow" unicode="&#x2198;" horiz-adv-x="617" 
d="M385 204l-355 355l43 43l355 -355l56 241l63 -15l-75 -313l-312 -76l-14 64z" />
    <glyph glyph-name="southwestarrow" unicode="&#x2199;" horiz-adv-x="617" 
d="M169 247l355 355l43 -43l-355 -355l239 -56l-14 -64l-312 76l-75 313l63 15z" />
    <glyph glyph-name="downwardsarrowwithtiprightwards" unicode="&#x21b3;" horiz-adv-x="713" 
d="M560 313h-490v387h70v-320h422l-125 204l63 39l168 -277l-172 -280l-63 38z" />
    <glyph glyph-name="downwardsarrowwithtipleftwards" unicode="&#x21b5;" horiz-adv-x="713" 
d="M558 700h70v-387h-490l127 -209l-63 -38l-172 280l168 277l63 -39l-125 -204h422v320z" />
    <glyph glyph-name="partialdiff" unicode="&#x2202;" horiz-adv-x="607" 
d="M217 695l-16 -13l-33 42q3 3 21 17q15 12 54 29q41 18 78 18q110 0 165.5 -102t55.5 -291q0 -123 -24 -212q-25 -92 -84.5 -145t-147.5 -53q-108 0 -169 64.5t-62 181.5q0 51 12 96.5t37 85.5t70 63.5t104 23.5q40 0 86 -11q13 -2 39 -11q25 -8 31 -12l30 -12l20 -9
q-2 131 -45 209q-42 79 -118 79q-26 0 -56.5 -12t-47.5 -26zM480 386q-112 58 -200 58q-83 0 -124 -57t-41 -155q2 -81 44 -135q43 -55 126 -55q70 0 119 56t65 154q8 51 11 134z" />
    <glyph glyph-name="increment" unicode="&#x2206;" horiz-adv-x="654" 
d="M579 0h-584l253 700h78zM287 631l-201 -571h402z" />
    <glyph glyph-name="product" unicode="&#x220f;" horiz-adv-x="659" 
d="M254 -141h-65v731h-129v60h599v-60h-126v-731h-65v731h-214v-731z" />
    <glyph glyph-name="summation" unicode="&#x2211;" horiz-adv-x="614" 
d="M554 -100h-484v92l240 318l-230 298v92h474v-60h-414l253 -329l-270 -351h431v-60z" />
    <glyph glyph-name="minus" unicode="&#x2212;" horiz-adv-x="634" 
d="M574 354h-514v60h514v-60z" />
    <glyph glyph-name="radical" unicode="&#x221a;" horiz-adv-x="645" 
d="M398 0h-80l-122 353h-136v60h183l115 -334l215 621h67z" />
    <glyph glyph-name="infinity" unicode="&#x221e;" horiz-adv-x="742" 
d="M395 303q43 -126 117 -126q31 0 52.5 13t31 34.5t13 40t3.5 38.5q0 41 -17 79q-22 49 -85 49q-68 0 -115 -128zM373 211q-47 -96 -139 -96q-71 0 -118 53q-46 52 -46 135q0 82 45 136q47 54 117 54q92 0 139 -96q47 96 139 96q70 0 116 -54q46 -53 46 -136t-45 -135
q-44 -53 -115 -53q-92 0 -139 96zM347 303q-45 128 -115 128q-31 0 -53 -13.5t-31.5 -35.5t-13.5 -41t-4 -38q0 -20 4 -38.5t14 -40t32 -34.5t54 -13q18 0 33 6q18 8 40.5 39.5t39.5 80.5z" />
    <glyph glyph-name="integral" unicode="&#x222b;" horiz-adv-x="441" 
d="M50 -240v63q79 0 108 29t29 111v572q0 115 47 162q46 48 157 48v-63q-86 0 -113 -32q-26 -32 -26 -126v-554q0 -114 -46.5 -162t-155.5 -48z" />
    <glyph glyph-name="approxequal" unicode="&#x2248;" horiz-adv-x="595" 
d="M194 288q-40 0 -60 -31q-13 -23 -25 -58l-49 15q14 60 48 98t85 38q36 1 76.5 -21.5t75 -45t56.5 -20.5q41 0 59 31q11 17 14 25q4 9 12 33l49 -15q-14 -60 -48 -98t-85 -38q-36 -1 -77 21.5t-75.5 45t-55.5 20.5zM194 508q-40 0 -60 -31q-13 -23 -25 -58l-49 15
q14 60 48 98t85 38q36 1 76.5 -21.5t75 -45t56.5 -20.5q41 0 59 31q11 17 14 25q4 9 12 33l49 -15q-14 -60 -48 -98t-85 -38q-36 -2 -77 20.5t-75.5 45t-55.5 21.5z" />
    <glyph glyph-name="notequal" unicode="&#x2260;" horiz-adv-x="603" 
d="M307 450h-237v60h271l65 113l45 -26l-50 -87h132v-60h-167l-70 -123h237v-60h-272l-64 -113l-44 25l50 88h-133v60h167z" />
    <glyph glyph-name="lessequal" unicode="&#x2264;" horiz-adv-x="558" 
d="M440 142l-390 235v70l391 233l33 -54l-358 -214l357 -216zM483 0h-433v60h433v-60z" />
    <glyph glyph-name="greaterequal" unicode="&#x2265;" horiz-adv-x="558" 
d="M112 680l391 -233v-70l-390 -235l-33 54l357 216l-358 214zM70 60h433v-60h-433v60z" />
    <glyph glyph-name="lozenge" unicode="&#x25ca;" horiz-adv-x="597" 
d="M350 0h-105l-205 356l208 344h99l210 -344zM106 356l192 -330l193 330l-193 316z" />
    <glyph glyph-name="commaaccent" unicode="&#xf6c3;" horiz-adv-x="284" 
d="M80 -218l5 32q29 4 41.5 15t16.5 33h-49l15 85h95l-13 -70q-8 -48 -34 -70t-77 -25z" />
    <glyph glyph-name="apple" unicode="&#xf8ff;" horiz-adv-x="786" 
d="M126 0h-26v423q0 116 86 204q85 88 206 88q122 0 207 -88q87 -87 87 -204v-423h-28l-65 65l-68 -65l-63 65l-71 -65l-69 65l-63 -65l-67 65zM450 377q0 -29 20.5 -49.5t49.5 -20.5t50.5 21t21.5 49q0 30 -21.5 51t-50.5 21t-49.5 -21t-20.5 -51zM195 377q0 -29 21 -49.5
t50 -20.5q30 0 50.5 20.5t20.5 49.5q0 30 -20.5 51t-50.5 21q-29 0 -50 -21t-21 -51z" />
    <glyph glyph-name="CR" horiz-adv-x="333" 
 />
    <glyph glyph-name="grave.cap" horiz-adv-x="286" 
d="M226 765h-59l-107 120h88z" />
    <glyph glyph-name="acute.cap" horiz-adv-x="286" 
d="M119 765h-59l78 120h88z" />
    <glyph glyph-name="circumflex.cap" horiz-adv-x="372" 
d="M109 747l-36 40l79 78h90l62 -86l-45 -32l-63 88z" />
    <glyph glyph-name="caron.cap" horiz-adv-x="371" 
d="M265 883l36 -40l-79 -78h-90l-62 86l45 32l63 -88z" />
    <glyph glyph-name="tilde.cap" horiz-adv-x="425" 
d="M110 765h-40q34 88 100 88q25 0 56 -19q31 -18 49 -18q26 0 40 32h40q-33 -88 -99 -88q-26 0 -57 18q-31 19 -49 19q-26 0 -40 -32z" />
    <glyph glyph-name="dieresis.cap" horiz-adv-x="426" 
d="M341 765h-81l15 83h81zM151 765h-81l15 83h81z" />
    <glyph glyph-name="macron.cap" horiz-adv-x="437" 
d="M358 765h-288l9 50h288z" />
    <glyph glyph-name="breve.cap" horiz-adv-x="298" 
d="M53 870h37q0 -59 74 -59q73 0 91 59h40q-10 -56 -45 -85.5t-90 -29.5q-56 0 -86 30.5t-21 84.5z" />
    <glyph glyph-name="ring.cap" horiz-adv-x="318" 
d="M61 773q0 49 30 81.5t78 32.5q37 0 62.5 -25t25.5 -61q0 -49 -30 -81.5t-78 -32.5q-37 0 -62.5 25t-25.5 61zM209 800q0 22 -12.5 34.5t-30.5 12.5q-24 0 -40.5 -20t-16.5 -53q0 -22 12.5 -34.5t30.5 -12.5q24 0 40.5 20t16.5 53z" />
    <glyph glyph-name="hungarumlaut.cap" horiz-adv-x="467" 
d="M144 765h-54l75 115h83zM273 765h-54l75 115h83z" />
    <glyph glyph-name="dotaccent.cap" horiz-adv-x="241" 
d="M156 765h-86l15 88h86z" />
    <glyph glyph-name="caron.alt" horiz-adv-x="319" 
d="M149 584h-49l48 146h71z" />
    <glyph glyph-name="parenleft.cap" horiz-adv-x="372" 
d="M257 -101l-54 -30q-56 104 -86 196q-32 99 -32 214q0 160 74.5 303t213.5 255l39 -44q-262 -206 -262 -508q0 -192 107 -386z" />
    <glyph glyph-name="parenright.cap" horiz-adv-x="405" 
d="M145 807l52 30q118 -217 118 -416q0 -161 -74.5 -303.5t-213.5 -248.5l-37 48q260 209 260 504q0 195 -105 386z" />
    <glyph glyph-name="bracketleft.cap" horiz-adv-x="420" 
d="M277 -109h-217l163 921h217l-9 -50h-162l-145 -821h162z" />
    <glyph glyph-name="bracketright.cap" horiz-adv-x="430" 
d="M143 812h217l-163 -921h-217l9 50h162l145 821h-162z" />
    <glyph glyph-name="braceleft.cap" horiz-adv-x="385" 
d="M66 13l45 254q5 32 -4.5 45t-38.5 13h-28l16 89h28q29 0 43.5 14t20.5 47l41 228q11 58 42 82.5t88 24.5h66l-9 -50h-50q-44 0 -60 -15.5t-25 -59.5l-38 -213q-8 -36 -28 -61q-28 -34 -61 -41q7 -2 15 -7t20 -15.5t17.5 -31t0.5 -46.5l-49 -273q-6 -38 6 -53t51 -15h53
l-9 -50h-54q-65 0 -88 32t-11 102z" />
    <glyph glyph-name="braceright.cap" horiz-adv-x="404" 
d="M289 676l-36 -204q-5 -32 4.5 -45t38.5 -13h28l-16 -89h-28q-29 0 -43.5 -14t-20.5 -47l-50 -278q-11 -58 -42 -82.5t-88 -24.5h-66l9 50h50q44 0 60 15.5t25 59.5l47 263q6 35 27 61q28 33 61 41q-12 4 -34 22q-28 27 -18 78l40 223q6 38 -6 53t-51 15h-53l9 50h55
q65 0 87.5 -32t10.5 -102z" />
    <glyph glyph-name="zero.numr" horiz-adv-x="405" 
d="M254 650q-58 0 -92 -69q-35 -68 -35 -144q0 -55 22 -83.5t62 -28.5q57 0 92 68t35 145q0 54 -22.5 83t-61.5 29zM206 268q-63 0 -99.5 42t-36.5 123q0 108 52 190t139 82q59 0 96.5 -43t37.5 -120q0 -112 -51 -193t-138 -81z" />
    <glyph glyph-name="one.numr" horiz-adv-x="290" 
d="M178 273h-55l64 355l-102 -55l13 69l108 58h49z" />
    <glyph glyph-name="two.numr" horiz-adv-x="388" 
d="M324 273h-274l8 43q10 65 38 99q29 35 98 63q72 30 99 53t27 58q0 29 -20.5 46t-53.5 17q-76 0 -96 -87l-56 12q10 59 51.5 93.5t99.5 34.5q61 0 97 -33t36 -82q0 -53 -36 -86t-119 -68q-57 -24 -76 -46q-18 -21 -26 -59h214z" />
    <glyph glyph-name="three.numr" horiz-adv-x="361" 
d="M35 422l56 7q3 -110 94 -110q44 0 67 23.5t23 65.5q0 67 -79 67h-23l9 49h26q37 0 59 19.5t22 55.5q0 24 -18.5 39.5t-48.5 15.5q-32 0 -54 -19t-31 -50l-50 15q9 45 45.5 75t90.5 30q53 0 87.5 -28.5t34.5 -71.5q2 -80 -73 -104v-2q58 -19 58 -94q0 -63 -38 -100
t-108 -37q-69 0 -108 40.5t-41 113.5z" />
    <glyph glyph-name="four.numr" horiz-adv-x="392" 
d="M247 366h-202l10 54l220 280h88l-49 -281h53l-10 -53h-52l-14 -93h-59zM297 657l-186 -238h144l44 238h-2z" />
    <glyph glyph-name="five.numr" horiz-adv-x="395" 
d="M55 397l54 14q17 -90 95 -90q47 0 76.5 32.5t29.5 80.5q0 37 -22.5 59.5t-61.5 22.5q-25 0 -48 -9t-33 -17t-15 -14l-44 29l62 195h215l-11 -54h-168l-37 -113l2 -1q34 29 85 29q56 0 93.5 -35t37.5 -91q0 -74 -46 -120q-45 -47 -116 -47q-60 0 -100.5 36t-47.5 93z" />
    <glyph glyph-name="six.numr" horiz-adv-x="398" 
d="M218 321q43 0 73 30.5t30 77.5q0 35 -23.5 60t-64.5 25q-43 0 -73.5 -29.5t-30.5 -69.5q0 -41 25.5 -67.5t63.5 -26.5zM129 513l2 -1l12 13q11 11 39.5 22.5t57.5 11.5q62 0 99.5 -37.5t37.5 -92.5q0 -71 -44.5 -116t-114.5 -45q-68 0 -110.5 46t-42.5 124q0 114 56 191
q57 76 140 76q59 0 92 -35.5t35 -89.5l-52 -7q-8 82 -77 82q-46 0 -81 -38t-49 -104z" />
    <glyph glyph-name="seven.numr" horiz-adv-x="354" 
d="M104 273h-68l265 371v2h-217l9 54h281l-10 -56z" />
    <glyph glyph-name="eight.numr" horiz-adv-x="373" 
d="M221 529q37 0 57.5 17.5t20.5 49.5q0 28 -17.5 44.5t-50.5 16.5q-34 0 -55.5 -19t-21.5 -49q0 -28 17.5 -44t49.5 -16zM285 409q0 31 -22.5 51t-60.5 20q-43 0 -70 -24t-27 -62q0 -34 22.5 -53.5t63.5 -19.5q42 0 68 24t26 64zM184 268q-58 0 -96 33t-38 84q0 49 28 83.5
t71 43.5v2q-48 27 -48 78q0 46 38 79.5t96 33.5q55 0 86.5 -30.5t31.5 -75.5q0 -35 -19.5 -60t-52.5 -35v-2q26 -13 43 -38.5t17 -59.5q0 -62 -43 -99t-114 -37z" />
    <glyph glyph-name="nine.numr" horiz-adv-x="372" 
d="M50 384l55 12q9 -76 75 -76q45 0 76.5 41t40.5 108h-2q-33 -49 -108 -49q-53 0 -88.5 35t-35.5 96q0 67 45 110q46 44 108 44q64 0 102.5 -46.5t38.5 -125.5q0 -120 -50 -193q-49 -72 -129 -72q-55 0 -89.5 31.5t-38.5 84.5zM195 470q44 0 72.5 26t28.5 65q0 41 -23 67
t-60 26q-41 0 -68.5 -30.5t-27.5 -72.5q0 -34 22.5 -57.5t55.5 -23.5z" />
    <glyph glyph-name="zero.dnom" horiz-adv-x="385" 
d="M194 377q-58 0 -92 -69q-35 -68 -35 -144q0 -55 22 -83.5t62 -28.5q57 0 92 68t35 145q0 54 -22.5 83t-61.5 29zM146 -5q-63 0 -99.5 42t-36.5 123q0 108 52 190t139 82q59 0 96.5 -43t37.5 -120q0 -112 -51 -193t-138 -81z" />
    <glyph glyph-name="one.dnom" horiz-adv-x="275" 
d="M128 0h-55l64 355l-102 -55l13 69l108 58h49z" />
    <glyph glyph-name="two.dnom" horiz-adv-x="388" 
d="M284 0h-274l8 43q10 65 38 99q29 35 98 63q72 30 99 53t27 58q0 29 -20.5 46t-53.5 17q-76 0 -96 -87l-56 12q10 59 51.5 93.5t99.5 34.5q61 0 97 -33t36 -82q0 -53 -36 -86t-119 -68q-57 -24 -76 -46q-18 -21 -26 -59h214z" />
    <glyph glyph-name="three.dnom" horiz-adv-x="376" 
d="M5 149l56 7q3 -110 94 -110q44 0 67 23.5t23 65.5q0 67 -79 67h-23l9 49h26q37 0 59 19.5t22 55.5q0 24 -18.5 39.5t-48.5 15.5q-32 0 -54 -19t-31 -50l-50 15q9 45 45.5 75t90.5 30q53 0 87.5 -28.5t34.5 -71.5q2 -80 -73 -104v-2q58 -19 58 -94q0 -63 -38 -100
t-108 -37q-69 0 -108 40.5t-41 113.5z" />
    <glyph glyph-name="four.dnom" horiz-adv-x="392" 
d="M207 93h-202l10 54l220 280h88l-49 -281h53l-10 -53h-52l-14 -93h-59zM257 384l-186 -238h144l44 238h-2z" />
    <glyph glyph-name="five.dnom" horiz-adv-x="400" 
d="M15 124l54 14q16 -90 95 -90q47 0 76.5 32.5t29.5 80.5q0 37 -22.5 59.5t-61.5 22.5q-25 0 -48 -9t-33 -17t-15 -14l-44 29l62 195h215l-11 -54h-168l-37 -113l2 -1q34 29 85 29q56 0 93.5 -35t37.5 -91q0 -74 -46 -120q-45 -47 -116 -47q-60 0 -100.5 36t-47.5 93z" />
    <glyph glyph-name="six.dnom" horiz-adv-x="403" 
d="M173 48q43 0 73 30.5t30 77.5q0 35 -23.5 60t-64.5 25q-43 0 -73.5 -29.5t-30.5 -69.5q0 -41 25.5 -67.5t63.5 -26.5zM84 240l2 -1l12 13q11 11 39.5 22.5t57.5 11.5q62 0 99.5 -37.5t37.5 -92.5q0 -72 -45 -116.5t-114 -44.5q-68 0 -110.5 46t-42.5 124q0 114 56 191
q57 76 140 76q59 0 92 -35.5t35 -89.5l-52 -7q-8 82 -77 82q-46 0 -81 -38t-49 -104z" />
    <glyph glyph-name="seven.dnom" horiz-adv-x="353" 
d="M63 0h-68l265 371v2h-217l9 54h281l-10 -56z" />
    <glyph glyph-name="eight.dnom" horiz-adv-x="378" 
d="M186 256q78 0 78 67q0 28 -17.5 44.5t-50.5 16.5q-34 0 -55.5 -19t-21.5 -49q0 -28 17.5 -44t49.5 -16zM250 136q0 31 -22.5 51t-60.5 20q-43 0 -70 -24t-27 -62q0 -34 22.5 -53.5t63.5 -19.5q42 0 68 24t26 64zM149 -5q-58 0 -96 33t-38 84q0 49 28 83.5t71 43.5v2
q-48 27 -48 78q0 46 38 79.5t96 33.5q54 0 86 -30.5t32 -75.5q0 -35 -19.5 -60t-52.5 -35v-2q26 -13 43 -38.5t17 -59.5q0 -62 -43 -99t-114 -37z" />
    <glyph glyph-name="nine.dnom" horiz-adv-x="392" 
d="M30 111l55 12q9 -76 75 -76q45 0 76.5 41t40.5 108h-2q-33 -49 -108 -49q-53 0 -88.5 35t-35.5 96q0 66 45 110q46 44 108 44q64 0 102.5 -46.5t38.5 -125.5q0 -120 -50 -193q-49 -72 -129 -72q-55 0 -89.5 31.5t-38.5 84.5zM175 197q44 0 72.5 26t28.5 65q0 41 -23 67
t-60 26q-41 0 -68.5 -30.5t-27.5 -72.5q0 -34 22.5 -57.5t55.5 -23.5z" />
    <glyph glyph-name="plusinferior" horiz-adv-x="469" 
d="M158 -156h-52l28 160h-139l8 48h140l24 142h52l-25 -142h140l-8 -48h-141z" />
    <glyph glyph-name="minusinferior" horiz-adv-x="439" 
d="M304 52l-8 -48h-301l8 48h301z" />
    <glyph glyph-name="published" horiz-adv-x="705" 
d="M352 94q111 0 185 74q74 76 74 186t-74 184t-185 74q-110 0 -184 -74t-74 -184t74 -186q74 -74 184 -74zM45 354q0 130 88 218q89 89 219 89t219 -89t89 -218q0 -130 -89 -219t-219 -89q-131 0 -219 88t-88 220zM312 493v-128h66q82 0 82 63q0 65 -82 65h-66zM378 318
h-66v-152h-49v372h115q131 0 131 -110t-131 -110z" />
    <glyph glyph-name="zero.tnum" 
d="M368 655q-74 0 -132 -66q-57 -64 -84 -155q-27 -88 -27 -177q0 -99 40.5 -154t115.5 -55q74 0 131 63q56 61 84.5 148.5t28.5 183.5q0 97 -42.5 154.5t-114.5 57.5zM275 -15q-101 0 -158 69.5t-57 202.5q0 174 80 312q40 67 101.5 106.5t132.5 39.5q96 0 156 -72t60 -200
q0 -118 -35 -223q-34 -101 -108 -169q-73 -66 -172 -66z" />
    <glyph glyph-name="one.tnum" 
d="M76 0l11 63h192l98 549l-168 -95l14 83l178 100h55l-112 -637h190l-11 -63h-447z" />
    <glyph glyph-name="two.tnum" 
d="M498 0h-434l8 50q18 109 62 168q44 57 157 107q135 58 181 101t46 112q0 47 -37 81q-37 36 -105 36q-71 0 -116.5 -42t-61.5 -120l-64 14q18 97 85 152q68 56 157 56q98 0 153 -54q56 -54 56 -127q0 -74 -47 -130q-20 -23 -58 -48q-39 -25 -71 -41q-21 -10 -91 -41
q-88 -39 -126 -80q-37 -40 -51 -130h369z" />
    <glyph glyph-name="three.tnum" 
d="M72 233l67 10q9 -198 172 -198q81 0 127 48.5t46 125.5q0 62 -39.5 96t-104.5 34h-34l11 60h46q64 0 106.5 38t42.5 100q0 49 -35 78.5t-95 29.5q-62 0 -101 -35.5t-53 -92.5l-62 19q11 62 67 115q57 54 149 54q88 0 141 -45.5t54 -118.5q1 -64 -37 -110.5t-98 -62.5v-2
q48 -16 77.5 -58.5t29.5 -105.5q0 -95 -63 -161q-61 -66 -176 -66q-111 0 -172.5 66.5t-65.5 181.5z" />
    <glyph glyph-name="four.tnum" 
d="M384 171h-323l11 59l368 470h100l-82 -469h90l-11 -60h-88l-30 -171h-65zM464 640l-320 -409h248l74 409h-2z" />
    <glyph glyph-name="five.tnum" 
d="M77 192l63 15q26 -162 172 -162q88 0 142 62q54 61 54 152q0 67 -41.5 108.5t-112.5 41.5q-44 0 -86 -17t-62 -37l-18 -18l-54 35l103 328h334l-10 -60h-280l-73 -233l18 16q9 8 53 26q39 16 85 16q90 0 149 -57t59 -149q0 -121 -72 -198q-72 -76 -189 -76
q-101 0 -162 60t-72 147z" />
    <glyph glyph-name="six.tnum" 
d="M311 48q84 0 136 55q53 56 53 147q0 62 -42 109q-41 47 -119 47q-84 0 -140 -52q-56 -51 -56 -128q0 -83 48 -131q50 -47 120 -47zM146 372l2 -1q21 30 72 60t122 30q104 0 163 -65q60 -65 60 -146q0 -124 -72 -195q-70 -70 -182 -70q-104 0 -175 74q-69 73 -69 198
q0 197 94 327q95 131 223 131q96 0 145 -61q52 -61 53 -138l-64 -9q-4 61 -36 105q-31 43 -100 43q-81 0 -145 -76q-66 -78 -91 -207z" />
    <glyph glyph-name="seven.tnum" 
d="M164 0h-83l454 639v1h-368l12 60h440l-12 -68z" />
    <glyph glyph-name="eight.tnum" 
d="M355 408q69 0 111 37t42 97q0 53 -34 84.5t-101 31.5q-64 0 -107 -38q-41 -38 -41 -91q0 -51 34.5 -86t95.5 -35zM308 50q80 0 129 46t49 120q0 61 -42.5 97t-115.5 36q-76 0 -131 -46q-54 -45 -54 -112t42.5 -104t122.5 -37zM303 -15q-107 0 -167 54q-59 56 -59 138
q0 89 52 142q51 54 118 71v2q-85 40 -85 141q0 71 57 126q59 56 160 56q94 0 143 -52q50 -52 50 -119q0 -63 -34 -106.5t-90 -59.5v-2q42 -15 74 -58q33 -44 33 -105q0 -103 -70 -166q-71 -62 -182 -62z" />
    <glyph glyph-name="nine.tnum" 
d="M79 177l64 13q6 -67 41 -106t98 -39q89 0 146 84q57 82 71 208h-3q-23 -39 -77 -66t-120 -27q-87 0 -145 57t-58 160q0 109 73 181q73 73 174 73t164 -75q64 -74 64 -208q0 -204 -82 -325q-83 -122 -211 -122q-85 0 -140 53q-55 55 -59 139zM308 302q78 0 134 50
q55 51 55 124q0 81 -42.5 130t-114.5 49q-79 0 -130 -58q-50 -59 -50 -136q0 -71 40.5 -115t107.5 -44z" />
    <glyph glyph-name="Euro.tnum" 
d="M402 462l-11 -60h-196q-9 -43 -11 -93h191l-11 -60h-177q7 -92 52 -145t116 -53q67 0 112.5 53.5t63.5 143.5l68 -16q-19 -110 -85 -179q-65 -68 -162 -68q-101 0 -163 71q-62 72 -72 193h-98l11 60h86q1 46 10 93h-80l11 60h83q36 116 113 184q78 69 171 69
q92 0 149 -68q58 -67 58 -173l-67 -5q-1 76 -37 130q-35 53 -109 53q-66 0 -121.5 -51t-84.5 -139h190z" />
    <glyph glyph-name="dollar.tnum" 
d="M43 244l69 9q3 -177 151 -202l54 300q-117 38 -158 74q-43 37 -43 102q0 76 68 132q70 56 183 56h14l11 60h41l-12 -64q85 -14 135.5 -66.5t50.5 -128.5l-69 -7q-5 119 -127 141l-44 -245q126 -41 168 -83q45 -42 45 -110q0 -91 -74 -159t-197 -68h-17l-15 -83h-40l15 87
q-98 15 -153.5 80.5t-55.5 174.5zM512 211q0 41 -30 69q-28 30 -127 60l-52 -292h13q81 0 139 47q57 47 57 116zM185 530q0 -37 25 -59q24 -21 119 -53l42 236h-8q-79 0 -129 -36q-49 -36 -49 -88z" />
    <glyph glyph-name="sterling.tnum" 
d="M522 0h-487l11 60h38q38 0 54.5 14.5t22.5 51.5l34 193h-104l11 59h104l22 127q18 101 73.5 155.5t141.5 54.5q82 0 127 -51.5t43 -148.5l-63 -5q0 76 -25 110.5t-86 34.5q-116 0 -145 -158l-21 -119h258l-11 -59h-258l-45 -259h316z" />
    <glyph glyph-name="yen.tnum" 
d="M304 0h-67l25 146h-209l10 55h209l17 93h-210l10 55h178l-138 351h70l130 -338h2l246 338h80l-261 -351h175l-10 -55h-205l-17 -93h206l-10 -55h-206z" />
    <glyph glyph-name="cent.tnum" 
d="M470 181l63 -18q-25 -86 -83.5 -132t-142.5 -46h-12l-16 -95h-35l17 100q-79 14 -125.5 78.5t-46.5 160.5q0 144 80 230q81 86 188 86h2l15 86h35l-16 -89q77 -13 122.5 -70.5t43.5 -136.5l-64 -5q1 59 -28 101.5t-84 51.5l-77 -438h1q120 0 163 136zM156 229
q0 -74 31 -121t85 -59l76 436q-81 -5 -136 -73q-56 -68 -56 -183z" />
    <glyph glyph-name="florin.tnum" 
d="M198 -173h-64l102 585h-98l9 53h98l26 136q29 144 135 144q67 0 110 -57l-45 -43q-31 40 -62 40q-32 0 -49.5 -21t-28.5 -77l-22 -122h145l-9 -53h-145z" />
    <glyph glyph-name="percent.tnum" 
d="M6 583q0 106 55 167q56 62 133 62q69 0 110 -50q42 -50 42 -126q0 -106 -56 -168q-55 -61 -132 -61q-69 0 -110.5 49.5t-41.5 126.5zM65 587q0 -56 24 -91t67 -35q57 0 94 47.5t37 127.5q0 55 -24.5 89t-68.5 34q-57 0 -93 -46t-36 -126zM303 74q0 106 55 167
q56 62 133 62q69 0 110 -50q42 -49 42 -126q0 -105 -56 -167t-132 -62q-69 0 -110.5 49.5t-41.5 126.5zM362 78q0 -56 24 -91t67 -35q57 0 94 47.5t37 127.5q0 55 -24.5 89t-68.5 34q-57 0 -93 -46t-36 -126zM60 143l-29 44l564 381l28 -44z" />
    <glyph glyph-name="perthousand.tnum" horiz-adv-x="1300" 
d="M122 583q0 106 55 167q56 62 133 62q69 0 110 -50q42 -50 42 -126q0 -106 -56 -168q-55 -61 -132 -61q-69 0 -110.5 49.5t-41.5 126.5zM181 587q0 -56 24 -91t67 -35q57 0 94 47.5t37 127.5q0 55 -24.5 89t-68.5 34q-57 0 -93 -46t-36 -126zM419 74q0 106 55 167
q56 62 133 62q69 0 110 -50q42 -49 42 -126q0 -105 -56 -167t-132 -62q-69 0 -110.5 49.5t-41.5 126.5zM478 78q0 -56 24 -91t67 -35q57 0 94 47.5t37 127.5q0 55 -24.5 89t-68.5 34q-57 0 -93 -46t-36 -126zM176 143l-29 44l564 381l28 -44zM837 74q0 106 55 167
q56 62 133 62q69 0 110 -50q42 -49 42 -126q0 -105 -56 -167t-132 -62q-69 0 -110.5 49.5t-41.5 126.5zM896 78q0 -56 24 -91t67 -35q57 0 94 47.5t37 127.5q0 55 -24.5 89t-68.5 34q-57 0 -93 -46t-36 -126z" />
    <glyph glyph-name="plus.tnum" 
d="M355 130h-60v228h-199v55h199v202h60v-202h199v-55h-199v-228z" />
    <glyph glyph-name="minus.tnum" 
d="M582 354h-514v60h514v-60z" />
    <glyph glyph-name="plusminus.tnum" 
d="M544 101h-438v60h438v-60zM355 225h-60v193h-199v55h199v177h60v-177h199v-55h-199v-193z" />
    <glyph glyph-name="multiply.tnum" 
d="M152 121l-43 43l172 172l-162 162l43 43l162 -162l163 162l43 -43l-163 -162l173 -172l-43 -43l-173 172z" />
    <glyph glyph-name="divide.tnum" 
d="M517 324h-384v60h384v-60zM261 143q0 27 18.5 45.5t44.5 18.5q27 0 45.5 -18.5t18.5 -45.5q0 -26 -18.5 -44.5t-45.5 -18.5q-26 0 -44.5 18.5t-18.5 44.5zM261 566q0 27 18.5 45.5t44.5 18.5q27 0 45.5 -18.5t18.5 -45.5q0 -26 -18.5 -44.5t-45.5 -18.5q-26 0 -44.5 18.5
t-18.5 44.5z" />
    <glyph glyph-name="equal.tnum" 
d="M556 257h-463v60h463v-60zM556 420h-463v60h463v-60z" />
    <glyph glyph-name="approxequal.tnum" 
d="M221 288q-40 0 -60 -31q-13 -23 -25 -58l-49 15q14 60 48 98t85 38q36 1 76.5 -21.5t75 -45t56.5 -20.5q41 0 59 31q11 17 14 25q5 9 12 33l49 -15q-14 -60 -48 -98t-85 -38q-36 -1 -77 21.5t-75.5 45t-55.5 20.5zM221 508q-40 0 -60 -31q-13 -23 -25 -58l-49 15
q14 60 48 98t85 38q36 1 76.5 -21.5t75 -45t56.5 -20.5q41 0 59 31q11 17 14 25q5 9 12 33l49 -15q-14 -60 -48 -98t-85 -38q-36 -2 -77 20.5t-75.5 45t-55.5 21.5z" />
    <glyph glyph-name="notequal.tnum" 
d="M330 450h-237v60h271l65 113l45 -26l-50 -87h132v-60h-167l-70 -123h237v-60h-272l-64 -113l-44 25l50 88h-133v60h167z" />
    <glyph glyph-name="less.tnum" 
d="M504 82l-390 235v70l391 233l31 -50l-366 -218l365 -221z" />
    <glyph glyph-name="greater.tnum" 
d="M145 620l391 -233v-70l-390 -235l-31 49l365 221l-366 218z" />
    <glyph glyph-name="lessequal.tnum" 
d="M498 142l-390 235v70l391 233l33 -54l-358 -214l357 -216zM541 0h-433v60h433v-60z" />
    <glyph glyph-name="greaterequal.tnum" 
d="M150 680l391 -233v-70l-390 -235l-33 54l357 216l-358 214zM108 60h433v-60h-433v60z" />
    </font>
</defs>
</svg>
