<?xml version="1.0" standalone="no"?>
<!DOCTYPE svg PUBLIC "-//W3C//DTD SVG 1.1//EN" "http://www.w3.org/Graphics/SVG/1.1/DTD/svg11.dtd" >
<svg xmlns="http://www.w3.org/2000/svg" xmlns:xlink="http://www.w3.org/1999/xlink" version="1.1">
<metadata>
Created by FontForge 20170731 at Mon Nov 16 19:29:21 2015
 By ,,,
Copyright (c) 2011 by Timo Gaessner, 123buero for Milieu Grotesque. All rights reserved.
</metadata>
<defs>
<font id="MaisonNeue-Mono" horiz-adv-x="650" >
  <font-face 
    font-family="Maison Neue"
    font-weight="400"
    font-stretch="normal"
    units-per-em="1000"
    panose-1="2 0 5 9 0 0 0 2 0 4"
    ascent="775"
    descent="-225"
    x-height="529"
    cap-height="700"
    bbox="-26 -300 708 976"
    underline-thickness="50"
    underline-position="-200"
    unicode-range="U+000D-F8FF"
  />
<missing-glyph 
d="M58 0h-26v423q0 116 86 204q85 88 206 88q122 0 207 -88q87 -87 87 -204v-423h-28l-65 65l-68 -65l-63 65l-71 -65l-69 65l-63 -65l-67 65zM378 319l14 -14l63 63l64 -63l14 14l-64 63l64 64l-14 14l-64 -64l-63 64l-14 -14l63 -64zM118 319l14 -14l63 63l64 -63l14 14
l-64 63l64 64l-14 14l-64 -64l-63 64l-14 -14l63 -64z" />
    <glyph glyph-name=".notdef" 
d="M58 0h-26v423q0 116 86 204q85 88 206 88q122 0 207 -88q87 -87 87 -204v-423h-28l-65 65l-68 -65l-63 65l-71 -65l-69 65l-63 -65l-67 65zM378 319l14 -14l63 63l64 -63l14 14l-64 63l64 64l-14 14l-64 -64l-63 64l-14 -14l63 -64zM118 319l14 -14l63 63l64 -63l14 14
l-64 63l64 64l-14 14l-64 -64l-63 64l-14 -14l63 -64z" />
    <glyph glyph-name=".null" horiz-adv-x="0" 
 />
    <glyph glyph-name="nonmarkingreturn" horiz-adv-x="333" 
 />
    <glyph glyph-name="NULL" horiz-adv-x="600" 
 />
    <glyph glyph-name="NULL" horiz-adv-x="600" 
 />
    <glyph glyph-name="CR.001" unicode="&#xd;" horiz-adv-x="600" 
 />
    <glyph glyph-name="space" unicode=" " horiz-adv-x="600" 
 />
    <glyph glyph-name="exclam" unicode="!" 
d="M366 208h-82v492h82v-492zM383 0h-117v115h117v-115z" />
    <glyph glyph-name="quotedbl" unicode="&#x22;" 
d="M295 476h-63v224h63v-224zM418 476h-63v224h63v-224z" />
    <glyph glyph-name="numbersign" unicode="#" 
d="M242 155h-65l9 144h-129v60h133l10 136h-111v59h114l11 146h64l-10 -146h133l10 146h65l-10 -146h126v-59h-130l-9 -136h107v-60h-111l-9 -144h-65l9 144h-133zM264 495l-9 -136h133l9 136h-133z" />
    <glyph glyph-name="dollar" unicode="$" 
d="M52 241l86 17q15 -94 52 -138.5t114 -53.5v134q1 60 1 134q-114 30 -167.5 77t-53.5 118q0 75 59 128t163 58v60h44v-62q91 -8 147.5 -56.5t70.5 -134.5l-82 -18q-13 61 -44.5 92.5t-92.5 37.5v-230q141 -40 195 -88q54 -46 54 -128q0 -89 -65 -146q-64 -55 -185 -57v-83
h-44v85q-223 21 -252 254zM349 322q0 -72 -1 -130v-129q82 0 124.5 34t42.5 92q0 47 -34 75q-35 30 -132 58zM168 529q0 -40 31 -66t106 -47v220q-66 -2 -101.5 -31t-35.5 -76z" />
    <glyph glyph-name="percent" unicode="%" 
d="M342 667q0 65 -25.5 99t-71.5 34t-71 -34t-25 -99q0 -68 24.5 -106.5t71.5 -38.5t72 38.5t25 106.5zM245 459q-77 0 -121 55.5t-44 153.5q0 94 49 144q49 52 116 52t116 -52q50 -52 50 -144q0 -95 -45 -152t-121 -57zM500 48q0 65 -25.5 99t-71.5 34t-71 -34t-25 -99
q0 -68 24.5 -106.5t71.5 -38.5t72 38.5t25 106.5zM403 -160q-77 0 -121 55.5t-44 153.5q0 94 49 144q49 52 116 52t116 -52q50 -52 50 -144q0 -95 -45 -152t-121 -57zM528 428l-372 -216l-34 60l372 216z" />
    <glyph glyph-name="ampersand" unicode="&#x26;" 
d="M616 130l-49 -60l-55 48q-19 -58 -77 -95.5t-141 -37.5q-97 0 -163 51t-66 151q0 135 126 221q-56 68 -56 140q0 70 48 118q48 49 125 49q70 0 116 -40.5t59 -114.5l-74 -16q-19 97 -100 97q-42 0 -67 -26t-25 -66q0 -53 50 -101l192 -186v130h74v-190zM448 170l-202 190
q-101 -62 -101 -168q0 -62 41.5 -95.5t108.5 -33.5q60 0 101.5 29.5t51.5 77.5z" />
    <glyph glyph-name="quotesingle" unicode="'" 
d="M356 476h-63v224h63v-224z" />
    <glyph glyph-name="parenleft" unicode="(" 
d="M451 -154l-53 -43q-38 34 -109 156q-39 68 -64 156q-26 93 -26 183q0 77 17.5 155t43.5 133q22 48 56 100q31 46 50 66q11 13 32 34l53 -43q-82 -93 -126 -191q-44 -102 -44 -253q0 -238 170 -453z" />
    <glyph glyph-name="parenright" unicode=")" 
d="M252 -197l-53 43q170 215 170 453q0 153 -45 253q-42 97 -125 191l53 43q21 -21 32 -34q20 -22 49 -66q34 -49 57 -100q26 -55 43.5 -133t17.5 -155q0 -90 -26 -183q-25 -88 -64 -156q-71 -122 -109 -156z" />
    <glyph glyph-name="asterisk" unicode="*" 
d="M221 339l-51 45l92 111l-122 73l35 56l117 -68v144h66v-144l118 68l34 -57l-122 -72l93 -111l-51 -45l-105 130z" />
    <glyph glyph-name="plus" unicode="+" 
d="M361 120h-72v227h-199v66h199v202h72v-202h199v-66h-199v-227z" />
    <glyph glyph-name="comma" unicode="," 
d="M266 -106v45q48 9 48 61h-48v118h118v-103q0 -114 -118 -121z" />
    <glyph glyph-name="hyphen" unicode="-" 
d="M489 304h-329v74h329v-74z" />
    <glyph glyph-name="period" unicode="." 
d="M384 0h-118v118h118v-118z" />
    <glyph glyph-name="slash" unicode="/" 
d="M183 -43l-67 28l360 760l67 -30z" />
    <glyph glyph-name="zero" unicode="0" 
d="M325 -15q-113 0 -188 91q-75 92 -75 280q0 170 77 265q78 94 186 94q109 0 185 -96q78 -96 78 -267q0 -188 -76 -277q-76 -90 -187 -90zM325 63q80 0 127.5 74.5t47.5 214.5q0 45 -6 84l-324 -236q44 -137 155 -137zM150 356q0 -36 5 -83l323 236q-43 127 -153 127
q-81 0 -128 -71.5t-47 -208.5z" />
    <glyph glyph-name="one" unicode="1" 
d="M565 0h-480v75h206v530l-192 -121v90l202 126h67v-625h197v-75z" />
    <glyph glyph-name="two" unicode="2" 
d="M555 0h-456v63q0 97 36 150q33 53 156 117l56 31q9 4 43 26q31 19 38 28q52 47 45 101q0 54 -37 89t-105 35q-69 0 -110.5 -42.5t-45.5 -119.5l-80 8q4 107 69 168t169 61q103 0 162 -59q58 -58 58 -144q0 -92 -60 -145q-40 -33 -53 -41l-68 -38l-14 -8l-33 -18l-53 -29
q-21 -13 -38 -27t-27 -30q-20 -32 -20 -93h368v-83z" />
    <glyph glyph-name="three" unicode="3" 
d="M81 230l81 16q12 -97 52.5 -141.5t118.5 -44.5q73 0 114 38.5t41 98.5q0 142 -153 142h-50v72h21q42 0 92 15q31 10 48.5 35.5t17.5 61.5q0 55 -35 86t-95 31q-59 0 -95 -34.5t-44 -98.5l-78 14q9 88 68 141q61 53 150 53q91 0 150 -50t59 -137q0 -56 -32 -94.5
t-77 -50.5v-2q59 -13 96 -62t37 -124q0 -91 -65 -151q-65 -59 -169 -59q-108 0 -173.5 61t-79.5 184z" />
    <glyph glyph-name="four" unicode="4" 
d="M413 162h-363v75l317 463h126v-462h87v-76h-87v-162h-80v162zM411 637l-272 -399h274v399h-2z" />
    <glyph glyph-name="five" unicode="5" 
d="M78 179l79 28q41 -146 171 -146q75 0 119 46.5t44 127.5q0 77 -43 121t-116 44q-102 0 -156 -84l-74 32l63 352h345v-76h-282l-40 -221l1 -1q22 29 64 47.5t96 18.5q93 0 158 -65t65 -169q0 -113 -69 -181q-70 -68 -175 -68q-95 0 -160 52.5t-90 141.5z" />
    <glyph glyph-name="six" unicode="6" 
d="M343 61q77 0 119.5 45t42.5 123q0 75 -45 120.5t-120 45.5q-70 0 -119 -47q-48 -46 -48 -109q0 -77 48 -128q48 -50 122 -50zM551 537l-76 -20q-31 123 -141 123q-75 0 -129 -75q-53 -73 -55 -215l1 -1q13 32 55 68q55 48 144 48q99 0 166 -64q69 -65 69 -171
q0 -114 -68 -180q-68 -65 -174 -65q-109 0 -192 80q-87 87 -87 274q0 165 77 271q77 105 195 105q92 0 146 -51t69 -127z" />
    <glyph glyph-name="seven" unicode="7" 
d="M231 0h-90l338 621v2h-358v77h441v-86z" />
    <glyph glyph-name="eight" unicode="8" 
d="M196 527q0 -51 36.5 -84t93.5 -33t93 33t36 84t-33.5 83t-95.5 32t-96 -32.5t-34 -82.5zM78 198q0 66 39 115t92 66v2q-42 18 -67.5 58t-25.5 96q0 72 57 126q59 54 153 54q95 0 152 -54q58 -54 58 -126q0 -55 -26 -95.5t-67 -58.5v-2q56 -19 92.5 -68t36.5 -113
q0 -100 -67 -156.5t-179 -56.5q-110 0 -180 56q-68 56 -68 157zM326 63q74 0 118 38t44 100q0 63 -45 102t-117 39t-117.5 -39t-45.5 -102q0 -62 44 -100t119 -38z" />
    <glyph glyph-name="nine" unicode="9" 
d="M104 161l77 24q32 -125 146 -125q165 0 167 287h-2q-9 -28 -47 -62q-50 -45 -136 -45q-99 0 -167 65q-66 66 -66 173q0 106 68 171q67 66 164 66q125 0 195 -93t70 -273q0 -189 -68 -277q-67 -87 -179 -87q-86 0 -144.5 47.5t-77.5 128.5zM314 314q69 0 113 45t44 115
q0 72 -46 118q-45 48 -117 48q-67 0 -109.5 -44.5t-42.5 -117.5q0 -75 43 -119.5t115 -44.5z" />
    <glyph glyph-name="colon" unicode=":" 
d="M384 0h-118v118h118v-118zM384 412h-118v118h118v-118z" />
    <glyph glyph-name="semicolon" unicode=";" 
d="M266 -106v45q48 9 48 61h-48v118h118v-103q0 -114 -118 -121zM384 412h-118v118h118v-118z" />
    <glyph glyph-name="less" unicode="&#x3c;" 
d="M501 82l-390 235l1 70l390 233l37 -60l-349 -208l349 -211z" />
    <glyph glyph-name="equal" unicode="=" 
d="M556 249h-463v70h463v-70zM556 417h-463v70h463v-70z" />
    <glyph glyph-name="greater" unicode="&#x3e;" 
d="M98 620l390 -233l1 -70l-390 -235l-38 59l349 211l-349 208z" />
    <glyph glyph-name="question" unicode="?" 
d="M337 190h-79v55q0 36 17.5 62t65.5 62q45 33 47 35q14 10 34 31q37 37 37 91q0 44 -31 78q-32 35 -96 35q-133 0 -144 -152l-81 8q1 96 61 159q58 61 166 61q90 0 149 -53t59 -133q0 -48 -16 -81q-17 -35 -34 -51q-15 -14 -59 -48l-30 -23l-25 -20q-4 -3 -17 -16
q-24 -23 -24 -53v-47zM359 0h-117v115h117v-115z" />
    <glyph glyph-name="at" unicode="@" 
d="M390 274v94h-2q-8 -17 -61 -33q-49 -15 -65.5 -30t-16.5 -44q0 -31 20.5 -46t53.5 -15q29 0 50 20t21 54zM467 78l27 -45q-26 -20 -72 -34t-95 -14q-128 0 -195 100q-68 101 -68 261t72 264t197 104q121 0 187 -101q66 -100 66 -257q0 -121 -25 -167q-25 -45 -74 -45
q-57 0 -79 45h-2q-12 -19 -38.5 -32t-58.5 -13q-55 0 -90 31.5t-35 84.5q0 49 28 77t95 46q49 13 66 24.5t17 32.5q0 26 -16.5 42t-47.5 16q-58 0 -72 -72l-55 13q5 51 39.5 82.5t85.5 31.5q57 0 90.5 -32t33.5 -92v-190q0 -42 41 -42q24 0 33.5 34.5t9.5 122.5
q0 137 -50 223t-149 86q-102 0 -158 -89t-56 -228t52 -224t156 -85q78 0 140 41z" />
    <glyph glyph-name="A" unicode="A" 
d="M600 0h-87l-47 137h-287l-43 -137h-87l232 700h87zM202 209h240l-117 380h-2z" />
    <glyph glyph-name="B" unicode="B" 
d="M322 0h-225v700h242q93 0 150 -51t57 -130q0 -101 -90 -140v-3q50 -16 83 -61t33 -108q0 -100 -63 -153.5t-187 -53.5zM183 624v-220h141q137 0 137 110q0 53 -36 81.5t-102 28.5h-140zM183 330v-254h128q89 0 132.5 31.5t43.5 99.5q0 66 -41.5 94.5t-132.5 28.5h-130z
" />
    <glyph glyph-name="C" unicode="C" 
d="M346 636q-83 0 -131 -72t-48 -208q0 -143 47 -218t132 -75q71 0 111 53t47 144l87 -11q-7 -120 -74 -193q-66 -71 -171 -71q-117 0 -193 91t-76 280q0 171 77 265q78 94 192 94q98 0 164 -68q65 -67 79 -176l-84 -15q-13 83 -52.5 131.5t-106.5 48.5z" />
    <glyph glyph-name="D" unicode="D" 
d="M182 624v-548h93q228 0 228 275q0 131 -59 202t-163 71h-99zM282 0h-186v700h192q60 0 113.5 -21t97 -62t69 -109.5t25.5 -156.5q0 -193 -98 -277q-89 -74 -213 -74z" />
    <glyph glyph-name="E" unicode="E" 
d="M546 0h-414v700h414v-76h-328v-227h300v-74h-300v-247h328v-76z" />
    <glyph glyph-name="F" unicode="F" 
d="M227 0h-87v700h406v-76h-319v-253h291v-73h-291v-298z" />
    <glyph glyph-name="G" unicode="G" 
d="M346 -15q-118 0 -196 92q-77 92 -77 280q0 170 79 264t194 94q93 0 157 -64q65 -65 81 -167l-83 -15q-12 78 -51.5 122.5t-103.5 44.5q-83 0 -133 -72t-50 -207q0 -141 49.5 -217.5t133.5 -76.5q75 0 119 55.5t42 148.5h-176v76h259v-68q0 -135 -69 -213
q-68 -77 -175 -77z" />
    <glyph glyph-name="H" unicode="H" 
d="M179 0h-86v700h86v-301h293v301h85v-700h-85v325h-293v-325z" />
    <glyph glyph-name="I" unicode="I" 
d="M282 625h-167v75h420v-75h-168v-550h168v-75h-420v75h167v550z" />
    <glyph glyph-name="J" unicode="J" 
d="M444 625h-266v75h350v-472q0 -121 -53 -182t-152 -61q-90 0 -147 56.5t-72 152.5l81 21q17 -79 46.5 -115.5t87.5 -36.5q66 0 95.5 40t29.5 130v392z" />
    <glyph glyph-name="K" unicode="K" 
d="M197 0h-85v700h85v-342h2l284 342h104l-256 -306l284 -394h-102l-238 331h-2l-76 -89v-242z" />
    <glyph glyph-name="L" unicode="L" 
d="M583 0h-417v700h86v-624h331v-76z" />
    <glyph glyph-name="M" unicode="M" 
d="M164 0h-76v700h112l124 -396h2l124 396h112v-700h-76v588h-2l-146 -452h-26l-146 452h-2v-588z" />
    <glyph glyph-name="N" unicode="N" 
d="M181 0h-80v700h87l279 -558h2v558h80v-700h-85l-281 558h-2v-558z" />
    <glyph glyph-name="O" unicode="O" 
d="M325 63q80 0 127.5 74.5t47.5 214.5q0 137 -47 210.5t-128 73.5t-128 -71.5t-47 -208.5q0 -141 47 -217t128 -76zM325 -15q-107 0 -183 84q-82 92 -82 287q0 170 78 265q79 94 187 94t186 -96q79 -95 79 -267q0 -194 -83 -285q-76 -82 -182 -82z" />
    <glyph glyph-name="P" unicode="P" 
d="M201 0h-85v700h241q107 0 171.5 -57.5t64.5 -158.5t-63 -157.5t-171 -56.5h-158v-270zM201 624v-278h153q68 0 110.5 36t42.5 102q0 69 -42.5 104.5t-112.5 35.5h-151z" />
    <glyph glyph-name="Q" unicode="Q" 
d="M325 -15q-107 0 -183 84q-82 92 -82 287q0 170 78 265q79 94 187 94t186 -96q79 -95 79 -267q0 -150 -58 -248l74 -74l-48 -46l-68 67q-68 -66 -165 -66zM325 63q64 0 107 46l-167 167l48 46l155 -155q32 73 32 185q0 137 -47 210.5t-128 73.5t-128 -71.5t-47 -208.5
q0 -141 47 -217t128 -76z" />
    <glyph glyph-name="R" unicode="R" 
d="M201 0h-85v700h222q112 0 174 -53.5t62 -154.5q0 -82 -46.5 -133.5t-127.5 -66.5l156 -292h-93l-152 286h-110v-286zM201 624v-264h132q73 0 114.5 32.5t41.5 99.5q0 132 -158 132h-130z" />
    <glyph glyph-name="S" unicode="S" 
d="M70 241l88 17q15 -105 56 -150t131 -45q69 0 106 34t37 87q0 55 -32 85q-32 31 -144 72q-110 40 -162 82q-48 42 -48 113q0 77 58 128t154 51q90 0 155 -50q66 -50 78 -143l-83 -18q-24 132 -150 132q-59 0 -92.5 -28t-33.5 -72q0 -38 30 -64t132 -63q128 -47 176 -92
q47 -44 47 -129q0 -86 -62 -145q-61 -58 -169 -58q-241 0 -272 256z" />
    <glyph glyph-name="T" unicode="T" 
d="M367 0h-84v624h-236v76h555v-76h-235v-624z" />
    <glyph glyph-name="U" unicode="U" 
d="M74 228v472h85v-466q0 -171 165 -171q82 0 124.5 43.5t42.5 125.5v468h84v-472q0 -118 -65.5 -180.5t-185.5 -62.5q-119 0 -184.5 62.5t-65.5 180.5z" />
    <glyph glyph-name="V" unicode="V" 
d="M378 0h-102l-227 700h91l186 -599h2l182 599h90z" />
    <glyph glyph-name="W" unicode="W" 
d="M234 0h-98l-79 700h85l55 -578h2l100 408h53l99 -408h2l55 578h85l-79 -700h-97l-91 370h-2z" />
    <glyph glyph-name="X" unicode="X" 
d="M152 0h-94l216 365l-198 335h95l156 -276h2l150 276h93l-194 -342l213 -358h-94l-172 299h-2z" />
    <glyph glyph-name="Y" unicode="Y" 
d="M367 0h-84v295l-231 405h94l178 -325h2l178 325h94l-231 -405v-295z" />
    <glyph glyph-name="Z" unicode="Z" 
d="M565 0h-488v68l392 554v2h-374v76h478v-68l-393 -553v-2h385v-77z" />
    <glyph glyph-name="bracketleft" unicode="[" 
d="M451 -182h-252v912h252v-69h-178v-774h178v-69z" />
    <glyph glyph-name="backslash" unicode="\" 
d="M533 -15l-67 -29l-360 758l67 31z" />
    <glyph glyph-name="bracketright" unicode="]" 
d="M199 730h252v-912h-252v69h178v774h-178v69z" />
    <glyph glyph-name="asciicircum" unicode="^" 
d="M202 325h-75l173 375h49l173 -375h-75l-122 279z" />
    <glyph glyph-name="underscore" unicode="_" 
d="M576 -138h-502v68h502v-68z" />
    <glyph glyph-name="grave" unicode="`" 
d="M414 595h-71l-108 121h101z" />
    <glyph glyph-name="a" unicode="a" 
d="M534 0h-74v58h-2q-17 -29 -60 -51t-102 -22q-86 0 -133.5 42t-47.5 109q0 66 41.5 103.5t138.5 62.5q88 22 120 40.5t32 52.5t-30.5 55.5t-80.5 21.5q-106 0 -129 -105l-76 22q12 70 66 113t136 43q89 0 145 -45t56 -122v-378zM314 239q-67 -18 -92 -40t-25 -58
q0 -83 105 -83q70 0 110 31.5t40 80.5v132h-2q-13 -28 -136 -63z" />
    <glyph glyph-name="b" unicode="b" 
d="M206 340v-164q0 -48 39 -82q40 -35 97 -35q78 0 119.5 53.5t41.5 152.5t-41.5 152.5t-119.5 53.5q-61 0 -99 -41q-37 -40 -37 -90zM198 0h-74v730h82v-251h2q56 66 147 66q101 0 166 -77q66 -77 66 -203q0 -128 -64 -204q-63 -76 -168 -76q-50 0 -91 19t-64 47h-2v-51z
" />
    <glyph glyph-name="c" unicode="c" 
d="M497 203l79 -16q-13 -92 -73 -147t-148 -55q-107 0 -175 75q-68 76 -68 205t69 204q70 76 174 76q85 0 144 -54q59 -53 73 -140l-77 -16q-28 136 -140 136q-73 0 -116.5 -55t-43.5 -151t43 -151t118 -55q58 0 96 42q38 43 45 102z" />
    <glyph glyph-name="d" unicode="d" 
d="M463 176v164q0 50 -37 90q-38 41 -99 41q-78 0 -119.5 -53.5t-41.5 -152.5t41.5 -152.5t119.5 -53.5q57 0 97 35q39 34 39 82zM545 0h-74v51h-2q-23 -28 -64 -47t-91 -19q-105 0 -169 76q-63 77 -63 204t66 203q68 77 166 77q92 0 147 -66h2v251h82v-730z" />
    <glyph glyph-name="e" unicode="e" 
d="M483 158l3 6l67 -44q-32 -61 -88.5 -98t-133.5 -37q-108 0 -178 76t-70 204q0 126 68 203q69 77 176 77t173 -75q67 -74 67 -205v-24h-400q1 -77 42 -129q42 -53 120 -53q72 0 108 36q26 26 46 63zM169 306h315q-1 65 -40 116q-37 49 -117 49q-76 0 -117 -53
q-39 -51 -41 -112z" />
    <glyph glyph-name="f" unicode="f" horiz-adv-x="651" 
d="M363 0h-82v457h-167v73h167v81q0 64 29.5 91.5t88.5 27.5h108v-73h-93q-31 0 -41.5 -12t-10.5 -50v-65h193v-73h-192v-457z" />
    <glyph glyph-name="g" unicode="g" 
d="M121 -96l71 37q19 -54 50.5 -81t86.5 -27q64 0 99 37.5t35 104.5v71h-2q-52 -61 -147 -61q-106 0 -170 76q-65 77 -65 204t67 203q68 77 167 77q97 0 149 -66h2v51h81v-538q0 -112 -56.5 -172t-157.5 -60q-79 0 -133.5 38.5t-76.5 105.5zM463 174v168q0 48 -38 89
q-37 40 -99 40q-78 0 -120.5 -54.5t-42.5 -151.5q0 -99 42 -152.5t121 -53.5q60 0 98 34q39 35 39 81z" />
    <glyph glyph-name="h" unicode="h" 
d="M202 0h-82v730h82v-253h2q22 30 64.5 49t90.5 19q86 0 138 -52.5t52 -146.5v-346h-82v324q0 146 -123 146q-65 0 -103.5 -38t-38.5 -99v-333z" />
    <glyph glyph-name="i" unicode="i" 
d="M397 637h-94v93h94v-93zM309 460h-179v70h260v-460h175v-70h-440v70h184v390z" />
    <glyph glyph-name="j" unicode="j" 
d="M456 637h-93v93h93v-93zM380 457h-203v73h285v-553q0 -82 -47 -127t-122 -45q-53 0 -94 24q-39 22 -57 46l52 58q45 -54 99 -54q87 0 87 98v480z" />
    <glyph glyph-name="k" unicode="k" 
d="M227 0h-82v730h82v-443h2l223 243h109l-194 -210l218 -320h-99l-180 269h-2l-77 -85v-184z" />
    <glyph glyph-name="l" unicode="l" 
d="M309 657h-172v73h254v-657h181v-73h-440v73h177v584z" />
    <glyph glyph-name="m" unicode="m" 
d="M178 0h-76v530h74v-51h2q10 30 33 48t52 18q72 0 95 -78h2q12 34 39.5 56t65.5 22q64 0 92 -45.5t28 -138.5v-361h-76v336q0 74 -12.5 104t-46.5 30q-69 0 -69 -127v-343h-73v336q0 73 -13 103.5t-48 30.5q-69 0 -69 -127v-343z" />
    <glyph glyph-name="n" unicode="n" 
d="M198 0h-82v530h78v-51h2q22 29 63 47.5t86 18.5q87 0 138.5 -53.5t51.5 -143.5v-348h-82v322q0 148 -120 148q-63 0 -99 -35t-36 -97v-338z" />
    <glyph glyph-name="o" unicode="o" 
d="M327 59q68 0 111.5 55.5t43.5 150.5q0 96 -42.5 151t-112.5 55q-71 0 -115 -54.5t-44 -151.5t44 -151.5t115 -54.5zM327 -15q-105 0 -174 74q-69 75 -69 206q0 129 71 205q70 75 172 75q100 0 169 -75q70 -74 70 -205q0 -130 -68 -206q-68 -74 -171 -74z" />
    <glyph glyph-name="p" unicode="p" 
d="M195 342v-168q0 -46 39 -81q38 -34 97 -34q79 0 121.5 54t42.5 152q0 97 -43 151.5t-121 54.5q-62 0 -99 -40t-37 -89zM195 -225h-82v755h78v-51h2q22 27 63 46.5t89 19.5q98 0 166 -77q67 -76 67 -203t-65 -204q-64 -76 -168 -76q-46 0 -87.5 20t-60.5 46h-2v-276z" />
    <glyph glyph-name="q" unicode="q" 
d="M455 174v168q0 48 -38 89q-37 40 -99 40q-78 0 -120.5 -54.5t-42.5 -151.5q0 -99 42 -152.5t121 -53.5q60 0 98 34q39 35 39 81zM537 -225h-82v276h-2q-51 -66 -149 -66q-104 0 -168 76q-65 77 -65 204t67 203q68 77 167 77q48 0 88.5 -19t63.5 -47h2v51h78v-755z" />
    <glyph glyph-name="r" unicode="r" 
d="M266 0h-82v530h78v-77h2q18 37 60.5 61.5t90.5 24.5q127 0 170 -127l-80 -34q-22 78 -103 78q-60 0 -98 -44.5t-38 -116.5v-295z" />
    <glyph glyph-name="s" unicode="s" 
d="M101 180l78 15q18 -139 169 -139q139 0 139 84q0 40 -29 60q-28 19 -140 48q-122 32 -161 65q-38 34 -37 91q2 56 54 98q52 43 145 43q90 0 146 -39.5t76 -108.5l-73 -24q-34 102 -148 102q-55 0 -87.5 -20.5t-32.5 -48.5q0 -25 7 -35q15 -25 160 -63q136 -35 166 -74
q18 -21 23.5 -39.5t6.5 -54.5q3 -69 -52 -112t-162 -43q-112 0 -175 52.5t-73 142.5z" />
    <glyph glyph-name="t" unicode="t" 
d="M264 154v303h-169v73h170v130h80v-130h191v-73h-190v-293q0 -48 13.5 -66.5t51.5 -18.5h90v-79h-94q-74 0 -108.5 38t-34.5 116z" />
    <glyph glyph-name="u" unicode="u" 
d="M120 185v345h82v-333q0 -74 28.5 -105t94.5 -31q60 0 92 37t32 103v329h82v-530h-81v51h-2q-4 -7 -15 -18q-12 -12 -47 -30q-36 -18 -79 -18q-89 0 -138 51t-49 149z" />
    <glyph glyph-name="v" unicode="v" 
d="M360 0h-70l-214 530h86l162 -415h2l162 415h86z" />
    <glyph glyph-name="w" unicode="w" 
d="M238 0h-76l-87 529h81l55 -399h2l71 229h74l69 -229h2l65 399h80l-97 -529h-75l-81 262h-2z" />
    <glyph glyph-name="x" unicode="x" 
d="M185 0h-93l179 272l-168 258h92l129 -204h2l129 204h91l-167 -258l179 -272h-93l-140 218h-2z" />
    <glyph glyph-name="y" unicode="y" 
d="M259 -225h-83l100 265l-206 490h88l157 -385h2l141 385h86z" />
    <glyph glyph-name="z" unicode="z" 
d="M547 0h-442v64l333 389v2h-314v75h422v-62l-330 -390v-2h331v-76z" />
    <glyph glyph-name="braceleft" unicode="{" 
d="M267 -41v223q0 32 -12 45t-41 13h-28v89h28q29 0 41 14t12 47v200q0 78 32 109t100 31h64v-70h-53q-37 0 -53 -19.5t-16 -67.5v-186q0 -29 -9 -50.5t-23.5 -31.5t-22.5 -14t-15 -6q70 -28 70 -100v-209q0 -48 15.5 -67.5t54.5 -19.5h52v-70h-64q-68 0 -100 31t-32 109z
" />
    <glyph glyph-name="bar" unicode="|" 
d="M365 -300h-80v1075h80v-1075z" />
    <glyph glyph-name="braceright" unicode="}" 
d="M382 182v-223q0 -78 -32 -109t-100 -31h-64v70h52q39 0 54.5 19.5t15.5 67.5v209q0 72 70 100q-7 2 -15 6t-22.5 14t-23.5 31.5t-9 50.5v186q0 48 -16 67.5t-53 19.5h-53v70h64q68 0 100 -31t32 -109v-200q0 -33 12 -47t41 -14h28v-89h-28q-29 0 -41 -13t-12 -45z" />
    <glyph glyph-name="asciitilde" unicode="~" 
d="M219 391q-38 0 -58 -32q-8 -14 -13 -26q-6 -15 -11 -31l-55 17q15 65 50 104t87 39q36 1 77.5 -21.5t77.5 -45t57 -20.5q40 0 57 32q13 22 14 25l11 32l55 -17q-15 -65 -50 -104t-87 -39q-36 -1 -78.5 21.5t-78 45t-55.5 20.5z" />
    <glyph glyph-name="nbspace" unicode="&#xa0;" horiz-adv-x="600" 
 />
    <glyph glyph-name="exclamdown" unicode="&#xa1;" 
d="M366 -170h-82v492h82v-492zM383 415h-117v115h117v-115z" />
    <glyph glyph-name="cent" unicode="&#xa2;" 
d="M477 203l79 -16q-12 -87 -67.5 -141.5t-136.5 -59.5v-96h-35v96q-100 6 -162 80q-61 73 -61 199q0 123 63 197q63 75 160 82v87h35v-87q78 -4 133 -58q55 -52 67 -135l-77 -16q-25 125 -123 135v-410q51 6 83.5 45.5t41.5 97.5zM175 265q0 -90 38 -144t104 -61v410
q-66 -7 -104 -61t-38 -144z" />
    <glyph glyph-name="sterling" unicode="&#xa3;" 
d="M570 0h-490v76h37q33 0 47 13.5t14 47.5v181h-98v63h98v123q0 101 51.5 156t141.5 55q84 0 134 -49t62 -142l-76 -16q-12 70 -39 101t-80 31q-112 0 -112 -142v-117h201v-63h-201v-242h310v-76z" />
    <glyph glyph-name="currency" unicode="&#xa4;" 
d="M110 74l-40 40l65 65q-47 65 -47 150q0 82 47 149l-65 65l40 40l63 -64q67 57 151 57q89 0 153 -55l62 62l40 -40l-64 -64q46 -67 46 -150q0 -86 -47 -151l65 -64l-40 -40l-64 63q-65 -51 -151 -51q-89 0 -150 52zM325 161q64 0 105 42.5t41 124.5q0 84 -41 127.5
t-105 43.5t-105.5 -43.5t-41.5 -127.5q0 -82 41 -124.5t106 -42.5z" />
    <glyph glyph-name="yen" unicode="&#xa5;" 
d="M285 139h-188v67h186v89h-186v68h149l-192 337h91l179 -323h2l179 323h91l-192 -337h149v-68h-186v-89h186v-67h-187v-139h-81v139z" />
    <glyph glyph-name="brokenbar" unicode="&#xa6;" 
d="M367 321h-80v327h80v-327zM367 -131h-80v327h80v-327z" />
    <glyph glyph-name="section" unicode="&#xa7;" 
d="M249 212l145 -56q16 -6 36 -18q60 41 60 94q0 55 -89 90l-144 56q-26 10 -37 17q-59 -41 -59 -93q0 -56 88 -90zM442 -11q0 36 -21 60.5t-67 43.5l-145 58q-69 27 -99.5 62t-31.5 84q-2 86 86 142q-38 41 -38 104q0 75 53 123q53 49 134 49q85 0 141.5 -47.5t67.5 -133.5
l-80 -15q-11 63 -41.5 92t-84.5 29q-52 0 -80 -27t-28 -68q0 -68 88 -104l146 -58q68 -27 98.5 -62t31.5 -84q1 -84 -87 -142q39 -40 39 -104q0 -75 -54 -123q-52 -49 -133 -49q-85 0 -141.5 47.5t-67.5 133.5l80 15q11 -63 41.5 -92t84.5 -29q52 0 80 27t28 68z" />
    <glyph glyph-name="dieresis" unicode="&#xa8;" 
d="M274 611h-91v91h91v-91zM466 611h-91v91h91v-91z" />
    <glyph glyph-name="copyright" unicode="&#xa9;" 
d="M329 46q-108 0 -183 89q-74 89 -74 219q0 129 74 218q75 89 183 89q104 0 176 -89t72 -218q0 -130 -72 -219t-176 -89zM329 94q84 0 141 74q58 74 58 186q0 111 -58 184q-57 74 -141 74q-88 0 -148 -74t-60 -184q0 -111 60 -186q60 -74 148 -74zM396 307l52 -10
q-6 -62 -36.5 -99t-78.5 -37q-57 0 -94.5 51t-37.5 136q0 90 37 142.5t95 52.5q47 0 77.5 -36.5t35.5 -94.5l-52 -10q-3 41 -19 66t-42 25q-35 0 -56 -38.5t-21 -106.5q0 -65 21.5 -101.5t55.5 -36.5q56 0 63 97z" />
    <glyph glyph-name="ordfeminine" unicode="&#xaa;" 
d="M450 384h-51v32h-1q-7 -15 -32 -28t-60 -13q-52 0 -79.5 24.5t-27.5 64.5q0 39 24 61t81 37q52 13 69 23t17 28q0 42 -60 42q-62 0 -73 -59l-50 19q9 40 40.5 65t81.5 25q56 0 88.5 -29t32.5 -85v-207zM316 519q-35 -9 -47.5 -20t-12.5 -31q0 -43 55 -43q38 0 60 17
t22 43v69h-1q-8 -17 -76 -35z" />
    <glyph glyph-name="guillemotleft" unicode="&#xab;" 
d="M325 98h-82l-108 183l108 186h82l-109 -186zM514 98h-82l-108 183l108 186h82l-109 -186z" />
    <glyph glyph-name="logicalnot" unicode="&#xac;" 
d="M483 376h-397v75h477v-248h-80v173z" />
    <glyph glyph-name="registered" unicode="&#xae;" 
d="M180 530q0 -62 41 -106q42 -42 104 -42t104 43q43 43 43 105t-43 104q-42 42 -104 42t-104 -42q-41 -43 -41 -104zM450 405q-51 -51 -125 -51t-125 51t-51 125t51 125t125 51t125 -51t51 -125t-51 -125zM291 424h-27v210h64q76 0 76 -62q0 -48 -52 -60l47 -88h-32l-44 86
h-32v-86zM291 609v-74h38q46 0 46 37t-47 37h-37z" />
    <glyph glyph-name="overscore" unicode="&#xaf;" 
d="M469 620h-288v61h288v-61z" />
    <glyph glyph-name="degree" unicode="&#xb0;" 
d="M324 487q-59 0 -98 40q-38 41 -38 101q0 59 39 101q41 42 97 42q59 0 98 -41q39 -40 39 -102q0 -61 -38.5 -101t-98.5 -40zM393 628q0 83 -69 83t-69 -83q0 -81 69 -81t69 81z" />
    <glyph glyph-name="plusminus" unicode="&#xb1;" 
d="M287 418h-214v70h214v167h75v-167h214v-70h-214v-188h-75v188zM557 96h-456v70h456v-70z" />
    <glyph glyph-name="twosuperior" unicode="&#xb2;" 
d="M471 473h-288v52q0 52 26 90q19 25 94 64l34 19q9 3 40 25q27 22 28 57q0 28 -20 47t-55 19q-79 0 -87 -92l-64 8q4 68 44 105.5t107 37.5q62 0 100 -35.5t38 -93.5q0 -47 -27.5 -76.5t-86.5 -59.5q-77 -41 -88 -58q-10 -13 -10 -43h215v-66z" />
    <glyph glyph-name="threesuperior" unicode="&#xb3;" 
d="M172 614l65 14q12 -100 93 -100q41 0 62.5 19t21.5 52q0 35 -23 54t-65 19h-26v53h20q32 0 54 14.5t22 42.5q0 29 -18 46t-51 17q-61 0 -72 -71l-62 12q5 55 42 87t94 32t93.5 -31.5t36.5 -82.5q0 -33 -17 -55t-41 -30v-2q32 -10 54 -38t22 -71q0 -56 -40 -91.5
t-107 -35.5q-66 0 -107.5 37t-50.5 109z" />
    <glyph glyph-name="acute" unicode="&#xb4;" 
d="M307 595h-71l78 121h100z" />
    <glyph glyph-name="mu" unicode="&#xb5;" 
d="M189 -225h-80v755h82v-321q0 -72 36.5 -110t100.5 -38q60 0 95.5 37.5t35.5 100.5v331h81v-530h-80v51h-2q-6 -11 -19 -22q-17 -16 -50.5 -30t-66.5 -14q-86 0 -133 50v-260z" />
    <glyph glyph-name="paragraph" unicode="&#xb6;" 
d="M334 -136h-74v444q-69 2 -115 48t-46 118q0 76 46 121t119 45h287v-776h-69v703h-148v-703z" />
    <glyph glyph-name="middot" unicode="&#xb7;" 
d="M384 322h-118v118h118v-118z" />
    <glyph glyph-name="cedilla" unicode="&#xb8;" 
d="M216 -174l29 40q38 -29 75 -29q60 0 60 45q0 41 -48 41q-36 0 -58 -14l-9 -5l-29 16l47 80h43l-37 -58q22 14 58 14q37 0 61.5 -20t24.5 -55q0 -42 -30 -67t-86 -25q-55 0 -101 37z" />
    <glyph glyph-name="onesuperior" unicode="&#xb9;" 
d="M469 473h-288v62h116v288l-92 -57v73l98 61h59v-365h107v-62z" />
    <glyph glyph-name="ordmasculine" unicode="&#xba;" 
d="M326 429q37 0 59 30t22 82t-22 81.5t-59 29.5q-38 0 -60.5 -29.5t-22.5 -81.5q0 -53 22.5 -82.5t60.5 -29.5zM326 375q-63 0 -102.5 44.5t-39.5 121.5q0 76 40 120.5t102 44.5q61 0 100.5 -44.5t39.5 -120.5q0 -77 -39 -121.5t-101 -44.5z" />
    <glyph glyph-name="guillemotright" unicode="&#xbb;" 
d="M356 467l108 -186l-108 -183h-82l109 183l-109 186h82zM167 467l108 -186l-108 -183h-82l109 183l-109 186h82z" />
    <glyph glyph-name="onequarter" unicode="&#xbc;" 
d="M363 -89h-192v61l162 267h95v-267h52v-61h-52v-99h-65v99zM361 183l-129 -211h131v211h-2zM540 319h-430v60h430v-60zM469 463h-288v62h116v288l-92 -57v73l98 61h59v-365h107v-62z" />
    <glyph glyph-name="onehalf" unicode="&#xbd;" 
d="M540 319h-430v60h430v-60zM469 463h-288v62h116v288l-92 -57v73l98 61h59v-365h107v-62zM471 -188h-288v52q0 52 26 90q19 25 94 64l34 19q9 3 40 25q27 22 28 57q0 28 -20 47t-55 19q-79 0 -87 -92l-64 8q4 68 44 105.5t107 37.5q62 0 100 -35.5t38 -93.5
q0 -47 -27.5 -76.5t-86.5 -59.5q-77 -41 -88 -58q-10 -13 -10 -43h215v-66z" />
    <glyph glyph-name="threequarters" unicode="&#xbe;" 
d="M540 320h-430v60h430v-60zM173 604l65 14q12 -100 93 -100q41 0 62.5 19t21.5 52q0 35 -23 54t-65 19h-26v53h20q32 0 54 14.5t22 42.5q0 29 -18 46t-51 17q-61 0 -72 -71l-62 12q5 55 42 87t94 32t93.5 -31.5t36.5 -82.5q0 -33 -17 -55t-41 -30v-2q32 -10 54 -38t22 -71
q0 -56 -40 -91.5t-107 -35.5q-66 0 -107.5 37t-50.5 109zM363 -89h-192v61l162 267h95v-267h52v-61h-52v-99h-65v99zM361 183l-129 -211h131v211h-2z" />
    <glyph glyph-name="questiondown" unicode="&#xbf;" 
d="M312 340h79v-55q0 -36 -17.5 -62t-65.5 -62l-48 -35q-16 -14 -34 -32q-36 -36 -36 -90q0 -44 31 -78q32 -35 96 -35q133 0 144 152l81 -8q-1 -96 -61 -159q-58 -61 -166 -61q-91 0 -150 53q-58 52 -58 133q0 47 16 80q18 37 34 52q15 14 59 48l29 23q18 13 43 35
q14 13 17.5 22.5t6.5 31.5v47zM290 530h117v-115h-117v115z" />
    <glyph glyph-name="Agrave" unicode="&#xc0;" 
d="M600 0h-87l-47 137h-287l-43 -137h-87l232 700h87zM202 209h240l-117 380h-2zM360 765h-71l-108 121h101z" />
    <glyph glyph-name="Aacute" unicode="&#xc1;" 
d="M600 0h-87l-47 137h-287l-43 -137h-87l232 700h87zM202 209h240l-117 380h-2zM362 765h-71l79 121h100z" />
    <glyph glyph-name="Acircumflex" unicode="&#xc2;" 
d="M600 0h-87l-47 137h-287l-43 -137h-87l232 700h87zM202 209h240l-117 380h-2zM252 747l-47 38l66 85h109l66 -85l-48 -38l-73 92z" />
    <glyph glyph-name="Atilde" unicode="&#xc3;" 
d="M600 0h-87l-47 137h-287l-43 -137h-87l232 700h87zM202 209h240l-117 380h-2zM229 765h-44q17 93 89 93q28 0 62 -19q35 -18 52 -18q28 0 36 32h44q-16 -93 -88 -93q-28 0 -64 18q-34 19 -51 19q-28 0 -36 -32z" />
    <glyph glyph-name="Adieresis" unicode="&#xc4;" 
d="M600 0h-87l-47 137h-287l-43 -137h-87l232 700h87zM202 209h240l-117 380h-2zM276 765h-91v91h91v-91zM468 765h-91v91h91v-91z" />
    <glyph glyph-name="Aring" unicode="&#xc5;" 
d="M600 0h-87l-47 137h-287l-43 -137h-87l230 694q-52 28 -52 92q0 42 28 72t70 30t70 -29.5t28 -72.5q0 -66 -53 -92zM202 209h240l-117 380h-2zM325 729q21 0 34.5 15.5t13.5 42.5t-13.5 42t-34.5 15t-34 -15t-13 -42t13.5 -42.5t33.5 -15.5z" />
    <glyph glyph-name="AE" unicode="&#xc6;" 
d="M120 0h-85l263 700h301v-76h-166v-227h138v-73h-138v-248h166v-76h-244v149h-180zM353 634l-153 -413h155v413h-2z" />
    <glyph glyph-name="Ccedilla" unicode="&#xc7;" 
d="M268 -174l29 40q38 -29 75 -29q60 0 60 45q0 41 -48 41q-36 0 -58 -14l-9 -5l-29 16l38 66q-108 7 -179 99q-70 91 -70 271q0 171 77 265q78 94 192 94q98 0 164 -68q65 -67 79 -176l-84 -15q-13 83 -52.5 131.5t-106.5 48.5q-83 0 -131 -72t-48 -208q0 -143 47 -218
t132 -75q71 0 111 53t47 144l87 -11q-8 -114 -67.5 -184.5t-154.5 -78.5l-28 -44q22 14 58 14q37 0 61.5 -20t24.5 -55q0 -42 -30 -67t-86 -25q-55 0 -101 37z" />
    <glyph glyph-name="Egrave" unicode="&#xc8;" 
d="M546 0h-414v700h414v-76h-328v-227h300v-74h-300v-247h328v-76zM401 765h-71l-108 121h101z" />
    <glyph glyph-name="Eacute" unicode="&#xc9;" 
d="M546 0h-414v700h414v-76h-328v-227h300v-74h-300v-247h328v-76zM371 765h-71l79 121h100z" />
    <glyph glyph-name="Ecircumflex" unicode="&#xca;" 
d="M546 0h-414v700h414v-76h-328v-227h300v-74h-300v-247h328v-76zM268 747l-47 38l66 85h109l66 -85l-48 -38l-73 92z" />
    <glyph glyph-name="Edieresis" unicode="&#xcb;" 
d="M546 0h-414v700h414v-76h-328v-227h300v-74h-300v-247h328v-76zM291 765h-91v91h91v-91zM483 765h-91v91h91v-91z" />
    <glyph glyph-name="Igrave" unicode="&#xcc;" 
d="M282 625h-167v75h420v-75h-168v-550h168v-75h-420v75h167v550zM361 765h-71l-108 121h101z" />
    <glyph glyph-name="Iacute" unicode="&#xcd;" 
d="M282 625h-167v75h420v-75h-168v-550h168v-75h-420v75h167v550zM350 765h-71l79 121h100z" />
    <glyph glyph-name="Icircumflex" unicode="&#xce;" 
d="M282 625h-167v75h420v-75h-168v-550h168v-75h-420v75h167v550zM252 747l-47 38l66 85h109l66 -85l-48 -38l-73 92z" />
    <glyph glyph-name="Idieresis" unicode="&#xcf;" 
d="M282 625h-167v75h420v-75h-168v-550h168v-75h-420v75h167v550zM275 765h-91v91h91v-91zM467 765h-91v91h91v-91z" />
    <glyph glyph-name="Eth" unicode="&#xd0;" 
d="M273 0h-153v320h-68v78h68v302h159q60 0 113 -21t96 -62t68.5 -109.5t25.5 -156.5q0 -193 -97 -277q-87 -74 -212 -74zM203 320v-244h63q228 0 228 275q0 131 -59 202t-163 71h-69v-226h186v-78h-186z" />
    <glyph glyph-name="Ntilde" unicode="&#xd1;" 
d="M178 0h-80v700h87l279 -558h2v558h80v-700h-85l-281 558h-2v-558zM240 765h-44q16 93 89 93q28 0 62 -19q34 -18 52 -18q28 0 36 32h44q-17 -93 -88 -93q-28 0 -64 18q-34 19 -51 19q-28 0 -36 -32z" />
    <glyph glyph-name="Ograve" unicode="&#xd2;" 
d="M325 63q80 0 127.5 74.5t47.5 214.5q0 137 -47 210.5t-128 73.5t-128 -71.5t-47 -208.5q0 -141 47 -217t128 -76zM325 -15q-107 0 -183 84q-82 92 -82 287q0 170 78 265q79 94 187 94t186 -96q79 -95 79 -267q0 -194 -83 -285q-76 -82 -182 -82zM365 765h-71l-108 121
h101z" />
    <glyph glyph-name="Oacute" unicode="&#xd3;" 
d="M325 63q80 0 127.5 74.5t47.5 214.5q0 137 -47 210.5t-128 73.5t-128 -71.5t-47 -208.5q0 -141 47 -217t128 -76zM325 -15q-107 0 -183 84q-82 92 -82 287q0 170 78 265q79 94 187 94t186 -96q79 -95 79 -267q0 -194 -83 -285q-76 -82 -182 -82zM359 765h-71l79 121h100z
" />
    <glyph glyph-name="Ocircumflex" unicode="&#xd4;" 
d="M325 63q80 0 127.5 74.5t47.5 214.5q0 137 -47 210.5t-128 73.5t-128 -71.5t-47 -208.5q0 -141 47 -217t128 -76zM325 -15q-107 0 -183 84q-82 92 -82 287q0 170 78 265q79 94 187 94t186 -96q79 -95 79 -267q0 -194 -83 -285q-76 -82 -182 -82zM260 747l-47 38l66 85
h109l66 -85l-48 -38l-73 92z" />
    <glyph glyph-name="Otilde" unicode="&#xd5;" 
d="M325 63q80 0 127.5 74.5t47.5 214.5q0 137 -47 210.5t-128 73.5t-128 -71.5t-47 -208.5q0 -141 47 -217t128 -76zM325 -15q-107 0 -183 84q-82 92 -82 287q0 170 78 265q79 94 187 94t186 -96q79 -95 79 -267q0 -194 -83 -285q-76 -82 -182 -82zM235 765h-44q16 93 89 93
q28 0 62 -19q34 -18 52 -18q28 0 36 32h44q-16 -93 -88 -93q-28 0 -64 18q-34 19 -51 19q-28 0 -36 -32z" />
    <glyph glyph-name="Odieresis" unicode="&#xd6;" 
d="M325 63q80 0 127.5 74.5t47.5 214.5q0 137 -47 210.5t-128 73.5t-128 -71.5t-47 -208.5q0 -141 47 -217t128 -76zM325 -15q-107 0 -183 84q-82 92 -82 287q0 170 78 265q79 94 187 94t186 -96q79 -95 79 -267q0 -194 -83 -285q-76 -82 -182 -82zM279 765h-91v91h91v-91z
M471 765h-91v91h91v-91z" />
    <glyph glyph-name="multiply" unicode="&#xd7;" 
d="M157 118l-51 50l169 168l-159 159l51 50l158 -158l159 158l50 -50l-159 -159l169 -168l-50 -50l-169 168z" />
    <glyph glyph-name="Oslash" unicode="&#xd8;" 
d="M325 -15q-88 0 -152 53l-30 -53l-41 23l37 66q-77 98 -77 282q0 170 77 265q78 94 186 94q82 0 148 -57l33 57l41 -24l-40 -69q81 -99 81 -270q0 -188 -76 -277q-76 -90 -187 -90zM325 63q80 0 127.5 74.5t47.5 214.5q0 119 -37 192l-247 -431q44 -50 109 -50zM150 356
q0 -126 37 -199l246 431q-43 48 -108 48q-81 0 -128 -71.5t-47 -208.5z" />
    <glyph glyph-name="Ugrave" unicode="&#xd9;" 
d="M74 228v472h85v-466q0 -171 165 -171q82 0 124.5 43.5t42.5 125.5v468h84v-472q0 -118 -65.5 -180.5t-185.5 -62.5q-119 0 -184.5 62.5t-65.5 180.5zM379 765h-71l-108 121h101z" />
    <glyph glyph-name="Uacute" unicode="&#xda;" 
d="M74 228v472h85v-466q0 -171 165 -171q82 0 124.5 43.5t42.5 125.5v468h84v-472q0 -118 -65.5 -180.5t-185.5 -62.5q-119 0 -184.5 62.5t-65.5 180.5zM365 765h-71l79 121h100z" />
    <glyph glyph-name="Ucircumflex" unicode="&#xdb;" 
d="M74 228v472h85v-466q0 -171 165 -171q82 0 124.5 43.5t42.5 125.5v468h84v-472q0 -118 -65.5 -180.5t-185.5 -62.5q-119 0 -184.5 62.5t-65.5 180.5zM262 747l-47 38l66 85h109l66 -85l-48 -38l-73 92z" />
    <glyph glyph-name="Udieresis" unicode="&#xdc;" 
d="M74 228v472h85v-466q0 -171 165 -171q82 0 124.5 43.5t42.5 125.5v468h84v-472q0 -118 -65.5 -180.5t-185.5 -62.5q-119 0 -184.5 62.5t-65.5 180.5zM281 765h-91v91h91v-91zM473 765h-91v91h91v-91z" />
    <glyph glyph-name="Yacute" unicode="&#xdd;" 
d="M367 0h-84v295l-231 405h94l178 -325h2l178 325h94l-231 -405v-295zM354 765h-71l79 121h100z" />
    <glyph glyph-name="Thorn" unicode="&#xde;" 
d="M215 0h-83v700h83v-116h127q113 0 179 -58.5t66 -164.5q0 -108 -63.5 -165t-181.5 -57h-127v-139zM215 508v-293h123q78 0 122.5 36.5t44.5 109.5t-44 110t-123 37h-123z" />
    <glyph glyph-name="germandbls" unicode="&#xdf;" 
d="M214 0h-83v492q0 108 60 165q59 58 153 58q89 0 145 -52q58 -52 58 -136q0 -32 -10 -58.5t-25.5 -41.5t-26.5 -23t-20 -11v-2q28 -7 65 -43q48 -43 48 -134q0 -214 -233 -214h-32v72h32q155 0 155 144q0 133 -139 133h-48v68h29q59 0 93.5 27.5t34.5 79.5
q0 54 -32.5 85.5t-90.5 31.5q-133 0 -133 -168v-473z" />
    <glyph glyph-name="agrave" unicode="&#xe0;" 
d="M534 0h-74v58h-2q-17 -29 -60 -51t-102 -22q-86 0 -133.5 42t-47.5 109q0 66 41.5 103.5t138.5 62.5q88 22 120 40.5t32 52.5t-30.5 55.5t-80.5 21.5q-106 0 -129 -105l-76 22q12 70 66 113t136 43q89 0 145 -45t56 -122v-378zM314 239q-67 -18 -92 -40t-25 -58
q0 -83 105 -83q70 0 110 31.5t40 80.5v132h-2q-13 -28 -136 -63zM375 595h-71l-108 121h101z" />
    <glyph glyph-name="aacute" unicode="&#xe1;" 
d="M534 0h-74v58h-2q-17 -29 -60 -51t-102 -22q-86 0 -133.5 42t-47.5 109q0 66 41.5 103.5t138.5 62.5q88 22 120 40.5t32 52.5t-30.5 55.5t-80.5 21.5q-106 0 -129 -105l-76 22q12 70 66 113t136 43q89 0 145 -45t56 -122v-378zM314 239q-67 -18 -92 -40t-25 -58
q0 -83 105 -83q70 0 110 31.5t40 80.5v132h-2q-13 -28 -136 -63zM372 595h-71l78 121h100z" />
    <glyph glyph-name="acircumflex" unicode="&#xe2;" 
d="M534 0h-74v58h-2q-17 -29 -60 -51t-102 -22q-86 0 -133.5 42t-47.5 109q0 66 41.5 103.5t138.5 62.5q88 22 120 40.5t32 52.5t-30.5 55.5t-80.5 21.5q-106 0 -129 -105l-76 22q12 70 66 113t136 43q89 0 145 -45t56 -122v-378zM314 239q-67 -18 -92 -40t-25 -58
q0 -83 105 -83q70 0 110 31.5t40 80.5v132h-2q-13 -28 -136 -63zM262 582l-47 38l66 85h109l66 -85l-48 -38l-73 92z" />
    <glyph glyph-name="atilde" unicode="&#xe3;" 
d="M534 0h-74v58h-2q-17 -29 -60 -51t-102 -22q-86 0 -133.5 42t-47.5 109q0 66 41.5 103.5t138.5 62.5q88 22 120 40.5t32 52.5t-30.5 55.5t-80.5 21.5q-106 0 -129 -105l-76 22q12 70 66 113t136 43q89 0 145 -45t56 -122v-378zM314 239q-67 -18 -92 -40t-25 -58
q0 -83 105 -83q70 0 110 31.5t40 80.5v132h-2q-13 -28 -136 -63zM229 602h-44q18 94 89 94q28 0 62 -19t52 -19q28 0 36 33h44q-18 -94 -88 -94q-29 0 -64 19q-34 19 -51 19q-29 0 -36 -33z" />
    <glyph glyph-name="adieresis" unicode="&#xe4;" 
d="M534 0h-74v58h-2q-17 -29 -60 -51t-102 -22q-86 0 -133.5 42t-47.5 109q0 66 41.5 103.5t138.5 62.5q88 22 120 40.5t32 52.5t-30.5 55.5t-80.5 21.5q-106 0 -129 -105l-76 22q12 70 66 113t136 43q89 0 145 -45t56 -122v-378zM314 239q-67 -18 -92 -40t-25 -58
q0 -83 105 -83q70 0 110 31.5t40 80.5v132h-2q-13 -28 -136 -63zM276 611h-91v91h91v-91zM468 611h-91v91h91v-91z" />
    <glyph glyph-name="aring" unicode="&#xe5;" 
d="M534 0h-74v58h-2q-17 -29 -60 -51t-102 -22q-86 0 -133.5 42t-47.5 109q0 66 41.5 103.5t138.5 62.5q88 22 120 40.5t32 52.5t-30.5 55.5t-80.5 21.5q-106 0 -129 -105l-76 22q10 55 46.5 94.5t93.5 54.5q-44 27 -44 87q0 42 28 72t70 30t70 -29.5t28 -72.5
q0 -56 -40 -84q70 -12 110.5 -55t40.5 -108v-378zM314 239q-67 -18 -92 -40t-25 -58q0 -83 105 -83q70 0 110 31.5t40 80.5v132h-2q-13 -28 -136 -63zM325 567q21 0 34.5 16t13.5 43q0 39 -30 52t-52 -10q-13 -13 -13 -42q0 -27 13.5 -43t33.5 -16z" />
    <glyph glyph-name="ae" unicode="&#xe6;" 
d="M169 302q57 24 79.5 44.5t22.5 46.5q0 34 -18.5 57t-47.5 23q-63 0 -75 -103l-67 14q4 70 45 115q40 46 96 46q44 0 77.5 -23.5t47.5 -68.5q44 92 122 92q71 0 112 -74t41 -206v-24h-250q2 -77 27 -129q27 -53 75 -53q38 0 58 41q14 31 24 71l65 -24q-15 -74 -53.5 -118
t-91.5 -44q-93 0 -140 113q-39 -113 -146 -113q-57 0 -91.5 42.5t-34.5 109.5q0 114 123 165zM356 307h174q0 64 -20 115q-20 50 -58 50q-33 0 -56 -29q-40 -50 -40 -136zM187 242q-66 -38 -66 -101q0 -38 16.5 -60.5t46.5 -22.5q38 0 65 33q27 34 27 79v135h-2
q-2 -11 -19.5 -23.5t-67.5 -39.5z" />
    <glyph glyph-name="ccedilla" unicode="&#xe7;" 
d="M259 -174l29 40q38 -29 75 -29q60 0 60 45q0 41 -48 41q-35 0 -59 -14l-8 -5l-29 16l39 68q-94 12 -150 85.5t-56 191.5q0 129 69 204q70 76 174 76q85 0 144 -54q59 -53 73 -140l-77 -16q-28 136 -140 136q-73 0 -116.5 -55t-43.5 -151t43 -151t118 -55q58 0 96 42
q38 43 45 102l79 -16q-13 -90 -72 -146q-59 -54 -145 -56l-27 -43q22 14 58 14q37 0 61.5 -20t24.5 -55q0 -42 -30 -67t-86 -25q-55 0 -101 37z" />
    <glyph glyph-name="egrave" unicode="&#xe8;" 
d="M483 158l3 6l67 -44q-32 -61 -88.5 -98t-133.5 -37q-108 0 -178 76t-70 204q0 126 68 203q69 77 176 77t173 -75q67 -74 67 -205v-24h-400q1 -77 42 -129q42 -53 120 -53q72 0 108 36q26 26 46 63zM169 306h315q-1 65 -40 116q-37 49 -117 49q-76 0 -117 -53
q-39 -51 -41 -112zM377 595h-71l-108 121h101z" />
    <glyph glyph-name="eacute" unicode="&#xe9;" 
d="M483 158l3 6l67 -44q-32 -61 -88.5 -98t-133.5 -37q-108 0 -178 76t-70 204q0 126 68 203q69 77 176 77t173 -75q67 -74 67 -205v-24h-400q1 -77 42 -129q42 -53 120 -53q72 0 108 36q26 26 46 63zM169 306h315q-1 65 -40 116q-37 49 -117 49q-76 0 -117 -53
q-39 -51 -41 -112zM367 595h-71l78 121h100z" />
    <glyph glyph-name="ecircumflex" unicode="&#xea;" 
d="M483 158l3 6l67 -44q-32 -61 -88.5 -98t-133.5 -37q-108 0 -178 76t-70 204q0 126 68 203q69 77 176 77t173 -75q67 -74 67 -205v-24h-400q1 -77 42 -129q42 -53 120 -53q72 0 108 36q26 26 46 63zM169 306h315q-1 65 -40 116q-37 49 -117 49q-76 0 -117 -53
q-39 -51 -41 -112zM258 582l-47 38l66 85h109l66 -85l-48 -38l-73 92z" />
    <glyph glyph-name="edieresis" unicode="&#xeb;" 
d="M483 158l3 6l67 -44q-32 -61 -88.5 -98t-133.5 -37q-108 0 -178 76t-70 204q0 126 68 203q69 77 176 77t173 -75q67 -74 67 -205v-24h-400q1 -77 42 -129q42 -53 120 -53q72 0 108 36q26 26 46 63zM169 306h315q-1 65 -40 116q-37 49 -117 49q-76 0 -117 -53
q-39 -51 -41 -112zM282 611h-91v91h91v-91zM474 611h-91v91h91v-91z" />
    <glyph glyph-name="igrave" unicode="&#xec;" 
d="M414 595h-71l-108 121h101zM309 460h-179v70h260v-460h175v-70h-440v70h184v390z" />
    <glyph glyph-name="iacute" unicode="&#xed;" 
d="M310 595h-71l78 121h100zM309 460h-179v70h260v-460h175v-70h-440v70h184v390z" />
    <glyph glyph-name="icircumflex" unicode="&#xee;" 
d="M309 460h-179v70h260v-460h175v-70h-440v70h184v390zM261 582l-47 38l66 85h109l66 -85l-48 -38l-73 92z" />
    <glyph glyph-name="idieresis" unicode="&#xef;" 
d="M274 611h-91v91h91v-91zM466 611h-91v91h91v-91zM309 460h-179v70h260v-460h175v-70h-440v70h184v390z" />
    <glyph glyph-name="eth" unicode="&#xf0;" 
d="M263 775h92q30 -34 52 -63l132 37l13 -43l-118 -33q129 -196 129 -406q0 -135 -62.5 -208.5t-171.5 -73.5q-111 0 -175.5 73.5t-64.5 207.5q0 132 64 205q65 74 160 74q89 0 137 -52l2 1q-27 83 -84 161l-148 -41l-13 43l131 36q-26 31 -75 80v2zM329 58q154 0 154 206
q0 102 -41 156t-122 54q-73 0 -113 -53t-40 -157q0 -103 42 -154.5t120 -51.5z" />
    <glyph glyph-name="ntilde" unicode="&#xf1;" 
d="M198 0h-82v530h78v-51h2q22 29 63 47.5t86 18.5q87 0 138.5 -53.5t51.5 -143.5v-348h-82v322q0 148 -120 148q-63 0 -99 -35t-36 -97v-338zM237 602h-44q18 94 89 94q28 0 62 -19t52 -19q28 0 36 33h44q-18 -94 -88 -94q-29 0 -64 19q-34 19 -51 19q-29 0 -36 -33z" />
    <glyph glyph-name="ograve" unicode="&#xf2;" 
d="M327 59q68 0 111.5 55.5t43.5 150.5q0 96 -42.5 151t-112.5 55q-71 0 -115 -54.5t-44 -151.5t44 -151.5t115 -54.5zM327 -15q-105 0 -174 74q-69 75 -69 206q0 129 71 205q70 75 172 75q100 0 169 -75q70 -74 70 -205q0 -130 -68 -206q-68 -74 -171 -74zM357 595h-71
l-108 121h101z" />
    <glyph glyph-name="oacute" unicode="&#xf3;" 
d="M327 59q68 0 111.5 55.5t43.5 150.5q0 96 -42.5 151t-112.5 55q-71 0 -115 -54.5t-44 -151.5t44 -151.5t115 -54.5zM327 -15q-105 0 -174 74q-69 75 -69 206q0 129 71 205q70 75 172 75q100 0 169 -75q70 -74 70 -205q0 -130 -68 -206q-68 -74 -171 -74zM369 595h-71
l78 121h100z" />
    <glyph glyph-name="ocircumflex" unicode="&#xf4;" 
d="M327 59q68 0 111.5 55.5t43.5 150.5q0 96 -42.5 151t-112.5 55q-71 0 -115 -54.5t-44 -151.5t44 -151.5t115 -54.5zM327 -15q-105 0 -174 74q-69 75 -69 206q0 129 71 205q70 75 172 75q100 0 169 -75q70 -74 70 -205q0 -130 -68 -206q-68 -74 -171 -74zM260 582l-47 38
l66 85h109l66 -85l-48 -38l-73 92z" />
    <glyph glyph-name="otilde" unicode="&#xf5;" 
d="M327 59q68 0 111.5 55.5t43.5 150.5q0 96 -42.5 151t-112.5 55q-71 0 -115 -54.5t-44 -151.5t44 -151.5t115 -54.5zM327 -15q-105 0 -174 74q-69 75 -69 206q0 129 71 205q70 75 172 75q100 0 169 -75q70 -74 70 -205q0 -130 -68 -206q-68 -74 -171 -74zM238 602h-44
q18 94 89 94q28 0 62 -19t52 -19q29 0 36 33h44q-18 -94 -88 -94q-29 0 -64 19q-34 19 -51 19q-28 0 -36 -33z" />
    <glyph glyph-name="odieresis" unicode="&#xf6;" 
d="M327 59q68 0 111.5 55.5t43.5 150.5q0 96 -42.5 151t-112.5 55q-71 0 -115 -54.5t-44 -151.5t44 -151.5t115 -54.5zM327 -15q-105 0 -174 74q-69 75 -69 206q0 129 71 205q70 75 172 75q100 0 169 -75q70 -74 70 -205q0 -130 -68 -206q-68 -74 -171 -74zM284 611h-91v91
h91v-91zM476 611h-91v91h91v-91z" />
    <glyph glyph-name="divide" unicode="&#xf7;" 
d="M254 566q0 30 20.5 51t49.5 21q31 0 51.5 -21t20.5 -51q0 -29 -20.5 -49.5t-51.5 -20.5q-29 0 -49.5 20.5t-20.5 49.5zM324 212q31 0 51.5 -20.5t20.5 -50.5t-20.5 -50.5t-51.5 -20.5q-29 0 -49.5 20.5t-20.5 50.5t20.5 50.5t49.5 20.5zM517 319h-384v70h384v-70z" />
    <glyph glyph-name="oslash" unicode="&#xf8;" 
d="M327 -15q-91 0 -152 54l-39 -50l-33 25l43 55q-60 73 -60 196q0 131 70 205q70 75 171 75q84 0 147 -54l39 50l33 -26l-43 -55q61 -74 61 -195q0 -133 -67 -206q-68 -74 -170 -74zM327 59q68 0 112 55.5t44 150.5q0 79 -30 131l-230 -296q44 -41 104 -41zM167 265
q0 -79 30 -131l230 296q-41 41 -100 41q-72 0 -116 -54.5t-44 -151.5z" />
    <glyph glyph-name="ugrave" unicode="&#xf9;" 
d="M120 185v345h82v-333q0 -74 28.5 -105t94.5 -31q60 0 92 37t32 103v329h82v-530h-81v51h-2q-4 -7 -15 -18q-12 -12 -47 -30q-36 -18 -79 -18q-89 0 -138 51t-49 149zM373 595h-71l-108 121h101z" />
    <glyph glyph-name="uacute" unicode="&#xfa;" 
d="M120 185v345h82v-333q0 -74 28.5 -105t94.5 -31q60 0 92 37t32 103v329h82v-530h-81v51h-2q-4 -7 -15 -18q-12 -12 -47 -30q-36 -18 -79 -18q-89 0 -138 51t-49 149zM363 595h-71l78 121h100z" />
    <glyph glyph-name="ucircumflex" unicode="&#xfb;" 
d="M120 185v345h82v-333q0 -74 28.5 -105t94.5 -31q60 0 92 37t32 103v329h82v-530h-81v51h-2q-4 -7 -15 -18q-12 -12 -47 -30q-36 -18 -79 -18q-89 0 -138 51t-49 149zM260 582l-47 38l66 85h109l66 -85l-48 -38l-73 92z" />
    <glyph glyph-name="udieresis" unicode="&#xfc;" 
d="M120 185v345h82v-333q0 -74 28.5 -105t94.5 -31q60 0 92 37t32 103v329h82v-530h-81v51h-2q-4 -7 -15 -18q-12 -12 -47 -30q-36 -18 -79 -18q-89 0 -138 51t-49 149zM281 611h-91v91h91v-91zM473 611h-91v91h91v-91z" />
    <glyph glyph-name="yacute" unicode="&#xfd;" 
d="M259 -225h-83l100 265l-206 490h88l157 -385h2l141 385h86zM373 595h-71l78 121h100z" />
    <glyph glyph-name="thorn" unicode="&#xfe;" 
d="M215 -225h-82v955h80v-250h2q53 65 149 65q100 0 166 -77t66 -203q0 -127 -65 -204q-64 -76 -169 -76q-42 0 -84 18.5t-61 44.5h-2v-273zM215 342v-168q0 -45 38 -80q38 -34 98 -34q78 0 121 54t43 151t-43 151t-121 54q-62 0 -99 -40q-37 -38 -37 -88z" />
    <glyph glyph-name="ydieresis" unicode="&#xff;" 
d="M259 -225h-83l100 265l-206 490h88l157 -385h2l141 385h86zM283 611h-91v91h91v-91zM475 611h-91v91h91v-91z" />
    <glyph glyph-name="Amacron" unicode="&#x100;" 
d="M600 0h-87l-47 137h-287l-43 -137h-87l232 700h87zM202 209h240l-117 380h-2zM470 765h-288v61h288v-61z" />
    <glyph glyph-name="amacron" unicode="&#x101;" 
d="M534 0h-74v58h-2q-17 -29 -60 -51t-102 -22q-86 0 -133.5 42t-47.5 109q0 66 41.5 103.5t138.5 62.5q88 22 120 40.5t32 52.5t-30.5 55.5t-80.5 21.5q-106 0 -129 -105l-76 22q12 70 66 113t136 43q89 0 145 -45t56 -122v-378zM314 239q-67 -18 -92 -40t-25 -58
q0 -83 105 -83q70 0 110 31.5t40 80.5v132h-2q-13 -28 -136 -63zM471 620h-288v61h288v-61z" />
    <glyph glyph-name="Abreve" unicode="&#x102;" 
d="M600 0h-87l-47 137h-287l-43 -137h-87l232 700h87zM202 209h240l-117 380h-2zM202 874h44q10 -58 80 -58q72 0 79 58h46q0 -55 -34.5 -87t-90.5 -32q-57 0 -90.5 31.5t-33.5 87.5z" />
    <glyph glyph-name="abreve" unicode="&#x103;" 
d="M534 0h-74v58h-2q-17 -29 -60 -51t-102 -22q-86 0 -133.5 42t-47.5 109q0 66 41.5 103.5t138.5 62.5q88 22 120 40.5t32 52.5t-30.5 55.5t-80.5 21.5q-106 0 -129 -105l-76 22q12 70 66 113t136 43q89 0 145 -45t56 -122v-378zM314 239q-67 -18 -92 -40t-25 -58
q0 -83 105 -83q70 0 110 31.5t40 80.5v132h-2q-13 -28 -136 -63zM201 704h44q10 -58 80 -58q72 0 79 58h46q0 -55 -34.5 -87t-90.5 -32q-57 0 -90.5 31.5t-33.5 87.5z" />
    <glyph glyph-name="Aogonek" unicode="&#x104;" 
d="M600 0h-87l-47 137h-287l-43 -137h-87l232 700h87zM202 209h240l-117 380h-2zM632 -119l32 -28q-51 -64 -123 -64q-43 0 -69.5 18t-26.5 56q0 76 99 137h56q-80 -72 -80 -117q0 -39 46 -39q35 0 66 37z" />
    <glyph glyph-name="aogonek" unicode="&#x105;" 
d="M478 0h-18v58h-2q-17 -29 -60 -51t-102 -22q-86 0 -133.5 42t-47.5 109q0 66 41.5 103.5t138.5 62.5q88 22 120 40.5t32 52.5t-30.5 55.5t-80.5 21.5q-106 0 -129 -105l-76 22q12 70 66 113t136 43q89 0 145 -45t56 -122v-378q-80 -72 -80 -117q0 -39 46 -39q35 0 66 37
l32 -28q-51 -64 -123 -64q-43 0 -69.5 18t-26.5 56q0 76 99 137zM314 239q-67 -18 -92 -40t-25 -58q0 -83 105 -83q70 0 110 31.5t40 80.5v132h-2q-13 -28 -136 -63z" />
    <glyph glyph-name="Cacute" unicode="&#x106;" 
d="M346 636q-83 0 -131 -72t-48 -208q0 -143 47 -218t132 -75q71 0 111 53t47 144l87 -11q-7 -120 -74 -193q-66 -71 -171 -71q-117 0 -193 91t-76 280q0 171 77 265q78 94 192 94q98 0 164 -68q65 -67 79 -176l-84 -15q-13 83 -52.5 131.5t-106.5 48.5zM384 765h-71l79 121
h100z" />
    <glyph glyph-name="cacute" unicode="&#x107;" 
d="M497 203l79 -16q-13 -92 -73 -147t-148 -55q-107 0 -175 75q-68 76 -68 205t69 204q70 76 174 76q85 0 144 -54q59 -53 73 -140l-77 -16q-28 136 -140 136q-73 0 -116.5 -55t-43.5 -151t43 -151t118 -55q58 0 96 42q38 43 45 102zM379 595h-71l78 121h100z" />
    <glyph glyph-name="Ccircumflex" unicode="&#x108;" 
d="M346 636q-83 0 -131 -72t-48 -208q0 -143 47 -218t132 -75q71 0 111 53t47 144l87 -11q-7 -120 -74 -193q-66 -71 -171 -71q-117 0 -193 91t-76 280q0 171 77 265q78 94 192 94q98 0 164 -68q65 -67 79 -176l-84 -15q-13 83 -52.5 131.5t-106.5 48.5zM280 747l-47 38
l66 85h109l66 -85l-48 -38l-73 92z" />
    <glyph glyph-name="ccircumflex" unicode="&#x109;" 
d="M497 203l79 -16q-13 -92 -73 -147t-148 -55q-107 0 -175 75q-68 76 -68 205t69 204q70 76 174 76q85 0 144 -54q59 -53 73 -140l-77 -16q-28 136 -140 136q-73 0 -116.5 -55t-43.5 -151t43 -151t118 -55q58 0 96 42q38 43 45 102zM280 582l-47 38l66 85h109l66 -85
l-48 -38l-73 92z" />
    <glyph glyph-name="Cdotaccent" unicode="&#x10a;" 
d="M346 636q-83 0 -131 -72t-48 -208q0 -143 47 -218t132 -75q71 0 111 53t47 144l87 -11q-7 -120 -74 -193q-66 -71 -171 -71q-117 0 -193 91t-76 280q0 171 77 265q78 94 192 94q98 0 164 -68q65 -67 79 -176l-84 -15q-13 83 -52.5 131.5t-106.5 48.5zM403 765h-97v97h97
v-97z" />
    <glyph glyph-name="cdotaccent" unicode="&#x10b;" 
d="M497 203l79 -16q-13 -92 -73 -147t-148 -55q-107 0 -175 75q-68 76 -68 205t69 204q70 76 174 76q85 0 144 -54q59 -53 73 -140l-77 -16q-28 136 -140 136q-73 0 -116.5 -55t-43.5 -151t43 -151t118 -55q58 0 96 42q38 43 45 102zM394 608h-97v96h97v-96z" />
    <glyph glyph-name="Ccaron" unicode="&#x10c;" 
d="M346 636q-83 0 -131 -72t-48 -208q0 -143 47 -218t132 -75q71 0 111 53t47 144l87 -11q-7 -120 -74 -193q-66 -71 -171 -71q-117 0 -193 91t-76 280q0 171 77 265q78 94 192 94q98 0 164 -68q65 -67 79 -176l-84 -15q-13 83 -52.5 131.5t-106.5 48.5zM411 765h-109
l-66 85l47 38l74 -92l73 92l47 -38z" />
    <glyph glyph-name="ccaron" unicode="&#x10d;" 
d="M497 203l79 -16q-13 -92 -73 -147t-148 -55q-107 0 -175 75q-68 76 -68 205t69 204q70 76 174 76q85 0 144 -54q59 -53 73 -140l-77 -16q-28 136 -140 136q-73 0 -116.5 -55t-43.5 -151t43 -151t118 -55q58 0 96 42q38 43 45 102zM412 594h-109l-66 85l47 38l74 -92
l73 92l47 -38z" />
    <glyph glyph-name="Dcaron" unicode="&#x10e;" 
d="M182 624v-548h93q228 0 228 275q0 131 -59 202t-163 71h-99zM282 0h-186v700h192q60 0 113.5 -21t97 -62t69 -109.5t25.5 -156.5q0 -193 -98 -277q-89 -74 -213 -74zM330 765h-109l-66 85l47 38l74 -92l73 92l47 -38z" />
    <glyph glyph-name="dcaron" unicode="&#x10f;" 
d="M453 176v164q0 50 -37 90q-38 41 -99 41q-78 0 -119.5 -53.5t-41.5 -152.5t41.5 -152.5t119.5 -53.5q57 0 97 35q39 34 39 82zM535 0h-74v51h-2q-23 -28 -64 -47t-91 -19q-105 0 -169 76q-63 77 -63 204t66 203q68 77 166 77q92 0 147 -66h2v251h82v-730zM656 579h-56
l29 151h79z" />
    <glyph glyph-name="Dcroat" unicode="&#x110;" 
d="M273 0h-153v320h-68v78h68v302h159q60 0 113 -21t96 -62t68.5 -109.5t25.5 -156.5q0 -193 -97 -277q-87 -74 -212 -74zM203 320v-244h63q228 0 228 275q0 131 -59 202t-163 71h-69v-226h186v-78h-186z" />
    <glyph glyph-name="dslash" unicode="&#x111;" 
d="M542 0h-73v51h-2q-58 -66 -155 -66q-105 0 -168 76q-62 77 -62 204t64 203q65 77 166 77q92 0 147 -66h2v158h-138v63h138v30h81v-30h65v-63h-65v-637zM461 176v164q0 49 -38 90q-37 40 -99 40q-78 0 -119.5 -53t-41.5 -152t41.5 -152t119.5 -53q60 0 98 34q39 34 39 82z
" />
    <glyph glyph-name="Emacron" unicode="&#x112;" 
d="M546 0h-414v700h414v-76h-328v-227h300v-74h-300v-247h328v-76zM485 765h-288v61h288v-61z" />
    <glyph glyph-name="emacron" unicode="&#x113;" 
d="M483 158l3 6l67 -44q-32 -61 -88.5 -98t-133.5 -37q-108 0 -178 76t-70 204q0 126 68 203q69 77 176 77t173 -75q67 -74 67 -205v-24h-400q1 -77 42 -129q42 -53 120 -53q72 0 108 36q26 26 46 63zM169 306h315q-1 65 -40 116q-37 49 -117 49q-76 0 -117 -53
q-39 -51 -41 -112zM474 620h-288v61h288v-61z" />
    <glyph glyph-name="Ebreve" unicode="&#x114;" 
d="M546 0h-414v700h414v-76h-328v-227h300v-74h-300v-247h328v-76zM217 874h44q10 -58 80 -58q72 0 79 58h46q0 -55 -34.5 -87t-90.5 -32q-57 0 -90.5 31.5t-33.5 87.5z" />
    <glyph glyph-name="ebreve" unicode="&#x115;" 
d="M483 158l3 6l67 -44q-32 -61 -88.5 -98t-133.5 -37q-108 0 -178 76t-70 204q0 126 68 203q69 77 176 77t173 -75q67 -74 67 -205v-24h-400q1 -77 42 -129q42 -53 120 -53q72 0 108 36q26 26 46 63zM169 306h315q-1 65 -40 116q-37 49 -117 49q-76 0 -117 -53
q-39 -51 -41 -112zM203 704h44q10 -58 80 -58q72 0 79 58h46q0 -55 -34.5 -87t-90.5 -32q-57 0 -90.5 31.5t-33.5 87.5z" />
    <glyph glyph-name="Edotaccent" unicode="&#x116;" 
d="M546 0h-414v700h414v-76h-328v-227h300v-74h-300v-247h328v-76zM390 765h-97v97h97v-97z" />
    <glyph glyph-name="edotaccent" unicode="&#x117;" 
d="M483 158l3 6l67 -44q-32 -61 -88.5 -98t-133.5 -37q-108 0 -178 76t-70 204q0 126 68 203q69 77 176 77t173 -75q67 -74 67 -205v-24h-400q1 -77 42 -129q42 -53 120 -53q72 0 108 36q26 26 46 63zM169 306h315q-1 65 -40 116q-37 49 -117 49q-76 0 -117 -53
q-39 -51 -41 -112zM379 608h-97v96h97v-96z" />
    <glyph glyph-name="Eogonek" unicode="&#x118;" 
d="M382 0h-250v700h414v-76h-328v-227h300v-74h-300v-247h328v-76h-108q-80 -72 -80 -117q0 -39 46 -39q35 0 66 37l32 -28q-51 -64 -123 -64q-43 0 -69.5 18t-26.5 56q0 76 99 137z" />
    <glyph glyph-name="eogonek" unicode="&#x119;" 
d="M436 -119l32 -28q-51 -64 -123 -64q-43 0 -69.5 18t-26.5 56q0 67 76 122q-107 1 -174 78q-68 77 -68 202q0 126 68 203q69 77 176 77t173 -75q67 -74 67 -205v-24h-400q1 -77 42 -129q42 -53 120 -53q72 0 108 36q26 26 46 63l3 6l67 -44q-52 -103 -157 -127
q-72 -67 -72 -110q0 -39 46 -39q35 0 66 37zM169 306h315q-1 65 -40 116q-37 49 -117 49q-76 0 -117 -53q-39 -51 -41 -112z" />
    <glyph glyph-name="Ecaron" unicode="&#x11a;" 
d="M546 0h-414v700h414v-76h-328v-227h300v-74h-300v-247h328v-76zM396 765h-109l-66 85l47 38l74 -92l73 92l47 -38z" />
    <glyph glyph-name="ecaron" unicode="&#x11b;" 
d="M483 158l3 6l67 -44q-32 -61 -88.5 -98t-133.5 -37q-108 0 -178 76t-70 204q0 126 68 203q69 77 176 77t173 -75q67 -74 67 -205v-24h-400q1 -77 42 -129q42 -53 120 -53q72 0 108 36q26 26 46 63zM169 306h315q-1 65 -40 116q-37 49 -117 49q-76 0 -117 -53
q-39 -51 -41 -112zM387 594h-109l-66 85l47 38l74 -92l73 92l47 -38z" />
    <glyph glyph-name="Gcircumflex" unicode="&#x11c;" 
d="M346 -15q-118 0 -196 92q-77 92 -77 280q0 170 79 264t194 94q93 0 157 -64q65 -65 81 -167l-83 -15q-12 78 -51.5 122.5t-103.5 44.5q-83 0 -133 -72t-50 -207q0 -141 49.5 -217.5t133.5 -76.5q75 0 119 55.5t42 148.5h-176v76h259v-68q0 -135 -69 -213
q-68 -77 -175 -77zM260 747l-47 38l66 85h109l66 -85l-48 -38l-73 92z" />
    <glyph glyph-name="gcircumflex" unicode="&#x11d;" 
d="M121 -96l71 37q19 -54 50.5 -81t86.5 -27q64 0 99 37.5t35 104.5v71h-2q-52 -61 -147 -61q-106 0 -170 76q-65 77 -65 204t67 203q68 77 167 77q97 0 149 -66h2v51h81v-538q0 -112 -56.5 -172t-157.5 -60q-79 0 -133.5 38.5t-76.5 105.5zM463 174v168q0 48 -38 89
q-37 40 -99 40q-78 0 -120.5 -54.5t-42.5 -151.5q0 -99 42 -152.5t121 -53.5q60 0 98 34q39 35 39 81zM252 582l-47 38l66 85h109l66 -85l-48 -38l-73 92z" />
    <glyph glyph-name="Gbreve" unicode="&#x11e;" 
d="M346 -15q-118 0 -196 92q-77 92 -77 280q0 170 79 264t194 94q93 0 157 -64q65 -65 81 -167l-83 -15q-12 78 -51.5 122.5t-103.5 44.5q-83 0 -133 -72t-50 -207q0 -141 49.5 -217.5t133.5 -76.5q75 0 119 55.5t42 148.5h-176v76h259v-68q0 -135 -69 -213
q-68 -77 -175 -77zM209 874h44q10 -58 80 -58q72 0 79 58h46q0 -55 -34.5 -87t-90.5 -32q-57 0 -90.5 31.5t-33.5 87.5z" />
    <glyph glyph-name="gbreve" unicode="&#x11f;" 
d="M121 -96l71 37q19 -54 50.5 -81t86.5 -27q64 0 99 37.5t35 104.5v71h-2q-52 -61 -147 -61q-106 0 -170 76q-65 77 -65 204t67 203q68 77 167 77q97 0 149 -66h2v51h81v-538q0 -112 -56.5 -172t-157.5 -60q-79 0 -133.5 38.5t-76.5 105.5zM463 174v168q0 48 -38 89
q-37 40 -99 40q-78 0 -120.5 -54.5t-42.5 -151.5q0 -99 42 -152.5t121 -53.5q60 0 98 34q39 35 39 81zM204 704h44q10 -58 80 -58q72 0 79 58h46q0 -55 -34.5 -87t-90.5 -32q-57 0 -90.5 31.5t-33.5 87.5z" />
    <glyph glyph-name="Gdotaccent" unicode="&#x120;" 
d="M346 -15q-118 0 -196 92q-77 92 -77 280q0 170 79 264t194 94q93 0 157 -64q65 -65 81 -167l-83 -15q-12 78 -51.5 122.5t-103.5 44.5q-83 0 -133 -72t-50 -207q0 -141 49.5 -217.5t133.5 -76.5q75 0 119 55.5t42 148.5h-176v76h259v-68q0 -135 -69 -213
q-68 -77 -175 -77zM382 765h-97v97h97v-97z" />
    <glyph glyph-name="gdotaccent" unicode="&#x121;" 
d="M121 -96l71 37q19 -54 50.5 -81t86.5 -27q64 0 99 37.5t35 104.5v71h-2q-52 -61 -147 -61q-106 0 -170 76q-65 77 -65 204t67 203q68 77 167 77q97 0 149 -66h2v51h81v-538q0 -112 -56.5 -172t-157.5 -60q-79 0 -133.5 38.5t-76.5 105.5zM463 174v168q0 48 -38 89
q-37 40 -99 40q-78 0 -120.5 -54.5t-42.5 -151.5q0 -99 42 -152.5t121 -53.5q60 0 98 34q39 35 39 81zM375 608h-97v96h97v-96z" />
    <glyph glyph-name="Gcommaaccent" unicode="&#x122;" 
d="M346 -15q-118 0 -196 92q-77 92 -77 280q0 170 79 264t194 94q93 0 157 -64q65 -65 81 -167l-83 -15q-12 78 -51.5 122.5t-103.5 44.5q-83 0 -133 -72t-50 -207q0 -141 49.5 -217.5t133.5 -76.5q75 0 119 55.5t42 148.5h-176v76h259v-68q0 -135 -69 -213
q-68 -77 -175 -77zM311 -229v35q27 4 38 15.5t11 35.5h-50v89h102v-75q0 -49 -24 -73t-77 -27z" />
    <glyph glyph-name="gcommaaccent" unicode="&#x123;" 
d="M121 -96l71 37q19 -54 50.5 -81t86.5 -27q64 0 99 37.5t35 104.5v71h-2q-52 -61 -147 -61q-106 0 -170 76q-65 77 -65 204t67 203q68 77 167 77q97 0 149 -66h2v51h81v-538q0 -112 -56.5 -172t-157.5 -60q-79 0 -133.5 38.5t-76.5 105.5zM463 174v168q0 48 -38 89
q-37 40 -99 40q-78 0 -120.5 -54.5t-42.5 -151.5q0 -99 42 -152.5t121 -53.5q60 0 98 34q39 35 39 81zM353 777v-32q-36 -5 -36 -45h41v-91h-93v78q0 83 88 90z" />
    <glyph glyph-name="Hcircumflex" unicode="&#x124;" 
d="M179 0h-86v700h86v-301h293v301h85v-700h-85v325h-293v-325zM251 747l-47 38l66 85h109l66 -85l-48 -38l-73 92z" />
    <glyph glyph-name="hcircumflex" unicode="&#x125;" 
d="M202 0h-82v730h82v-253h2q22 30 64.5 49t90.5 19q86 0 138 -52.5t52 -146.5v-346h-82v324q0 146 -123 146q-65 0 -103.5 -38t-38.5 -99v-333zM293 582l-47 38l66 85h109l66 -85l-48 -38l-73 92z" />
    <glyph glyph-name="Hbar" unicode="&#x126;" 
d="M199 0h-83v505h-50v73h50v122h83v-122h252v122h83v-122h50v-73h-50v-505h-83v325h-252v-325zM199 505v-106h252v106h-252z" />
    <glyph glyph-name="hbar" unicode="&#x127;" 
d="M214 0h-82v637h-67v63h67v30h82v-30h137v-63h-137v-158h2q22 30 59.5 48t80.5 18q84 0 136 -54q53 -53 53 -145v-346h-82v324q0 146 -122 146q-59 0 -93 -37t-34 -100v-333z" />
    <glyph glyph-name="Itilde" unicode="&#x128;" 
d="M282 625h-167v75h420v-75h-168v-550h168v-75h-420v75h167v550zM228 765h-44q16 93 89 93q28 0 62 -19q34 -18 52 -18q28 0 36 32h44q-17 -93 -88 -93q-28 0 -64 18q-34 19 -51 19q-28 0 -36 -32z" />
    <glyph glyph-name="itilde" unicode="&#x129;" 
d="M227 602h-44q18 94 89 94q28 0 62 -19t52 -19q28 0 36 33h44q-18 -94 -88 -94q-29 0 -64 19q-34 19 -51 19q-29 0 -36 -33zM309 460h-179v70h260v-460h175v-70h-440v70h184v390z" />
    <glyph glyph-name="Imacron" unicode="&#x12a;" 
d="M282 625h-167v75h420v-75h-168v-550h168v-75h-420v75h167v550zM469 765h-288v61h288v-61z" />
    <glyph glyph-name="imacron" unicode="&#x12b;" 
d="M469 620h-288v61h288v-61zM309 460h-179v70h260v-460h175v-70h-440v70h184v390z" />
    <glyph glyph-name="Ibreve" unicode="&#x12c;" 
d="M282 625h-167v75h420v-75h-168v-550h168v-75h-420v75h167v550zM201 874h44q10 -58 80 -58q72 0 79 58h46q0 -55 -34.5 -87t-90.5 -32q-57 0 -90.5 31.5t-33.5 87.5z" />
    <glyph glyph-name="ibreve" unicode="&#x12d;" 
d="M200 704h44q10 -58 80 -58q72 0 79 58h46q0 -55 -34.5 -87t-90.5 -32q-57 0 -90.5 31.5t-33.5 87.5zM309 460h-179v70h260v-460h175v-70h-440v70h184v390z" />
    <glyph glyph-name="Iogonek" unicode="&#x12e;" 
d="M407 -119l32 -28q-51 -64 -123 -64q-43 0 -69.5 18t-26.5 56q0 76 99 137h-204v75h167v550h-167v75h420v-75h-168v-550h168v-75h-160q-80 -72 -80 -117q0 -39 46 -39q35 0 66 37z" />
    <glyph glyph-name="iogonek" unicode="&#x12f;" 
d="M309 460h-179v70h260v-460h175v-70h-174q-80 -72 -80 -117q0 -39 46 -39q35 0 66 37l32 -28q-51 -64 -123 -64q-43 0 -69.5 18t-26.5 56q0 76 99 137h-210v70h184v390zM397 637h-94v93h94v-93z" />
    <glyph glyph-name="Idot" unicode="&#x130;" 
d="M282 625h-167v75h420v-75h-168v-550h168v-75h-420v75h167v550zM374 765h-97v97h97v-97z" />
    <glyph glyph-name="dotlessi" unicode="&#x131;" 
d="M309 460h-179v70h260v-460h175v-70h-440v70h184v390z" />
    <glyph glyph-name="Jcircumflex" unicode="&#x134;" 
d="M444 625h-266v75h350v-472q0 -121 -53 -182t-152 -61q-90 0 -147 56.5t-72 152.5l81 21q17 -79 46.5 -115.5t87.5 -36.5q66 0 95.5 40t29.5 130v392zM278 747l-47 38l66 85h109l66 -85l-48 -38l-73 92z" />
    <glyph glyph-name="jcircumflex" unicode="&#x135;" 
d="M380 457h-203v73h285v-553q0 -82 -47 -127t-122 -45q-53 0 -94 24q-39 22 -57 46l52 58q45 -54 99 -54q87 0 87 98v480zM282 582l-47 38l66 85h109l66 -85l-48 -38l-73 92z" />
    <glyph glyph-name="Kcommaaccent" unicode="&#x136;" 
d="M197 0h-85v700h85v-342h2l284 342h104l-256 -306l284 -394h-102l-238 331h-2l-76 -89v-242zM286 -229v35q27 4 38 15.5t11 35.5h-50v89h102v-75q0 -49 -24 -73t-77 -27z" />
    <glyph glyph-name="kcommaaccent" unicode="&#x137;" 
d="M217 0h-82v730h82v-443h2l223 243h109l-194 -210l218 -320h-99l-180 269h-2l-77 -85v-184zM282 -229v35q27 4 38 15.5t11 35.5h-50v89h102v-75q0 -49 -24 -73t-77 -27z" />
    <glyph glyph-name="kgreenlandic" unicode="&#x138;" 
d="M227 0h-82v530h82v-243l225 243h109l-194 -210l218 -320h-95l-184 269l-79 -85v-184z" />
    <glyph glyph-name="Lacute" unicode="&#x139;" 
d="M583 0h-417v700h86v-624h331v-76zM249 765h-71l79 121h100z" />
    <glyph glyph-name="lacute" unicode="&#x13a;" 
d="M309 657h-172v73h254v-657h181v-73h-440v73h177v584zM385 770h-71l79 121h100z" />
    <glyph glyph-name="Lcommaaccent" unicode="&#x13b;" 
d="M583 0h-417v700h86v-624h331v-76zM325 -229v35q27 4 38 15.5t11 35.5h-50v89h102v-75q0 -49 -24 -73t-77 -27z" />
    <glyph glyph-name="lcommaaccent" unicode="&#x13c;" 
d="M309 657h-172v73h254v-657h181v-73h-440v73h177v584zM296 -229v35q27 4 38 15.5t11 35.5h-50v89h102v-75q0 -49 -24 -73t-77 -27z" />
    <glyph glyph-name="Lcaron" unicode="&#x13d;" 
d="M583 0h-417v700h86v-624h331v-76zM461 579h-56l29 151h79z" />
    <glyph glyph-name="lcaron" unicode="&#x13e;" 
d="M309 657h-172v73h254v-657h181v-73h-440v73h177v584zM528 579h-56l29 151h79z" />
    <glyph glyph-name="Ldot" unicode="&#x13f;" 
d="M583 0h-417v700h86v-624h331v-76zM492 322h-118v118h118v-118z" />
    <glyph glyph-name="ldot" unicode="&#x140;" 
d="M309 657h-172v73h254v-657h181v-73h-440v73h177v584zM585 322h-118v118h118v-118z" />
    <glyph glyph-name="Lslash" unicode="&#x141;" 
d="M550 0h-384v328l-72 -72l-35 35l107 107v302h83v-229l111 111l34 -35l-145 -146v-325h301v-76z" />
    <glyph glyph-name="lslash" unicode="&#x142;" 
d="M309 657h-172v73h254v-203l70 70l34 -35l-104 -103v-386h181v-73h-440v73h177v316l-87 -86l-35 35l122 120v199z" />
    <glyph glyph-name="Nacute" unicode="&#x143;" 
d="M178 0h-80v700h87l279 -558h2v558h80v-700h-85l-281 558h-2v-558zM377 765h-71l79 121h100z" />
    <glyph glyph-name="nacute" unicode="&#x144;" 
d="M198 0h-82v530h78v-51h2q22 29 63 47.5t86 18.5q87 0 138.5 -53.5t51.5 -143.5v-348h-82v322q0 148 -120 148q-63 0 -99 -35t-36 -97v-338zM372 595h-71l78 121h100z" />
    <glyph glyph-name="Ncommaaccent" unicode="&#x145;" 
d="M178 0h-80v700h87l279 -558h2v558h80v-700h-85l-281 558h-2v-558zM289 -229v35q27 4 38 15.5t11 35.5h-50v89h102v-75q0 -49 -24 -73t-77 -27z" />
    <glyph glyph-name="ncommaaccent" unicode="&#x146;" 
d="M198 0h-82v530h78v-51h2q22 29 63 47.5t86 18.5q87 0 138.5 -53.5t51.5 -143.5v-348h-82v322q0 148 -120 148q-63 0 -99 -35t-36 -97v-338zM286 -229v35q27 4 38 15.5t11 35.5h-50v89h102v-75q0 -49 -24 -73t-77 -27z" />
    <glyph glyph-name="Ncaron" unicode="&#x147;" 
d="M178 0h-80v700h87l279 -558h2v558h80v-700h-85l-281 558h-2v-558zM392 765h-109l-66 85l47 38l74 -92l73 92l47 -38z" />
    <glyph glyph-name="ncaron" unicode="&#x148;" 
d="M198 0h-82v530h78v-51h2q22 29 63 47.5t86 18.5q87 0 138.5 -53.5t51.5 -143.5v-348h-82v322q0 148 -120 148q-63 0 -99 -35t-36 -97v-338zM383 594h-109l-66 85l47 38l74 -92l73 92l47 -38z" />
    <glyph glyph-name="Eng" unicode="&#x14a;" 
d="M160 0h-83v700h78l334 -543h2v543h82v-772q0 -67 -29.5 -97.5t-92.5 -30.5h-41v81h37q28 0 39 13.5t11 48.5v62l-335 538h-2v-543z" />
    <glyph glyph-name="eng" unicode="&#x14b;" 
d="M199 0h-82v530h80v-51h2q49 66 140 66q87 0 140 -57.5t53 -155.5v-402q0 -71 -27.5 -102t-83.5 -31h-37v77h22q24 0 34.5 11.5t10.5 44.5v392q0 70 -32 109t-92 39t-94 -37.5t-34 -101.5v-331z" />
    <glyph glyph-name="Omacron" unicode="&#x14c;" 
d="M325 63q80 0 127.5 74.5t47.5 214.5q0 137 -47 210.5t-128 73.5t-128 -71.5t-47 -208.5q0 -141 47 -217t128 -76zM325 -15q-107 0 -183 84q-82 92 -82 287q0 170 78 265q79 94 187 94t186 -96q79 -95 79 -267q0 -194 -83 -285q-76 -82 -182 -82zM474 765h-288v61h288v-61
z" />
    <glyph glyph-name="omacron" unicode="&#x14d;" 
d="M327 59q68 0 111.5 55.5t43.5 150.5q0 96 -42.5 151t-112.5 55q-71 0 -115 -54.5t-44 -151.5t44 -151.5t115 -54.5zM327 -15q-105 0 -174 74q-69 75 -69 206q0 129 71 205q70 75 172 75q100 0 169 -75q70 -74 70 -205q0 -130 -68 -206q-68 -74 -171 -74zM476 620h-288v61
h288v-61z" />
    <glyph glyph-name="Obreve" unicode="&#x14e;" 
d="M325 63q80 0 127.5 74.5t47.5 214.5q0 137 -47 210.5t-128 73.5t-128 -71.5t-47 -208.5q0 -141 47 -217t128 -76zM325 -15q-107 0 -183 84q-82 92 -82 287q0 170 78 265q79 94 187 94t186 -96q79 -95 79 -267q0 -194 -83 -285q-76 -82 -182 -82zM205 874h44
q10 -58 80 -58q72 0 79 58h46q0 -55 -34.5 -87t-90.5 -32q-57 0 -90.5 31.5t-33.5 87.5z" />
    <glyph glyph-name="obreve" unicode="&#x14f;" 
d="M327 59q68 0 111.5 55.5t43.5 150.5q0 96 -42.5 151t-112.5 55q-71 0 -115 -54.5t-44 -151.5t44 -151.5t115 -54.5zM327 -15q-105 0 -174 74q-69 75 -69 206q0 129 71 205q70 75 172 75q100 0 169 -75q70 -74 70 -205q0 -130 -68 -206q-68 -74 -171 -74zM208 704h44
q10 -58 80 -58q72 0 79 58h46q0 -55 -34.5 -87t-90.5 -32q-57 0 -90.5 31.5t-33.5 87.5z" />
    <glyph glyph-name="Ohungarumlaut" unicode="&#x150;" 
d="M325 63q80 0 127.5 74.5t47.5 214.5q0 137 -47 210.5t-128 73.5t-128 -71.5t-47 -208.5q0 -141 47 -217t128 -76zM325 -15q-107 0 -183 84q-82 92 -82 287q0 170 78 265q79 94 187 94t186 -96q79 -95 79 -267q0 -194 -83 -285q-76 -82 -182 -82zM290 765h-63l75 115h92z
M426 765h-63l75 115h92z" />
    <glyph glyph-name="ohungarumlaut" unicode="&#x151;" 
d="M327 59q68 0 111.5 55.5t43.5 150.5q0 96 -42.5 151t-112.5 55q-71 0 -115 -54.5t-44 -151.5t44 -151.5t115 -54.5zM327 -15q-105 0 -174 74q-69 75 -69 206q0 129 71 205q70 75 172 75q100 0 169 -75q70 -74 70 -205q0 -130 -68 -206q-68 -74 -171 -74zM295 599h-63
l75 115h92zM431 599h-63l75 115h92z" />
    <glyph glyph-name="OE" unicode="&#x152;" 
d="M596 0h-243v47h-2q-29 -62 -95 -62q-71 0 -127 93q-55 92 -55 278q0 170 54 264q56 95 128 95q34 0 59.5 -17.5t35.5 -44.5h2v47h243v-76h-156v-219h128v-73h-128v-256h156v-76zM353 146v407q-9 36 -29.5 58t-49.5 22q-52 0 -81.5 -70t-29.5 -207q0 -149 29.5 -219.5
t81.5 -70.5q59 0 79 80z" />
    <glyph glyph-name="oe" unicode="&#x153;" 
d="M462 -15q-45 0 -79 31.5t-50 88.5h-2q-12 -53 -48 -86.5t-77 -33.5q-66 0 -110 74q-44 76 -44 206q0 131 44 205q45 75 110 75q41 0 77 -33.5t48 -86.5h2q15 55 47.5 87.5t71.5 32.5q67 0 106 -74.5t39 -205.5v-24h-223q2 -72 27 -127q27 -55 63 -55q41 0 62 106l66 -16
q-26 -164 -130 -164zM206 59q34 0 57 56.5t23 149.5t-23 149.5t-57 56.5q-33 0 -55.5 -56t-22.5 -150t22.5 -150t55.5 -56zM376 307h149q0 60 -21 112q-21 53 -52 53q-36 0 -56 -54q-20 -55 -20 -111z" />
    <glyph glyph-name="Racute" unicode="&#x154;" 
d="M201 0h-85v700h222q112 0 174 -53.5t62 -154.5q0 -82 -46.5 -133.5t-127.5 -66.5l156 -292h-93l-152 286h-110v-286zM201 624v-264h132q73 0 114.5 32.5t41.5 99.5q0 132 -158 132h-130zM342 765h-71l79 121h100z" />
    <glyph glyph-name="racute" unicode="&#x155;" 
d="M246 0h-82v530h78v-77h2q18 37 60.5 61.5t90.5 24.5q127 0 170 -127l-80 -34q-23 78 -103 78q-60 0 -98 -44.5t-38 -116.5v-295zM402 595h-71l78 121h100z" />
    <glyph glyph-name="Rcommaaccent" unicode="&#x156;" 
d="M201 0h-85v700h222q112 0 174 -53.5t62 -154.5q0 -82 -46.5 -133.5t-127.5 -66.5l156 -292h-93l-152 286h-110v-286zM201 624v-264h132q73 0 114.5 32.5t41.5 99.5q0 132 -158 132h-130zM274 -229v35q27 4 38 15.5t11 35.5h-50v89h102v-75q0 -49 -24 -73t-77 -27z" />
    <glyph glyph-name="rcommaaccent" unicode="&#x157;" 
d="M246 0h-82v530h78v-77h2q18 37 60.5 61.5t90.5 24.5q127 0 170 -127l-80 -34q-23 78 -103 78q-60 0 -98 -44.5t-38 -116.5v-295zM156 -229v35q27 4 38 15.5t11 35.5h-50v89h102v-75q0 -49 -24 -73t-77 -27z" />
    <glyph glyph-name="Rcaron" unicode="&#x158;" 
d="M201 0h-85v700h222q112 0 174 -53.5t62 -154.5q0 -82 -46.5 -133.5t-127.5 -66.5l156 -292h-93l-152 286h-110v-286zM201 624v-264h132q73 0 114.5 32.5t41.5 99.5q0 132 -158 132h-130zM370 765h-109l-66 85l47 38l74 -92l73 92l47 -38z" />
    <glyph glyph-name="rcaron" unicode="&#x159;" 
d="M246 0h-82v530h78v-77h2q18 37 60.5 61.5t90.5 24.5q127 0 170 -127l-80 -34q-23 78 -103 78q-60 0 -98 -44.5t-38 -116.5v-295zM420 594h-109l-66 85l47 38l74 -92l73 92l47 -38z" />
    <glyph glyph-name="Sacute" unicode="&#x15a;" 
d="M70 241l88 17q15 -105 56 -150t131 -45q69 0 106 34t37 87q0 55 -32 85q-32 31 -144 72q-110 40 -162 82q-48 42 -48 113q0 77 58 128t154 51q90 0 155 -50q66 -50 78 -143l-83 -18q-24 132 -150 132q-59 0 -92.5 -28t-33.5 -72q0 -38 30 -64t132 -63q128 -47 176 -92
q47 -44 47 -129q0 -86 -62 -145q-61 -58 -169 -58q-241 0 -272 256zM355 765h-71l79 121h100z" />
    <glyph glyph-name="sacute" unicode="&#x15b;" 
d="M101 180l78 15q18 -139 169 -139q139 0 139 84q0 40 -29 60q-28 19 -140 48q-122 32 -161 65q-38 34 -37 91q2 56 54 98q52 43 145 43q90 0 146 -39.5t76 -108.5l-73 -24q-34 102 -148 102q-55 0 -87.5 -20.5t-32.5 -48.5q0 -25 7 -35q15 -25 160 -63q136 -35 166 -74
q18 -21 23.5 -39.5t6.5 -54.5q3 -69 -52 -112t-162 -43q-112 0 -175 52.5t-73 142.5zM347 595h-71l78 121h100z" />
    <glyph glyph-name="Scircumflex" unicode="&#x15c;" 
d="M70 241l88 17q15 -105 56 -150t131 -45q69 0 106 34t37 87q0 55 -32 85q-32 31 -144 72q-110 40 -162 82q-48 42 -48 113q0 77 58 128t154 51q90 0 155 -50q66 -50 78 -143l-83 -18q-24 132 -150 132q-59 0 -92.5 -28t-33.5 -72q0 -38 30 -64t132 -63q128 -47 176 -92
q47 -44 47 -129q0 -86 -62 -145q-61 -58 -169 -58q-241 0 -272 256zM245 747l-47 38l66 85h109l66 -85l-48 -38l-73 92z" />
    <glyph glyph-name="scircumflex" unicode="&#x15d;" 
d="M101 180l78 15q18 -139 169 -139q139 0 139 84q0 40 -29 60q-28 19 -140 48q-122 32 -161 65q-38 34 -37 91q2 56 54 98q52 43 145 43q90 0 146 -39.5t76 -108.5l-73 -24q-34 102 -148 102q-55 0 -87.5 -20.5t-32.5 -48.5q0 -25 7 -35q15 -25 160 -63q136 -35 166 -74
q18 -21 23.5 -39.5t6.5 -54.5q3 -69 -52 -112t-162 -43q-112 0 -175 52.5t-73 142.5zM252 582l-47 38l66 85h109l66 -85l-48 -38l-73 92z" />
    <glyph glyph-name="Scedilla" unicode="&#x15e;" 
d="M248 -174l29 40q38 -29 75 -29q60 0 60 45q0 41 -48 41q-36 0 -58 -14l-9 -5l-29 16l39 67q-208 18 -237 254l88 17q15 -105 56 -150t131 -45q69 0 106 34t37 87q0 55 -32 85q-32 31 -144 72q-110 40 -162 82q-48 42 -48 113q0 77 58 128t154 51q90 0 155 -50
q66 -50 78 -143l-83 -18q-24 132 -150 132q-59 0 -92.5 -28t-33.5 -72q0 -38 30 -64t132 -63q128 -47 176 -92q47 -44 47 -129q0 -84 -60 -143t-165 -60l-27 -43q22 14 58 14q37 0 61.5 -20t24.5 -55q0 -42 -30 -67t-86 -25q-55 0 -101 37z" />
    <glyph glyph-name="scedilla" unicode="&#x15f;" 
d="M246 -174l29 40q38 -29 75 -29q60 0 60 45q0 41 -48 41q-36 0 -58 -14l-9 -5l-29 16l39 67q-92 9 -143.5 60.5t-60.5 132.5l78 15q18 -139 169 -139q139 0 139 84q0 40 -29 60q-28 19 -140 48q-122 32 -161 65q-38 34 -37 91q2 56 54 98q52 43 145 43q90 0 146 -39.5
t76 -108.5l-73 -24q-34 102 -148 102q-55 0 -87.5 -20.5t-32.5 -48.5q0 -25 7 -35q15 -25 160 -63q136 -35 166 -74q18 -21 23.5 -39.5t6.5 -54.5q3 -69 -52 -112t-162 -43h-3l-27 -43q22 14 58 14q37 0 61.5 -20t24.5 -55q0 -42 -30 -67t-86 -25q-55 0 -101 37z" />
    <glyph glyph-name="Scaron" unicode="&#x160;" 
d="M70 241l88 17q15 -105 56 -150t131 -45q69 0 106 34t37 87q0 55 -32 85q-32 31 -144 72q-110 40 -162 82q-48 42 -48 113q0 77 58 128t154 51q90 0 155 -50q66 -50 78 -143l-83 -18q-24 132 -150 132q-59 0 -92.5 -28t-33.5 -72q0 -38 30 -64t132 -63q128 -47 176 -92
q47 -44 47 -129q0 -86 -62 -145q-61 -58 -169 -58q-241 0 -272 256zM370 765h-109l-66 85l47 38l74 -92l73 92l47 -38z" />
    <glyph glyph-name="scaron" unicode="&#x161;" 
d="M101 180l78 15q18 -139 169 -139q139 0 139 84q0 40 -29 60q-28 19 -140 48q-122 32 -161 65q-38 34 -37 91q2 56 54 98q52 43 145 43q90 0 146 -39.5t76 -108.5l-73 -24q-34 102 -148 102q-55 0 -87.5 -20.5t-32.5 -48.5q0 -25 7 -35q15 -25 160 -63q136 -35 166 -74
q18 -21 23.5 -39.5t6.5 -54.5q3 -69 -52 -112t-162 -43q-112 0 -175 52.5t-73 142.5zM380 594h-109l-66 85l47 38l74 -92l73 92l47 -38z" />
    <glyph glyph-name="Tcommaaccent" unicode="&#x162;" 
d="M367 0h-84v624h-236v76h555v-76h-235v-624zM275 -229v35q27 4 38 15.5t11 35.5h-50v89h102v-75q0 -49 -24 -73t-77 -27z" />
    <glyph glyph-name="tcommaaccent" unicode="&#x163;" 
d="M264 154v303h-169v73h170v130h80v-130h191v-73h-190v-293q0 -48 13.5 -66.5t51.5 -18.5h90v-79h-94q-74 0 -108.5 38t-34.5 116zM310 -229v35q27 4 38 15.5t11 35.5h-50v89h102v-75q0 -49 -24 -73t-77 -27z" />
    <glyph glyph-name="Tcaron" unicode="&#x164;" 
d="M367 0h-84v624h-236v76h555v-76h-235v-624zM380 765h-109l-66 85l47 38l74 -92l73 92l47 -38z" />
    <glyph glyph-name="tcaron" unicode="&#x165;" 
d="M264 154v303h-169v73h170v130h80v-130h191v-73h-190v-293q0 -48 13.5 -66.5t51.5 -18.5h90v-79h-94q-74 0 -108.5 38t-34.5 116zM485 579h-56l29 151h79z" />
    <glyph glyph-name="Tbar" unicode="&#x166;" 
d="M366 0h-82v323h-137v73h137v228h-217v76h515v-76h-216v-228h137v-73h-137v-323z" />
    <glyph glyph-name="tbar" unicode="&#x167;" 
d="M264 154v109h-162v73h162v121h-169v73h170v130h80v-130h191v-73h-190v-121h186v-73h-186v-99q0 -48 13.5 -66.5t51.5 -18.5h90v-79h-94q-74 0 -108.5 38t-34.5 116z" />
    <glyph glyph-name="Utilde" unicode="&#x168;" 
d="M74 228v472h85v-466q0 -171 165 -171q82 0 124.5 43.5t42.5 125.5v468h84v-472q0 -118 -65.5 -180.5t-185.5 -62.5q-119 0 -184.5 62.5t-65.5 180.5zM236 765h-44q16 93 89 93q28 0 62 -19q35 -18 52 -18q28 0 36 32h44q-17 -93 -88 -93q-28 0 -64 18q-34 19 -51 19
q-28 0 -36 -32z" />
    <glyph glyph-name="utilde" unicode="&#x169;" 
d="M120 185v345h82v-333q0 -74 28.5 -105t94.5 -31q60 0 92 37t32 103v329h82v-530h-81v51h-2q-4 -7 -15 -18q-12 -12 -47 -30q-36 -18 -79 -18q-89 0 -138 51t-49 149zM234 602h-44q18 94 89 94q28 0 62 -19t52 -19q29 0 36 33h44q-18 -94 -88 -94q-29 0 -64 19
q-34 19 -51 19q-28 0 -36 -33z" />
    <glyph glyph-name="Umacron" unicode="&#x16a;" 
d="M74 228v472h85v-466q0 -171 165 -171q82 0 124.5 43.5t42.5 125.5v468h84v-472q0 -118 -65.5 -180.5t-185.5 -62.5q-119 0 -184.5 62.5t-65.5 180.5zM475 765h-288v61h288v-61z" />
    <glyph glyph-name="umacron" unicode="&#x16b;" 
d="M120 185v345h82v-333q0 -74 28.5 -105t94.5 -31q60 0 92 37t32 103v329h82v-530h-81v51h-2q-4 -7 -15 -18q-12 -12 -47 -30q-36 -18 -79 -18q-89 0 -138 51t-49 149zM474 620h-288v61h288v-61z" />
    <glyph glyph-name="Ubreve" unicode="&#x16c;" 
d="M74 228v472h85v-466q0 -171 165 -171q82 0 124.5 43.5t42.5 125.5v468h84v-472q0 -118 -65.5 -180.5t-185.5 -62.5q-119 0 -184.5 62.5t-65.5 180.5zM207 874h44q10 -58 80 -58q72 0 79 58h46q0 -55 -34.5 -87t-90.5 -32q-57 0 -90.5 31.5t-33.5 87.5z" />
    <glyph glyph-name="ubreve" unicode="&#x16d;" 
d="M120 185v345h82v-333q0 -74 28.5 -105t94.5 -31q60 0 92 37t32 103v329h82v-530h-81v51h-2q-4 -7 -15 -18q-12 -12 -47 -30q-36 -18 -79 -18q-89 0 -138 51t-49 149zM207 704h44q10 -58 80 -58q72 0 79 58h46q0 -55 -34.5 -87t-90.5 -32q-57 0 -90.5 31.5t-33.5 87.5z
" />
    <glyph glyph-name="Uring" unicode="&#x16e;" 
d="M74 228v472h85v-466q0 -171 165 -171q82 0 124.5 43.5t42.5 125.5v468h84v-472q0 -118 -65.5 -180.5t-185.5 -62.5q-119 0 -184.5 62.5t-65.5 180.5zM239 786q0 42 28 72t70 30t70 -29.5t28 -72.5q0 -44 -27.5 -73t-70.5 -29q-42 0 -70 29.5t-28 72.5zM337 729
q21 0 34.5 15.5t13.5 42.5t-13.5 42t-34.5 15t-34 -15t-13 -42t13.5 -42.5t33.5 -15.5z" />
    <glyph glyph-name="uring" unicode="&#x16f;" 
d="M120 185v345h82v-333q0 -74 28.5 -105t94.5 -31q60 0 92 37t32 103v329h82v-530h-81v51h-2q-4 -7 -15 -18q-12 -12 -47 -30q-36 -18 -79 -18q-89 0 -138 51t-49 149zM231 625q0 42 28 72t70 30t70 -29.5t28 -72.5q0 -45 -27.5 -73.5t-70.5 -28.5t-70.5 29t-27.5 73z
M329 567q21 0 34.5 16t13.5 43q0 39 -30 52t-52 -10q-13 -13 -13 -42q0 -27 13.5 -43t33.5 -16z" />
    <glyph glyph-name="Uhungarumlaut" unicode="&#x170;" 
d="M74 228v472h85v-466q0 -171 165 -171q82 0 124.5 43.5t42.5 125.5v468h84v-472q0 -118 -65.5 -180.5t-185.5 -62.5q-119 0 -184.5 62.5t-65.5 180.5zM296 765h-63l75 115h92zM432 765h-63l75 115h92z" />
    <glyph glyph-name="uhungarumlaut" unicode="&#x171;" 
d="M120 185v345h82v-333q0 -74 28.5 -105t94.5 -31q60 0 92 37t32 103v329h82v-530h-81v51h-2q-4 -7 -15 -18q-12 -12 -47 -30q-36 -18 -79 -18q-89 0 -138 51t-49 149zM290 611h-63l75 115h92zM426 611h-63l75 115h92z" />
    <glyph glyph-name="Uogonek" unicode="&#x172;" 
d="M427 -119l32 -28q-51 -64 -123 -64q-43 0 -69.5 18t-26.5 56q0 67 76 122q-116 2 -179 64t-63 179v472h85v-466q0 -171 165 -171q82 0 124.5 43.5t42.5 125.5v468h84v-472q0 -102 -49.5 -163t-141.5 -75q-69 -65 -69 -107q0 -39 46 -39q35 0 66 37z" />
    <glyph glyph-name="uogonek" unicode="&#x173;" 
d="M563 -119l32 -28q-51 -64 -123 -64q-43 0 -69.5 18t-26.5 56q0 76 99 137h-25v51h-2q-4 -7 -15 -18q-12 -12 -47 -30q-36 -18 -79 -18q-89 0 -138 51t-49 149v345h82v-333q0 -74 28.5 -105t94.5 -31q60 0 92 37t32 103v329h82v-530q-80 -72 -80 -117q0 -39 46 -39
q35 0 66 37z" />
    <glyph glyph-name="Wcircumflex" unicode="&#x174;" 
d="M234 0h-98l-79 700h85l55 -578h2l100 408h53l99 -408h2l55 578h85l-79 -700h-97l-91 370h-2zM254 747l-47 38l66 85h109l66 -85l-48 -38l-73 92z" />
    <glyph glyph-name="wcircumflex" unicode="&#x175;" 
d="M238 0h-76l-87 529h81l55 -399h2l71 229h74l69 -229h2l65 399h80l-97 -529h-75l-81 262h-2zM246 582l-47 38l66 85h109l66 -85l-48 -38l-73 92z" />
    <glyph glyph-name="Ycircumflex" unicode="&#x176;" 
d="M367 0h-84v295l-231 405h94l178 -325h2l178 325h94l-231 -405v-295zM252 747l-47 38l66 85h109l66 -85l-48 -38l-73 92z" />
    <glyph glyph-name="ycircumflex" unicode="&#x177;" 
d="M259 -225h-83l100 265l-206 490h88l157 -385h2l141 385h86zM266 582l-47 38l66 85h109l66 -85l-48 -38l-73 92z" />
    <glyph glyph-name="Ydieresis" unicode="&#x178;" 
d="M367 0h-84v295l-231 405h94l178 -325h2l178 325h94l-231 -405v-295zM275 765h-91v91h91v-91zM467 765h-91v91h91v-91z" />
    <glyph glyph-name="Zacute" unicode="&#x179;" 
d="M565 0h-488v68l392 554v2h-374v76h478v-68l-393 -553v-2h385v-77zM349 765h-71l79 121h100z" />
    <glyph glyph-name="zacute" unicode="&#x17a;" 
d="M547 0h-442v64l333 389v2h-314v75h422v-62l-330 -390v-2h331v-76zM350 595h-71l78 121h100z" />
    <glyph glyph-name="Zdotaccent" unicode="&#x17b;" 
d="M565 0h-488v68l392 554v2h-374v76h478v-68l-393 -553v-2h385v-77zM364 765h-97v97h97v-97z" />
    <glyph glyph-name="zdotaccent" unicode="&#x17c;" 
d="M547 0h-442v64l333 389v2h-314v75h422v-62l-330 -390v-2h331v-76zM371 608h-97v96h97v-96z" />
    <glyph glyph-name="Zcaron" unicode="&#x17d;" 
d="M565 0h-488v68l392 554v2h-374v76h478v-68l-393 -553v-2h385v-77zM388 765h-109l-66 85l47 38l74 -92l73 92l47 -38z" />
    <glyph glyph-name="zcaron" unicode="&#x17e;" 
d="M547 0h-442v64l333 389v2h-314v75h422v-62l-330 -390v-2h331v-76zM385 594h-109l-66 85l47 38l74 -92l73 92l47 -38z" />
    <glyph glyph-name="longs" unicode="&#x17f;" 
d="M410 0h-81v457h-161v73h162v56q0 61 29 87.5t86 26.5h126v-73h-111q-30 0 -40.5 -12t-10.5 -50z" />
    <glyph glyph-name="florin" unicode="&#x192;" 
d="M258 -173h-80l99 572h-98l12 66h98l25 132q28 148 141 148q65 0 117 -57l-49 -57q-33 38 -62 38t-45 -19t-25 -66l-22 -119h144l-11 -66h-144z" />
    <glyph glyph-name="Aringacute" unicode="&#x1fa;" 
d="M600 0h-87l-47 137h-287l-43 -137h-87l230 695q-51 27 -51 91q0 39 24.5 68t62.5 33l58 89h100l-93 -104q44 -29 44 -86q0 -68 -54 -93zM202 209h240l-117 380h-2zM326 729q21 0 34.5 15.5t13.5 42.5t-13.5 42t-34.5 15t-34 -15t-13 -42t13.5 -42.5t33.5 -15.5z" />
    <glyph glyph-name="aringacute" unicode="&#x1fb;" 
d="M534 0h-74v58h-2q-17 -29 -60 -51t-102 -22q-86 0 -133.5 42t-47.5 109q0 66 41.5 103.5t138.5 62.5q88 22 120 40.5t32 52.5t-30.5 55.5t-80.5 21.5q-106 0 -129 -105l-76 22q10 57 46.5 96t95.5 53q-44 29 -44 87q0 39 25 68t63 33l56 87h100l-91 -103q43 -28 43 -85
t-40 -85q68 -12 108.5 -55.5t40.5 -106.5v-378zM314 239q-67 -18 -92 -40t-25 -58q0 -83 105 -83q70 0 110 31.5t40 80.5v132h-2q-13 -28 -136 -63zM327 567q21 0 34.5 16t13.5 43q0 39 -30 52t-52 -10q-13 -13 -13 -42q0 -27 13.5 -43t33.5 -16z" />
    <glyph glyph-name="AEacute" unicode="&#x1fc;" 
d="M120 0h-85l263 700h301v-76h-166v-227h138v-73h-138v-248h166v-76h-244v149h-180zM353 634l-153 -413h155v413h-2zM389 765h-71l79 121h100z" />
    <glyph glyph-name="aeacute" unicode="&#x1fd;" 
d="M169 302q57 24 79.5 44.5t22.5 46.5q0 34 -18.5 57t-47.5 23q-63 0 -75 -103l-67 14q4 70 45 115q40 46 96 46q44 0 77.5 -23.5t47.5 -68.5q44 92 122 92q71 0 112 -74t41 -206v-24h-250q2 -77 27 -129q27 -53 75 -53q38 0 58 41q14 31 24 71l65 -24q-15 -74 -53.5 -118
t-91.5 -44q-93 0 -140 113q-39 -113 -146 -113q-57 0 -91.5 42.5t-34.5 109.5q0 114 123 165zM356 307h174q0 64 -20 115q-20 50 -58 50q-33 0 -56 -29q-40 -50 -40 -136zM187 242q-66 -38 -66 -101q0 -38 16.5 -60.5t46.5 -22.5q38 0 65 33q27 34 27 79v135h-2
q-2 -11 -19.5 -23.5t-67.5 -39.5zM249 595h-71l78 121h100z" />
    <glyph glyph-name="Oslashacute" unicode="&#x1fe;" 
d="M325 -15q-88 0 -152 53l-30 -53l-41 23l37 66q-77 98 -77 282q0 170 77 265q78 94 186 94q82 0 148 -57l33 57l41 -24l-40 -69q81 -99 81 -270q0 -188 -76 -277q-76 -90 -187 -90zM325 63q80 0 127.5 74.5t47.5 214.5q0 119 -37 192l-247 -431q44 -50 109 -50zM150 356
q0 -126 37 -199l246 431q-43 48 -108 48q-81 0 -128 -71.5t-47 -208.5zM375 765h-71l79 121h100z" />
    <glyph glyph-name="oslashacute" unicode="&#x1ff;" 
d="M376 595h-71l78 121h100zM327 -15q-91 0 -152 54l-39 -50l-33 25l43 55q-60 73 -60 196q0 131 70 205q70 75 171 75q84 0 147 -54l39 50l33 -26l-43 -55q61 -74 61 -195q0 -133 -67 -206q-68 -74 -170 -74zM327 59q68 0 112 55.5t44 150.5q0 79 -30 131l-230 -296
q44 -41 104 -41zM167 265q0 -79 30 -131l230 296q-41 41 -100 41q-72 0 -116 -54.5t-44 -151.5z" />
    <glyph glyph-name="Scommaaccent" unicode="&#x218;" 
d="M70 241l88 17q15 -105 56 -150t131 -45q69 0 106 34t37 87q0 55 -32 85q-32 31 -144 72q-110 40 -162 82q-48 42 -48 113q0 77 58 128t154 51q90 0 155 -50q66 -50 78 -143l-83 -18q-24 132 -150 132q-59 0 -92.5 -28t-33.5 -72q0 -38 30 -64t132 -63q128 -47 176 -92
q47 -44 47 -129q0 -86 -62 -145q-61 -58 -169 -58q-241 0 -272 256zM301 -229v35q27 4 38 15.5t11 35.5h-50v89h102v-75q0 -49 -24 -73t-77 -27z" />
    <glyph glyph-name="scommaaccent" unicode="&#x219;" 
d="M101 180l78 15q18 -139 169 -139q139 0 139 84q0 40 -29 60q-28 19 -140 48q-122 32 -161 65q-38 34 -37 91q2 56 54 98q52 43 145 43q90 0 146 -39.5t76 -108.5l-73 -24q-34 102 -148 102q-55 0 -87.5 -20.5t-32.5 -48.5q0 -25 7 -35q15 -25 160 -63q136 -35 166 -74
q18 -21 23.5 -39.5t6.5 -54.5q3 -69 -52 -112t-162 -43q-112 0 -175 52.5t-73 142.5zM295 -229v35q27 4 38 15.5t11 35.5h-50v89h102v-75q0 -49 -24 -73t-77 -27z" />
    <glyph glyph-name="dotlessj" unicode="&#x237;" 
d="M380 457h-203v73h285v-553q0 -82 -47 -127t-122 -45q-53 0 -94 24q-39 22 -57 46l52 58q45 -54 99 -54q87 0 87 98v480z" />
    <glyph glyph-name="circumflex" unicode="&#x2c6;" 
d="M251 582l-47 38l66 85h109l66 -85l-48 -38l-73 92z" />
    <glyph glyph-name="caron" unicode="&#x2c7;" 
d="M379 594h-109l-66 85l47 38l74 -92l73 92l47 -38z" />
    <glyph glyph-name="breve" unicode="&#x2d8;" 
d="M200 704h44q10 -58 80 -58q72 0 79 58h46q0 -55 -34.5 -87t-90.5 -32q-57 0 -90.5 31.5t-33.5 87.5z" />
    <glyph glyph-name="dotaccent" unicode="&#x2d9;" 
d="M373 608h-97v96h97v-96z" />
    <glyph glyph-name="ring" unicode="&#x2da;" 
d="M227 625q0 42 28 72t70 30t70 -29.5t28 -72.5q0 -45 -27.5 -73.5t-70.5 -28.5t-70.5 29t-27.5 73zM325 567q21 0 34.5 16t13.5 43q0 39 -30 52t-52 -10q-13 -13 -13 -42q0 -27 13.5 -43t33.5 -16z" />
    <glyph glyph-name="ogonek" unicode="&#x2db;" 
d="M402 -119l32 -28q-51 -64 -123 -64q-43 0 -69.5 18t-26.5 56q0 76 99 137h56q-80 -72 -80 -117q0 -39 46 -39q35 0 66 37z" />
    <glyph glyph-name="tilde" unicode="&#x2dc;" 
d="M227 602h-44q18 94 89 94q28 0 62 -19t52 -19q28 0 36 33h44q-18 -94 -88 -94q-29 0 -64 19q-34 19 -51 19q-29 0 -36 -33z" />
    <glyph glyph-name="hungarumlaut" unicode="&#x2dd;" 
d="M236 595h-63l75 115h92zM372 595h-63l75 115h92z" />
    <glyph glyph-name="uni0312" unicode="&#x312;" 
d="M366 777v-32q-36 -5 -36 -45h41v-91h-93v78q0 83 88 90z" />
    <glyph glyph-name="pi" unicode="&#x3c0;" 
d="M194 86l-24 -86h-85l10 35q4 12 23 93t29 140q11 60 23 167q11 102 11 184h-108v81h504v-81h-79v-470q0 -93 13 -149h-81q-17 31 -17 143v476h-147q0 -137 -24 -292q-24 -157 -48 -241z" />
    <glyph glyph-name="Wgrave" unicode="&#x1e80;" 
d="M234 0h-98l-79 700h85l55 -578h2l100 408h53l99 -408h2l55 578h85l-79 -700h-97l-91 370h-2zM361 765h-71l-108 121h101z" />
    <glyph glyph-name="wgrave" unicode="&#x1e81;" 
d="M238 0h-76l-87 529h81l55 -399h2l71 229h74l69 -229h2l65 399h80l-97 -529h-75l-81 262h-2zM351 595h-71l-108 121h101z" />
    <glyph glyph-name="Wacute" unicode="&#x1e82;" 
d="M234 0h-98l-79 700h85l55 -578h2l100 408h53l99 -408h2l55 578h85l-79 -700h-97l-91 370h-2zM357 765h-71l79 121h100z" />
    <glyph glyph-name="wacute" unicode="&#x1e83;" 
d="M238 0h-76l-87 529h81l55 -399h2l71 229h74l69 -229h2l65 399h80l-97 -529h-75l-81 262h-2zM359 595h-71l78 121h100z" />
    <glyph glyph-name="Wdieresis" unicode="&#x1e84;" 
d="M234 0h-98l-79 700h85l55 -578h2l100 408h53l99 -408h2l55 578h85l-79 -700h-97l-91 370h-2zM274 765h-91v91h91v-91zM466 765h-91v91h91v-91z" />
    <glyph glyph-name="wdieresis" unicode="&#x1e85;" 
d="M238 0h-76l-87 529h81l55 -399h2l71 229h74l69 -229h2l65 399h80l-97 -529h-75l-81 262h-2zM275 611h-91v91h91v-91zM467 611h-91v91h91v-91z" />
    <glyph glyph-name="Ygrave" unicode="&#x1ef2;" 
d="M367 0h-84v295l-231 405h94l178 -325h2l178 325h94l-231 -405v-295zM362 765h-71l-108 121h101z" />
    <glyph glyph-name="ygrave" unicode="&#x1ef3;" 
d="M259 -225h-83l100 265l-206 490h88l157 -385h2l141 385h86zM373 595h-71l-108 121h101z" />
    <glyph glyph-name="endash" unicode="&#x2013;" 
d="M574 305h-499v73h499v-73z" />
    <glyph glyph-name="emdash" unicode="&#x2014;" 
d="M610 305h-570v73h570v-73z" />
    <glyph glyph-name="quoteleft" unicode="&#x2018;" 
d="M334 524v-45q-118 7 -118 121v103h118v-118h-48q0 -52 48 -61z" />
    <glyph glyph-name="quoteright" unicode="&#x2019;" 
d="M266 479v45q48 9 48 61h-48v118h118v-103q0 -114 -118 -121z" />
    <glyph glyph-name="quotesinglbase" unicode="&#x201a;" 
d="M266 -106v45q48 9 48 61h-48v118h118v-103q0 -114 -118 -121z" />
    <glyph glyph-name="quotedblleft" unicode="&#x201c;" 
d="M243 524v-45q-118 7 -118 121v103h118v-118h-48q0 -52 48 -61zM424 524v-45q-118 7 -118 121v103h118v-118h-48q0 -52 48 -61z" />
    <glyph glyph-name="quotedblright" unicode="&#x201d;" 
d="M175 479v45q48 9 48 61h-48v118h118v-103q0 -114 -118 -121zM356 479v45q48 9 48 61h-48v118h118v-103q0 -114 -118 -121z" />
    <glyph glyph-name="quotedblbase" unicode="&#x201e;" 
d="M175 -106v45q48 9 48 61h-48v118h118v-103q0 -114 -118 -121zM356 -106v45q48 9 48 61h-48v118h118v-103q0 -114 -118 -121z" />
    <glyph glyph-name="dagger" unicode="&#x2020;" 
d="M364 -225h-78v653h-219v73h219v229h78v-229h219v-73h-219v-653z" />
    <glyph glyph-name="daggerdbl" unicode="&#x2021;" 
d="M364 -225h-78v225h-219v69h219v363h-219v69h219v229h78v-229h219v-69h-219v-363h219v-69h-219v-225z" />
    <glyph glyph-name="bullet" unicode="&#x2022;" 
d="M234 358q0 41 25 67t66 26t66 -26t25 -67q0 -40 -25 -66t-66 -26t-66 26t-25 66z" />
    <glyph glyph-name="ellipsis" unicode="&#x2026;" 
d="M184 0h-118v118h118v-118zM387 0h-118v118h118v-118zM584 0h-118v118h118v-118z" />
    <glyph glyph-name="perthousand" unicode="&#x2030;" 
d="M480 -160q-64 0 -102 60q-36 -60 -100 -60q-63 0 -99 55.5t-36 153.5q0 94 40 144q40 52 95 52q61 0 101 -61q39 61 101 61q55 0 95 -52q41 -52 41 -144q0 -96 -36.5 -152.5t-99.5 -56.5zM34 668q0 94 40 144q40 52 95 52t95 -52q41 -52 41 -144q0 -96 -36.5 -152.5
t-99.5 -56.5t-99 55.5t-36 153.5zM547 48q0 133 -67 133q-66 0 -66 -133q0 -68 17 -106.5t49 -38.5t49.5 39t17.5 106zM236 667q0 133 -67 133q-66 0 -66 -133q0 -68 17 -106.5t49 -38.5t49.5 39t17.5 106zM278 -97q62 0 67 136v20q-3 122 -67 122q-66 0 -66 -133
q0 -68 17 -106.5t49 -38.5zM444 438l-372 -216l-34 60l372 216z" />
    <glyph glyph-name="guilsinglleft" unicode="&#x2039;" 
d="M420 95h-81l-110 186l109 186h80l-109 -186z" />
    <glyph glyph-name="guilsinglright" unicode="&#x203a;" 
d="M261 467l109 -186l-110 -186h-81l111 186l-109 186h80z" />
    <glyph glyph-name="fraction" unicode="&#x2044;" 
d="M540 320h-430v60h430v-60z" />
    <glyph glyph-name="zerosuperior" unicode="&#x2070;" 
d="M166 692q0 102 43 157.5t116 55.5t116 -55.5t43 -157.5q0 -110 -42.5 -167t-116.5 -57t-116.5 57t-42.5 167zM325 530q90 0 90 163q0 4 -0.5 16t-0.5 15l-169 -123q20 -71 80 -71zM235 693q0 -28 1 -35l167 122q-21 63 -78 63q-90 0 -90 -150z" />
    <glyph glyph-name="foursuperior" unicode="&#x2074;" 
d="M362 572h-192v61l162 267h95v-267h52v-61h-52v-99h-65v99zM360 844l-129 -211h131v211h-2z" />
    <glyph glyph-name="fivesuperior" unicode="&#x2075;" 
d="M170 582l61 27q23 -80 96 -80q40 0 64.5 24t24.5 66t-24 65.5t-63 23.5q-57 0 -91 -48l-54 25l38 215h215v-61h-165l-21 -116h2q30 37 92 37q56 0 95 -40q40 -40 40 -102q0 -68 -43 -109t-110 -41q-59 0 -99 30.5t-58 83.5z" />
    <glyph glyph-name="sixsuperior" unicode="&#x2076;" 
d="M335 702q-38 0 -62.5 -24t-24.5 -58q0 -41 25 -66q26 -24 65 -24q40 0 61 23q22 23 22 63t-22.5 63t-63.5 23zM233 697h2q10 23 40.5 40.5t74.5 17.5q52 0 93 -38t41 -103q0 -67 -41 -106.5t-105 -39.5q-78 0 -125 55t-47 158q0 96 46 160t123 64q55 0 89.5 -29.5
t43.5 -77.5l-60 -17q-18 65 -76 65q-43 0 -71 -41t-28 -108z" />
    <glyph glyph-name="sevensuperior" unicode="&#x2077;" 
d="M277 473h-74l200 365v2h-220v60h282v-73z" />
    <glyph glyph-name="eightsuperior" unicode="&#x2078;" 
d="M275 831q-17 -18 -17 -42.5t16 -42.5q17 -17 50 -17q32 0 49 17t17 42t-17 43q-16 18 -49 18q-32 0 -49 -18zM251 703v2q-56 24 -56 89q0 47 36.5 79t92.5 32t93.5 -32.5t37.5 -78.5q0 -63 -56 -89v-2q33 -11 53.5 -40t20.5 -67q0 -59 -40.5 -93.5t-108.5 -34.5
q-67 0 -107.5 34.5t-40.5 93.5q0 38 20.5 67t54.5 40zM240 602q0 -33 21.5 -52.5t62.5 -19.5t62.5 19.5t21.5 52.5q0 34 -22.5 55t-61.5 21t-61.5 -21t-22.5 -55z" />
    <glyph glyph-name="ninesuperior" unicode="&#x2079;" 
d="M186 572l60 21q17 -65 83 -65q90 0 88 146h-2q-4 -20 -33.5 -38t-71.5 -18q-56 0 -98 39q-41 39 -41 103q0 66 42 105q41 40 103 40q74 0 118.5 -56.5t44.5 -164.5t-40 -162t-113 -54q-111 0 -140 104zM319 675q39 0 61.5 21.5t22.5 59.5q0 39 -24 64t-63 25
q-36 0 -59 -23t-23 -62t23 -62t62 -23z" />
    <glyph glyph-name="plussuperior" unicode="&#x207a;" 
d="M356 515h-63v155h-136v59h136v138h63v-138h137v-59h-137v-155z" />
    <glyph glyph-name="minussuperior" unicode="&#x207b;" 
d="M478 670h-306v59h306v-59z" />
    <glyph glyph-name="zeroinferior" unicode="&#x2080;" 
d="M166 19q0 102 43 157.5t116 55.5t116 -55.5t43 -157.5q0 -110 -42.5 -167t-116.5 -57t-116.5 57t-42.5 167zM325 -143q90 0 90 163q0 4 -0.5 16t-0.5 15l-169 -123q20 -71 80 -71zM235 20q0 -28 1 -35l167 122q-21 63 -78 63q-90 0 -90 -150z" />
    <glyph glyph-name="oneinferior" unicode="&#x2081;" 
d="M469 -200h-288v62h116v288l-92 -57v73l98 61h59v-365h107v-62z" />
    <glyph glyph-name="twoinferior" unicode="&#x2082;" 
d="M471 -200h-288v52q0 52 26 90q19 25 94 64l34 19q9 3 40 25q27 22 28 57q0 28 -20 47t-55 19q-79 0 -87 -92l-64 8q4 68 44 105.5t107 37.5q62 0 100 -35.5t38 -93.5q0 -47 -27.5 -76.5t-86.5 -59.5q-77 -41 -88 -58q-10 -13 -10 -43h215v-66z" />
    <glyph glyph-name="threeinferior" unicode="&#x2083;" 
d="M172 -59l65 14q12 -100 93 -100q41 0 62.5 19t21.5 52q0 35 -23 54t-65 19h-26v53h20q32 0 54 14.5t22 42.5q0 29 -18 46t-51 17q-61 0 -72 -71l-62 12q5 55 42 87t94 32t93.5 -31.5t36.5 -82.5q0 -33 -17 -55t-41 -30v-2q32 -10 54 -38t22 -71q0 -56 -40 -91.5
t-107 -35.5q-66 0 -107.5 37t-50.5 109z" />
    <glyph glyph-name="fourinferior" unicode="&#x2084;" 
d="M362 -101h-192v61l162 267h95v-267h52v-61h-52v-99h-65v99zM360 171l-129 -211h131v211h-2z" />
    <glyph glyph-name="fiveinferior" unicode="&#x2085;" 
d="M170 -91l61 27q23 -80 96 -80q40 0 64.5 24t24.5 66t-24 65.5t-63 23.5q-57 0 -91 -48l-54 25l38 215h215v-61h-165l-21 -116h2q30 37 92 37q56 0 95 -40q40 -40 40 -102q0 -68 -43 -109t-110 -41q-59 0 -99 30.5t-58 83.5z" />
    <glyph glyph-name="sixinferior" unicode="&#x2086;" 
d="M335 28q-38 0 -62.5 -24t-24.5 -58q0 -41 25 -65q25 -25 65 -25t61 24q22 22 22 62t-22.5 63t-63.5 23zM233 23h2q10 23 40.5 40.5t74.5 17.5q52 0 93 -38t41 -103q0 -67 -41 -106.5t-105 -39.5q-78 0 -125 55t-47 158q0 96 46 160t123 64q55 0 89.5 -29.5t43.5 -77.5
l-60 -17q-18 65 -76 65q-43 0 -71 -41t-28 -108z" />
    <glyph glyph-name="seveninferior" unicode="&#x2087;" 
d="M277 -200h-74l200 365v2h-220v60h282v-73z" />
    <glyph glyph-name="eightinferior" unicode="&#x2088;" 
d="M275 158q-17 -18 -17 -42.5t16 -42.5q17 -17 50 -17q32 0 49 17t17 42t-17 43t-49 18t-49 -18zM251 30v2q-56 24 -56 89q0 47 36.5 79t92.5 32t93.5 -32.5t37.5 -78.5q0 -63 -56 -89v-2q33 -11 53.5 -40t20.5 -67q0 -59 -40.5 -93.5t-108.5 -34.5q-67 0 -107.5 34.5
t-40.5 93.5q0 38 20.5 67t54.5 40zM240 -71q0 -33 21.5 -52.5t62.5 -19.5t62.5 19.5t21.5 52.5q0 34 -22.5 55t-61.5 21t-61.5 -21t-22.5 -55z" />
    <glyph glyph-name="nineinferior" unicode="&#x2089;" 
d="M186 -101l60 21q17 -65 83 -65q90 0 88 146h-2q-4 -20 -33.5 -38t-71.5 -18q-56 0 -98 39q-41 39 -41 103q0 66 42 105q41 40 103 40q74 0 118.5 -56.5t44.5 -164.5t-40 -162t-113 -54q-111 0 -140 104zM319 2q39 0 61.5 21.5t22.5 59.5q0 39 -24 64t-63 25
q-36 0 -59 -23t-23 -62t23 -62t62 -23z" />
    <glyph glyph-name="Euro" unicode="&#x20ac;" 
d="M415 389h-219v-33q0 -8 2 -54h217v-67h-209q15 -85 53.5 -128.5t95.5 -43.5q62 0 97 53t41 144l87 -11q-7 -121 -69 -193q-60 -71 -156 -71q-91 0 -154.5 63.5t-83.5 186.5h-47v67h40q-2 46 -2 54q0 26 1 33h-39v67h45q19 124 86 192q66 67 154 67q91 0 151 -68
q61 -67 72 -176l-84 -15q-10 84 -45 132t-94 48q-58 0 -97.5 -45.5t-54.5 -134.5h212v-67z" />
    <glyph glyph-name="trademark" unicode="&#x2122;" 
d="M201 361h-56v286h-74v53h198v-53h-68v-286zM354 361h-56v339h77l54 -132h2l53 132h78v-339h-56v263h-2l-54 -138h-40l-54 137h-2v-262z" />
    <glyph glyph-name="Omega" unicode="&#x2126;" 
d="M280 0h-221v70h122q-55 38 -90 116q-35 81 -35 175q0 172 76 263t193 91q116 0 192 -91q77 -92 77 -263q0 -95 -36 -175q-34 -78 -90 -116h123v-70h-231v67q63 13 105 87t42 193q0 141 -49.5 215.5t-132.5 74.5q-82 0 -132 -75t-50 -215q0 -119 39 -193q41 -74 98 -87
v-67z" />
    <glyph glyph-name="onethird" unicode="&#x2153;" 
d="M173 -47l65 14q12 -100 93 -100q41 0 62.5 19t21.5 52q0 35 -23 54t-65 19h-26v53h20q32 0 54 14.5t22 42.5q0 29 -18 46t-51 17q-61 0 -72 -71l-62 12q5 55 42 87t94 32t93.5 -31.5t36.5 -82.5q0 -33 -17 -55t-41 -30v-2q32 -10 54 -38t22 -71q0 -56 -40 -91.5
t-107 -35.5q-66 0 -107.5 37t-50.5 109zM540 319h-430v60h430v-60zM469 463h-288v62h116v288l-92 -57v73l98 61h59v-365h107v-62z" />
    <glyph glyph-name="twothirds" unicode="&#x2154;" 
d="M540 320h-430v60h430v-60zM471 463h-288v52q0 52 26 90q19 25 94 64l34 19q9 3 40 25q27 22 28 57q0 28 -20 47t-55 19q-79 0 -87 -92l-64 8q4 68 44 105.5t107 37.5q62 0 100 -35.5t38 -93.5q0 -47 -27.5 -76.5t-86.5 -59.5q-77 -41 -88 -58q-10 -13 -10 -43h215v-66z
M173 -47l65 14q12 -100 93 -100q41 0 62.5 19t21.5 52q0 35 -23 54t-65 19h-26v53h20q32 0 54 14.5t22 42.5q0 29 -18 46t-51 17q-61 0 -72 -71l-62 12q5 55 42 87t94 32t93.5 -31.5t36.5 -82.5q0 -33 -17 -55t-41 -30v-2q32 -10 54 -38t22 -71q0 -56 -40 -91.5t-107 -35.5
q-66 0 -107.5 37t-50.5 109z" />
    <glyph glyph-name="onefifth" unicode="&#x2155;" 
d="M170 -79l61 27q23 -80 96 -80q40 0 64.5 24t24.5 66t-24 65.5t-63 23.5q-57 0 -91 -48l-54 25l38 215h215v-61h-165l-21 -116h2q30 37 92 37q56 0 95 -40q40 -40 40 -102q0 -68 -43 -109t-110 -41q-59 0 -99 30.5t-58 83.5zM540 319h-430v60h430v-60zM469 463h-288v62
h116v288l-92 -57v73l98 61h59v-365h107v-62z" />
    <glyph glyph-name="twofifths" unicode="&#x2156;" 
d="M170 -79l61 27q23 -80 96 -80q40 0 64.5 24t24.5 66t-24 65.5t-63 23.5q-57 0 -91 -48l-54 25l38 215h215v-61h-165l-21 -116h2q30 37 92 37q56 0 95 -40q40 -40 40 -102q0 -68 -43 -109t-110 -41q-59 0 -99 30.5t-58 83.5zM540 320h-430v60h430v-60zM471 463h-288v52
q0 52 26 90q19 25 94 64l34 19q9 3 40 25q27 22 28 57q0 28 -20 47t-55 19q-79 0 -87 -92l-64 8q4 68 44 105.5t107 37.5q62 0 100 -35.5t38 -93.5q0 -47 -27.5 -76.5t-86.5 -59.5q-77 -41 -88 -58q-10 -13 -10 -43h215v-66z" />
    <glyph glyph-name="threefifths" unicode="&#x2157;" 
d="M170 -79l61 27q23 -80 96 -80q40 0 64.5 24t24.5 66t-24 65.5t-63 23.5q-57 0 -91 -48l-54 25l38 215h215v-61h-165l-21 -116h2q30 37 92 37q56 0 95 -40q40 -40 40 -102q0 -68 -43 -109t-110 -41q-59 0 -99 30.5t-58 83.5zM540 320h-430v60h430v-60zM173 604l65 14
q12 -100 93 -100q41 0 62.5 19t21.5 52q0 35 -23 54t-65 19h-26v53h20q32 0 54 14.5t22 42.5q0 29 -18 46t-51 17q-61 0 -72 -71l-62 12q5 55 42 87t94 32t93.5 -31.5t36.5 -82.5q0 -33 -17 -55t-41 -30v-2q32 -10 54 -38t22 -71q0 -56 -40 -91.5t-107 -35.5
q-66 0 -107.5 37t-50.5 109z" />
    <glyph glyph-name="fourfifths" unicode="&#x2158;" 
d="M540 320h-430v60h430v-60zM363 562h-192v61l162 267h95v-267h52v-61h-52v-99h-65v99zM361 834l-129 -211h131v211h-2zM170 -80l61 27q23 -80 96 -80q40 0 64.5 24t24.5 66t-24 65.5t-63 23.5q-57 0 -91 -48l-54 25l38 215h215v-61h-165l-21 -116h2q30 37 92 37
q56 0 95 -40q40 -40 40 -102q0 -68 -43 -109t-110 -41q-59 0 -99 30.5t-58 83.5z" />
    <glyph glyph-name="onesixth" unicode="&#x2159;" 
d="M335 41q-38 0 -62.5 -24t-24.5 -58q0 -41 25 -65q25 -25 65 -25t61 24q22 22 22 62t-22.5 63t-63.5 23zM233 36h2q10 23 40.5 40.5t74.5 17.5q52 0 93 -38t41 -103q0 -67 -41 -106.5t-105 -39.5q-78 0 -125 55t-47 158q0 96 46 160t123 64q55 0 89.5 -29.5t43.5 -77.5
l-60 -17q-18 65 -76 65q-43 0 -71 -41t-28 -108zM540 319h-430v60h430v-60zM469 463h-288v62h116v288l-92 -57v73l98 61h59v-365h107v-62z" />
    <glyph glyph-name="fivesixths" unicode="&#x215a;" 
d="M540 320h-430v60h430v-60zM170 572l61 27q23 -80 96 -80q40 0 64.5 24t24.5 66t-24 65.5t-63 23.5q-57 0 -91 -48l-54 25l38 215h215v-61h-165l-21 -116h2q30 37 92 37q56 0 95 -40q40 -40 40 -102q0 -68 -43 -109t-110 -41q-59 0 -99 30.5t-58 83.5zM335 41
q-38 0 -62.5 -24t-24.5 -58q0 -41 25 -65q25 -25 65 -25t61 24q22 22 22 62t-22.5 63t-63.5 23zM233 36h2q10 23 40.5 40.5t74.5 17.5q52 0 93 -38t41 -103q0 -67 -41 -106.5t-105 -39.5q-78 0 -125 55t-47 158q0 96 46 160t123 64q55 0 89.5 -29.5t43.5 -77.5l-60 -17
q-18 65 -76 65q-43 0 -71 -41t-28 -108z" />
    <glyph glyph-name="oneeighth" unicode="&#x215b;" 
d="M276 170q-17 -18 -17 -42.5t16 -42.5q17 -17 50 -17q32 0 49 17t17 42t-17 43q-16 18 -49 18t-49 -18zM252 42v2q-56 24 -56 89q0 47 36.5 79t92.5 32t93.5 -32.5t37.5 -78.5q0 -63 -56 -89v-2q33 -11 53.5 -40t20.5 -67q0 -59 -41 -93.5t-108 -34.5t-107.5 34.5
t-40.5 93.5q0 38 20.5 67t54.5 40zM241 -59q0 -33 21.5 -52.5t62.5 -19.5t62.5 19.5t21.5 52.5q0 34 -22.5 55t-61.5 21t-61.5 -21t-22.5 -55zM540 319h-430v60h430v-60zM469 463h-288v62h116v288l-92 -57v73l98 61h59v-365h107v-62z" />
    <glyph glyph-name="threeeighths" unicode="&#x215c;" 
d="M276 170q-17 -18 -17 -42.5t16 -42.5q17 -17 50 -17q32 0 49 17t17 42t-17 43q-16 18 -49 18t-49 -18zM252 42v2q-56 24 -56 89q0 47 36.5 79t92.5 32t93.5 -32.5t37.5 -78.5q0 -63 -56 -89v-2q33 -11 53.5 -40t20.5 -67q0 -59 -41 -93.5t-108 -34.5t-107.5 34.5
t-40.5 93.5q0 38 20.5 67t54.5 40zM241 -59q0 -33 21.5 -52.5t62.5 -19.5t62.5 19.5t21.5 52.5q0 34 -22.5 55t-61.5 21t-61.5 -21t-22.5 -55zM540 320h-430v60h430v-60zM173 604l65 14q12 -100 93 -100q41 0 62.5 19t21.5 52q0 35 -23 54t-65 19h-26v53h20q32 0 54 14.5
t22 42.5q0 29 -18 46t-51 17q-61 0 -72 -71l-62 12q5 55 42 87t94 32t93.5 -31.5t36.5 -82.5q0 -33 -17 -55t-41 -30v-2q32 -10 54 -38t22 -71q0 -56 -40 -91.5t-107 -35.5q-66 0 -107.5 37t-50.5 109z" />
    <glyph glyph-name="fiveeighths" unicode="&#x215d;" 
d="M540 320h-430v60h430v-60zM170 572l61 27q23 -80 96 -80q40 0 64.5 24t24.5 66t-24 65.5t-63 23.5q-57 0 -91 -48l-54 25l38 215h215v-61h-165l-21 -116h2q30 37 92 37q56 0 95 -40q40 -40 40 -102q0 -68 -43 -109t-110 -41q-59 0 -99 30.5t-58 83.5zM276 170
q-17 -18 -17 -42.5t16 -42.5q17 -17 50 -17q32 0 49 17t17 42t-17 43q-16 18 -49 18t-49 -18zM252 42v2q-56 24 -56 89q0 47 36.5 79t92.5 32t93.5 -32.5t37.5 -78.5q0 -63 -56 -89v-2q33 -11 53.5 -40t20.5 -67q0 -59 -41 -93.5t-108 -34.5t-107.5 34.5t-40.5 93.5
q0 38 20.5 67t54.5 40zM241 -59q0 -33 21.5 -52.5t62.5 -19.5t62.5 19.5t21.5 52.5q0 34 -22.5 55t-61.5 21t-61.5 -21t-22.5 -55z" />
    <glyph glyph-name="seveneighths" unicode="&#x215e;" 
d="M540 320h-430v60h430v-60zM300 463h-74l200 365v2h-220v60h282v-73zM276 170q-17 -18 -17 -42.5t16 -42.5q17 -17 50 -17q32 0 49 17t17 42t-17 43q-16 18 -49 18t-49 -18zM252 42v2q-56 24 -56 89q0 47 36.5 79t92.5 32t93.5 -32.5t37.5 -78.5q0 -63 -56 -89v-2
q33 -11 53.5 -40t20.5 -67q0 -59 -41 -93.5t-108 -34.5t-107.5 34.5t-40.5 93.5q0 38 20.5 67t54.5 40zM241 -59q0 -33 21.5 -52.5t62.5 -19.5t62.5 19.5t21.5 52.5q0 34 -22.5 55t-61.5 21t-61.5 -21t-22.5 -55z" />
    <glyph glyph-name="leftwardsarrow" unicode="&#x2190;" 
d="M95 385h481v-77h-481l127 -207l-72 -44l-175 289l174 286l72 -43z" />
    <glyph glyph-name="upwardsarrow" unicode="&#x2191;" 
d="M568 400l-205 129l1 -487h-78l1 487l-205 -129l-42 70l285 172l285 -172z" />
    <glyph glyph-name="rightwordsarrow" unicode="&#x2192;" 
d="M506 308h-481v77h481l-126 204l72 43l174 -286l-175 -289l-72 44z" />
    <glyph glyph-name="downwardsarrow" unicode="&#x2193;" 
d="M286 644h78l-1 -487l205 129l42 -70l-285 -172l-285 172l42 70l205 -129z" />
    <glyph glyph-name="leftrightarrow" unicode="&#x2194;" 
d="M390 105l128 203h-386l128 -203l-69 -43l-172 284l170 280l70 -43l-126 -199h384l-125 199l70 43l169 -280l-172 -284z" />
    <glyph glyph-name="updownarrow" unicode="&#x2195;" 
d="M325 37l-287 173l42 69l204 -129v387l-204 -129l-42 70l287 172l286 -172l-42 -70l-204 129v-387l204 129l42 -69z" />
    <glyph glyph-name="northwestarrow" unicode="&#x2196;" 
d="M243 488l346 -347l-52 -53l-347 347l-55 -237l-74 17l79 324l320 78l17 -75z" />
    <glyph glyph-name="northeastarrow" unicode="&#x2197;" 
d="M410 435l-347 -347l-52 53l346 347l-234 54l17 75l320 -78l79 -324l-74 -17z" />
    <glyph glyph-name="southeastarrow" unicode="&#x2198;" 
d="M357 200l-346 347l52 53l347 -347l55 237l74 -17l-79 -324l-320 -78l-17 75z" />
    <glyph glyph-name="southwestarrow" unicode="&#x2199;" 
d="M190 253l347 347l52 -53l-346 -347l234 -54l-17 -75l-320 78l-79 324l74 17z" />
    <glyph glyph-name="downwardsarrowwithtiprightwards" unicode="&#x21b3;" 
d="M505 307h-481v393h83v-314h399l-125 203l72 43l173 -286l-176 -289l-72 43z" />
    <glyph glyph-name="downwardsarrowwithtipleftwards" unicode="&#x21b5;" 
d="M493 700h83v-393h-481l127 -207l-72 -43l-176 289l173 286l72 -43l-125 -203h399v314z" />
    <glyph glyph-name="partialdiff" unicode="&#x2202;" 
d="M232 676l-10 -7l-38 55l10 7q84 57 148 57q115 0 170 -106q56 -106 56 -283q0 -124 -25 -212q-25 -93 -84 -147.5t-146 -54.5q-107 0 -169 65t-63 180q0 113 55.5 191.5t167.5 78.5q75 0 190 -50q-1 121 -41 195q-39 74 -112 74q-51 0 -109 -43zM313 59q163 0 176 318
q-100 52 -180 52q-79 0 -115 -57q-35 -56 -35 -142q0 -77 40.5 -124t113.5 -47z" />
    <glyph glyph-name="increment" unicode="&#x2206;" 
d="M620 0h-590l251 700h89zM325 599l-180 -522h360z" />
    <glyph glyph-name="product" unicode="&#x220f;" 
d="M263 -141h-78v716h-125v75h529v-75h-122v-716h-78v716h-126v-716z" />
    <glyph glyph-name="summation" unicode="&#x2211;" 
d="M567 -100h-484v94l240 316l-230 295v95h474v-78h-383l240 -311l-255 -334h398v-77z" />
    <glyph glyph-name="minus" unicode="&#x2212;" 
d="M583 344h-517v70h517v-70z" />
    <glyph glyph-name="radical" unicode="&#x221a;" 
d="M354 0h-86l-119 345h-96v72h155l103 -306l202 589h84z" />
    <glyph glyph-name="infinity" unicode="&#x221e;" 
d="M445 112q-37 0 -69.5 23t-50.5 60q-18 -37 -52.5 -60t-72.5 -23q-63 0 -105 54q-41 56 -41 137q0 82 41 138q40 55 104 55q39 0 73.5 -25.5t52.5 -65.5q16 40 49.5 65.5t71.5 25.5q64 0 104 -55q41 -56 41 -138t-42 -137q-41 -54 -104 -54zM300 303q-39 118 -99 118
q-29 0 -47 -22q-28 -34 -28 -96q0 -23 5 -50q6 -26 25 -46t47 -20q59 0 97 116zM350 303q36 -116 92 -116q30 0 48 21q29 34 29 95q0 18 -3 36t-10.5 38t-23 32t-38.5 12q-57 0 -94 -118z" />
    <glyph glyph-name="integral" unicode="&#x222b;" 
d="M154 -240v75q76 0 103 27q27 26 27 97v574q0 117 47 164q48 48 164 48v-75q-80 0 -106 -29q-25 -28 -25 -109v-561q0 -117 -48 -164q-47 -47 -162 -47z" />
    <glyph glyph-name="approxequal" unicode="&#x2248;" 
d="M133 408l-52 28q14 54 49 92q37 40 92 40q36 1 78 -21.5t78 -45t57 -20.5q40 0 57 32q13 22 14 25l11 32l52 -27q-34 -133 -134 -133q-46 -2 -118 43.5t-95 43.5q-60 0 -89 -89zM133 190l-52 27q14 53 49 93q37 40 92 40q36 1 78 -21.5t78 -45t57 -20.5q40 0 57 32
q13 22 14 25l11 32l52 -28q-15 -59 -49 -95.5t-85 -36.5q-46 -2 -118 43.5t-95 43.5q-60 0 -89 -89z" />
    <glyph glyph-name="notequal" unicode="&#x2260;" 
d="M320 417h-227v70h266l68 121l49 -28l-52 -93h132v-70h-172l-55 -98h227v-70h-266l-69 -123l-48 28l53 95h-133v70h172z" />
    <glyph glyph-name="lessequal" unicode="&#x2264;" 
d="M541 0h-433v70h433v-70zM498 144l-390 235l1 70l390 233l39 -62l-344 -206l343 -207z" />
    <glyph glyph-name="greaterequal" unicode="&#x2265;" 
d="M58 70h433v-70h-433v70zM100 682l390 -233l1 -70l-390 -235l-39 63l343 207l-344 206z" />
    <glyph glyph-name="lozenge" unicode="&#x25ca;" 
d="M381 0h-114l-203 356l205 344h111l205 -344zM147 356l177 -308l178 308l-178 294z" />
    <glyph glyph-name="commaaccent" unicode="&#xf6c3;" 
d="M275 -229v35q27 4 38 15.5t11 35.5h-50v89h102v-75q0 -49 -24 -73t-77 -27z" />
    <glyph glyph-name="apple" unicode="&#xf8ff;" 
d="M58 0h-26v423q0 116 86 204q85 88 206 88q122 0 207 -88q87 -87 87 -204v-423h-28l-65 65l-68 -65l-63 65l-71 -65l-69 65l-63 -65l-67 65zM382 377q0 -29 20.5 -49.5t49.5 -20.5t50.5 21t21.5 49q0 30 -21.5 51t-50.5 21t-49.5 -21t-20.5 -51zM127 377q0 -29 21 -49.5
t50 -20.5q30 0 50.5 20.5t20.5 49.5q0 30 -20.5 51t-50.5 21q-29 0 -50 -21t-21 -51z" />
    <glyph glyph-name="CR" horiz-adv-x="333" 
 />
    <glyph glyph-name="dieresis.cap" 
d="M274 765h-91v91h91v-91zM466 765h-91v91h91v-91z" />
    <glyph glyph-name="tilde.cap" 
d="M227 765h-44q17 93 89 93q28 0 62 -19q34 -18 52 -18q28 0 36 32h44q-17 -93 -88 -93q-28 0 -64 18q-34 19 -51 19q-28 0 -36 -32z" />
    <glyph glyph-name="macron.cap" 
d="M469 765h-288v61h288v-61z" />
    <glyph glyph-name="acute.cap" 
d="M306 765h-71l79 121h100z" />
    <glyph glyph-name="circumflex.cap" 
d="M251 747l-47 38l66 85h109l66 -85l-48 -38l-73 92z" />
    <glyph glyph-name="caron.cap" 
d="M379 765h-109l-66 85l47 38l74 -92l73 92l47 -38z" />
    <glyph glyph-name="ring.cap" 
d="M227 786q0 42 28 72t70 30t70 -29.5t28 -72.5q0 -44 -27.5 -73t-70.5 -29q-42 0 -70 29.5t-28 72.5zM325 729q21 0 34.5 15.5t13.5 42.5t-13.5 42t-34.5 15t-34 -15t-13 -42t13.5 -42.5t33.5 -15.5z" />
    <glyph glyph-name="breve.cap" 
d="M200 874h44q10 -58 80 -58q72 0 79 58h46q0 -55 -34.5 -87t-90.5 -32q-57 0 -90.5 31.5t-33.5 87.5z" />
    <glyph glyph-name="hungarumlaut.cap" 
d="M236 765h-63l75 115h92zM372 765h-63l75 115h92z" />
    <glyph glyph-name="dotaccent.cap" 
d="M373 765h-97v97h97v-97z" />
    <glyph glyph-name="grave.cap" 
d="M414 765h-71l-108 121h101z" />
    <glyph glyph-name="a.ss01" 
d="M475 175v165q0 50 -37 90t-99 40q-78 0 -119.5 -53t-41.5 -152t41.5 -152t119.5 -53q60 0 97 34q39 34 39 81zM554 0h-76v53h-2q-45 -68 -150 -68q-103 0 -167 76q-63 77 -63 204q0 126 65 203t165 77q96 0 148 -66h2v51h78v-530z" />
    <glyph glyph-name="agrave.ss01" 
d="M367 595h-71l-108 121h101zM475 175v165q0 50 -37 90t-99 40q-78 0 -119.5 -53t-41.5 -152t41.5 -152t119.5 -53q60 0 97 34q39 34 39 81zM554 0h-76v53h-2q-45 -68 -150 -68q-103 0 -167 76q-63 77 -63 204q0 126 65 203t165 77q96 0 148 -66h2v51h78v-530z" />
    <glyph glyph-name="aacute.ss01" 
d="M366 595h-71l78 121h100zM475 175v165q0 50 -37 90t-99 40q-78 0 -119.5 -53t-41.5 -152t41.5 -152t119.5 -53q60 0 97 34q39 34 39 81zM554 0h-76v53h-2q-45 -68 -150 -68q-103 0 -167 76q-63 77 -63 204q0 126 65 203t165 77q96 0 148 -66h2v51h78v-530z" />
    <glyph glyph-name="acircumflex.ss01" 
d="M475 175v165q0 50 -37 90t-99 40q-78 0 -119.5 -53t-41.5 -152t41.5 -152t119.5 -53q60 0 97 34q39 34 39 81zM554 0h-76v53h-2q-45 -68 -150 -68q-103 0 -167 76q-63 77 -63 204q0 126 65 203t165 77q96 0 148 -66h2v51h78v-530zM272 582l-47 38l66 85h109l66 -85
l-48 -38l-73 92z" />
    <glyph glyph-name="atilde.ss01" 
d="M246 602h-44q18 94 89 94q28 0 62 -19t52 -19q29 0 36 33h44q-18 -94 -88 -94q-29 0 -64 19q-34 19 -51 19q-28 0 -36 -33zM475 175v165q0 50 -37 90t-99 40q-78 0 -119.5 -53t-41.5 -152t41.5 -152t119.5 -53q60 0 97 34q39 34 39 81zM554 0h-76v53h-2q-45 -68 -150 -68
q-103 0 -167 76q-63 77 -63 204q0 126 65 203t165 77q96 0 148 -66h2v51h78v-530z" />
    <glyph glyph-name="adieresis.ss01" 
d="M475 175v165q0 50 -37 90t-99 40q-78 0 -119.5 -53t-41.5 -152t41.5 -152t119.5 -53q60 0 97 34q39 34 39 81zM554 0h-76v53h-2q-45 -68 -150 -68q-103 0 -167 76q-63 77 -63 204q0 126 65 203t165 77q96 0 148 -66h2v51h78v-530zM293 611h-91v91h91v-91zM485 611h-91v91
h91v-91z" />
    <glyph glyph-name="amacron.ss01" 
d="M475 175v165q0 50 -37 90t-99 40q-78 0 -119.5 -53t-41.5 -152t41.5 -152t119.5 -53q60 0 97 34q39 34 39 81zM554 0h-76v53h-2q-45 -68 -150 -68q-103 0 -167 76q-63 77 -63 204q0 126 65 203t165 77q96 0 148 -66h2v51h78v-530zM487 620h-288v61h288v-61z" />
    <glyph glyph-name="abreve.ss01" 
d="M219 704h44q10 -58 80 -58q72 0 79 58h46q0 -55 -34.5 -87t-90.5 -32q-57 0 -90.5 31.5t-33.5 87.5zM475 175v165q0 50 -37 90t-99 40q-78 0 -119.5 -53t-41.5 -152t41.5 -152t119.5 -53q60 0 97 34q39 34 39 81zM554 0h-76v53h-2q-45 -68 -150 -68q-103 0 -167 76
q-63 77 -63 204q0 126 65 203t165 77q96 0 148 -66h2v51h78v-530z" />
    <glyph glyph-name="aring.ss01" 
d="M554 0h-76v53h-2q-45 -68 -150 -68q-103 0 -167 76q-63 77 -63 204q0 109 50 183q51 74 133 92q-41 29 -41 85q0 42 28 72t70 30t70 -29.5t28 -72.5q0 -61 -46 -89q51 -15 86 -57h2v51h78v-530zM475 175v165q0 50 -37 90t-99 40q-78 0 -119.5 -53t-41.5 -152t41.5 -152
t119.5 -53q60 0 97 34q39 34 39 81zM336 567q21 0 34.5 16t13.5 43q0 39 -30 52t-52 -10q-13 -13 -13 -42q0 -27 13.5 -43t33.5 -16z" />
    <glyph glyph-name="aringacute.ss01" 
d="M554 0h-76v53h-2q-45 -68 -150 -68q-103 0 -167 76q-63 77 -63 204q0 111 51 184q52 75 133 91q-41 29 -41 85q0 39 24.5 68t62.5 33l58 90h100l-93 -105q44 -29 44 -86q0 -60 -47 -89q51 -15 86 -57h2v51h78v-530zM475 175v165q0 50 -37 90t-99 40q-78 0 -119.5 -53
t-41.5 -152t41.5 -152t119.5 -53q60 0 97 34q39 34 39 81zM337 567q21 0 34.5 16t13.5 43q0 39 -30 52t-52 -10q-13 -13 -13 -42q0 -27 13.5 -43t33.5 -16z" />
    <glyph glyph-name="aogonek.ss01" 
d="M499 0h-21v53h-2q-45 -68 -150 -68q-103 0 -167 76q-63 77 -63 204q0 126 65 203t165 77q96 0 148 -66h2v51h78v-530h1q-80 -72 -80 -117q0 -39 46 -39q35 0 66 37l32 -28q-51 -64 -123 -64q-43 0 -69.5 18t-26.5 56q0 76 99 137zM475 175v165q0 50 -37 90t-99 40
q-78 0 -119.5 -53t-41.5 -152t41.5 -152t119.5 -53q60 0 97 34q39 34 39 81z" />
    <glyph glyph-name="caron.alt" 
d="M327 579h-56l29 151h79z" />
    <glyph glyph-name="parenleft.cap" 
d="M446 -110l-45 -37q-38 34 -109 156q-39 68 -64 156q-26 93 -26 183q0 77 17.5 155t43.5 133q22 48 56 100q31 46 50 66q11 13 32 34l47 -38q-81 -88 -128 -193q-46 -102 -46 -256q0 -134 49 -251q49 -116 123 -208z" />
    <glyph glyph-name="parenright.cap" 
d="M249 -147l-45 37q74 92 123 208q49 117 49 251q0 154 -46 256q-47 105 -128 193l47 38q21 -21 32 -34q20 -22 49 -66q34 -49 57 -100q26 -55 43.5 -133t17.5 -155q0 -90 -26 -183q-25 -88 -64 -156q-71 -122 -109 -156z" />
    <glyph glyph-name="bracketleft.cap" 
d="M446 -122h-242v952h242v-59h-178v-834h178v-59z" />
    <glyph glyph-name="bracketright.cap" 
d="M204 830h242v-952h-242v59h178v834h-178v59z" />
    <glyph glyph-name="braceleft.cap" 
d="M272 1v264q0 32 -12 45t-41 13h-28v89h28q29 0 41 14t12 47v217q0 78 32 109t100 31h54v-60h-53q-37 0 -53 -19.5t-16 -67.5v-213q0 -29 -9 -50.5t-23.5 -31.5t-22.5 -14t-15 -6q70 -28 70 -100v-260q0 -48 15.5 -67.5t54.5 -19.5h52v-60h-54q-68 0 -100 31t-32 109z" />
    <glyph glyph-name="braceright.cap" 
d="M377 265v-264q0 -78 -32 -109t-100 -31h-54v60h52q39 0 54.5 19.5t15.5 67.5v260q0 72 70 100q-7 2 -15 6t-22.5 14t-23.5 31.5t-9 50.5v213q0 48 -16 67.5t-53 19.5h-53v60h54q68 0 100 -31t32 -109v-217q0 -33 12 -47t41 -14h28v-89h-28q-29 0 -41 -13t-12 -45z" />
    <glyph glyph-name="published" 
d="M288 492v-128h46q82 0 82 63q0 65 -82 65h-46zM329 46q-108 0 -183 89q-74 89 -74 219q0 129 74 218q75 89 183 89q104 0 176 -89t72 -218q0 -130 -72 -219t-176 -89zM329 94q84 0 141 74q58 74 58 186q0 111 -58 184q-57 74 -141 74q-88 0 -148 -74t-60 -184
q0 -111 60 -186q60 -74 148 -74zM334 317h-46v-150h-49v370h95q132 0 132 -110q0 -54 -35.5 -82t-96.5 -28z" />
    <glyph glyph-name="zero.numr" 
d="M166 492q0 102 43 157.5t116 55.5t116 -55.5t43 -157.5q0 -110 -42.5 -167t-116.5 -57t-116.5 57t-42.5 167zM325 330q90 0 90 163q0 4 -0.5 16t-0.5 15l-169 -123q20 -71 80 -71zM235 493q0 -28 1 -35l167 122q-21 63 -78 63q-90 0 -90 -150z" />
    <glyph glyph-name="one.numr" 
d="M469 273h-288v62h116v288l-92 -57v73l98 61h59v-365h107v-62z" />
    <glyph glyph-name="two.numr" 
d="M471 273h-288v52q0 52 26 90q19 25 94 64l34 19q9 3 40 25q27 22 28 57q0 28 -20 47t-55 19q-79 0 -87 -92l-64 8q4 68 44 105.5t107 37.5q62 0 100 -35.5t38 -93.5q0 -47 -27.5 -76.5t-86.5 -59.5q-77 -41 -88 -58q-10 -13 -10 -43h215v-66z" />
    <glyph glyph-name="three.numr" 
d="M172 414l65 14q12 -100 93 -100q41 0 62.5 19t21.5 52q0 35 -23 54t-65 19h-26v53h20q32 0 54 14.5t22 42.5q0 29 -18 46t-51 17q-61 0 -72 -71l-62 12q5 55 42 87t94 32t93.5 -31.5t36.5 -82.5q0 -33 -17 -55t-41 -30v-2q32 -10 54 -38t22 -71q0 -56 -40 -91.5
t-107 -35.5q-66 0 -107.5 37t-50.5 109z" />
    <glyph glyph-name="four.numr" 
d="M362 372h-192v61l162 267h95v-267h52v-61h-52v-99h-65v99zM360 644l-129 -211h131v211h-2z" />
    <glyph glyph-name="five.numr" 
d="M170 382l61 27q23 -80 96 -80q40 0 64.5 24t24.5 66t-24 65.5t-63 23.5q-57 0 -91 -48l-54 25l38 215h215v-61h-165l-21 -116h2q30 37 92 37q56 0 95 -40q40 -40 40 -102q0 -68 -43 -109t-110 -41q-59 0 -99 30.5t-58 83.5z" />
    <glyph glyph-name="six.numr" 
d="M335 502q-38 0 -62.5 -24t-24.5 -58q0 -41 25 -66q26 -24 65 -24q40 0 61 23q22 23 22 63t-22.5 63t-63.5 23zM233 497h2q10 23 40.5 40.5t74.5 17.5q52 0 93 -38t41 -103q0 -67 -41 -106.5t-105 -39.5q-78 0 -125 55t-47 158q0 96 46 160t123 64q55 0 89.5 -29.5
t43.5 -77.5l-60 -17q-18 65 -76 65q-43 0 -71 -41t-28 -108z" />
    <glyph glyph-name="seven.numr" 
d="M277 273h-74l200 365v2h-220v60h282v-73z" />
    <glyph glyph-name="eight.numr" 
d="M275 631q-17 -18 -17 -42.5t16 -42.5q17 -17 50 -17q32 0 49 17t17 42t-17 43q-16 18 -49 18q-32 0 -49 -18zM251 503v2q-56 24 -56 89q0 47 36.5 79t92.5 32t93.5 -32.5t37.5 -78.5q0 -63 -56 -89v-2q33 -11 53.5 -40t20.5 -67q0 -59 -40.5 -93.5t-108.5 -34.5
q-67 0 -107.5 34.5t-40.5 93.5q0 38 20.5 67t54.5 40zM240 402q0 -33 21.5 -52.5t62.5 -19.5t62.5 19.5t21.5 52.5q0 34 -22.5 55t-61.5 21t-61.5 -21t-22.5 -55z" />
    <glyph glyph-name="nine.numr" 
d="M186 372l60 21q17 -65 83 -65q90 0 88 146h-2q-4 -20 -33.5 -38t-71.5 -18q-56 0 -98 39q-41 39 -41 103q0 66 42 105q41 40 103 40q74 0 118.5 -56.5t44.5 -164.5t-40 -162t-113 -54q-111 0 -140 104zM319 475q39 0 61.5 21.5t22.5 59.5q0 39 -24 64t-63 25
q-36 0 -59 -23t-23 -62t23 -62t62 -23z" />
    <glyph glyph-name="zero.dnom" 
d="M166 219q0 102 43 157.5t116 55.5t116 -55.5t43 -157.5q0 -110 -42.5 -167t-116.5 -57t-116.5 57t-42.5 167zM325 57q90 0 90 163q0 4 -0.5 16t-0.5 15l-169 -123q20 -71 80 -71zM235 220q0 -28 1 -35l167 122q-21 63 -78 63q-90 0 -90 -150z" />
    <glyph glyph-name="one.dnom" 
d="M469 0h-288v62h116v288l-92 -57v73l98 61h59v-365h107v-62z" />
    <glyph glyph-name="two.dnom" 
d="M471 0h-288v52q0 52 26 90q19 25 94 64l34 19q9 3 40 25q27 22 28 57q0 28 -20 47t-55 19q-79 0 -87 -92l-64 8q4 68 44 105.5t107 37.5q62 0 100 -35.5t38 -93.5q0 -47 -27.5 -76.5t-86.5 -59.5q-77 -41 -88 -58q-10 -13 -10 -43h215v-66z" />
    <glyph glyph-name="three.dnom" 
d="M172 141l65 14q12 -100 93 -100q41 0 62.5 19t21.5 52q0 35 -23 54t-65 19h-26v53h20q32 0 54 14.5t22 42.5q0 29 -18 46t-51 17q-61 0 -72 -71l-62 12q5 55 42 87t94 32t93.5 -31.5t36.5 -82.5q0 -33 -17 -55t-41 -30v-2q32 -10 54 -38t22 -71q0 -56 -40 -91.5
t-107 -35.5q-66 0 -107.5 37t-50.5 109z" />
    <glyph glyph-name="four.dnom" 
d="M362 99h-192v61l162 267h95v-267h52v-61h-52v-99h-65v99zM360 371l-129 -211h131v211h-2z" />
    <glyph glyph-name="five.dnom" 
d="M170 109l61 27q23 -80 96 -80q40 0 64.5 24t24.5 66t-24 65.5t-63 23.5q-57 0 -91 -48l-54 25l38 215h215v-61h-165l-21 -116h2q30 37 92 37q56 0 95 -40q40 -40 40 -102q0 -68 -43 -109t-110 -41q-59 0 -99 30.5t-58 83.5z" />
    <glyph glyph-name="six.dnom" 
d="M335 229q-38 0 -62.5 -24t-24.5 -58q0 -41 25 -66q25 -24 65 -24t61 23q22 23 22 63t-22.5 63t-63.5 23zM233 224h2q10 23 40.5 40.5t74.5 17.5q52 0 93 -38t41 -103q0 -67 -41 -106.5t-105 -39.5q-78 0 -125 55t-47 158q0 96 46 160t123 64q55 0 89.5 -29.5t43.5 -77.5
l-60 -17q-18 65 -76 65q-43 0 -71 -41t-28 -108z" />
    <glyph glyph-name="seven.dnom" 
d="M277 0h-74l200 365v2h-220v60h282v-73z" />
    <glyph glyph-name="eight.dnom" 
d="M275 358q-17 -18 -17 -42.5t16 -42.5q17 -17 50 -17q32 0 49 17t17 42t-17 43t-49 18t-49 -18zM251 230v2q-56 24 -56 89q0 47 36.5 79t92.5 32t93.5 -32.5t37.5 -78.5q0 -63 -56 -89v-2q33 -11 53.5 -40t20.5 -67q0 -59 -40.5 -93.5t-108.5 -34.5q-67 0 -107.5 34.5
t-40.5 93.5q0 38 20.5 67t54.5 40zM240 129q0 -33 21.5 -52.5t62.5 -19.5t62.5 19.5t21.5 52.5q0 34 -22.5 55t-61.5 21t-61.5 -21t-22.5 -55z" />
    <glyph glyph-name="nine.dnom" 
d="M186 99l60 21q17 -65 83 -65q90 0 88 146h-2q-4 -20 -33.5 -38t-71.5 -18q-56 0 -98 39q-41 39 -41 103q0 66 42 105q41 40 103 40q74 0 118.5 -56.5t44.5 -164.5t-40 -162t-113 -54q-111 0 -140 104zM319 202q39 0 61.5 21.5t22.5 59.5q0 39 -24 64t-63 25
q-36 0 -59 -23t-23 -62t23 -62t62 -23z" />
    <glyph glyph-name="plusinferior" 
d="M356 -157h-63v155h-136v59h136v138h63v-138h137v-59h-137v-155z" />
    <glyph glyph-name="minusinferior" 
d="M478 -2h-306v59h306v-59z" />
  </font>
</defs>
</svg>
