<?xml version="1.0" standalone="no"?>
<!DOCTYPE svg PUBLIC "-//W3C//DTD SVG 1.1//EN" "http://www.w3.org/Graphics/SVG/1.1/DTD/svg11.dtd" >
<svg xmlns="http://www.w3.org/2000/svg" xmlns:xlink="http://www.w3.org/1999/xlink" version="1.1">
<metadata>
Created by FontForge 20170731 at Mon Nov 16 19:32:28 2015
 By ,,,
Copyright (c) 2011 by Timo Gaessner, 123buero for Milieu Grotesque. All rights reserved.
</metadata>
<defs>
<font id="MaisonNeue-Demi" horiz-adv-x="650" >
  <font-face 
    font-family="Maison Neue"
    font-weight="600"
    font-stretch="normal"
    units-per-em="1000"
    panose-1="2 0 0 0 0 0 0 0 0 0"
    ascent="775"
    descent="-225"
    x-height="530"
    cap-height="700"
    bbox="-115 -300 1273 980"
    underline-thickness="50"
    underline-position="-200"
    unicode-range="U+000D-FB02"
  />
<missing-glyph horiz-adv-x="696" 
d="M81 0h-26v423q0 116 86 204q85 88 206 88q122 0 207 -88q87 -87 87 -204v-423h-28l-65 65l-68 -65l-63 65l-71 -65l-69 65l-63 -65l-67 65zM401 319l14 -14l63 63l64 -63l14 14l-64 63l64 64l-14 14l-64 -64l-63 64l-14 -14l63 -64zM141 319l14 -14l63 63l64 -63l14 14
l-64 63l64 64l-14 14l-64 -64l-63 64l-14 -14l63 -64z" />
    <glyph glyph-name="fi" unicode="fi" horiz-adv-x="599" 
d="M214 0h-114v432h-80v98h83v77q0 66 32.5 94.5t98.5 28.5h80v-101h-57q-26 0 -36 -10t-10 -38v-51h311v-530h-114v432h-194v-432zM524 617h-118v113h118v-113z" />
    <glyph glyph-name="fl" unicode="fl" horiz-adv-x="599" 
d="M214 0h-114v432h-80v98h83v77q0 66 32.5 94.5t98.5 28.5h80v-101h-57q-26 0 -36 -10t-10 -38v-51h195v200h118v-730h-118v432h-192v-432z" />
    <glyph glyph-name=".notdef" horiz-adv-x="696" 
d="M81 0h-26v423q0 116 86 204q85 88 206 88q122 0 207 -88q87 -87 87 -204v-423h-28l-65 65l-68 -65l-63 65l-71 -65l-69 65l-63 -65l-67 65zM401 319l14 -14l63 63l64 -63l14 14l-64 63l64 64l-14 14l-64 -64l-63 64l-14 -14l63 -64zM141 319l14 -14l63 63l64 -63l14 14
l-64 63l64 64l-14 14l-64 -64l-63 64l-14 -14l63 -64z" />
    <glyph glyph-name=".null" horiz-adv-x="0" 
 />
    <glyph glyph-name="nonmarkingreturn" horiz-adv-x="333" 
 />
    <glyph glyph-name="NULL" horiz-adv-x="0" 
 />
    <glyph glyph-name="NULL" horiz-adv-x="0" 
 />
    <glyph glyph-name="CR.001" unicode="&#xd;" horiz-adv-x="250" 
 />
    <glyph glyph-name="space" unicode=" " horiz-adv-x="250" 
 />
    <glyph glyph-name="exclam" unicode="!" horiz-adv-x="329" 
d="M223 223h-118v477h118v-477zM234 0h-139v133h139v-133z" />
    <glyph glyph-name="quotedbl" unicode="&#x22;" horiz-adv-x="386" 
d="M296 461h-78v239h78v-239zM158 461h-78v239h78v-239z" />
    <glyph glyph-name="numbersign" unicode="#" horiz-adv-x="681" 
d="M268 136h-84l8 134h-127v79h133l8 138h-107v78h112l9 135h84l-9 -135h108l8 135h85l-9 -135h129v-78h-134l-9 -138h108v-79h-113l-8 -134h-84l8 134h-108zM290 487l-9 -138h108l8 138h-107z" />
    <glyph glyph-name="dollar" unicode="$" horiz-adv-x="660" 
d="M50 236l124 27q13 -78 43 -117t89 -48v110q1 49 1 110q-120 33 -173.5 82t-53.5 120q0 78 61 133q63 57 166 61v61h51v-62q91 -7 151.5 -55t78.5 -133l-111 -30q-32 98 -119 108v-188q146 -44 198 -92q54 -50 54 -127q0 -94 -67.5 -150.5t-184.5 -60.5v-83h-52v85
q-109 10 -175 73t-81 176zM358 303v-209q66 0 101.5 26t35.5 73q0 40 -29 63q-30 23 -108 47zM197 522q0 -32 24 -52t86 -39v174q-54 -2 -82 -25t-28 -58z" />
    <glyph glyph-name="percent" unicode="%" horiz-adv-x="937" 
d="M310 514q0 115 -80 115q-79 0 -79 -115q0 -59 20.5 -92.5t58.5 -33.5t59 33.5t21 92.5zM230 307q-75 0 -120 54.5t-45 154.5q0 95 49 145q50 51 116 51q67 0 116 -52q50 -52 50 -144q0 -95 -48 -152q-46 -57 -118 -57zM786 195q0 115 -80 115q-79 0 -79 -115
q0 -59 20.5 -92.5t58.5 -33.5t59 33.5t21 92.5zM706 -12q-75 0 -120 54.5t-45 154.5q0 95 49 145q50 51 116 51q67 0 116 -52q50 -52 50 -144q0 -95 -48 -152q-46 -57 -118 -57zM258 -75l-66 39l489 815l65 -40z" />
    <glyph glyph-name="ampersand" unicode="&#x26;" horiz-adv-x="707" 
d="M692 116l-70 -83l-94 81q-24 -49 -80 -90q-56 -39 -154 -39q-110 0 -174 55q-65 56 -65 148q0 82 42 135q44 53 97 81q-70 64 -70 145q0 73 53 120q53 46 130 46q88 0 143.5 -43.5t69.5 -126.5l-109 -26q-12 50 -34 72t-63 22q-37 0 -57.5 -18.5t-20.5 -48.5
q0 -23 11 -39.5t40 -41.5l172 -147h2v95h100v-184zM449 190l-181 155q-43 -16 -73 -54.5t-30 -87.5q0 -53 36.5 -82t100.5 -29q59 0 98.5 27t48.5 71z" />
    <glyph glyph-name="quotesingle" unicode="'" horiz-adv-x="248" 
d="M163 461h-78v239h78v-239z" />
    <glyph glyph-name="parenleft" unicode="(" horiz-adv-x="378" 
d="M333 -149l-59 -48q-37 34 -109 158q-39 67 -64 158q-26 96 -26 190q0 77 18 154q20 79 43 126q24 50 56 97q31 46 50 66q11 13 32 34l59 -49q-81 -95 -123 -191q-41 -96 -41 -237q0 -135 46 -252q45 -114 118 -206z" />
    <glyph glyph-name="parenright" unicode=")" horiz-adv-x="378" 
d="M94 -197l-59 48q71 89 117 206q47 120 47 252q0 143 -42 237q-40 94 -122 191l59 49q21 -21 32 -34q20 -22 49 -66q31 -44 57 -97q24 -49 42 -126q19 -75 19 -154q0 -94 -26 -190q-25 -91 -64 -158q-72 -124 -109 -158z" />
    <glyph glyph-name="asterisk" unicode="*" horiz-adv-x="500" 
d="M149 324l-66 57l88 107l-116 67l45 76l106 -62v131h87v-132l108 63l44 -77l-117 -67l90 -106l-66 -56l-103 121z" />
    <glyph glyph-name="plus" unicode="+" horiz-adv-x="582" 
d="M338 100h-94v224h-199v89h199v202h94v-202h199v-89h-199v-224z" />
    <glyph glyph-name="comma" unicode="," horiz-adv-x="309" 
d="M85 -125v61q30 5 39.5 18.5t9.5 45.5h-49v133h139v-117q0 -131 -139 -141z" />
    <glyph glyph-name="hyphen" unicode="-" horiz-adv-x="419" 
d="M374 287h-329v91h329v-91z" />
    <glyph glyph-name="period" unicode="." horiz-adv-x="309" 
d="M224 0h-139v133h139v-133z" />
    <glyph glyph-name="slash" unicode="/" horiz-adv-x="453" 
d="M83 -44l-73 31l360 760l73 -33z" />
    <glyph glyph-name="zero" unicode="0" horiz-adv-x="612" 
d="M40 360q0 171 71.5 263t194.5 92t194.5 -92t71.5 -263q0 -185 -70 -280t-196 -95t-196 95t-70 280zM454 361q0 245 -148 245t-148 -245q0 -139 36.5 -203t111.5 -64t111.5 64t36.5 203z" />
    <glyph glyph-name="one" unicode="1" horiz-adv-x="468" 
d="M323 0h-112v568l-151 -95v127l161 100h102v-700z" />
    <glyph glyph-name="two" unicode="2" horiz-adv-x="585" 
d="M535 0h-480v88q0 95 43 150q42 52 157 109q98 52 120 70q44 36 44 92q0 43 -34 72t-90 29q-121 0 -133 -145l-112 14q7 113 73 174.5t178 61.5q101 0 166 -59q64 -58 64 -155q0 -90 -61 -145q-46 -42 -126 -83q-105 -54 -125 -71q-11 -9 -19 -21q-17 -26 -17 -68h352
v-113z" />
    <glyph glyph-name="three" unicode="3" horiz-adv-x="594" 
d="M35 229l114 24q22 -163 151 -163q64 0 99.5 30.5t35.5 83.5q0 116 -142 116h-43v95h34q53 0 87.5 23.5t34.5 71.5q0 46 -29.5 73t-81.5 27q-99 0 -117 -115l-108 20q9 92 71 146t158 54q95 0 156 -52t61 -145q0 -51 -27 -86.5t-65 -49.5v-3q48 -13 87 -61q38 -47 38 -120
q0 -97 -67 -155q-65 -58 -181 -58q-113 0 -182.5 62t-83.5 182z" />
    <glyph glyph-name="four" unicode="4" horiz-adv-x="580" 
d="M360 143h-335v109l271 448h176v-448h83v-109h-83v-143h-112v143zM358 613l-218 -361h220v361h-2z" />
    <glyph glyph-name="five" unicode="5" horiz-adv-x="598" 
d="M45 176l111 45q18 -61 56.5 -95t94.5 -34q64 0 103.5 38t39.5 106q0 67 -38.5 104t-100.5 37q-94 0 -146 -78l-94 46l61 355h366v-109h-277l-31 -179l1 -1q50 57 155 57q88 0 152 -66q65 -67 65 -169q0 -115 -73 -182q-74 -66 -183 -66q-99 0 -166 51t-96 140z" />
    <glyph glyph-name="six" unicode="6" horiz-adv-x="628" 
d="M338 92q63 0 99 38.5t36 102.5q0 63 -37 100.5t-102 37.5q-63 0 -102 -41q-39 -40 -39 -95q0 -64 40 -103.5t105 -39.5zM556 535l-107 -28q-28 103 -121 103q-69 0 -112.5 -64t-45.5 -173l1 -1q65 92 188 92q89 0 156 -63q68 -63 68 -171q0 -113 -70 -179
q-71 -66 -175 -66q-124 0 -207 90q-81 90 -81 267q0 160 78 266q78 107 206 107q95 0 150 -52q55 -51 72 -128z" />
    <glyph glyph-name="seven" unicode="7" horiz-adv-x="499" 
d="M160 0h-133l329 590v2h-346v108h464v-122z" />
    <glyph glyph-name="eight" unicode="8" horiz-adv-x="577" 
d="M177 520q0 -41 31 -68t80 -27t80.5 27.5t31.5 67.5q0 43 -29.5 69.5t-82.5 26.5t-82 -26.5t-29 -69.5zM31 200q0 64 36 115q38 52 92 68v2q-92 41 -92 145q0 77 61 131t160 54q100 0 161 -54q63 -54 63 -131q0 -104 -93 -145v-2q55 -18 91 -69t36 -114q0 -101 -72 -158
q-70 -57 -186 -57t-186 57q-71 57 -71 158zM429 210q0 53 -39 86t-102 33q-64 0 -102.5 -33t-38.5 -86t36.5 -85t104.5 -32t104.5 32t36.5 85z" />
    <glyph glyph-name="nine" unicode="9" horiz-adv-x="612" 
d="M66 159l105 37q28 -106 134 -106q70 0 106.5 58t34.5 174h-2q-8 -26 -51 -57q-43 -30 -120 -30q-92 0 -163 65q-70 66 -70 173q0 109 71 175q70 67 173 67q119 0 195 -91q78 -92 78 -277q0 -180 -66.5 -271t-188.5 -91q-101 0 -160 50q-56 49 -76 124zM289 337
q61 0 98.5 35t37.5 95q0 63 -39 103t-102 40q-57 0 -94.5 -38.5t-37.5 -98.5q0 -61 37 -98.5t100 -37.5z" />
    <glyph glyph-name="colon" unicode=":" horiz-adv-x="309" 
d="M224 0h-139v133h139v-133zM224 393h-139v137h139v-137z" />
    <glyph glyph-name="semicolon" unicode=";" horiz-adv-x="309" 
d="M85 -125v61q30 5 39.5 18.5t9.5 45.5h-49v133h139v-117q0 -131 -139 -141z" />
    <glyph glyph-name="less" unicode="&#x3c;" horiz-adv-x="530" 
d="M435 82l-390 235l1 70l390 233l49 -79l-316 -189l316 -190z" />
    <glyph glyph-name="equal" unicode="=" horiz-adv-x="573" 
d="M518 234h-463v90h463v-90zM518 412h-463v90h463v-90z" />
    <glyph glyph-name="greater" unicode="&#x3e;" horiz-adv-x="530" 
d="M89 620l390 -233l1 -70l-390 -235l-50 80l316 190l-316 189z" />
    <glyph glyph-name="question" unicode="?" horiz-adv-x="529" 
d="M298 215h-107v39q0 46 22 75.5t73 62.5l37 25q12 10 26 24q31 30 31 74q0 40 -28 65.5t-83 25.5q-125 0 -132 -139l-112 11q2 109 66 173t181 64q96 0 158 -55q64 -55 64 -138q0 -65 -26 -102q-24 -34 -77 -70l-22 -15q-21 -13 -37 -25q-34 -28 -34 -64v-31zM319 0h-138
v133h138v-133z" />
    <glyph glyph-name="at" unicode="@" horiz-adv-x="733" 
d="M432 270v86h-2q-4 -13 -37 -21l-47 -13q-53 -13 -53 -56q0 -51 70 -51q26 0 47.5 15t21.5 40zM500 94l35 -58q-73 -51 -171 -51q-155 0 -237 100t-82 262q0 160 88 263t241 103q148 0 231 -99q83 -100 83 -257q0 -114 -35 -163.5t-109 -49.5q-65 0 -89 46h-2
q-37 -46 -102 -46q-58 0 -96 33t-38 84q0 89 106 117l51 14q34 9 45 17.5t11 26.5q0 47 -60 47q-58 0 -71 -61l-71 18q8 54 46.5 83.5t92.5 29.5q65 0 102 -33.5t37 -97.5v-172q0 -40 39 -40q75 0 75 145q0 127 -63 210q-62 83 -183 83q-124 0 -192 -84q-68 -85 -68 -217
q0 -133 63 -214t187 -81q73 0 136 42z" />
    <glyph glyph-name="A" unicode="A" horiz-adv-x="620" 
d="M610 0h-117l-42 120h-283l-41 -120h-117l252 700h96zM311 529h-2l-106 -308h213z" />
    <glyph glyph-name="B" unicode="B" horiz-adv-x="649" 
d="M347 0h-262v700h288q93 0 149 -54q56 -53 56 -132q0 -88 -81 -135v-2q107 -49 107 -163q0 -214 -257 -214zM203 591v-178h154q50 0 77 22.5t27 65.5q0 44 -27 67t-78 23h-153zM203 315v-206h125q62 0 93 8q33 8 48.5 30.5t17.5 66.5q0 58 -36.5 79.5t-121.5 21.5h-126z
" />
    <glyph glyph-name="C" unicode="C" horiz-adv-x="664" 
d="M500 274l124 -25q-12 -117 -86 -191q-73 -73 -191 -73q-133 0 -218 93q-84 93 -84 278q0 173 88 265q88 94 213 94q109 0 184 -69q74 -67 88 -180l-122 -19q-26 159 -149 159q-76 0 -129 -62q-51 -62 -51 -190q0 -127 49 -193.5t131 -66.5q131 0 153 180z" />
    <glyph glyph-name="D" unicode="D" horiz-adv-x="657" 
d="M203 591v-482h103q88 0 136 53q49 52 49 189q0 119 -47.5 179.5t-131.5 60.5h-109zM308 0h-223v700h229q60 0 113 -21t96 -62t68.5 -109.5t25.5 -156.5q0 -193 -97 -277q-87 -74 -212 -74z" />
    <glyph glyph-name="E" unicode="E" horiz-adv-x="581" 
d="M521 0h-436v700h436v-109h-318v-180h290v-105h-290v-197h318v-109z" />
    <glyph glyph-name="F" unicode="F" horiz-adv-x="562" 
d="M203 0h-118v700h437v-109h-319v-207h290v-104h-290v-280z" />
    <glyph glyph-name="G" unicode="G" horiz-adv-x="660" 
d="M346 -15q-132 0 -217 93q-84 93 -84 282q0 167 88 261t213 94q105 0 178 -64q72 -64 89 -172l-119 -19q-28 145 -148 145q-76 0 -128 -64q-51 -63 -51 -181q0 -129 49 -197.5t130 -68.5q73 0 114.5 42.5t40.5 119.5h-145v102h259v-84q0 -136 -75 -212q-74 -77 -194 -77z
" />
    <glyph glyph-name="H" unicode="H" horiz-adv-x="670" 
d="M203 0h-118v700h118v-288h264v288h118v-700h-118v310h-264v-310z" />
    <glyph glyph-name="I" unicode="I" horiz-adv-x="298" 
d="M208 0h-118v700h118v-700z" />
    <glyph glyph-name="J" unicode="J" horiz-adv-x="470" 
d="M15 146l109 36q16 -88 77 -88q39 0 55.5 19t16.5 63v524h117v-514q0 -102 -49.5 -151.5t-139.5 -49.5q-74 0 -124 45t-62 116z" />
    <glyph glyph-name="K" unicode="K" horiz-adv-x="622" 
d="M193 0h-118v700h118v-312h2l261 312h143l-259 -308l287 -392h-142l-227 307h-2l-63 -80v-227z" />
    <glyph glyph-name="L" unicode="L" horiz-adv-x="517" 
d="M497 0h-412v700h118v-591h294v-109z" />
    <glyph glyph-name="M" unicode="M" horiz-adv-x="863" 
d="M203 0h-118v700h137l210 -488h2l208 488h136v-700h-118v481h-2l-211 -481h-30l-211 481h-3v-481z" />
    <glyph glyph-name="N" unicode="N" horiz-adv-x="691" 
d="M203 0h-118v700h123l278 -495h2v495h118v-700h-120l-281 495h-2v-495z" />
    <glyph glyph-name="O" unicode="O" horiz-adv-x="692" 
d="M525 355q0 121 -51 186q-51 64 -127 64q-77 0 -128 -64q-51 -63 -51 -185q0 -130 48.5 -196t130.5 -66t130 65.5t48 195.5zM45 356q0 170 89 265q88 94 213 94q122 0 211 -95t89 -265q0 -194 -93 -287q-84 -83 -207 -83q-121 0 -209 84q-93 93 -93 287z" />
    <glyph glyph-name="P" unicode="P" horiz-adv-x="613" 
d="M203 0h-118v700h279q106 0 173 -59q66 -59 66 -162q0 -102 -64 -160.5t-174 -58.5h-162v-260zM203 591v-222h159q53 0 86.5 30t33.5 80q0 55 -33.5 83.5t-87.5 28.5h-158z" />
    <glyph glyph-name="Q" unicode="Q" horiz-adv-x="692" 
d="M647 45l-61 -61l-63 62q-76 -61 -176 -61q-121 0 -209 84q-93 93 -93 287q0 170 89 265q88 94 213 94q122 0 211 -95t89 -265q0 -151 -66 -245zM447 122l-154 154l61 61l144 -144q27 61 27 162q0 121 -51 186q-51 64 -127 64q-77 0 -128 -64q-51 -63 -51 -185
q0 -130 48.5 -196t130.5 -66q62 0 100 28z" />
    <glyph glyph-name="R" unicode="R" horiz-adv-x="638" 
d="M203 0h-118v700h279q109 0 174 -58t65 -160q0 -79 -41.5 -131.5t-114.5 -71.5l151 -279h-131l-142 269h-122v-269zM203 593v-222h152q129 0 129 111t-129 111h-152z" />
    <glyph glyph-name="S" unicode="S" horiz-adv-x="604" 
d="M40 236l124 27q15 -92 49 -130.5t109 -38.5q64 0 100 25.5t36 69.5t-34 69q-32 25 -151 61q-108 33 -156.5 82t-48.5 120q0 80 62 137t168 57q102 0 171 -49.5t84 -142.5l-115 -28q-15 55 -47.5 82.5t-92.5 27.5q-55 0 -84.5 -22.5t-29.5 -60.5q0 -35 31 -54
q34 -21 146 -59q125 -42 168 -88q45 -47 45 -125q0 -91 -69 -151q-67 -60 -184 -60q-121 0 -193 64t-88 187z" />
    <glyph glyph-name="T" unicode="T" horiz-adv-x="565" 
d="M342 0h-118v591h-209v109h535v-109h-208v-591z" />
    <glyph glyph-name="U" unicode="U" horiz-adv-x="657" 
d="M70 228v472h118v-466q0 -67 36 -103.5t104 -36.5q69 0 105.5 36t36.5 102v468h117v-472q0 -113 -71 -178t-188 -65t-188 65q-70 64 -70 178z" />
    <glyph glyph-name="V" unicode="V" horiz-adv-x="633" 
d="M375 0h-114l-251 700h124l184 -528h4l178 528h123z" />
    <glyph glyph-name="W" unicode="W" horiz-adv-x="900" 
d="M293 0h-124l-134 700h120l95 -493h2l166 493h67l165 -493h2l95 493h118l-134 -700h-123l-158 480h-2z" />
    <glyph glyph-name="X" unicode="X" horiz-adv-x="601" 
d="M145 0h-130l218 373l-192 327h134l136 -253h3l134 253h130l-200 -347l208 -353h-134l-152 279h-2z" />
    <glyph glyph-name="Y" unicode="Y" horiz-adv-x="584" 
d="M350 0h-116v295l-229 405h126l160 -298h2l161 298h125l-229 -405v-295z" />
    <glyph glyph-name="Z" unicode="Z" horiz-adv-x="593" 
d="M545 0h-500v107l357 478v2h-341v113h487v-107l-359 -479v-2h356v-112z" />
    <glyph glyph-name="bracketleft" unicode="[" horiz-adv-x="362" 
d="M327 -182h-252v912h252v-76h-170v-760h170v-76z" />
    <glyph glyph-name="backslash" unicode="\" horiz-adv-x="453" 
d="M443 -13l-73 -31l-360 758l73 33z" />
    <glyph glyph-name="bracketright" unicode="]" horiz-adv-x="362" 
d="M65 730h252v-912h-252v76h170v760h-170v76z" />
    <glyph glyph-name="asciicircum" unicode="^" horiz-adv-x="555" 
d="M158 325h-93l173 375h79l173 -375h-92l-120 274z" />
    <glyph glyph-name="underscore" unicode="_" horiz-adv-x="612" 
d="M557 -153h-502v83h502v-83z" />
    <glyph glyph-name="grave" unicode="`" horiz-adv-x="295" 
d="M250 595h-96l-109 124h125z" />
    <glyph glyph-name="a" unicode="a" horiz-adv-x="541" 
d="M476 0h-97v53h-2q-9 -14 -38 -37q-42 -31 -112 -31q-90 0 -138.5 43t-48.5 112q0 68 40.5 104.5t139.5 60.5q87 22 115 36q27 15 27 43t-25 45.5t-72 17.5q-52 0 -78.5 -23.5t-39.5 -69.5l-97 37q18 71 72.5 112.5t139.5 41.5q100 0 157 -50.5t57 -151.5v-343zM243 224
q-54 -14 -73.5 -31t-19.5 -45q0 -64 87 -64q61 0 95 25t34 64v106h-2q-4 -12 -27 -23.5t-94 -31.5z" />
    <glyph glyph-name="b" unicode="b" horiz-adv-x="598" 
d="M189 323v-120q0 -49 34 -82t88 -33q64 0 98.5 45.5t34.5 131.5t-34.5 131.5t-98.5 45.5q-55 0 -88.5 -34.5t-33.5 -84.5zM181 0h-106v730h114v-251h2q54 66 139 66q98 0 163 -77t65 -203q0 -127 -63 -204q-61 -76 -167 -76q-86 0 -145 66h-2v-51z" />
    <glyph glyph-name="c" unicode="c" horiz-adv-x="545" 
d="M397 211l113 -24q-16 -97 -73.5 -149.5t-150.5 -52.5q-108 0 -177 74q-69 73 -69 206q0 127 69 203q71 77 176 77q90 0 149.5 -54t69.5 -142l-107 -18q-17 111 -111 111q-61 0 -97 -47t-36 -130q0 -84 35 -130.5t98 -46.5q93 0 111 123z" />
    <glyph glyph-name="d" unicode="d" horiz-adv-x="598" 
d="M409 203v120q0 50 -33 84.5t-88 34.5q-64 0 -99 -45.5t-35 -131.5t35 -131.5t99 -45.5q53 0 87 33t34 82zM523 0h-106v51h-2q-8 -12 -21 -23q-12 -10 -48 -27q-33 -16 -76 -16q-105 0 -168 76q-62 77 -62 204q0 128 67 204t162 76q84 0 138 -66h2v251h114v-730z" />
    <glyph glyph-name="e" unicode="e" horiz-adv-x="565" 
d="M427 176l82 -67q-76 -124 -220 -124q-110 0 -180 76q-69 77 -69 204t69 203q69 77 175 77t173 -76q68 -77 68 -204v-34h-370q2 -67 37 -106t95 -39q57 0 92 32q22 20 48 58zM156 317h258q-3 58 -37 92.5t-93 34.5q-55 0 -90 -37t-38 -90z" />
    <glyph glyph-name="f" unicode="f" horiz-adv-x="348" 
d="M213 0h-113v432h-80v98h82v77q0 66 32.5 94.5t98.5 28.5h98v-101h-75q-26 0 -36 -10t-10 -38v-51h133v-98h-130v-432z" />
    <glyph glyph-name="g" unicode="g" horiz-adv-x="601" 
d="M79 -104l88 56q22 -47 52 -69.5t79 -22.5q56 0 87.5 30.5t31.5 90.5v68h-2q-19 -28 -55.5 -46t-81.5 -18q-104 0 -171 75q-67 74 -67 205q0 127 69 204q70 76 167 76q94 0 143 -66h2v51h110v-533q0 -114 -65 -176q-64 -61 -168 -61q-80 0 -137 36.5t-82 99.5zM417 199
v128q0 48 -34 81.5t-88 33.5q-65 0 -103 -46.5t-38 -130.5t37.5 -130.5t103.5 -46.5q53 0 87.5 32t34.5 79z" />
    <glyph glyph-name="h" unicode="h" horiz-adv-x="594" 
d="M189 0h-114v730h114v-252h2q18 27 59.5 47t82.5 20q86 0 138.5 -52.5t52.5 -141.5v-351h-113v324q0 53 -28.5 84.5t-80.5 31.5q-51 0 -82 -30t-31 -77v-333z" />
    <glyph glyph-name="i" unicode="i" horiz-adv-x="268" 
d="M191 0h-114v530h114v-530zM193 617h-118v113h118v-113z" />
    <glyph glyph-name="j" unicode="j" horiz-adv-x="268" 
d="M63 -195h-48v119h22q40 0 40 48v558h114v-586q0 -139 -128 -139zM193 617h-118v113h118v-113z" />
    <glyph glyph-name="k" unicode="k" horiz-adv-x="564" 
d="M189 0h-114v730h114v-427h2l203 227h145l-192 -213l212 -317h-129l-168 251h-2l-71 -78v-173z" />
    <glyph glyph-name="l" unicode="l" horiz-adv-x="268" 
d="M193 0h-118v730h118v-730z" />
    <glyph glyph-name="m" unicode="m" horiz-adv-x="860" 
d="M186 0h-111v530h104v-51h2q19 30 54.5 48t76.5 18q44 0 80.5 -20t55.5 -53h2q21 32 59.5 52.5t82.5 20.5q91 0 144.5 -50t53.5 -133v-362h-105v336q0 104 -98 104q-47 0 -73 -26t-26 -71v-343h-106v336q0 49 -25 76.5t-72 27.5q-48 0 -73.5 -26.5t-25.5 -70.5v-343z" />
    <glyph glyph-name="n" unicode="n" horiz-adv-x="589" 
d="M189 0h-114v530h110v-51h2q22 29 61.5 47.5t81.5 18.5q88 0 138.5 -52.5t50.5 -145.5v-347h-113v317q0 123 -103 123q-52 0 -83 -30t-31 -81v-329z" />
    <glyph glyph-name="o" unicode="o" horiz-adv-x="570" 
d="M286 88q60 0 96 47t36 130t-36 130t-96 47q-61 0 -97 -46.5t-36 -130.5q0 -85 36 -131t97 -46zM40 265q0 129 71 205q72 75 175 75q102 0 173 -75q71 -76 71 -205q0 -133 -69 -206q-68 -74 -175 -74q-106 0 -177 74q-69 73 -69 206z" />
    <glyph glyph-name="p" unicode="p" horiz-adv-x="606" 
d="M189 327v-128q0 -47 34.5 -79t87.5 -32q66 0 103.5 46.5t37.5 130.5t-38 130.5t-103 46.5q-54 0 -88 -33.5t-34 -81.5zM189 -225h-114v755h109v-51h2q51 66 146 66q96 0 165 -76q69 -77 69 -204q0 -129 -67 -205q-66 -75 -166 -75q-91 0 -142 66h-2v-276z" />
    <glyph glyph-name="q" unicode="q" horiz-adv-x="606" 
d="M417 199v128q0 48 -34 81.5t-88 33.5q-65 0 -103 -46.5t-38 -130.5t37.5 -130.5t103.5 -46.5q53 0 87.5 32t34.5 79zM531 -225h-114v276h-2l-3 -3q-46 -63 -139 -63q-99 0 -167 75q-66 76 -66 205q0 127 69 204q69 76 165 76q95 0 146 -66h2v51h109v-755z" />
    <glyph glyph-name="r" unicode="r" horiz-adv-x="362" 
d="M189 0h-114v530h108v-56h2q16 30 46 48t64 18q24 0 47 -10l-18 -111q-30 8 -42 8q-93 0 -93 -132v-295z" />
    <glyph glyph-name="s" unicode="s" horiz-adv-x="517" 
d="M35 177l104 25q13 -121 128 -121q53 0 82.5 18.5t29.5 49.5t-27 44q-31 15 -119 40q-94 27 -136 62.5t-42 92.5q0 64 52 110q53 47 143 47q175 0 217 -155l-96 -28q-30 88 -121 88q-41 0 -66 -16.5t-25 -40.5q0 -26 26 -40q28 -14 130 -42q96 -27 131 -65q36 -38 36 -99
q0 -63 -54 -113q-52 -49 -157 -49q-109 0 -167 55t-69 137z" />
    <glyph glyph-name="t" unicode="t" horiz-adv-x="379" 
d="M100 177v255h-80v98h83v130h108v-130h133v-98h-132v-243q0 -45 14 -62t55 -17h42v-110h-51q-94 0 -133 41.5t-39 135.5z" />
    <glyph glyph-name="u" unicode="u" horiz-adv-x="575" 
d="M70 187v343h114v-330q0 -59 21 -82.5t72 -23.5t80 29t29 85v322h114v-530h-110v51h-2q-46 -66 -137 -66q-90 0 -135.5 52.5t-45.5 149.5z" />
    <glyph glyph-name="v" unicode="v" horiz-adv-x="551" 
d="M323 0h-95l-213 530h118l142 -366h2l142 366h117z" />
    <glyph glyph-name="w" unicode="w" horiz-adv-x="803" 
d="M261 0h-109l-117 530h112l75 -369h2l126 369h103l118 -368h2l85 368h110l-127 -530h-110l-129 398h-2z" />
    <glyph glyph-name="x" unicode="x" horiz-adv-x="539" 
d="M138 0h-123l183 273l-172 257h120l123 -187h2l122 187h120l-171 -257l182 -273h-123l-131 199h-2z" />
    <glyph glyph-name="y" unicode="y" horiz-adv-x="538" 
d="M226 -225h-110l100 249l-206 506h120l139 -365h2l139 365h118z" />
    <glyph glyph-name="z" unicode="z" horiz-adv-x="542" 
d="M497 0h-452v94l299 329v2h-285v105h431v-92l-294 -327v-2h301v-109z" />
    <glyph glyph-name="braceleft" unicode="{" horiz-adv-x="387" 
d="M126 -26v208q0 32 -12 45t-41 13h-28v89h28q29 0 41 14t12 47v184q0 86 37 121t117 35h52v-80h-61q-34 0 -48.5 -20.5t-14.5 -69.5v-173q0 -24 -7 -43.5t-17 -30t-21 -17.5t-17 -9t-8 -2l2 -1q8 -3 17 -8t22 -16t21 -31t8 -45v-196q0 -49 15 -69.5t52 -20.5h57v-80h-52
q-80 0 -117 35t-37 121z" />
    <glyph glyph-name="bar" unicode="|" horiz-adv-x="268" 
d="M173 -300h-78v1075h78v-1075z" />
    <glyph glyph-name="braceright" unicode="}" horiz-adv-x="387" 
d="M241 182v-208q0 -86 -37 -121t-117 -35h-52v80h57q37 0 52 20.5t15 69.5v196q0 68 64 99q2 1 3 1l3 1q-2 0 -8 2t-17 9t-21 17.5t-17 30t-7 43.5v173q0 49 -14.5 69.5t-48.5 20.5h-61v80h52q80 0 117 -35t37 -121v-184q0 -33 12 -47t41 -14h28v-89h-28q-29 0 -41 -13
t-12 -45z" />
    <glyph glyph-name="asciitilde" unicode="~" horiz-adv-x="601" 
d="M187 372q-22 0 -39 -17q-22 -22 -34 -72l-69 22q11 65 48 111t97 46q36 1 80.5 -21.5t83 -45t59.5 -20.5q23 0 39 16t22 30t13 43l69 -22q-10 -63 -49 -111q-37 -46 -96 -46q-61 0 -124 43q-59 44 -100 44z" />
    <glyph glyph-name="nbspace" unicode="&#xa0;" horiz-adv-x="200" 
 />
    <glyph glyph-name="exclamdown" unicode="&#xa1;" horiz-adv-x="329" 
d="M218 -170h-118v477h118v-477zM229 397h-139v133h139v-133z" />
    <glyph glyph-name="cent" unicode="&#xa2;" horiz-adv-x="560" 
d="M407 211l113 -24q-15 -93 -69.5 -145.5t-140.5 -56.5v-95h-35v96q-101 8 -163 80q-62 74 -62 199q0 121 63 196q63 76 162 83v87h35v-87q84 -5 139 -58q54 -53 65 -137l-107 -18q-17 103 -97 110v-352q79 9 97 122zM163 265q0 -77 29 -123t83 -53v351q-52 -8 -82 -54
t-30 -121z" />
    <glyph glyph-name="sterling" unicode="&#xa3;" horiz-adv-x="647" 
d="M581 0h-496v109h33q52 0 52 51v147h-85v81h85v109q0 108 54 163t150 55q89 0 142.5 -51t65.5 -147l-110 -22q-12 63 -32 89t-64 26q-89 0 -89 -110v-112h182v-81h-182v-198h294v-109z" />
    <glyph glyph-name="currency" unicode="&#xa4;" horiz-adv-x="659" 
d="M115 74l-40 40l65 65q-47 65 -47 150q0 82 47 149l-65 65l40 40l63 -64q68 57 151 57q89 0 153 -55l62 62l40 -40l-64 -64q46 -67 46 -150q0 -86 -47 -151l65 -64l-40 -40l-64 63q-64 -51 -151 -51q-89 0 -150 52zM330 190q55 0 87.5 33.5t32.5 104.5q0 72 -33 107
t-87 35q-55 0 -88 -35t-33 -107q0 -71 33 -104.5t88 -33.5z" />
    <glyph glyph-name="yen" unicode="&#xa5;" horiz-adv-x="667" 
d="M274 124h-202v93h202v81h-202v92h148l-175 310h129l157 -292h2l159 292h130l-177 -310h149v-92h-202v-81h202v-93h-203v-124h-117v124z" />
    <glyph glyph-name="brokenbar" unicode="&#xa6;" horiz-adv-x="285" 
d="M190 321h-95v327h95v-327zM190 -131h-95v327h95v-327z" />
    <glyph glyph-name="section" unicode="&#xa7;" horiz-adv-x="643" 
d="M245 237l137 -53q30 -11 46 -24q42 32 42 72q0 45 -71 72l-138 53q-27 10 -45 23q-43 -30 -43 -71q0 -45 72 -72zM335 94l-166 66q-113 45 -113 146q-1 41 23.5 78t64.5 58q-28 34 -28 94q0 80 55 129q56 50 142 50q91 0 148.5 -49t69.5 -140l-108 -22q-16 106 -106 106
q-41 0 -63.5 -22t-22.5 -54q0 -30 18.5 -50.5t58.5 -36.5l166 -67q112 -45 114 -146q0 -41 -24.5 -78t-64.5 -58q29 -35 29 -92q0 -79 -56 -129t-141 -50q-91 0 -148.5 49t-69.5 140l108 22q16 -106 106 -106q41 0 63.5 22t22.5 54q0 30 -18 49t-60 37z" />
    <glyph glyph-name="dieresis" unicode="&#xa8;" horiz-adv-x="418" 
d="M167 600h-112v107h112v-107zM363 600h-111v107h111v-107z" />
    <glyph glyph-name="copyright" unicode="&#xa9;" horiz-adv-x="707" 
d="M573 134q-89 -89 -220 -89t-220 89q-88 88 -88 220q0 131 88 219q89 89 220 89t220 -89t89 -219q0 -131 -89 -220zM599 354q0 103 -71 176q-70 72 -175 72t-175 -72q-70 -71 -70 -176t70 -178q70 -72 175 -72t175 72q71 74 71 178zM420 315l79 -20q-10 -63 -47 -98.5
t-94 -35.5q-70 0 -114.5 51.5t-44.5 139.5q0 89 45 140q46 51 114 51q55 0 92 -35.5t46 -95.5l-78 -14q-12 70 -60 70q-34 0 -55 -30.5t-21 -85.5q0 -116 76 -116q52 0 62 79z" />
    <glyph glyph-name="ordfeminine" unicode="&#xaa;" horiz-adv-x="353" 
d="M303 384h-64v30h-1l-9 -11q-7 -8 -29 -18t-47 -10q-55 0 -84 26t-29 67t23 61t83 35q52 12 66.5 20t14.5 23q0 16 -13.5 26t-38.5 10q-53 0 -69 -52l-62 25q12 41 45.5 65t83.5 24q60 0 95 -31t35 -92v-198zM161 513q-47 -12 -47 -40q0 -32 45 -32q34 0 52 13t18 33v55
h-1q-8 -14 -67 -29z" />
    <glyph glyph-name="guillemotleft" unicode="&#xab;" horiz-adv-x="574" 
d="M300 95h-105l-110 186l108 186h105l-109 -186zM499 95h-105l-110 186l108 186h105l-109 -186z" />
    <glyph glyph-name="logicalnot" unicode="&#xac;" horiz-adv-x="607" 
d="M422 346h-367v105h477v-268h-110v163z" />
    <glyph glyph-name="registered" unicode="&#xae;" horiz-adv-x="441" 
d="M119 427q41 -41 102 -41q60 0 101 41q41 43 41 103q0 61 -41 102t-101 41q-61 0 -102 -41t-41 -102q0 -60 41 -103zM221 354q-74 0 -126 50q-50 52 -50 126q0 75 50 125q51 51 126 51t124 -51q51 -49 51 -125q0 -75 -51 -126q-50 -50 -124 -50zM196 424h-38v210h70
q35 0 54 -17t19 -48q0 -47 -47 -62l46 -83h-41l-42 81h-21v-81zM196 600v-62h29q39 0 39 31t-39 31h-29z" />
    <glyph glyph-name="overscore" unicode="&#xaf;" horiz-adv-x="398" 
d="M343 620h-288v74h288v-74z" />
    <glyph glyph-name="degree" unicode="&#xb0;" horiz-adv-x="388" 
d="M50 628q0 62 42 106t102 44q63 0 103 -43q41 -44 41 -107q0 -65 -40.5 -106.5t-103.5 -41.5q-64 0 -104 42q-40 43 -40 106zM194 554q63 0 63 74q0 76 -63 76q-64 0 -64 -76q0 -74 64 -74z" />
    <glyph glyph-name="plusminus" unicode="&#xb1;" horiz-adv-x="593" 
d="M249 418h-204v90h204v157h95v-157h204v-90h-204v-178h-95v178zM529 86h-461v90h461v-90z" />
    <glyph glyph-name="twosuperior" unicode="&#xb2;" horiz-adv-x="351" 
d="M326 473h-296v62q0 54 28 88q22 28 94 63q63 32 76 48q17 19 17 44q0 24 -18 39t-47 15q-68 0 -77 -81l-78 10q5 69 46 106.5t110 37.5q62 0 102 -35.5t40 -96.5q0 -46 -28.5 -78t-83.5 -58q-73 -37 -84 -54q-7 -10 -7 -27h206v-83z" />
    <glyph glyph-name="threesuperior" unicode="&#xb3;" horiz-adv-x="379" 
d="M15 613l79 18q12 -90 84 -90q35 0 55 16t20 45q0 61 -72 61h-33v64h24q60 0 60 50q0 55 -58 55q-52 0 -63 -63l-76 14q6 57 44 89.5t98 32.5q58 0 95 -31.5t37 -83.5q0 -31 -16 -54t-36 -31v-2q29 -8 50.5 -35.5t21.5 -71.5q0 -56 -40.5 -92t-110.5 -36q-69 0 -111.5 37
t-51.5 108z" />
    <glyph glyph-name="acute" unicode="&#xb4;" horiz-adv-x="295" 
d="M141 595h-96l80 124h125z" />
    <glyph glyph-name="mu" unicode="&#xb5;" horiz-adv-x="591" 
d="M191 -225h-111v755h114v-316q0 -120 109 -120q51 0 77.5 28.5t26.5 79.5v328h114v-530h-111v51h-2q-14 -27 -45.5 -46.5t-71.5 -19.5q-66 0 -99 36h-1v-246z" />
    <glyph glyph-name="paragraph" unicode="&#xb6;" horiz-adv-x="550" 
d="M254 -136h-88v444q-69 2 -115 48t-46 118q0 76 46 121t119 45h305v-776h-87v678h-134v-678z" />
    <glyph glyph-name="middot" unicode="&#xb7;" horiz-adv-x="309" 
d="M224 303h-139v133h139v-133z" />
    <glyph glyph-name="cedilla" unicode="&#xb8;" horiz-adv-x="269" 
d="M15 -169l39 47q34 -32 73 -32q49 0 49 36q0 14 -13 22t-31 8q-26 0 -45 -12l-6 -3l-44 24l47 79h55l-37 -58l1 -1q22 15 55 15q34 0 59.5 -21t25.5 -55q0 -44 -30.5 -70t-79.5 -26q-71 0 -118 47z" />
    <glyph glyph-name="onesuperior" unicode="&#xb9;" horiz-adv-x="262" 
d="M187 473h-80v333l-92 -57v90l98 61h74v-427z" />
    <glyph glyph-name="ordmasculine" unicode="&#xba;" horiz-adv-x="350" 
d="M246 541q0 45 -19.5 70.5t-51.5 25.5q-33 0 -52.5 -25.5t-19.5 -70.5q0 -47 19 -72t53 -25q33 0 52 25.5t19 71.5zM30 541q0 77 42 121t103 44t103 -44t42 -121t-40.5 -121.5t-104.5 -44.5t-104.5 44.5t-40.5 121.5z" />
    <glyph glyph-name="guillemotright" unicode="&#xbb;" horiz-adv-x="574" 
d="M376 467l108 -186l-110 -186h-105l111 186l-109 186h105zM177 467l108 -186l-110 -186h-105l111 186l-109 186h105z" />
    <glyph glyph-name="onequarter" unicode="&#xbc;" horiz-adv-x="820" 
d="M187 -75l-66 39l489 815l65 -40zM192 273h-80v333l-92 -57v90l98 61h74v-427zM660 85h-195v75l162 267h115v-267h48v-75h-48v-85h-82v85zM659 354l-118 -194h120v194h-2z" />
    <glyph glyph-name="onehalf" unicode="&#xbd;" horiz-adv-x="874" 
d="M187 -76l-66 39l489 815l65 -40zM192 272h-80v333l-92 -57v90l98 61h74v-427zM814 0h-296v62q0 54 28 88q22 28 94 63q63 32 76 48q17 19 17 44q0 23 -18 38.5t-47 15.5q-68 0 -77 -81l-78 10q5 69 46 106.5t110 37.5q62 0 102 -35.5t40 -96.5q0 -46 -28.5 -78t-83.5 -58
q-73 -38 -84 -54q-7 -10 -7 -27h206v-83z" />
    <glyph glyph-name="threequarters" unicode="&#xbe;" horiz-adv-x="889" 
d="M269 -75l-66 39l489 815l65 -40zM30 413l79 18q12 -90 84 -90q35 0 55 16t20 45q0 61 -72 61h-33v64h24q60 0 60 50q0 55 -58 55q-53 0 -63 -63l-76 14q6 57 44 89.5t98 32.5q58 0 95 -31.5t37 -83.5q0 -31 -16 -54t-36 -31v-2q29 -8 50.5 -35.5t21.5 -71.5
q0 -56 -40.5 -92t-110.5 -36q-69 0 -111.5 37t-51.5 108zM729 85h-195v75l162 267h115v-267h48v-75h-48v-85h-82v85zM728 354l-118 -194h120v194h-2z" />
    <glyph glyph-name="questiondown" unicode="&#xbf;" horiz-adv-x="529" 
d="M226 315h107v-39q0 -46 -22 -75.5t-73 -62.5q-32 -22 -37 -26q-7 -5 -27 -23q-30 -30 -30 -74q0 -40 28 -65.5t83 -25.5q125 0 132 139l112 -11q-2 -109 -66 -173t-181 -64q-95 0 -159 55q-63 56 -63 138q0 65 26 102q24 34 77 70l21 14q27 18 37 26q35 27 35 64v31z
M205 530h138v-133h-138v133z" />
    <glyph glyph-name="Agrave" unicode="&#xc0;" horiz-adv-x="620" 
d="M610 0h-117l-42 120h-283l-41 -120h-117l252 700h96zM311 529h-2l-106 -308h213zM356 765h-96l-109 124h125z" />
    <glyph glyph-name="Aacute" unicode="&#xc1;" horiz-adv-x="620" 
d="M610 0h-117l-42 120h-283l-41 -120h-117l252 700h96zM311 529h-2l-106 -308h213zM367 765h-96l80 124h126z" />
    <glyph glyph-name="Acircumflex" unicode="&#xc2;" horiz-adv-x="620" 
d="M610 0h-117l-42 120h-283l-41 -120h-117l252 700h96zM311 529h-2l-106 -308h213zM246 747l-60 48l67 86h126l68 -86l-62 -48l-69 88z" />
    <glyph glyph-name="Atilde" unicode="&#xc3;" horiz-adv-x="620" 
d="M610 0h-117l-42 120h-283l-41 -120h-117l252 700h96zM311 529h-2l-106 -308h213zM221 765h-59q17 104 97 104q33 0 70 -19t51 -19q28 0 36 33h59q-17 -104 -97 -104q-34 0 -71 19t-50 19q-29 0 -36 -33z" />
    <glyph glyph-name="Adieresis" unicode="&#xc4;" horiz-adv-x="620" 
d="M610 0h-117l-42 120h-283l-41 -120h-117l252 700h96zM311 529h-2l-106 -308h213zM274 765h-112v107h112v-107zM470 765h-111v107h111v-107z" />
    <glyph glyph-name="Aring" unicode="&#xc5;" horiz-adv-x="620" 
d="M610 0h-117l-42 120h-283l-41 -120h-117l250 695q-46 28 -46 90q0 44 29.5 75t72.5 31q45 0 74 -30.5t29 -75.5q0 -71 -57 -96zM311 529h-2l-106 -308h213zM316 838q-18 0 -30 -14t-12 -38t12 -38.5t30 -14.5t31 14.5t13 38.5t-12.5 38t-31.5 14z" />
    <glyph glyph-name="AE" unicode="&#xc6;" horiz-adv-x="868" 
d="M131 0h-121l263 700h535v-109h-280v-180h252v-102h-252v-200h280v-109h-398v131h-230zM347 591l-130 -356h193v356h-63z" />
    <glyph glyph-name="Ccedilla" unicode="&#xc7;" horiz-adv-x="664" 
d="M258 -169l39 47q34 -32 73 -32q49 0 49 36q0 14 -13 22t-31 8q-26 0 -45 -12l-6 -3l-44 24l39 66q-121 11 -198 102q-76 91 -76 267q0 173 88 265q88 94 213 94q109 0 184 -69q74 -67 88 -180l-122 -19q-26 159 -149 159q-76 0 -129 -62q-51 -62 -51 -190
q0 -127 49 -193.5t131 -66.5q131 0 153 180l124 -25q-10 -111 -78 -183q-68 -71 -173 -80l-28 -44l1 -1q22 15 55 15q34 0 59.5 -21t25.5 -55q0 -44 -30.5 -70t-79.5 -26q-71 0 -118 47z" />
    <glyph glyph-name="Egrave" unicode="&#xc8;" horiz-adv-x="581" 
d="M521 0h-436v700h436v-109h-318v-180h290v-105h-290v-197h318v-109zM362 765h-96l-109 124h125z" />
    <glyph glyph-name="Eacute" unicode="&#xc9;" horiz-adv-x="581" 
d="M521 0h-436v700h436v-109h-318v-180h290v-105h-290v-197h318v-109zM333 765h-96l80 124h126z" />
    <glyph glyph-name="Ecircumflex" unicode="&#xca;" horiz-adv-x="581" 
d="M521 0h-436v700h436v-109h-318v-180h290v-105h-290v-197h318v-109zM233 747l-60 48l67 86h126l68 -86l-62 -48l-69 88z" />
    <glyph glyph-name="Edieresis" unicode="&#xcb;" horiz-adv-x="581" 
d="M521 0h-436v700h436v-109h-318v-180h290v-105h-290v-197h318v-109zM256 765h-112v107h112v-107zM452 765h-111v107h111v-107z" />
    <glyph glyph-name="Igrave" unicode="&#xcc;" horiz-adv-x="298" 
d="M208 0h-118v700h118v-700zM187 765h-96l-109 124h125z" />
    <glyph glyph-name="Iacute" unicode="&#xcd;" horiz-adv-x="298" 
d="M208 0h-118v700h118v-700zM178 765h-96l80 124h126z" />
    <glyph glyph-name="Icircumflex" unicode="&#xce;" horiz-adv-x="298" 
d="M208 0h-118v700h118v-700zM66 747l-60 48l67 86h126l68 -86l-62 -48l-69 88z" />
    <glyph glyph-name="Idieresis" unicode="&#xcf;" horiz-adv-x="298" 
d="M208 0h-118v700h118v-700zM94 765h-112v107h112v-107zM290 765h-111v107h111v-107z" />
    <glyph glyph-name="Eth" unicode="&#xd0;" horiz-adv-x="676" 
d="M327 0h-228v315h-69v97h69v288h234q126 0 215 -89q88 -88 88 -260q0 -194 -97 -277q-87 -74 -212 -74zM217 315v-206h108q86 0 136 53q49 52 49 189q0 120 -47.5 180t-131.5 60h-114v-179h151v-97h-151z" />
    <glyph glyph-name="Ntilde" unicode="&#xd1;" horiz-adv-x="691" 
d="M203 0h-118v700h123l278 -495h2v495h118v-700h-120l-281 495h-2v-495zM252 765h-59q17 104 97 104q33 0 70 -19t51 -19q29 0 36 33h59q-17 -104 -97 -104q-34 0 -71 19t-50 19q-28 0 -36 -33z" />
    <glyph glyph-name="Ograve" unicode="&#xd2;" horiz-adv-x="692" 
d="M525 355q0 121 -51 186q-51 64 -127 64q-77 0 -128 -64q-51 -63 -51 -185q0 -130 48.5 -196t130.5 -66t130 65.5t48 195.5zM45 356q0 170 89 265q88 94 213 94q122 0 211 -95t89 -265q0 -194 -93 -287q-84 -83 -207 -83q-121 0 -209 84q-93 93 -93 287zM399 765h-96
l-109 124h125z" />
    <glyph glyph-name="Oacute" unicode="&#xd3;" horiz-adv-x="692" 
d="M525 355q0 121 -51 186q-51 64 -127 64q-77 0 -128 -64q-51 -63 -51 -185q0 -130 48.5 -196t130.5 -66t130 65.5t48 195.5zM45 356q0 170 89 265q88 94 213 94q122 0 211 -95t89 -265q0 -194 -93 -287q-84 -83 -207 -83q-121 0 -209 84q-93 93 -93 287zM391 765h-96
l80 124h126z" />
    <glyph glyph-name="Ocircumflex" unicode="&#xd4;" horiz-adv-x="692" 
d="M525 355q0 121 -51 186q-51 64 -127 64q-77 0 -128 -64q-51 -63 -51 -185q0 -130 48.5 -196t130.5 -66t130 65.5t48 195.5zM45 356q0 170 89 265q88 94 213 94q122 0 211 -95t89 -265q0 -194 -93 -287q-84 -83 -207 -83q-121 0 -209 84q-93 93 -93 287zM283 747l-60 48
l67 86h126l68 -86l-62 -48l-69 88z" />
    <glyph glyph-name="Otilde" unicode="&#xd5;" horiz-adv-x="692" 
d="M525 355q0 121 -51 186q-51 64 -127 64q-77 0 -128 -64q-51 -63 -51 -185q0 -130 48.5 -196t130.5 -66t130 65.5t48 195.5zM45 356q0 170 89 265q88 94 213 94q122 0 211 -95t89 -265q0 -194 -93 -287q-84 -83 -207 -83q-121 0 -209 84q-93 93 -93 287zM258 765h-59
q17 104 97 104q33 0 70 -19t51 -19q29 0 36 33h59q-17 -104 -97 -104q-34 0 -71 19t-50 19q-28 0 -36 -33z" />
    <glyph glyph-name="Odieresis" unicode="&#xd6;" horiz-adv-x="692" 
d="M525 355q0 121 -51 186q-51 64 -127 64q-77 0 -128 -64q-51 -63 -51 -185q0 -130 48.5 -196t130.5 -66t130 65.5t48 195.5zM45 356q0 170 89 265q88 94 213 94q122 0 211 -95t89 -265q0 -194 -93 -287q-84 -83 -207 -83q-121 0 -209 84q-93 93 -93 287zM306 765h-112v107
h112v-107zM502 765h-111v107h111v-107z" />
    <glyph glyph-name="multiply" unicode="&#xd7;" horiz-adv-x="542" 
d="M110 111l-65 65l162 161l-152 152l65 65l152 -152l151 151l64 -65l-151 -151l161 -160l-64 -65l-161 161z" />
    <glyph glyph-name="Oslash" unicode="&#xd8;" horiz-adv-x="692" 
d="M172 -15l-51 30l26 46q-102 97 -102 295q0 170 89 265q88 94 213 94q81 0 148 -43l25 43l50 -31l-27 -48q104 -101 104 -281q0 -194 -93 -287q-84 -83 -207 -83q-83 0 -152 39zM481 528l-230 -404q41 -30 96 -30q82 0 130 65.5t48 195.5q0 108 -44 173zM210 171l230 404
q-42 30 -93 30q-77 0 -128 -64q-51 -63 -51 -185q0 -118 42 -185z" />
    <glyph glyph-name="Ugrave" unicode="&#xd9;" horiz-adv-x="657" 
d="M70 228v472h118v-466q0 -67 36 -103.5t104 -36.5q69 0 105.5 36t36.5 102v468h117v-472q0 -113 -71 -178t-188 -65t-188 65q-70 64 -70 178zM390 765h-96l-109 124h125z" />
    <glyph glyph-name="Uacute" unicode="&#xda;" horiz-adv-x="657" 
d="M70 228v472h118v-466q0 -67 36 -103.5t104 -36.5q69 0 105.5 36t36.5 102v468h117v-472q0 -113 -71 -178t-188 -65t-188 65q-70 64 -70 178zM387 765h-96l80 124h126z" />
    <glyph glyph-name="Ucircumflex" unicode="&#xdb;" horiz-adv-x="657" 
d="M70 228v472h118v-466q0 -67 36 -103.5t104 -36.5q69 0 105.5 36t36.5 102v468h117v-472q0 -113 -71 -178t-188 -65t-188 65q-70 64 -70 178zM264 747l-60 48l67 86h126l68 -86l-62 -48l-69 88z" />
    <glyph glyph-name="Udieresis" unicode="&#xdc;" horiz-adv-x="657" 
d="M70 228v472h118v-466q0 -67 36 -103.5t104 -36.5q69 0 105.5 36t36.5 102v468h117v-472q0 -113 -71 -178t-188 -65t-188 65q-70 64 -70 178zM289 765h-112v107h112v-107zM485 765h-111v107h111v-107z" />
    <glyph glyph-name="Yacute" unicode="&#xdd;" horiz-adv-x="584" 
d="M350 0h-116v295l-229 405h126l160 -298h2l161 298h125l-229 -405v-295zM350 765h-96l80 124h126z" />
    <glyph glyph-name="Thorn" unicode="&#xde;" horiz-adv-x="635" 
d="M203 0h-118v700h118v-116h154q119 0 186 -58t67 -165q0 -110 -64.5 -166t-188.5 -56h-154v-139zM203 475v-227h162q59 0 93.5 29t34.5 84t-34.5 84.5t-93.5 29.5h-162z" />
    <glyph glyph-name="germandbls" unicode="&#xdf;" horiz-adv-x="567" 
d="M176 0h-111v480q0 113 60 174t159 61q90 0 149 -53q58 -52 58 -139q0 -86 -80 -130v-2q48 -17 79.5 -63t31.5 -114q0 -105 -59.5 -159.5t-173.5 -54.5h-32v97h21q139 0 139 122q0 115 -116 115h-44v86h23q49 0 79 24.5t30 68.5q0 46 -29 73.5t-77 27.5q-107 0 -107 -139
v-475z" />
    <glyph glyph-name="agrave" unicode="&#xe0;" horiz-adv-x="541" 
d="M476 0h-97v53h-2q-9 -14 -38 -37q-42 -31 -112 -31q-90 0 -138.5 43t-48.5 112q0 68 40.5 104.5t139.5 60.5q87 22 115 36q27 15 27 43t-25 45.5t-72 17.5q-52 0 -78.5 -23.5t-39.5 -69.5l-97 37q18 71 72.5 112.5t139.5 41.5q100 0 157 -50.5t57 -151.5v-343zM243 224
q-54 -14 -73.5 -31t-19.5 -45q0 -64 87 -64q61 0 95 25t34 64v106h-2q-4 -12 -27 -23.5t-94 -31.5zM329 595h-96l-109 124h125z" />
    <glyph glyph-name="aacute" unicode="&#xe1;" horiz-adv-x="541" 
d="M476 0h-97v53h-2q-9 -14 -38 -37q-42 -31 -112 -31q-90 0 -138.5 43t-48.5 112q0 68 40.5 104.5t139.5 60.5q87 22 115 36q27 15 27 43t-25 45.5t-72 17.5q-52 0 -78.5 -23.5t-39.5 -69.5l-97 37q18 71 72.5 112.5t139.5 41.5q100 0 157 -50.5t57 -151.5v-343zM243 224
q-54 -14 -73.5 -31t-19.5 -45q0 -64 87 -64q61 0 95 25t34 64v106h-2q-4 -12 -27 -23.5t-94 -31.5zM300 595h-96l80 124h125z" />
    <glyph glyph-name="acircumflex" unicode="&#xe2;" horiz-adv-x="541" 
d="M476 0h-97v53h-2q-9 -14 -38 -37q-42 -31 -112 -31q-90 0 -138.5 43t-48.5 112q0 68 40.5 104.5t139.5 60.5q87 22 115 36q27 15 27 43t-25 45.5t-72 17.5q-52 0 -78.5 -23.5t-39.5 -69.5l-97 37q18 71 72.5 112.5t139.5 41.5q100 0 157 -50.5t57 -151.5v-343zM243 224
q-54 -14 -73.5 -31t-19.5 -45q0 -64 87 -64q61 0 95 25t34 64v106h-2q-4 -12 -27 -23.5t-94 -31.5zM200 581l-60 48l67 86h126l68 -86l-62 -48l-69 88z" />
    <glyph glyph-name="atilde" unicode="&#xe3;" horiz-adv-x="541" 
d="M476 0h-97v53h-2q-9 -14 -38 -37q-42 -31 -112 -31q-90 0 -138.5 43t-48.5 112q0 68 40.5 104.5t139.5 60.5q87 22 115 36q27 15 27 43t-25 45.5t-72 17.5q-52 0 -78.5 -23.5t-39.5 -69.5l-97 37q18 71 72.5 112.5t139.5 41.5q100 0 157 -50.5t57 -151.5v-343zM243 224
q-54 -14 -73.5 -31t-19.5 -45q0 -64 87 -64q61 0 95 25t34 64v106h-2q-4 -12 -27 -23.5t-94 -31.5zM173 599h-59q18 105 97 105q32 0 70 -20q37 -19 51 -19q29 0 36 34h59q-17 -105 -97 -105q-34 0 -71 19q-38 20 -50 20q-29 0 -36 -34z" />
    <glyph glyph-name="adieresis" unicode="&#xe4;" horiz-adv-x="541" 
d="M476 0h-97v53h-2q-9 -14 -38 -37q-42 -31 -112 -31q-90 0 -138.5 43t-48.5 112q0 68 40.5 104.5t139.5 60.5q87 22 115 36q27 15 27 43t-25 45.5t-72 17.5q-52 0 -78.5 -23.5t-39.5 -69.5l-97 37q18 71 72.5 112.5t139.5 41.5q100 0 157 -50.5t57 -151.5v-343zM243 224
q-54 -14 -73.5 -31t-19.5 -45q0 -64 87 -64q61 0 95 25t34 64v106h-2q-4 -12 -27 -23.5t-94 -31.5zM229 600h-112v107h112v-107zM425 600h-111v107h111v-107z" />
    <glyph glyph-name="aring" unicode="&#xe5;" horiz-adv-x="541" 
d="M476 0h-97v53h-2q-9 -14 -38 -37q-42 -31 -112 -31q-90 0 -138.5 43t-48.5 112q0 68 40.5 104.5t139.5 60.5q87 22 115 36q27 15 27 43t-25 45.5t-72 17.5q-52 0 -78.5 -23.5t-39.5 -69.5l-97 37q13 58 54 97.5t105 51.5q-42 30 -42 88q0 44 29.5 75t72.5 31
q45 0 74 -30.5t29 -75.5q0 -62 -45 -90q70 -15 109.5 -64t39.5 -131v-343zM243 224q-54 -14 -73.5 -31t-19.5 -45q0 -64 87 -64q61 0 95 25t34 64v106h-2q-4 -12 -27 -23.5t-94 -31.5zM269 681q-18 0 -30 -14t-12 -38t12 -38.5t30 -14.5t31 14.5t13 38.5t-12.5 38t-31.5 14z
" />
    <glyph glyph-name="ae" unicode="&#xe6;" horiz-adv-x="893" 
d="M756 187l89 -59q-68 -143 -227 -143q-120 0 -191 90h-2q-54 -90 -187 -90q-96 0 -147 43.5t-51 112.5q0 65 40 102.5t140 61.5q83 19 113 35q29 17 29 44q0 28 -24.5 45.5t-72.5 17.5q-93 0 -118 -94l-97 38q15 68 72 111t140 43q122 0 177 -73h2q70 73 170 73
q107 0 174 -76q68 -77 68 -204v-34h-370q2 -67 37 -106t96 -39q62 0 98 39q28 33 42 62zM243 224q-53 -13 -73 -31t-20 -45q0 -64 87 -64q61 0 95 25t34 64v106h-2q-4 -12 -27 -23.5t-94 -31.5zM483 317h259q-4 58 -38 92.5t-93 34.5q-55 0 -90 -37t-38 -90z" />
    <glyph glyph-name="ccedilla" unicode="&#xe7;" horiz-adv-x="545" 
d="M195 -169l39 47q34 -32 73 -32q49 0 49 36q0 14 -13 22t-31 8q-26 0 -45 -12l-6 -3l-44 24l39 66q-97 11 -156 83q-60 74 -60 195q0 127 69 203q71 77 176 77q90 0 149.5 -54t69.5 -142l-107 -18q-17 111 -111 111q-61 0 -97 -47t-36 -130q0 -84 35 -130.5t98 -46.5
q93 0 111 123l113 -24q-15 -90 -66 -142t-134 -59l-28 -44l1 -1q23 15 55 15q34 0 59.5 -21t25.5 -55q0 -44 -30.5 -70t-79.5 -26q-71 0 -118 47z" />
    <glyph glyph-name="egrave" unicode="&#xe8;" horiz-adv-x="565" 
d="M427 176l82 -67q-76 -124 -220 -124q-110 0 -180 76q-69 77 -69 204t69 203q69 77 175 77t173 -76q68 -77 68 -204v-34h-370q2 -67 37 -106t95 -39q57 0 92 32q22 20 48 58zM156 317h258q-3 58 -37 92.5t-93 34.5q-55 0 -90 -37t-38 -90zM347 595h-96l-109 124h125z" />
    <glyph glyph-name="eacute" unicode="&#xe9;" horiz-adv-x="565" 
d="M427 176l82 -67q-76 -124 -220 -124q-110 0 -180 76q-69 77 -69 204t69 203q69 77 175 77t173 -76q68 -77 68 -204v-34h-370q2 -67 37 -106t95 -39q57 0 92 32q22 20 48 58zM156 317h258q-3 58 -37 92.5t-93 34.5q-55 0 -90 -37t-38 -90zM341 595h-96l80 124h125z" />
    <glyph glyph-name="ecircumflex" unicode="&#xea;" horiz-adv-x="565" 
d="M427 176l82 -67q-76 -124 -220 -124q-110 0 -180 76q-69 77 -69 204t69 203q69 77 175 77t173 -76q68 -77 68 -204v-34h-370q2 -67 37 -106t95 -39q57 0 92 32q22 20 48 58zM156 317h258q-3 58 -37 92.5t-93 34.5q-55 0 -90 -37t-38 -90zM223 581l-60 48l67 86h126
l68 -86l-62 -48l-69 88z" />
    <glyph glyph-name="edieresis" unicode="&#xeb;" horiz-adv-x="565" 
d="M427 176l82 -67q-76 -124 -220 -124q-110 0 -180 76q-69 77 -69 204t69 203q69 77 175 77t173 -76q68 -77 68 -204v-34h-370q2 -67 37 -106t95 -39q57 0 92 32q22 20 48 58zM156 317h258q-3 58 -37 92.5t-93 34.5q-55 0 -90 -37t-38 -90zM251 600h-112v107h112v-107z
M447 600h-111v107h111v-107z" />
    <glyph glyph-name="igrave" unicode="&#xec;" horiz-adv-x="261" 
d="M182 595h-96l-109 124h125zM186 0h-113v530h113v-530z" />
    <glyph glyph-name="iacute" unicode="&#xed;" horiz-adv-x="276" 
d="M179 595h-96l80 124h125zM188 0h-113v530h113v-530z" />
    <glyph glyph-name="icircumflex" unicode="&#xee;" horiz-adv-x="263" 
d="M188 0h-113v530h113v-530zM61 581l-60 48l67 86h126l68 -86l-62 -48l-69 88z" />
    <glyph glyph-name="idieresis" unicode="&#xef;" horiz-adv-x="267" 
d="M91 600h-112v107h112v-107zM287 600h-111v107h111v-107zM178 0h-113v530h113v-530z" />
    <glyph glyph-name="eth" unicode="&#xf0;" horiz-adv-x="570" 
d="M199 775h122q27 -28 57 -68l125 34l16 -50l-110 -30q121 -194 121 -389q0 -138 -67 -212q-67 -75 -174 -75q-111 0 -180 73q-69 74 -69 207q0 134 61 207t162 73q75 0 123 -42l2 1q-19 56 -70 132l-138 -38l-16 50l120 33q-38 48 -85 92v2zM289 91q126 0 126 174
q0 176 -132 176q-130 0 -130 -176q0 -85 36 -129.5t100 -44.5z" />
    <glyph glyph-name="ntilde" unicode="&#xf1;" horiz-adv-x="589" 
d="M189 0h-114v530h110v-51h2q22 29 61.5 47.5t81.5 18.5q88 0 138.5 -52.5t50.5 -145.5v-347h-113v317q0 123 -103 123q-52 0 -83 -30t-31 -81v-329zM211 599h-59q18 105 97 105q32 0 70 -20q37 -19 51 -19q29 0 36 34h59q-17 -105 -97 -105q-34 0 -71 19q-38 20 -50 20
q-29 0 -36 -34z" />
    <glyph glyph-name="ograve" unicode="&#xf2;" horiz-adv-x="570" 
d="M286 88q60 0 96 47t36 130t-36 130t-96 47q-61 0 -97 -46.5t-36 -130.5q0 -85 36 -131t97 -46zM40 265q0 129 71 205q72 75 175 75q102 0 173 -75q71 -76 71 -205q0 -133 -69 -206q-68 -74 -175 -74q-106 0 -177 74q-69 73 -69 206zM335 595h-96l-109 124h125z" />
    <glyph glyph-name="oacute" unicode="&#xf3;" horiz-adv-x="570" 
d="M286 88q60 0 96 47t36 130t-36 130t-96 47q-61 0 -97 -46.5t-36 -130.5q0 -85 36 -131t97 -46zM40 265q0 129 71 205q72 75 175 75q102 0 173 -75q71 -76 71 -205q0 -133 -69 -206q-68 -74 -175 -74q-106 0 -177 74q-69 73 -69 206zM343 595h-96l80 124h125z" />
    <glyph glyph-name="ocircumflex" unicode="&#xf4;" horiz-adv-x="570" 
d="M286 88q60 0 96 47t36 130t-36 130t-96 47q-61 0 -97 -46.5t-36 -130.5q0 -85 36 -131t97 -46zM40 265q0 129 71 205q72 75 175 75q102 0 173 -75q71 -76 71 -205q0 -133 -69 -206q-68 -74 -175 -74q-106 0 -177 74q-69 73 -69 206zM218 581l-60 48l67 86h126l68 -86
l-62 -48l-69 88z" />
    <glyph glyph-name="otilde" unicode="&#xf5;" horiz-adv-x="570" 
d="M286 88q60 0 96 47t36 130t-36 130t-96 47q-61 0 -97 -46.5t-36 -130.5q0 -85 36 -131t97 -46zM40 265q0 129 71 205q72 75 175 75q102 0 173 -75q71 -76 71 -205q0 -133 -69 -206q-68 -74 -175 -74q-106 0 -177 74q-69 73 -69 206zM186 599h-59q17 105 97 105
q32 0 70 -20q37 -19 51 -19q29 0 36 34h59q-18 -105 -97 -105q-34 0 -71 19q-38 20 -50 20q-29 0 -36 -34z" />
    <glyph glyph-name="odieresis" unicode="&#xf6;" horiz-adv-x="570" 
d="M286 88q60 0 96 47t36 130t-36 130t-96 47q-61 0 -97 -46.5t-36 -130.5q0 -85 36 -131t97 -46zM40 265q0 129 71 205q72 75 175 75q102 0 173 -75q71 -76 71 -205q0 -133 -69 -206q-68 -74 -175 -74q-106 0 -177 74q-69 73 -69 206zM253 600h-112v107h112v-107zM449 600
h-111v107h111v-107z" />
    <glyph glyph-name="divide" unicode="&#xf7;" horiz-adv-x="474" 
d="M236 653q37 0 62 -25t25 -61t-25 -61t-62 -25q-35 0 -60 25t-25 61t25 61t60 25zM151 136q0 37 25 62t60 25q37 0 62 -25t25 -62q0 -36 -25 -60.5t-62 -24.5q-35 0 -60 24.5t-25 60.5zM429 309h-384v90h384v-90z" />
    <glyph glyph-name="oslash" unicode="&#xf8;" horiz-adv-x="570" 
d="M99 -14l-38 31l41 51q-62 76 -62 197q0 129 71 205q72 75 175 75q82 0 147 -51l38 50l38 -32l-41 -52q62 -77 62 -195q0 -133 -69 -206q-68 -74 -175 -74q-88 0 -150 49zM396 368l-194 -249q31 -31 84 -31q60 0 96 47t36 130q0 62 -22 103zM173 160l194 250
q-35 32 -81 32q-60 0 -96.5 -47t-36.5 -130q0 -62 20 -105z" />
    <glyph glyph-name="ugrave" unicode="&#xf9;" horiz-adv-x="575" 
d="M70 187v343h114v-330q0 -59 21 -82.5t72 -23.5t80 29t29 85v322h114v-530h-110v51h-2q-46 -66 -137 -66q-90 0 -135.5 52.5t-45.5 149.5zM335 595h-96l-109 124h125z" />
    <glyph glyph-name="uacute" unicode="&#xfa;" horiz-adv-x="575" 
d="M70 187v343h114v-330q0 -59 21 -82.5t72 -23.5t80 29t29 85v322h114v-530h-110v51h-2q-46 -66 -137 -66q-90 0 -135.5 52.5t-45.5 149.5zM333 595h-96l80 124h125z" />
    <glyph glyph-name="ucircumflex" unicode="&#xfb;" horiz-adv-x="575" 
d="M70 187v343h114v-330q0 -59 21 -82.5t72 -23.5t80 29t29 85v322h114v-530h-110v51h-2q-46 -66 -137 -66q-90 0 -135.5 52.5t-45.5 149.5zM216 581l-60 48l67 86h126l68 -86l-62 -48l-69 88z" />
    <glyph glyph-name="udieresis" unicode="&#xfc;" horiz-adv-x="575" 
d="M70 187v343h114v-330q0 -59 21 -82.5t72 -23.5t80 29t29 85v322h114v-530h-110v51h-2q-46 -66 -137 -66q-90 0 -135.5 52.5t-45.5 149.5zM250 600h-112v107h112v-107zM446 600h-111v107h111v-107z" />
    <glyph glyph-name="yacute" unicode="&#xfd;" horiz-adv-x="538" 
d="M226 -225h-110l100 249l-206 506h120l139 -365h2l139 365h118zM321 595h-96l80 124h125z" />
    <glyph glyph-name="thorn" unicode="&#xfe;" horiz-adv-x="606" 
d="M189 -225h-114v955h111v-247h2q54 62 145 62q97 0 164 -76q69 -77 69 -204q0 -128 -70 -204q-69 -76 -162 -76q-97 0 -143 58h-2v-268zM189 327v-128q0 -46 34.5 -77.5t87.5 -31.5q66 0 103.5 45.5t37.5 129.5q0 83 -38 129t-103 46q-54 0 -88 -32.5t-34 -80.5z" />
    <glyph glyph-name="ydieresis" unicode="&#xff;" horiz-adv-x="538" 
d="M226 -225h-110l100 249l-206 506h120l139 -365h2l139 365h118zM225 600h-112v107h112v-107zM421 600h-111v107h111v-107z" />
    <glyph glyph-name="Amacron" unicode="&#x100;" horiz-adv-x="620" 
d="M610 0h-117l-42 120h-283l-41 -120h-117l252 700h96zM311 529h-2l-106 -308h213zM462 765h-288v74h288v-74z" />
    <glyph glyph-name="amacron" unicode="&#x101;" horiz-adv-x="541" 
d="M476 0h-97v53h-2q-9 -14 -38 -37q-42 -31 -112 -31q-90 0 -138.5 43t-48.5 112q0 68 40.5 104.5t139.5 60.5q87 22 115 36q27 15 27 43t-25 45.5t-72 17.5q-52 0 -78.5 -23.5t-39.5 -69.5l-97 37q18 71 72.5 112.5t139.5 41.5q100 0 157 -50.5t57 -151.5v-343zM243 224
q-54 -14 -73.5 -31t-19.5 -45q0 -64 87 -64q61 0 95 25t34 64v106h-2q-4 -12 -27 -23.5t-94 -31.5zM415 620h-288v74h288v-74z" />
    <glyph glyph-name="Abreve" unicode="&#x102;" horiz-adv-x="620" 
d="M610 0h-117l-42 120h-283l-41 -120h-117l252 700h96zM311 529h-2l-106 -308h213zM188 881h57q3 -23 22.5 -38.5t51.5 -15.5q31 0 49.5 15.5t21.5 38.5h60q0 -55 -37 -90.5t-94 -35.5q-59 0 -95 35t-36 91z" />
    <glyph glyph-name="abreve" unicode="&#x103;" horiz-adv-x="541" 
d="M476 0h-97v53h-2q-9 -14 -38 -37q-42 -31 -112 -31q-90 0 -138.5 43t-48.5 112q0 68 40.5 104.5t139.5 60.5q87 22 115 36q27 15 27 43t-25 45.5t-72 17.5q-52 0 -78.5 -23.5t-39.5 -69.5l-97 37q18 71 72.5 112.5t139.5 41.5q100 0 157 -50.5t57 -151.5v-343zM243 224
q-54 -14 -73.5 -31t-19.5 -45q0 -64 87 -64q61 0 95 25t34 64v106h-2q-4 -12 -27 -23.5t-94 -31.5zM138 711h57q3 -23 22.5 -38.5t51.5 -15.5q31 0 49.5 15.5t21.5 38.5h60q0 -55 -37 -90.5t-94 -35.5q-59 0 -95 35t-36 91z" />
    <glyph glyph-name="Aogonek" unicode="&#x104;" horiz-adv-x="620" 
d="M544 0h-51l-42 120h-283l-41 -120h-117l252 700h96l252 -700q-80 -69 -80 -116q0 -35 41 -35q33 0 66 37l38 -35q-60 -67 -135 -67q-42 0 -68.5 19t-26.5 55q0 38 27.5 76.5t71.5 65.5zM311 529h-2l-106 -308h213z" />
    <glyph glyph-name="aogonek" unicode="&#x105;" horiz-adv-x="541" 
d="M410 0h-31v53h-2q-9 -14 -38 -37q-42 -31 -112 -31q-90 0 -138.5 43t-48.5 112q0 68 40.5 104.5t139.5 60.5q87 22 115 36q27 15 27 43t-25 45.5t-72 17.5q-52 0 -78.5 -23.5t-39.5 -69.5l-97 37q18 71 72.5 112.5t139.5 41.5q100 0 157 -50.5t57 -151.5v-343
q-80 -69 -80 -116q0 -35 41 -35q33 0 66 37l38 -35q-60 -67 -135 -67q-42 0 -68.5 19t-26.5 55q0 38 27.5 76.5t71.5 65.5zM243 224q-54 -14 -73.5 -31t-19.5 -45q0 -64 87 -64q61 0 95 25t34 64v106h-2q-4 -12 -27 -23.5t-94 -31.5z" />
    <glyph glyph-name="Cacute" unicode="&#x106;" horiz-adv-x="664" 
d="M500 274l124 -25q-12 -117 -86 -191q-73 -73 -191 -73q-133 0 -218 93q-84 93 -84 278q0 173 88 265q88 94 213 94q109 0 184 -69q74 -67 88 -180l-122 -19q-26 159 -149 159q-76 0 -129 -62q-51 -62 -51 -190q0 -127 49 -193.5t131 -66.5q131 0 153 180zM395 765h-96
l80 124h126z" />
    <glyph glyph-name="cacute" unicode="&#x107;" horiz-adv-x="545" 
d="M397 211l113 -24q-16 -97 -73.5 -149.5t-150.5 -52.5q-108 0 -177 74q-69 73 -69 206q0 127 69 203q71 77 176 77q90 0 149.5 -54t69.5 -142l-107 -18q-17 111 -111 111q-61 0 -97 -47t-36 -130q0 -84 35 -130.5t98 -46.5q93 0 111 123zM315 595h-96l80 124h125z" />
    <glyph glyph-name="Ccircumflex" unicode="&#x108;" horiz-adv-x="664" 
d="M500 274l124 -25q-12 -117 -86 -191q-73 -73 -191 -73q-133 0 -218 93q-84 93 -84 278q0 173 88 265q88 94 213 94q109 0 184 -69q74 -67 88 -180l-122 -19q-26 159 -149 159q-76 0 -129 -62q-51 -62 -51 -190q0 -127 49 -193.5t131 -66.5q131 0 153 180zM281 747l-60 48
l67 86h126l68 -86l-62 -48l-69 88z" />
    <glyph glyph-name="ccircumflex" unicode="&#x109;" horiz-adv-x="545" 
d="M397 211l113 -24q-16 -97 -73.5 -149.5t-150.5 -52.5q-108 0 -177 74q-69 73 -69 206q0 127 69 203q71 77 176 77q90 0 149.5 -54t69.5 -142l-107 -18q-17 111 -111 111q-61 0 -97 -47t-36 -130q0 -84 35 -130.5t98 -46.5q93 0 111 123zM205 581l-60 48l67 86h126l68 -86
l-62 -48l-69 88z" />
    <glyph glyph-name="Cdotaccent" unicode="&#x10a;" horiz-adv-x="664" 
d="M500 274l124 -25q-12 -117 -86 -191q-73 -73 -191 -73q-133 0 -218 93q-84 93 -84 278q0 173 88 265q88 94 213 94q109 0 184 -69q74 -67 88 -180l-122 -19q-26 159 -149 159q-76 0 -129 -62q-51 -62 -51 -190q0 -127 49 -193.5t131 -66.5q131 0 153 180zM398 765h-119
v114h119v-114z" />
    <glyph glyph-name="cdotaccent" unicode="&#x10b;" horiz-adv-x="545" 
d="M397 211l113 -24q-16 -97 -73.5 -149.5t-150.5 -52.5q-108 0 -177 74q-69 73 -69 206q0 127 69 203q71 77 176 77q90 0 149.5 -54t69.5 -142l-107 -18q-17 111 -111 111q-61 0 -97 -47t-36 -130q0 -84 35 -130.5t98 -46.5q93 0 111 123zM338 599h-119v114h119v-114z" />
    <glyph glyph-name="Ccaron" unicode="&#x10c;" horiz-adv-x="664" 
d="M500 274l124 -25q-12 -117 -86 -191q-73 -73 -191 -73q-133 0 -218 93q-84 93 -84 278q0 173 88 265q88 94 213 94q109 0 184 -69q74 -67 88 -180l-122 -19q-26 159 -149 159q-76 0 -129 -62q-51 -62 -51 -190q0 -127 49 -193.5t131 -66.5q131 0 153 180zM404 765h-126
l-67 86l60 48l70 -88l69 88l61 -48z" />
    <glyph glyph-name="ccaron" unicode="&#x10d;" horiz-adv-x="545" 
d="M397 211l113 -24q-16 -97 -73.5 -149.5t-150.5 -52.5q-108 0 -177 74q-69 73 -69 206q0 127 69 203q71 77 176 77q90 0 149.5 -54t69.5 -142l-107 -18q-17 111 -111 111q-61 0 -97 -47t-36 -130q0 -84 35 -130.5t98 -46.5q93 0 111 123zM341 594h-126l-67 86l60 48
l70 -88l69 88l61 -48z" />
    <glyph glyph-name="Dcaron" unicode="&#x10e;" horiz-adv-x="657" 
d="M203 591v-482h103q88 0 136 53q49 52 49 189q0 119 -47.5 179.5t-131.5 60.5h-109zM308 0h-223v700h229q60 0 113 -21t96 -62t68.5 -109.5t25.5 -156.5q0 -193 -97 -277q-87 -74 -212 -74zM339 765h-126l-67 86l60 48l70 -88l69 88l61 -48z" />
    <glyph glyph-name="dcaron" unicode="&#x10f;" horiz-adv-x="634" 
d="M409 203v120q0 50 -33 84.5t-88 34.5q-64 0 -99 -45.5t-35 -131.5t35 -131.5t99 -45.5q53 0 87 33t34 82zM523 0h-106v51h-2q-8 -12 -21 -23q-12 -10 -48 -27q-33 -16 -76 -16q-105 0 -168 76q-62 77 -62 204q0 128 67 204t162 76q84 0 138 -66h2v251h114v-730zM631 570
h-68l31 160h95z" />
    <glyph glyph-name="Dcroat" unicode="&#x110;" horiz-adv-x="666" 
d="M322 0h-228v315h-69v97h69v288h234q126 0 215 -89q88 -88 88 -260q0 -194 -97 -277q-87 -74 -212 -74zM212 315v-206h108q86 0 136 53q49 52 49 189q0 120 -47.5 180t-131.5 60h-114v-179h151v-97h-151z" />
    <glyph glyph-name="dslash" unicode="&#x111;" horiz-adv-x="598" 
d="M523 0h-106v51h-2q-59 -66 -145 -66q-105 0 -168 76q-62 77 -62 204t64 203q65 77 166 77q83 0 137 -66h2v138h-113v83h113v30h114v-30h55v-83h-55v-617zM409 203v120q0 49 -33.5 83t-88.5 34q-64 0 -98.5 -44.5t-34.5 -130.5t34.5 -130.5t98.5 -44.5q54 0 88 32.5
t34 80.5z" />
    <glyph glyph-name="Emacron" unicode="&#x112;" horiz-adv-x="581" 
d="M521 0h-436v700h436v-109h-318v-180h290v-105h-290v-197h318v-109zM444 765h-288v74h288v-74z" />
    <glyph glyph-name="emacron" unicode="&#x113;" horiz-adv-x="565" 
d="M427 176l82 -67q-76 -124 -220 -124q-110 0 -180 76q-69 77 -69 204t69 203q69 77 175 77t173 -76q68 -77 68 -204v-34h-370q2 -67 37 -106t95 -39q57 0 92 32q22 20 48 58zM156 317h258q-3 58 -37 92.5t-93 34.5q-55 0 -90 -37t-38 -90zM436 620h-288v74h288v-74z" />
    <glyph glyph-name="Ebreve" unicode="&#x114;" horiz-adv-x="581" 
d="M521 0h-436v700h436v-109h-318v-180h290v-105h-290v-197h318v-109zM176 881h57q3 -23 22.5 -38.5t51.5 -15.5q31 0 49.5 15.5t21.5 38.5h60q0 -55 -37 -90.5t-94 -35.5q-59 0 -95 35t-36 91z" />
    <glyph glyph-name="ebreve" unicode="&#x115;" horiz-adv-x="565" 
d="M427 176l82 -67q-76 -124 -220 -124q-110 0 -180 76q-69 77 -69 204t69 203q69 77 175 77t173 -76q68 -77 68 -204v-34h-370q2 -67 37 -106t95 -39q57 0 92 32q22 20 48 58zM156 317h258q-3 58 -37 92.5t-93 34.5q-55 0 -90 -37t-38 -90zM163 711h57q3 -23 22.5 -38.5
t51.5 -15.5q31 0 49.5 15.5t21.5 38.5h60q0 -55 -37 -90.5t-94 -35.5q-59 0 -95 35t-36 91z" />
    <glyph glyph-name="Edotaccent" unicode="&#x116;" horiz-adv-x="581" 
d="M521 0h-436v700h436v-109h-318v-180h290v-105h-290v-197h318v-109zM369 765h-119v114h119v-114z" />
    <glyph glyph-name="edotaccent" unicode="&#x117;" horiz-adv-x="565" 
d="M427 176l82 -67q-76 -124 -220 -124q-110 0 -180 76q-69 77 -69 204t69 203q69 77 175 77t173 -76q68 -77 68 -204v-34h-370q2 -67 37 -106t95 -39q57 0 92 32q22 20 48 58zM156 317h258q-3 58 -37 92.5t-93 34.5q-55 0 -90 -37t-38 -90zM355 599h-119v114h119v-114z" />
    <glyph glyph-name="Eogonek" unicode="&#x118;" horiz-adv-x="581" 
d="M382 0h-297v700h436v-109h-318v-180h290v-105h-290v-197h318v-109h-73q-80 -69 -80 -116q0 -35 41 -35q33 0 66 37l38 -35q-60 -67 -135 -67q-42 0 -68.5 19t-26.5 55q0 38 27.5 76.5t71.5 65.5z" />
    <glyph glyph-name="eogonek" unicode="&#x119;" horiz-adv-x="565" 
d="M379 -114l38 -35q-60 -67 -135 -67q-42 0 -68.5 19t-26.5 55q0 70 79 128q-101 8 -164 83q-62 77 -62 196q0 127 69 203q69 77 175 77t173 -76q68 -77 68 -204v-34h-370q2 -67 37 -106t95 -39q57 0 92 32q22 20 48 58l82 -67q-65 -102 -170 -120q-67 -60 -67 -105
q0 -35 41 -35q33 0 66 37zM156 317h258q-3 58 -37 92.5t-93 34.5q-55 0 -90 -37t-38 -90z" />
    <glyph glyph-name="Ecaron" unicode="&#x11a;" horiz-adv-x="581" 
d="M521 0h-436v700h436v-109h-318v-180h290v-105h-290v-197h318v-109zM369 765h-126l-67 86l60 48l70 -88l69 88l61 -48z" />
    <glyph glyph-name="ecaron" unicode="&#x11b;" horiz-adv-x="565" 
d="M427 176l82 -67q-76 -124 -220 -124q-110 0 -180 76q-69 77 -69 204t69 203q69 77 175 77t173 -76q68 -77 68 -204v-34h-370q2 -67 37 -106t95 -39q57 0 92 32q22 20 48 58zM156 317h258q-3 58 -37 92.5t-93 34.5q-55 0 -90 -37t-38 -90zM354 594h-126l-67 86l60 48
l70 -88l69 88l61 -48z" />
    <glyph glyph-name="Gcircumflex" unicode="&#x11c;" horiz-adv-x="660" 
d="M346 -15q-132 0 -217 93q-84 93 -84 282q0 167 88 261t213 94q105 0 178 -64q72 -64 89 -172l-119 -19q-28 145 -148 145q-76 0 -128 -64q-51 -63 -51 -181q0 -129 49 -197.5t130 -68.5q73 0 114.5 42.5t40.5 119.5h-145v102h259v-84q0 -136 -75 -212q-74 -77 -194 -77z
M266 747l-60 48l67 86h126l68 -86l-62 -48l-69 88z" />
    <glyph glyph-name="gcircumflex" unicode="&#x11d;" horiz-adv-x="601" 
d="M79 -104l88 56q22 -47 52 -69.5t79 -22.5q56 0 87.5 30.5t31.5 90.5v68h-2q-19 -28 -55.5 -46t-81.5 -18q-104 0 -171 75q-67 74 -67 205q0 127 69 204q70 76 167 76q94 0 143 -66h2v51h110v-533q0 -114 -65 -176q-64 -61 -168 -61q-80 0 -137 36.5t-82 99.5zM417 199
v128q0 48 -34 81.5t-88 33.5q-65 0 -103 -46.5t-38 -130.5t37.5 -130.5t103.5 -46.5q53 0 87.5 32t34.5 79zM237 581l-60 48l67 86h126l68 -86l-62 -48l-69 88z" />
    <glyph glyph-name="Gbreve" unicode="&#x11e;" horiz-adv-x="660" 
d="M346 -15q-132 0 -217 93q-84 93 -84 282q0 167 88 261t213 94q105 0 178 -64q72 -64 89 -172l-119 -19q-28 145 -148 145q-76 0 -128 -64q-51 -63 -51 -181q0 -129 49 -197.5t130 -68.5q73 0 114.5 42.5t40.5 119.5h-145v102h259v-84q0 -136 -75 -212q-74 -77 -194 -77z
M196 881h57q3 -23 22.5 -38.5t51.5 -15.5q31 0 49.5 15.5t21.5 38.5h60q0 -55 -37 -90.5t-94 -35.5q-59 0 -95 35t-36 91z" />
    <glyph glyph-name="gbreve" unicode="&#x11f;" horiz-adv-x="601" 
d="M79 -104l88 56q22 -47 52 -69.5t79 -22.5q56 0 87.5 30.5t31.5 90.5v68h-2q-19 -28 -55.5 -46t-81.5 -18q-104 0 -171 75q-67 74 -67 205q0 127 69 204q70 76 167 76q94 0 143 -66h2v51h110v-533q0 -114 -65 -176q-64 -61 -168 -61q-80 0 -137 36.5t-82 99.5zM417 199
v128q0 48 -34 81.5t-88 33.5q-65 0 -103 -46.5t-38 -130.5t37.5 -130.5t103.5 -46.5q53 0 87.5 32t34.5 79zM176 711h57q3 -23 22.5 -38.5t51.5 -15.5q31 0 49.5 15.5t21.5 38.5h60q0 -55 -37 -90.5t-94 -35.5q-59 0 -95 35t-36 91z" />
    <glyph glyph-name="Gdotaccent" unicode="&#x120;" horiz-adv-x="660" 
d="M346 -15q-132 0 -217 93q-84 93 -84 282q0 167 88 261t213 94q105 0 178 -64q72 -64 89 -172l-119 -19q-28 145 -148 145q-76 0 -128 -64q-51 -63 -51 -181q0 -129 49 -197.5t130 -68.5q73 0 114.5 42.5t40.5 119.5h-145v102h259v-84q0 -136 -75 -212q-74 -77 -194 -77z
M397 765h-119v114h119v-114z" />
    <glyph glyph-name="gdotaccent" unicode="&#x121;" horiz-adv-x="601" 
d="M79 -104l88 56q22 -47 52 -69.5t79 -22.5q56 0 87.5 30.5t31.5 90.5v68h-2q-19 -28 -55.5 -46t-81.5 -18q-104 0 -171 75q-67 74 -67 205q0 127 69 204q70 76 167 76q94 0 143 -66h2v51h110v-533q0 -114 -65 -176q-64 -61 -168 -61q-80 0 -137 36.5t-82 99.5zM417 199
v128q0 48 -34 81.5t-88 33.5q-65 0 -103 -46.5t-38 -130.5t37.5 -130.5t103.5 -46.5q53 0 87.5 32t34.5 79zM366 599h-119v114h119v-114z" />
    <glyph glyph-name="Gcommaaccent" unicode="&#x122;" horiz-adv-x="660" 
d="M346 -15q-132 0 -217 93q-84 93 -84 282q0 167 88 261t213 94q105 0 178 -64q72 -64 89 -172l-119 -19q-28 145 -148 145q-76 0 -128 -64q-51 -63 -51 -181q0 -129 49 -197.5t130 -68.5q73 0 114.5 42.5t40.5 119.5h-145v102h259v-84q0 -136 -75 -212q-74 -77 -194 -77z
M310 -252v43q49 7 49 55h-53v105h115v-92q0 -103 -111 -111z" />
    <glyph glyph-name="gcommaaccent" unicode="&#x123;" horiz-adv-x="601" 
d="M79 -104l88 56q22 -47 52 -69.5t79 -22.5q56 0 87.5 30.5t31.5 90.5v68h-2q-19 -28 -55.5 -46t-81.5 -18q-104 0 -171 75q-67 74 -67 205q0 127 69 204q70 76 167 76q94 0 143 -66h2v51h110v-533q0 -114 -65 -176q-64 -61 -168 -61q-80 0 -137 36.5t-82 99.5zM417 199
v128q0 48 -34 81.5t-88 33.5q-65 0 -103 -46.5t-38 -130.5t37.5 -130.5t103.5 -46.5q53 0 87.5 32t34.5 79zM356 791v-37q-42 -8 -42 -54h48v-109h-111v93q0 100 105 107z" />
    <glyph glyph-name="Hcircumflex" unicode="&#x124;" horiz-adv-x="670" 
d="M203 0h-118v700h118v-288h264v288h118v-700h-118v310h-264v-310zM258 747l-60 48l67 86h126l68 -86l-62 -48l-69 88z" />
    <glyph glyph-name="hcircumflex" unicode="&#x125;" horiz-adv-x="594" 
d="M189 0h-114v730h114v-252h2q18 27 59.5 47t82.5 20q86 0 138.5 -52.5t52.5 -141.5v-351h-113v324q0 53 -28.5 84.5t-80.5 31.5q-51 0 -82 -30t-31 -77v-333zM280 581l-60 48l67 86h126l68 -86l-62 -48l-69 88z" />
    <glyph glyph-name="Hbar" unicode="&#x126;" horiz-adv-x="689" 
d="M212 0h-117v500h-50v98h50v102h117v-102h264v102h118v-102h50v-98h-50v-500h-118v310h-264v-310zM212 500v-88h264v88h-264z" />
    <glyph glyph-name="hbar" unicode="&#x127;" horiz-adv-x="567" 
d="M186 0h-114v617h-52v83h52v30h114v-30h113v-83h-113v-138h2q19 28 56 47t77 19q84 0 135 -52.5t51 -141.5v-351h-114v324q0 53 -26.5 84.5t-76.5 31.5q-49 0 -76.5 -29t-27.5 -78v-333z" />
    <glyph glyph-name="Itilde" unicode="&#x128;" horiz-adv-x="298" 
d="M208 0h-118v700h118v-700zM38 765h-59q17 104 97 104q33 0 70 -19t51 -19q29 0 36 33h59q-17 -104 -97 -104q-34 0 -71 19t-50 19q-28 0 -36 -33z" />
    <glyph glyph-name="itilde" unicode="&#x129;" horiz-adv-x="265" 
d="M35 599h-59q18 105 97 105q32 0 70 -20q37 -19 51 -19q29 0 36 34h59q-17 -105 -97 -105q-34 0 -71 19q-38 20 -50 20q-29 0 -36 -34zM177 0h-113v530h113v-530z" />
    <glyph glyph-name="Imacron" unicode="&#x12a;" horiz-adv-x="298" 
d="M208 0h-118v700h118v-700zM280 765h-288v74h288v-74z" />
    <glyph glyph-name="imacron" unicode="&#x12b;" horiz-adv-x="280" 
d="M284 620h-288v74h288v-74zM184 0h-113v530h113v-530z" />
    <glyph glyph-name="Ibreve" unicode="&#x12c;" horiz-adv-x="298" 
d="M208 0h-118v700h118v-700zM5 881h57q3 -23 22.5 -38.5t51.5 -15.5q31 0 49.5 15.5t21.5 38.5h60q0 -55 -37 -90.5t-94 -35.5q-59 0 -95 35t-36 91z" />
    <glyph glyph-name="ibreve" unicode="&#x12d;" horiz-adv-x="273" 
d="M5 711h57q3 -23 22.5 -38.5t51.5 -15.5q31 0 49.5 15.5t21.5 38.5h60q0 -55 -37 -90.5t-94 -35.5q-59 0 -95 35t-36 91zM186 0h-113v530h113v-530z" />
    <glyph glyph-name="Iogonek" unicode="&#x12e;" horiz-adv-x="298" 
d="M142 0h-52v700h118v-700q-80 -69 -80 -116q0 -35 41 -35q33 0 66 37l38 -35q-60 -67 -135 -67q-42 0 -68.5 19t-26.5 55q0 38 27.5 76.5t71.5 65.5z" />
    <glyph glyph-name="iogonek" unicode="&#x12f;" horiz-adv-x="265" 
d="M125 0h-48v530h114v-530q-80 -69 -80 -116q0 -35 41 -35q33 0 66 37l38 -35q-60 -67 -135 -67q-42 0 -68.5 19t-26.5 55q0 38 27.5 76.5t71.5 65.5zM193 617h-118v113h118v-113z" />
    <glyph glyph-name="Idot" unicode="&#x130;" horiz-adv-x="298" 
d="M208 0h-118v700h118v-700zM196 765h-119v114h119v-114z" />
    <glyph glyph-name="dotlessi" unicode="&#x131;" horiz-adv-x="263" 
d="M188 0h-113v530h113v-530z" />
    <glyph glyph-name="IJ" unicode="&#x132;" horiz-adv-x="728" 
d="M208 0h-118v700h118v-700zM273 146l109 36q16 -88 77 -88q39 0 55.5 19t16.5 63v524h117v-514q0 -102 -49.5 -151.5t-139.5 -49.5q-74 0 -124 45t-62 116z" />
    <glyph glyph-name="ij" unicode="&#x133;" horiz-adv-x="516" 
d="M186 0h-114v530h114v-530zM188 617h-118v113h118v-113zM306 -195h-48v119h22q40 0 40 48v558h114v-586q0 -139 -128 -139zM436 617h-118v113h118v-113z" />
    <glyph glyph-name="Jcircumflex" unicode="&#x134;" horiz-adv-x="470" 
d="M15 146l109 36q16 -88 77 -88q39 0 55.5 19t16.5 63v524h117v-514q0 -102 -49.5 -151.5t-139.5 -49.5q-74 0 -124 45t-62 116zM257 747l-60 48l67 86h126l68 -86l-62 -48l-69 88z" />
    <glyph glyph-name="jcircumflex" unicode="&#x135;" horiz-adv-x="261" 
d="M63 -195h-48v119h22q40 0 40 48v558h114v-586q0 -139 -128 -139zM64 581l-60 48l67 86h126l68 -86l-62 -48l-69 88z" />
    <glyph glyph-name="Kcommaaccent" unicode="&#x136;" horiz-adv-x="622" 
d="M193 0h-118v700h118v-312h2l261 312h143l-259 -308l287 -392h-142l-227 307h-2l-63 -80v-227zM263 -252v43q49 7 49 55h-53v105h115v-92q0 -103 -111 -111z" />
    <glyph glyph-name="kcommaaccent" unicode="&#x137;" horiz-adv-x="564" 
d="M189 0h-114v730h114v-427h2l203 227h145l-192 -213l212 -317h-129l-168 251h-2l-71 -78v-173zM235 -252v43q49 7 49 55h-53v105h115v-92q0 -103 -111 -111z" />
    <glyph glyph-name="kgreenlandic" unicode="&#x138;" horiz-adv-x="564" 
d="M189 0h-114v529h114v-226l205 227h145l-192 -213l212 -317h-129l-170 251l-71 -78v-173z" />
    <glyph glyph-name="Lacute" unicode="&#x139;" horiz-adv-x="517" 
d="M497 0h-412v700h118v-591h294v-109zM180 765h-96l80 124h126z" />
    <glyph glyph-name="lacute" unicode="&#x13a;" horiz-adv-x="268" 
d="M193 0h-118v730h118v-730zM170 780h-96l80 124h126z" />
    <glyph glyph-name="Lcommaaccent" unicode="&#x13b;" horiz-adv-x="517" 
d="M497 0h-412v700h118v-591h294v-109zM217 -252v43q49 7 49 55h-53v105h115v-92q0 -103 -111 -111z" />
    <glyph glyph-name="lcommaaccent" unicode="&#x13c;" horiz-adv-x="268" 
d="M193 0h-118v730h118v-730zM84 -252v43q49 7 49 55h-53v105h115v-92q0 -103 -111 -111z" />
    <glyph glyph-name="Lcaron" unicode="&#x13d;" horiz-adv-x="517" 
d="M497 0h-412v700h118v-591h294v-109zM425 570h-68l31 160h95z" />
    <glyph glyph-name="lcaron" unicode="&#x13e;" horiz-adv-x="319" 
d="M193 0h-118v730h118v-730zM311 570h-68l31 160h95z" />
    <glyph glyph-name="Ldot" unicode="&#x13f;" horiz-adv-x="517" 
d="M497 0h-412v700h118v-591h294v-109zM458 303h-139v133h139v-133z" />
    <glyph glyph-name="ldot" unicode="&#x140;" horiz-adv-x="381" 
d="M193 0h-118v730h118v-730zM381 322h-139v133h139v-133z" />
    <glyph glyph-name="Lslash" unicode="&#x141;" horiz-adv-x="551" 
d="M531 0h-424v325l-67 -68l-40 41l107 107v295h118v-196l111 111l39 -41l-150 -150v-315h306v-109z" />
    <glyph glyph-name="lslash" unicode="&#x142;" horiz-adv-x="306" 
d="M210 0h-114v350l-86 -86l-40 41l126 125v300h114v-210l86 86l40 -40l-126 -127v-439z" />
    <glyph glyph-name="Nacute" unicode="&#x143;" horiz-adv-x="691" 
d="M203 0h-118v700h123l278 -495h2v495h118v-700h-120l-281 495h-2v-495zM389 765h-96l80 124h126z" />
    <glyph glyph-name="nacute" unicode="&#x144;" horiz-adv-x="589" 
d="M189 0h-114v530h110v-51h2q22 29 61.5 47.5t81.5 18.5q88 0 138.5 -52.5t50.5 -145.5v-347h-113v317q0 123 -103 123q-52 0 -83 -30t-31 -81v-329zM364 595h-96l80 124h125z" />
    <glyph glyph-name="Ncommaaccent" unicode="&#x145;" horiz-adv-x="691" 
d="M203 0h-118v700h123l278 -495h2v495h118v-700h-120l-281 495h-2v-495zM296 -252v43q49 7 49 55h-53v105h115v-92q0 -103 -111 -111z" />
    <glyph glyph-name="ncommaaccent" unicode="&#x146;" horiz-adv-x="589" 
d="M189 0h-114v530h110v-51h2q22 29 61.5 47.5t81.5 18.5q88 0 138.5 -52.5t50.5 -145.5v-347h-113v317q0 123 -103 123q-52 0 -83 -30t-31 -81v-329zM246 -252v43q49 7 49 55h-53v105h115v-92q0 -103 -111 -111z" />
    <glyph glyph-name="Ncaron" unicode="&#x147;" horiz-adv-x="691" 
d="M203 0h-118v700h123l278 -495h2v495h118v-700h-120l-281 495h-2v-495zM408 765h-126l-67 86l60 48l70 -88l69 88l61 -48z" />
    <glyph glyph-name="ncaron" unicode="&#x148;" horiz-adv-x="589" 
d="M189 0h-114v530h110v-51h2q22 29 61.5 47.5t81.5 18.5q88 0 138.5 -52.5t50.5 -145.5v-347h-113v317q0 123 -103 123q-52 0 -83 -30t-31 -81v-329zM362 594h-126l-67 86l60 48l70 -88l69 88l61 -48z" />
    <glyph glyph-name="Eng" unicode="&#x14a;" horiz-adv-x="688" 
d="M203 0h-118v700h110l288 -480h2v480h118v-779q0 -138 -132 -138h-63v114h45q44 0 44 50v55l-292 478h-2v-480z" />
    <glyph glyph-name="eng" unicode="&#x14b;" horiz-adv-x="587" 
d="M189 0h-114v530h110v-51h2q22 30 59 48t79 18q86 0 139 -62t53 -165v-396q0 -140 -128 -140h-62v109h38q39 0 39 48v378q0 123 -107 123q-51 0 -79.5 -31t-28.5 -83v-326z" />
    <glyph glyph-name="Omacron" unicode="&#x14c;" horiz-adv-x="692" 
d="M525 355q0 121 -51 186q-51 64 -127 64q-77 0 -128 -64q-51 -63 -51 -185q0 -130 48.5 -196t130.5 -66t130 65.5t48 195.5zM45 356q0 170 89 265q88 94 213 94q122 0 211 -95t89 -265q0 -194 -93 -287q-84 -83 -207 -83q-121 0 -209 84q-93 93 -93 287zM492 765h-288v74
h288v-74z" />
    <glyph glyph-name="omacron" unicode="&#x14d;" horiz-adv-x="570" 
d="M286 88q60 0 96 47t36 130t-36 130t-96 47q-61 0 -97 -46.5t-36 -130.5q0 -85 36 -131t97 -46zM40 265q0 129 71 205q72 75 175 75q102 0 173 -75q71 -76 71 -205q0 -133 -69 -206q-68 -74 -175 -74q-106 0 -177 74q-69 73 -69 206zM432 620h-288v74h288v-74z" />
    <glyph glyph-name="Obreve" unicode="&#x14e;" horiz-adv-x="692" 
d="M525 355q0 121 -51 186q-51 64 -127 64q-77 0 -128 -64q-51 -63 -51 -185q0 -130 48.5 -196t130.5 -66t130 65.5t48 195.5zM45 356q0 170 89 265q88 94 213 94q122 0 211 -95t89 -265q0 -194 -93 -287q-84 -83 -207 -83q-121 0 -209 84q-93 93 -93 287zM217 881h57
q3 -23 22.5 -38.5t51.5 -15.5q31 0 49.5 15.5t21.5 38.5h60q0 -55 -37 -90.5t-94 -35.5q-59 0 -95 35t-36 91z" />
    <glyph glyph-name="obreve" unicode="&#x14f;" horiz-adv-x="570" 
d="M286 88q60 0 96 47t36 130t-36 130t-96 47q-61 0 -97 -46.5t-36 -130.5q0 -85 36 -131t97 -46zM40 265q0 129 71 205q72 75 175 75q102 0 173 -75q71 -76 71 -205q0 -133 -69 -206q-68 -74 -175 -74q-106 0 -177 74q-69 73 -69 206zM159 711h57q3 -23 22.5 -38.5
t51.5 -15.5q31 0 49.5 15.5t21.5 38.5h60q0 -55 -37 -90.5t-94 -35.5q-59 0 -95 35t-36 91z" />
    <glyph glyph-name="Ohungarumlaut" unicode="&#x150;" horiz-adv-x="692" 
d="M525 355q0 121 -51 186q-51 64 -127 64q-77 0 -128 -64q-51 -63 -51 -185q0 -130 48.5 -196t130.5 -66t130 65.5t48 195.5zM45 356q0 170 89 265q88 94 213 94q122 0 211 -95t89 -265q0 -194 -93 -287q-84 -83 -207 -83q-121 0 -209 84q-93 93 -93 287zM310 765h-80
l75 115h109zM462 765h-81l75 115h110z" />
    <glyph glyph-name="ohungarumlaut" unicode="&#x151;" horiz-adv-x="570" 
d="M286 88q60 0 96 47t36 130t-36 130t-96 47q-61 0 -97 -46.5t-36 -130.5q0 -85 36 -131t97 -46zM40 265q0 129 71 205q72 75 175 75q102 0 173 -75q71 -76 71 -205q0 -133 -69 -206q-68 -74 -175 -74q-106 0 -177 74q-69 73 -69 206zM250 607h-80l75 115h109zM402 607h-81
l75 115h110z" />
    <glyph glyph-name="OE" unicode="&#x152;" horiz-adv-x="995" 
d="M935 0h-433v40q-56 -55 -158 -55q-122 0 -207 84q-92 94 -92 287q0 170 87 265q88 94 212 94q102 0 158 -55v40h433v-109h-314v-171h286v-104h-286v-207h314v-109zM502 163v370q-50 72 -150 72q-84 0 -132 -63t-48 -186q0 -262 180 -262q104 0 150 69z" />
    <glyph glyph-name="oe" unicode="&#x153;" horiz-adv-x="938" 
d="M807 184l86 -50q-26 -66 -85.5 -107.5t-140.5 -41.5q-126 0 -192 102q-65 -102 -189 -102q-106 0 -177 74q-69 73 -69 206q0 129 71 205q72 75 175 75q120 0 187 -102q65 102 185 102q107 0 173 -74q67 -73 67 -206v-34h-366q2 -67 37 -106t96 -39q98 0 142 98zM286 88
q60 0 96 47t36 130q0 82 -36.5 129.5t-95.5 47.5q-60 0 -96.5 -47t-36.5 -130q0 -85 36 -131t97 -46zM532 318h258q0 54 -36 91t-96 37q-58 0 -92 -37t-34 -91z" />
    <glyph glyph-name="Racute" unicode="&#x154;" horiz-adv-x="638" 
d="M203 0h-118v700h279q109 0 174 -58t65 -160q0 -79 -41.5 -131.5t-114.5 -71.5l151 -279h-131l-142 269h-122v-269zM203 593v-222h152q129 0 129 111t-129 111h-152zM333 765h-96l80 124h126z" />
    <glyph glyph-name="racute" unicode="&#x155;" horiz-adv-x="362" 
d="M189 0h-114v530h108v-56h2q16 30 46 48t64 18q24 0 47 -10l-18 -111q-30 8 -42 8q-93 0 -93 -132v-295zM237 595h-96l80 124h125z" />
    <glyph glyph-name="Rcommaaccent" unicode="&#x156;" horiz-adv-x="638" 
d="M203 0h-118v700h279q109 0 174 -58t65 -160q0 -79 -41.5 -131.5t-114.5 -71.5l151 -279h-131l-142 269h-122v-269zM203 593v-222h152q129 0 129 111t-129 111h-152zM265 -252v43q49 7 49 55h-53v105h115v-92q0 -103 -111 -111z" />
    <glyph glyph-name="rcommaaccent" unicode="&#x157;" horiz-adv-x="362" 
d="M189 0h-114v530h108v-56h2q16 30 46 48t64 18q24 0 47 -10l-18 -111q-30 8 -42 8q-93 0 -93 -132v-295zM84 -252v43q49 7 49 55h-53v105h115v-92q0 -103 -111 -111z" />
    <glyph glyph-name="Rcaron" unicode="&#x158;" horiz-adv-x="638" 
d="M203 0h-118v700h279q109 0 174 -58t65 -160q0 -79 -41.5 -131.5t-114.5 -71.5l151 -279h-131l-142 269h-122v-269zM203 593v-222h152q129 0 129 111t-129 111h-152zM362 765h-126l-67 86l60 48l70 -88l69 88l61 -48z" />
    <glyph glyph-name="rcaron" unicode="&#x159;" horiz-adv-x="362" 
d="M189 0h-114v530h108v-56h2q16 30 46 48t64 18q24 0 47 -10l-18 -111q-30 8 -42 8q-93 0 -93 -132v-295zM259 594h-126l-67 86l60 48l70 -88l69 88l61 -48z" />
    <glyph glyph-name="Sacute" unicode="&#x15a;" horiz-adv-x="604" 
d="M40 236l124 27q15 -92 49 -130.5t109 -38.5q64 0 100 25.5t36 69.5t-34 69q-32 25 -151 61q-108 33 -156.5 82t-48.5 120q0 80 62 137t168 57q102 0 171 -49.5t84 -142.5l-115 -28q-15 55 -47.5 82.5t-92.5 27.5q-55 0 -84.5 -22.5t-29.5 -60.5q0 -35 31 -54
q34 -21 146 -59q125 -42 168 -88q45 -47 45 -125q0 -91 -69 -151q-67 -60 -184 -60q-121 0 -193 64t-88 187zM354 765h-96l80 124h126z" />
    <glyph glyph-name="sacute" unicode="&#x15b;" horiz-adv-x="517" 
d="M35 177l104 25q13 -121 128 -121q53 0 82.5 18.5t29.5 49.5t-27 44q-31 15 -119 40q-94 27 -136 62.5t-42 92.5q0 64 52 110q53 47 143 47q175 0 217 -155l-96 -28q-30 88 -121 88q-41 0 -66 -16.5t-25 -40.5q0 -26 26 -40q28 -14 130 -42q96 -27 131 -65q36 -38 36 -99
q0 -63 -54 -113q-52 -49 -157 -49q-109 0 -167 55t-69 137zM307 595h-96l80 124h125z" />
    <glyph glyph-name="Scircumflex" unicode="&#x15c;" horiz-adv-x="604" 
d="M40 236l124 27q15 -92 49 -130.5t109 -38.5q64 0 100 25.5t36 69.5t-34 69q-32 25 -151 61q-108 33 -156.5 82t-48.5 120q0 80 62 137t168 57q102 0 171 -49.5t84 -142.5l-115 -28q-15 55 -47.5 82.5t-92.5 27.5q-55 0 -84.5 -22.5t-29.5 -60.5q0 -35 31 -54
q34 -21 146 -59q125 -42 168 -88q45 -47 45 -125q0 -91 -69 -151q-67 -60 -184 -60q-121 0 -193 64t-88 187zM238 747l-60 48l67 86h126l68 -86l-62 -48l-69 88z" />
    <glyph glyph-name="scircumflex" unicode="&#x15d;" horiz-adv-x="517" 
d="M35 177l104 25q13 -121 128 -121q53 0 82.5 18.5t29.5 49.5t-27 44q-31 15 -119 40q-94 27 -136 62.5t-42 92.5q0 64 52 110q53 47 143 47q175 0 217 -155l-96 -28q-30 88 -121 88q-41 0 -66 -16.5t-25 -40.5q0 -26 26 -40q28 -14 130 -42q96 -27 131 -65q36 -38 36 -99
q0 -63 -54 -113q-52 -49 -157 -49q-109 0 -167 55t-69 137zM188 581l-60 48l67 86h126l68 -86l-62 -48l-69 88z" />
    <glyph glyph-name="Scedilla" unicode="&#x15e;" horiz-adv-x="604" 
d="M231 -169l39 47q34 -32 73 -32q49 0 49 36q0 14 -13 22t-31 8q-26 0 -45 -12l-6 -3l-44 24l38 65q-109 8 -173 71t-78 179l124 27q15 -92 49 -130.5t109 -38.5q64 0 100 25.5t36 69.5t-34 69q-32 25 -151 61q-108 33 -156.5 82t-48.5 120q0 80 62 137t168 57
q102 0 171 -49.5t84 -142.5l-115 -28q-15 55 -47.5 82.5t-92.5 27.5q-55 0 -84.5 -22.5t-29.5 -60.5q0 -35 31 -54q34 -21 146 -59q125 -42 168 -88q45 -47 45 -125q0 -87 -61 -145q-60 -57 -167 -65l-28 -44l1 -1q22 15 55 15q34 0 59.5 -21t25.5 -55q0 -44 -30.5 -70
t-79.5 -26q-71 0 -118 47z" />
    <glyph glyph-name="scedilla" unicode="&#x15f;" horiz-adv-x="517" 
d="M175 -169l39 47q34 -32 73 -32q49 0 49 36q0 14 -13 22t-31 8q-26 0 -45 -12l-6 -3l-44 24l39 66q-89 9 -140 60.5t-61 129.5l104 25q13 -121 128 -121q53 0 82.5 18.5t29.5 49.5t-27 44q-31 15 -119 40q-94 27 -136 62.5t-42 92.5q0 64 52 110q53 47 143 47
q175 0 217 -155l-96 -28q-30 88 -121 88q-41 0 -66 -16.5t-25 -40.5q0 -26 26 -40q28 -14 130 -42q96 -27 131 -65q36 -38 36 -99q0 -60 -49 -108q-50 -49 -144 -53l-27 -44l1 -1q23 15 55 15q34 0 59.5 -21t25.5 -55q0 -44 -30.5 -70t-79.5 -26q-71 0 -118 47z" />
    <glyph glyph-name="Scaron" unicode="&#x160;" horiz-adv-x="604" 
d="M40 236l124 27q15 -92 49 -130.5t109 -38.5q64 0 100 25.5t36 69.5t-34 69q-32 25 -151 61q-108 33 -156.5 82t-48.5 120q0 80 62 137t168 57q102 0 171 -49.5t84 -142.5l-115 -28q-15 55 -47.5 82.5t-92.5 27.5q-55 0 -84.5 -22.5t-29.5 -60.5q0 -35 31 -54
q34 -21 146 -59q125 -42 168 -88q45 -47 45 -125q0 -91 -69 -151q-67 -60 -184 -60q-121 0 -193 64t-88 187zM366 765h-126l-67 86l60 48l70 -88l69 88l61 -48z" />
    <glyph glyph-name="scaron" unicode="&#x161;" horiz-adv-x="517" 
d="M35 177l104 25q13 -121 128 -121q53 0 82.5 18.5t29.5 49.5t-27 44q-31 15 -119 40q-94 27 -136 62.5t-42 92.5q0 64 52 110q53 47 143 47q175 0 217 -155l-96 -28q-30 88 -121 88q-41 0 -66 -16.5t-25 -40.5q0 -26 26 -40q28 -14 130 -42q96 -27 131 -65q36 -38 36 -99
q0 -63 -54 -113q-52 -49 -157 -49q-109 0 -167 55t-69 137zM313 594h-126l-67 86l60 48l70 -88l69 88l61 -48z" />
    <glyph glyph-name="Tcommaaccent" unicode="&#x162;" horiz-adv-x="565" 
d="M342 0h-118v591h-209v109h535v-109h-208v-591zM232 -252v43q49 7 49 55h-53v105h115v-92q0 -103 -111 -111z" />
    <glyph glyph-name="tcommaaccent" unicode="&#x163;" horiz-adv-x="379" 
d="M100 177v255h-80v98h83v130h108v-130h133v-98h-132v-243q0 -45 14 -62t55 -17h42v-110h-51q-94 0 -133 41.5t-39 135.5zM151 -252v43q49 7 49 55h-53v105h115v-92q0 -103 -111 -111z" />
    <glyph glyph-name="Tcaron" unicode="&#x164;" horiz-adv-x="565" 
d="M342 0h-118v591h-209v109h535v-109h-208v-591zM349 765h-126l-67 86l60 48l70 -88l69 88l61 -48z" />
    <glyph glyph-name="tcaron" unicode="&#x165;" horiz-adv-x="379" 
d="M100 177v255h-80v98h83v130h108v-130h133v-98h-132v-243q0 -45 14 -62t55 -17h42v-110h-51q-94 0 -133 41.5t-39 135.5zM354 570h-68l31 160h95z" />
    <glyph glyph-name="Tbar" unicode="&#x166;" horiz-adv-x="565" 
d="M342 0h-118v298h-150v93h150v200h-209v109h535v-109h-208v-200h150v-93h-150v-298z" />
    <glyph glyph-name="tbar" unicode="&#x167;" horiz-adv-x="379" 
d="M100 177v57h-80v93h80v105h-80v98h83v130h108v-130h133v-98h-132v-105h132v-93h-132v-45q0 -45 14 -62t55 -17h42v-110h-51q-94 0 -133 41.5t-39 135.5z" />
    <glyph glyph-name="Utilde" unicode="&#x168;" horiz-adv-x="657" 
d="M70 228v472h118v-466q0 -67 36 -103.5t104 -36.5q69 0 105.5 36t36.5 102v468h117v-472q0 -113 -71 -178t-188 -65t-188 65q-70 64 -70 178zM240 765h-59q17 104 97 104q33 0 70 -19t51 -19q29 0 36 33h59q-17 -104 -97 -104q-34 0 -71 19t-50 19q-28 0 -36 -33z" />
    <glyph glyph-name="utilde" unicode="&#x169;" horiz-adv-x="575" 
d="M70 187v343h114v-330q0 -59 21 -82.5t72 -23.5t80 29t29 85v322h114v-530h-110v51h-2q-46 -66 -137 -66q-90 0 -135.5 52.5t-45.5 149.5zM194 599h-59q17 105 97 105q32 0 70 -20q37 -19 51 -19q29 0 36 34h59q-18 -105 -97 -105q-34 0 -71 19q-38 20 -50 20
q-29 0 -36 -34z" />
    <glyph glyph-name="Umacron" unicode="&#x16a;" horiz-adv-x="657" 
d="M70 228v472h118v-466q0 -67 36 -103.5t104 -36.5q69 0 105.5 36t36.5 102v468h117v-472q0 -113 -71 -178t-188 -65t-188 65q-70 64 -70 178zM474 765h-288v74h288v-74z" />
    <glyph glyph-name="umacron" unicode="&#x16b;" horiz-adv-x="575" 
d="M70 187v343h114v-330q0 -59 21 -82.5t72 -23.5t80 29t29 85v322h114v-530h-110v51h-2q-46 -66 -137 -66q-90 0 -135.5 52.5t-45.5 149.5zM429 620h-288v74h288v-74z" />
    <glyph glyph-name="Ubreve" unicode="&#x16c;" horiz-adv-x="657" 
d="M70 228v472h118v-466q0 -67 36 -103.5t104 -36.5q69 0 105.5 36t36.5 102v468h117v-472q0 -113 -71 -178t-188 -65t-188 65q-70 64 -70 178zM200 881h57q3 -23 22.5 -38.5t51.5 -15.5q31 0 49.5 15.5t21.5 38.5h60q0 -55 -37 -90.5t-94 -35.5q-59 0 -95 35t-36 91z" />
    <glyph glyph-name="ubreve" unicode="&#x16d;" horiz-adv-x="575" 
d="M70 187v343h114v-330q0 -59 21 -82.5t72 -23.5t80 29t29 85v322h114v-530h-110v51h-2q-46 -66 -137 -66q-90 0 -135.5 52.5t-45.5 149.5zM157 711h57q3 -23 22.5 -38.5t51.5 -15.5q31 0 49.5 15.5t21.5 38.5h60q0 -55 -37 -90.5t-94 -35.5q-59 0 -95 35t-36 91z" />
    <glyph glyph-name="Uring" unicode="&#x16e;" horiz-adv-x="657" 
d="M70 228v472h118v-466q0 -67 36 -103.5t104 -36.5q69 0 105.5 36t36.5 102v468h117v-472q0 -113 -71 -178t-188 -65t-188 65q-70 64 -70 178zM230 785q0 44 29.5 75t72.5 31q45 0 74 -30.5t29 -75.5q0 -46 -29 -76t-74 -30t-73.5 30.5t-28.5 75.5zM332 838q-18 0 -30 -14
t-12 -38t12 -38.5t30 -14.5t31 14.5t13 38.5t-12.5 38t-31.5 14z" />
    <glyph glyph-name="uring" unicode="&#x16f;" horiz-adv-x="575" 
d="M70 187v343h114v-330q0 -59 21 -82.5t72 -23.5t80 29t29 85v322h114v-530h-110v51h-2q-46 -66 -137 -66q-90 0 -135.5 52.5t-45.5 149.5zM284 522q-45 0 -73.5 30t-28.5 76q0 44 29.5 75t72.5 31q45 0 74 -30.5t29 -75.5q0 -47 -28.5 -76.5t-74.5 -29.5zM284 681
q-18 0 -30 -14t-12 -38t12 -38.5t30 -14.5t31 14.5t13 38.5t-12.5 38t-31.5 14z" />
    <glyph glyph-name="Uhungarumlaut" unicode="&#x170;" horiz-adv-x="657" 
d="M70 228v472h118v-466q0 -67 36 -103.5t104 -36.5q69 0 105.5 36t36.5 102v468h117v-472q0 -113 -71 -178t-188 -65t-188 65q-70 64 -70 178zM301 765h-80l75 115h109zM453 765h-81l75 115h110z" />
    <glyph glyph-name="uhungarumlaut" unicode="&#x171;" horiz-adv-x="575" 
d="M70 187v343h114v-330q0 -59 21 -82.5t72 -23.5t80 29t29 85v322h114v-530h-110v51h-2q-46 -66 -137 -66q-90 0 -135.5 52.5t-45.5 149.5zM249 611h-80l75 115h109zM401 611h-81l75 115h110z" />
    <glyph glyph-name="Uogonek" unicode="&#x172;" horiz-adv-x="657" 
d="M427 -114l38 -35q-60 -67 -135 -67q-42 0 -68.5 19t-26.5 55q0 68 77 127q-112 5 -177 70t-65 173v472h118v-466q0 -67 36 -103.5t104 -36.5q69 0 105.5 36t36.5 102v468h117v-472q0 -96 -53 -159t-146 -79q-68 -62 -68 -106q0 -35 41 -35q33 0 66 37z" />
    <glyph glyph-name="uogonek" unicode="&#x173;" horiz-adv-x="575" 
d="M527 -114l38 -35q-60 -67 -135 -67q-42 0 -68.5 19t-26.5 55q0 38 27.5 76.5t71.5 65.5h-44v51h-2q-46 -66 -137 -66q-90 0 -135.5 52.5t-45.5 149.5v343h114v-330q0 -59 21 -82.5t72 -23.5t80 29t29 85v322h114v-530q-80 -69 -80 -116q0 -35 41 -35q33 0 66 37z" />
    <glyph glyph-name="Wcircumflex" unicode="&#x174;" horiz-adv-x="900" 
d="M293 0h-124l-134 700h120l95 -493h2l166 493h67l165 -493h2l95 493h118l-134 -700h-123l-158 480h-2zM376 747l-60 48l67 86h126l68 -86l-62 -48l-69 88z" />
    <glyph glyph-name="wcircumflex" unicode="&#x175;" horiz-adv-x="803" 
d="M261 0h-109l-117 530h112l75 -369h2l126 369h103l118 -368h2l85 368h110l-127 -530h-110l-129 398h-2zM320 581l-60 48l67 86h126l68 -86l-62 -48l-69 88z" />
    <glyph glyph-name="Ycircumflex" unicode="&#x176;" horiz-adv-x="584" 
d="M350 0h-116v295l-229 405h126l160 -298h2l161 298h125l-229 -405v-295zM225 747l-60 48l67 86h126l68 -86l-62 -48l-69 88z" />
    <glyph glyph-name="ycircumflex" unicode="&#x177;" horiz-adv-x="538" 
d="M226 -225h-110l100 249l-206 506h120l139 -365h2l139 365h118zM204 581l-60 48l67 86h126l68 -86l-62 -48l-69 88z" />
    <glyph glyph-name="Ydieresis" unicode="&#x178;" horiz-adv-x="584" 
d="M350 0h-116v295l-229 405h126l160 -298h2l161 298h125l-229 -405v-295zM253 765h-112v107h112v-107zM449 765h-111v107h111v-107z" />
    <glyph glyph-name="Zacute" unicode="&#x179;" horiz-adv-x="593" 
d="M545 0h-500v107l357 478v2h-341v113h487v-107l-359 -479v-2h356v-112zM327 765h-96l80 124h126z" />
    <glyph glyph-name="zacute" unicode="&#x17a;" horiz-adv-x="542" 
d="M497 0h-452v94l299 329v2h-285v105h431v-92l-294 -327v-2h301v-109zM304 595h-96l80 124h125z" />
    <glyph glyph-name="Zdotaccent" unicode="&#x17b;" horiz-adv-x="593" 
d="M545 0h-500v107l357 478v2h-341v113h487v-107l-359 -479v-2h356v-112zM343 765h-119v114h119v-114z" />
    <glyph glyph-name="zdotaccent" unicode="&#x17c;" horiz-adv-x="542" 
d="M497 0h-452v94l299 329v2h-285v105h431v-92l-294 -327v-2h301v-109zM328 599h-119v114h119v-114z" />
    <glyph glyph-name="Zcaron" unicode="&#x17d;" horiz-adv-x="593" 
d="M545 0h-500v107l357 478v2h-341v113h487v-107l-359 -479v-2h356v-112zM361 765h-126l-67 86l60 48l70 -88l69 88l61 -48z" />
    <glyph glyph-name="zcaron" unicode="&#x17e;" horiz-adv-x="542" 
d="M497 0h-452v94l299 329v2h-285v105h431v-92l-294 -327v-2h301v-109zM330 594h-126l-67 86l60 48l70 -88l69 88l61 -48z" />
    <glyph glyph-name="longs" unicode="&#x17f;" horiz-adv-x="312" 
d="M197 0h-111v432h-66v98h68v69q0 66 32.5 94.5t98.5 28.5h88v-101h-65q-26 0 -35.5 -10t-9.5 -38v-573z" />
    <glyph glyph-name="florin" unicode="&#x192;" horiz-adv-x="503" 
d="M182 -173h-114l95 546h-98l16 92h98l24 124q15 80 52.5 118t100.5 38q75 0 132 -63l-60 -84q-30 34 -59 34q-46 0 -56 -59l-20 -108h141l-16 -92h-141z" />
    <glyph glyph-name="Aringacute" unicode="&#x1fa;" horiz-adv-x="620" 
d="M610 0h-117l-42 120h-283l-41 -120h-117l250 695q-46 28 -46 90q0 39 24 68.5t61 35.5l59 91h126l-101 -114q36 -32 36 -81q0 -71 -57 -96zM311 529h-2l-106 -308h213zM316 838q-18 0 -30 -14t-12 -38t12 -38.5t30 -14.5t31 14.5t13 38.5t-12.5 38t-31.5 14z" />
    <glyph glyph-name="aringacute" unicode="&#x1fb;" horiz-adv-x="541" 
d="M476 0h-97v53h-2q-9 -14 -38 -37q-42 -31 -112 -31q-90 0 -138.5 43t-48.5 112q0 68 40.5 104.5t139.5 60.5q87 22 115 36q27 15 27 43t-25 45.5t-72 17.5q-52 0 -78.5 -23.5t-39.5 -69.5l-97 37q15 59 56.5 98.5t105.5 51.5q-41 30 -41 87q0 38 23 67t59 37l59 91h125
l-99 -112q38 -32 38 -83q0 -62 -46 -90q146 -33 146 -195v-343zM243 224q-54 -14 -73.5 -31t-19.5 -45q0 -64 87 -64q61 0 95 25t34 64v106h-2q-4 -12 -27 -23.5t-94 -31.5zM273 681q-18 0 -30 -14t-12 -38t12 -38.5t30 -14.5t31 14.5t13 38.5t-12.5 38t-31.5 14z" />
    <glyph glyph-name="AEacute" unicode="&#x1fc;" horiz-adv-x="868" 
d="M126 0h-121l263 700h535v-109h-280v-180h252v-102h-252v-200h280v-109h-398v131h-230zM342 591l-130 -356h193v356h-63zM441 765h-96l80 124h126z" />
    <glyph glyph-name="aeacute" unicode="&#x1fd;" horiz-adv-x="893" 
d="M756 187l89 -59q-68 -143 -227 -143q-120 0 -191 90h-2q-54 -90 -187 -90q-96 0 -147 43.5t-51 112.5q0 65 40 102.5t140 61.5q83 19 113 35q29 17 29 44q0 28 -24.5 45.5t-72.5 17.5q-93 0 -118 -94l-97 38q15 68 72 111t140 43q122 0 177 -73h2q70 73 170 73
q107 0 174 -76q68 -77 68 -204v-34h-370q2 -67 37 -106t96 -39q62 0 98 39q28 33 42 62zM243 224q-53 -13 -73 -31t-20 -45q0 -64 87 -64q61 0 95 25t34 64v106h-2q-4 -12 -27 -23.5t-94 -31.5zM483 317h259q-4 58 -38 92.5t-93 34.5q-55 0 -90 -37t-38 -90zM320 595h-96
l80 124h125z" />
    <glyph glyph-name="Oslashacute" unicode="&#x1fe;" horiz-adv-x="692" 
d="M407 765h-96l80 124h125zM167 -15l-51 30l26 46q-102 97 -102 295q0 170 89 265q88 94 213 94q81 0 148 -43l25 43l50 -31l-27 -48q104 -101 104 -281q0 -194 -93 -287q-84 -83 -207 -83q-83 0 -152 39zM476 528l-230 -404q40 -30 96 -30q82 0 130 65.5t48 195.5
q0 108 -44 173zM205 171l230 404q-42 30 -93 30q-77 0 -128 -64q-51 -63 -51 -185q0 -118 42 -185z" />
    <glyph glyph-name="oslashacute" unicode="&#x1ff;" horiz-adv-x="570" 
d="M336 595h-96l80 124h125zM94 -14l-38 31l41 51q-62 76 -62 197q0 129 71 205q72 75 175 75q83 0 147 -51l38 50l38 -32l-41 -52q62 -77 62 -195q0 -133 -69 -206q-68 -74 -175 -74q-88 0 -150 49zM391 368l-194 -249q31 -31 84 -31q60 0 96 47t36 130q0 62 -22 103z
M168 160l194 250q-35 32 -81 32q-60 0 -96.5 -47t-36.5 -130q0 -62 20 -105z" />
    <glyph glyph-name="Scommaaccent" unicode="&#x218;" horiz-adv-x="604" 
d="M40 236l124 27q15 -92 49 -130.5t109 -38.5q64 0 100 25.5t36 69.5t-34 69q-32 25 -151 61q-108 33 -156.5 82t-48.5 120q0 80 62 137t168 57q102 0 171 -49.5t84 -142.5l-115 -28q-15 55 -47.5 82.5t-92.5 27.5q-55 0 -84.5 -22.5t-29.5 -60.5q0 -35 31 -54
q34 -21 146 -59q125 -42 168 -88q45 -47 45 -125q0 -91 -69 -151q-67 -60 -184 -60q-121 0 -193 64t-88 187zM278 -252v43q49 7 49 55h-53v105h115v-92q0 -103 -111 -111z" />
    <glyph glyph-name="scommaaccent" unicode="&#x219;" horiz-adv-x="517" 
d="M35 177l104 25q13 -121 128 -121q53 0 82.5 18.5t29.5 49.5t-27 44q-31 15 -119 40q-94 27 -136 62.5t-42 92.5q0 64 52 110q53 47 143 47q175 0 217 -155l-96 -28q-30 88 -121 88q-41 0 -66 -16.5t-25 -40.5q0 -26 26 -40q28 -14 130 -42q96 -27 131 -65q36 -38 36 -99
q0 -63 -54 -113q-52 -49 -157 -49q-109 0 -167 55t-69 137zM215 -252v43q49 7 49 55h-53v105h115v-92q0 -103 -111 -111z" />
    <glyph glyph-name="dotlessj" unicode="&#x237;" horiz-adv-x="261" 
d="M63 -195h-48v119h22q40 0 40 48v558h114v-586q0 -139 -128 -139z" />
    <glyph glyph-name="circumflex" unicode="&#x2c6;" horiz-adv-x="311" 
d="M85 581l-60 48l67 86h126l68 -86l-62 -48l-69 88z" />
    <glyph glyph-name="caron" unicode="&#x2c7;" horiz-adv-x="310" 
d="M218 594h-126l-67 86l60 48l70 -88l69 88l61 -48z" />
    <glyph glyph-name="breve" unicode="&#x2d8;" horiz-adv-x="332" 
d="M35 711h57q3 -23 22.5 -38.5t51.5 -15.5q31 0 49.5 15.5t21.5 38.5h60q0 -55 -37 -90.5t-94 -35.5q-59 0 -95 35t-36 91z" />
    <glyph glyph-name="dotaccent" unicode="&#x2d9;" horiz-adv-x="269" 
d="M194 599h-119v114h119v-114z" />
    <glyph glyph-name="ring" unicode="&#x2da;" horiz-adv-x="295" 
d="M147 522q-45 0 -73.5 30t-28.5 76q0 44 29.5 75t72.5 31q45 0 74 -30.5t29 -75.5q0 -47 -28.5 -76.5t-74.5 -29.5zM147 681q-18 0 -30 -14t-12 -38t12 -38.5t30 -14.5t31 14.5t13 38.5t-12.5 38t-31.5 14z" />
    <glyph glyph-name="ogonek" unicode="&#x2db;" horiz-adv-x="280" 
d="M217 -114l38 -35q-60 -67 -135 -67q-42 0 -68.5 19t-26.5 55q0 38 27.5 76.5t71.5 65.5h66q-80 -69 -80 -116q0 -35 41 -35q33 0 66 37z" />
    <glyph glyph-name="tilde" unicode="&#x2dc;" horiz-adv-x="403" 
d="M104 599h-59q17 105 97 105q32 0 70 -20q37 -19 51 -19q29 0 36 34h59q-18 -105 -97 -105q-34 0 -71 19q-38 20 -50 20q-29 0 -36 -34z" />
    <glyph glyph-name="hungarumlaut" unicode="&#x2dd;" horiz-adv-x="486" 
d="M155 595h-80l75 115h109zM307 595h-81l75 115h110z" />
    <glyph glyph-name="uni0312" unicode="&#x312;" horiz-adv-x="281" 
d="M190 791v-37q-42 -8 -42 -54h48v-109h-111v93q0 100 105 107z" />
    <glyph glyph-name="pi" unicode="&#x3c0;" horiz-adv-x="714" 
d="M223 85l-24 -85h-112l27 94q16 58 42 215q27 157 27 284h-108v107h574v-107h-77v-444q0 -93 13 -149h-108q-17 31 -17 143v450h-165q0 -126 -24 -275q-24 -146 -48 -233z" />
    <glyph glyph-name="Wgrave" unicode="&#x1e80;" horiz-adv-x="900" 
d="M293 0h-124l-134 700h120l95 -493h2l166 493h67l165 -493h2l95 493h118l-134 -700h-123l-158 480h-2zM489 765h-96l-109 124h125z" />
    <glyph glyph-name="wgrave" unicode="&#x1e81;" horiz-adv-x="803" 
d="M261 0h-109l-117 530h112l75 -369h2l126 369h103l118 -368h2l85 368h110l-127 -530h-110l-129 398h-2zM443 595h-96l-109 124h125z" />
    <glyph glyph-name="Wacute" unicode="&#x1e82;" horiz-adv-x="900" 
d="M293 0h-124l-134 700h120l95 -493h2l166 493h67l165 -493h2l95 493h118l-134 -700h-123l-158 480h-2zM492 765h-96l80 124h126z" />
    <glyph glyph-name="wacute" unicode="&#x1e83;" horiz-adv-x="803" 
d="M261 0h-109l-117 530h112l75 -369h2l126 369h103l118 -368h2l85 368h110l-127 -530h-110l-129 398h-2zM441 595h-96l80 124h125z" />
    <glyph glyph-name="Wdieresis" unicode="&#x1e84;" horiz-adv-x="900" 
d="M293 0h-124l-134 700h120l95 -493h2l166 493h67l165 -493h2l95 493h118l-134 -700h-123l-158 480h-2zM399 765h-112v107h112v-107zM595 765h-111v107h111v-107z" />
    <glyph glyph-name="wdieresis" unicode="&#x1e85;" horiz-adv-x="803" 
d="M261 0h-109l-117 530h112l75 -369h2l126 369h103l118 -368h2l85 368h110l-127 -530h-110l-129 398h-2zM346 600h-112v107h112v-107zM542 600h-111v107h111v-107z" />
    <glyph glyph-name="Ygrave" unicode="&#x1ef2;" horiz-adv-x="584" 
d="M350 0h-116v295l-229 405h126l160 -298h2l161 298h125l-229 -405v-295zM353 765h-96l-109 124h125z" />
    <glyph glyph-name="ygrave" unicode="&#x1ef3;" horiz-adv-x="538" 
d="M226 -225h-110l100 249l-206 506h120l139 -365h2l139 365h118zM322 595h-96l-109 124h125z" />
    <glyph glyph-name="endash" unicode="&#x2013;" horiz-adv-x="589" 
d="M544 280h-499v98h499v-98z" />
    <glyph glyph-name="emdash" unicode="&#x2014;" horiz-adv-x="979" 
d="M884 280h-789v98h789v-98z" />
    <glyph glyph-name="quoteleft" unicode="&#x2018;" horiz-adv-x="309" 
d="M214 503v-61q-139 10 -139 141v117h139v-133h-49q0 -32 9.5 -45.5t39.5 -18.5z" />
    <glyph glyph-name="quoteright" unicode="&#x2019;" horiz-adv-x="309" 
d="M85 442v61q30 5 39.5 18.5t9.5 45.5h-49v133h139v-117q0 -131 -139 -141z" />
    <glyph glyph-name="quotesinglbase" unicode="&#x201a;" horiz-adv-x="309" 
d="M80 -125v61q30 5 39.5 18.5t9.5 45.5h-49v133h139v-117q0 -131 -139 -141z" />
    <glyph glyph-name="quotedblleft" unicode="&#x201c;" horiz-adv-x="509" 
d="M214 503v-61q-139 10 -139 141v117h139v-133h-49q0 -32 9.5 -45.5t39.5 -18.5zM414 503v-61q-139 10 -139 141v117h139v-133h-49q0 -32 9.5 -45.5t39.5 -18.5z" />
    <glyph glyph-name="quotedblright" unicode="&#x201d;" horiz-adv-x="509" 
d="M80 442v61q30 5 39.5 18.5t9.5 45.5h-49v133h139v-117q0 -131 -139 -141zM280 442v61q30 5 39.5 18.5t9.5 45.5h-49v133h139v-117q0 -131 -139 -141z" />
    <glyph glyph-name="quotedblbase" unicode="&#x201e;" horiz-adv-x="509" 
d="M285 -125v61q30 5 39.5 18.5t9.5 45.5h-49v133h139v-117q0 -131 -139 -141zM85 -125v61q30 5 39.5 18.5t9.5 45.5h-49v133h139v-117q0 -131 -139 -141z" />
    <glyph glyph-name="dagger" unicode="&#x2020;" horiz-adv-x="631" 
d="M367 -225h-103v628h-219v98h219v229h103v-229h219v-98h-219v-628z" />
    <glyph glyph-name="daggerdbl" unicode="&#x2021;" horiz-adv-x="631" 
d="M367 -225h-103v225h-219v96h219v309h-219v96h219v229h103v-229h219v-96h-219v-309h219v-96h-219v-225z" />
    <glyph glyph-name="bullet" unicode="&#x2022;" horiz-adv-x="323" 
d="M50 337q0 51 30.5 82.5t80.5 31.5t81 -32t31 -82q0 -49 -31 -80.5t-81 -31.5t-80.5 31.5t-30.5 80.5z" />
    <glyph glyph-name="ellipsis" unicode="&#x2026;" horiz-adv-x="874" 
d="M224 0h-139v133h139v-133zM507 0h-138v133h138v-133zM789 0h-138v133h138v-133z" />
    <glyph glyph-name="perthousand" unicode="&#x2030;" horiz-adv-x="1338" 
d="M1107 69q38 0 59 33.5t21 92.5q0 115 -80 115q-78 0 -78 -115q0 -59 20 -92.5t58 -33.5zM1107 -12q-75 0 -120 54.5t-45 154.5q0 95 49 145q49 51 116 51t116 -52q50 -52 50 -144q0 -95 -48 -152q-47 -57 -118 -57zM310 514q0 115 -80 115q-79 0 -79 -115
q0 -59 20.5 -92.5t58.5 -33.5t59 33.5t21 92.5zM230 307q-75 0 -120 54.5t-45 154.5q0 95 49 145q50 51 116 51q67 0 116 -52q50 -52 50 -144q0 -95 -48 -152q-46 -57 -118 -57zM786 195q0 115 -80 115q-79 0 -79 -115q0 -59 20.5 -92.5t58.5 -33.5t59 33.5t21 92.5z
M706 -12q-75 0 -120 54.5t-45 154.5q0 95 49 145q50 51 116 51q67 0 116 -52q50 -52 50 -144q0 -95 -48 -152q-46 -57 -118 -57zM258 -75l-66 39l489 815l65 -40z" />
    <glyph glyph-name="guilsinglleft" unicode="&#x2039;" horiz-adv-x="376" 
d="M301 85h-100l-116 196l109 186h100l-109 -186z" />
    <glyph glyph-name="guilsinglright" unicode="&#x203a;" horiz-adv-x="376" 
d="M177 467l109 -186l-116 -196h-100l116 196l-109 186h100z" />
    <glyph glyph-name="fraction" unicode="&#x2044;" horiz-adv-x="324" 
d="M-49 -75l-66 39l489 815l65 -40z" />
    <glyph glyph-name="zerosuperior" unicode="&#x2070;" horiz-adv-x="383" 
d="M30 693q0 102 43.5 157t117.5 55t118 -55t44 -157q0 -112 -43 -168.5t-119 -56.5t-118.5 56.5t-42.5 168.5zM268 693q0 70 -18.5 101.5t-58.5 31.5t-58.5 -31.5t-18.5 -101.5q0 -80 18.5 -113.5t58.5 -33.5t58.5 33.5t18.5 113.5z" />
    <glyph glyph-name="foursuperior" unicode="&#x2074;" horiz-adv-x="380" 
d="M215 558h-195v75l162 267h115v-267h48v-75h-48v-85h-82v85zM214 827l-118 -194h120v194h-2z" />
    <glyph glyph-name="fivesuperior" unicode="&#x2075;" horiz-adv-x="377" 
d="M30 579l74 35q21 -71 86 -71q35 0 56.5 20.5t21.5 56.5q0 35 -21.5 56t-54.5 21q-55 0 -87 -44l-62 31l38 216h225v-75h-165l-17 -97l2 -1q7 12 30 22.5t56 10.5q56 0 95 -40q40 -40 40 -102q0 -68 -44.5 -109t-112.5 -41q-120 0 -160 111z" />
    <glyph glyph-name="sixsuperior" unicode="&#x2076;" horiz-adv-x="383" 
d="M205 545q72 0 72 75q0 33 -20 53t-55 20q-34 0 -54.5 -21.5t-20.5 -51.5q0 -35 21 -55t57 -20zM113 708h2q11 19 38.5 33t65.5 14q56 0 95 -38.5t39 -102.5q0 -67 -43 -107q-44 -39 -105 -39q-80 0 -127.5 55.5t-47.5 158.5q0 93 47 158t127 65q56 0 91 -29.5t45 -78.5
l-74 -19q-13 55 -67 55q-38 0 -61.5 -35t-24.5 -90z" />
    <glyph glyph-name="sevensuperior" unicode="&#x2077;" horiz-adv-x="306" 
d="M111 473h-95l196 350l-1 2h-211v75h291v-88z" />
    <glyph glyph-name="eightsuperior" unicode="&#x2078;" horiz-adv-x="344" 
d="M114 785q0 -22 15 -35.5t42 -13.5t42.5 14t15.5 35q0 22 -15.5 37t-42.5 15t-42 -14.5t-15 -37.5zM94 706v2q-56 24 -56 85q0 47 38 79q38 33 95 33q58 0 97 -33q39 -32 39 -79q0 -59 -56 -85v-2q73 -28 73 -109q0 -59 -42.5 -94t-110.5 -35q-67 0 -109 35t-42 94
q0 82 74 109zM98 606q0 -63 73 -63q74 0 74 63q0 30 -20 48.5t-54 18.5q-33 0 -53 -18.5t-20 -48.5z" />
    <glyph glyph-name="ninesuperior" unicode="&#x2079;" horiz-adv-x="376" 
d="M39 571l73 27q17 -57 77 -57q37 0 57.5 30.5t17.5 90.5h-2q-6 -17 -32.5 -32t-65.5 -15q-54 0 -97 39q-42 40 -42 105t42.5 105.5t107.5 40.5q70 0 118 -55q48 -56 48 -167q0 -106 -40.5 -160.5t-115.5 -54.5q-119 0 -146 103zM178 686q34 0 53.5 17.5t19.5 49.5
q0 36 -20.5 57.5t-55.5 21.5q-32 0 -52.5 -21t-20.5 -52q0 -33 20.5 -53t55.5 -20z" />
    <glyph glyph-name="plussuperior" unicode="&#x207a;" horiz-adv-x="426" 
d="M249 517h-71v148h-133v68h133v134h71v-134h132v-68h-132v-148z" />
    <glyph glyph-name="minussuperior" unicode="&#x207b;" horiz-adv-x="396" 
d="M351 733v-68h-306v68h306z" />
    <glyph glyph-name="zeroinferior" unicode="&#x2080;" horiz-adv-x="383" 
d="M30 20q0 102 43.5 157t117.5 55t118 -55t44 -157q0 -112 -43 -168.5t-119 -56.5t-118.5 56.5t-42.5 168.5zM268 20q0 70 -18.5 101.5t-58.5 31.5t-58.5 -31.5t-18.5 -101.5q0 -80 18.5 -113.5t58.5 -33.5t58.5 33.5t18.5 113.5z" />
    <glyph glyph-name="oneinferior" unicode="&#x2081;" horiz-adv-x="262" 
d="M187 -200h-80v333l-92 -57v90l98 61h74v-427z" />
    <glyph glyph-name="twoinferior" unicode="&#x2082;" horiz-adv-x="351" 
d="M326 -200h-296v62q0 54 28 88q22 28 94 63q63 32 76 48q17 19 17 44q0 23 -18 38.5t-47 15.5q-68 0 -77 -81l-78 10q5 69 46 106.5t110 37.5q62 0 102 -35.5t40 -96.5q0 -46 -28.5 -78t-83.5 -58q-73 -38 -84 -54q-7 -10 -7 -27h206v-83z" />
    <glyph glyph-name="threeinferior" unicode="&#x2083;" horiz-adv-x="379" 
d="M15 -60l79 18q12 -90 84 -90q35 0 55 16t20 45q0 61 -72 61h-33v64h24q60 0 60 50q0 55 -58 55q-52 0 -63 -63l-76 14q6 57 44 89.5t98 32.5q58 0 95 -31.5t37 -83.5q0 -31 -16 -54t-36 -31v-2q29 -8 50.5 -35.5t21.5 -71.5q0 -56 -40.5 -92t-110.5 -36q-69 0 -111.5 37
t-51.5 108z" />
    <glyph glyph-name="fourinferior" unicode="&#x2084;" horiz-adv-x="380" 
d="M215 -115h-195v75l162 267h115v-267h48v-75h-48v-85h-82v85zM214 154l-118 -194h120v194h-2z" />
    <glyph glyph-name="fiveinferior" unicode="&#x2085;" horiz-adv-x="377" 
d="M30 -94l74 35q21 -71 86 -71q35 0 56.5 20.5t21.5 56.5q0 35 -21.5 56t-54.5 21q-55 0 -87 -44l-62 31l38 216h225v-75h-165l-17 -97l2 -1q7 12 30 22.5t56 10.5q56 0 95 -40q40 -40 40 -102q0 -68 -44.5 -109t-112.5 -41q-120 0 -160 111z" />
    <glyph glyph-name="sixinferior" unicode="&#x2086;" horiz-adv-x="383" 
d="M205 -129q72 0 72 75q0 33 -20 53t-55 20q-34 0 -54.5 -21.5t-20.5 -51.5q0 -35 21 -55t57 -20zM113 34h2q11 19 38.5 33t65.5 14q56 0 95 -38.5t39 -102.5q0 -67 -43 -106q-43 -40 -105 -40q-80 0 -127.5 55.5t-47.5 158.5q0 93 47 158t127 65q56 0 91 -29.5t45 -78.5
l-74 -19q-13 55 -67 55q-38 0 -61.5 -35t-24.5 -90z" />
    <glyph glyph-name="seveninferior" unicode="&#x2087;" horiz-adv-x="306" 
d="M111 -200h-95l196 350l-1 2h-211v75h291v-88z" />
    <glyph glyph-name="eightinferior" unicode="&#x2088;" horiz-adv-x="344" 
d="M114 112q0 -22 15 -35.5t42 -13.5t42.5 14t15.5 35q0 22 -15.5 37t-42.5 15t-42 -14.5t-15 -37.5zM94 33v2q-56 24 -56 85q0 47 38 79q38 33 95 33q58 0 97 -33q39 -31 39 -79q0 -59 -56 -85v-2q73 -28 73 -109q0 -59 -42.5 -94t-110.5 -35q-67 0 -109 35t-42 94
q0 82 74 109zM98 -67q0 -63 73 -63q74 0 74 63q0 30 -20 48.5t-54 18.5q-33 0 -53 -18.5t-20 -48.5z" />
    <glyph glyph-name="nineinferior" unicode="&#x2089;" horiz-adv-x="376" 
d="M39 -102l73 27q16 -57 77 -57q37 0 57.5 30.5t17.5 90.5h-2q-6 -17 -32.5 -32t-65.5 -15q-54 0 -97 40q-42 39 -42 104t42.5 105.5t107.5 40.5q70 0 118 -55t48 -167q0 -106 -40.5 -160.5t-115.5 -54.5q-119 0 -146 103zM178 13q34 0 53.5 17.5t19.5 49.5
q0 36 -20.5 57.5t-55.5 21.5q-32 0 -52.5 -21t-20.5 -52q0 -33 20.5 -53t55.5 -20z" />
    <glyph glyph-name="Euro" unicode="&#x20ac;" horiz-adv-x="767" 
d="M65 226v83h69q-1 10 -1 47v26h-68v83h79q27 120 107 185q82 65 183 65q109 0 184 -69q74 -67 88 -180l-118 -18q-7 67 -46 115q-38 47 -107 47q-61 0 -107.5 -38t-63.5 -107h186v-83h-199v-28q0 -7 2 -45h197v-83h-182q18 -65 63 -100.5t104 -35.5q70 0 110.5 49.5
t46.5 133.5l120 -24q-12 -117 -86 -191q-73 -73 -191 -73q-110 0 -186 61.5t-103 179.5h-81z" />
    <glyph glyph-name="trademark" unicode="&#x2122;" horiz-adv-x="758" 
d="M211 361h-72v271h-94v68h258v-68h-92v-271zM422 361h-69v339h78l108 -241h2l107 241h80v-339h-70v212h-2l-93 -212h-46l-93 207h-2v-207z" />
    <glyph glyph-name="Omega" unicode="&#x2126;" horiz-adv-x="688" 
d="M309 0h-251v90h92q-95 101 -95 271q0 172 82 263t207 91q124 0 206 -91q83 -92 83 -263t-96 -271h93v-90h-251v82q62 13 98.5 81t36.5 184q0 128 -45 191.5t-125 63.5q-78 0 -124 -64t-46 -191q0 -116 36.5 -184t98.5 -81v-82z" />
    <glyph glyph-name="onethird" unicode="&#x2153;" horiz-adv-x="852" 
d="M187 -75l-66 39l489 815l65 -40zM192 273h-80v333l-92 -57v90l98 61h74v-427zM488 140l79 18q12 -90 84 -90q35 0 55 16t20 45q0 61 -72 61h-33v64h24q60 0 60 50q0 55 -58 55q-53 0 -63 -63l-76 14q6 57 44 89.5t98 32.5q58 0 95 -31.5t37 -83.5q0 -31 -16 -54t-36 -31
v-2q29 -8 50.5 -35.5t21.5 -71.5q0 -56 -40.5 -92t-110.5 -36q-69 0 -111.5 37t-51.5 108z" />
    <glyph glyph-name="twothirds" unicode="&#x2154;" horiz-adv-x="947" 
d="M289 -75l-66 39l489 815l65 -40zM316 273h-296v62q0 54 28 88q22 28 94 63q63 32 76 48q17 19 17 44q0 24 -18 39t-47 15q-68 0 -77 -81l-78 10q5 69 46 106.5t110 37.5q62 0 102 -35.5t40 -96.5q0 -46 -28.5 -78t-83.5 -58q-73 -37 -84 -54q-7 -10 -7 -27h206v-83z
M583 142l79 18q12 -90 84 -90q35 0 55 16t20 45q0 61 -72 61h-33v64h24q60 0 60 50q0 55 -58 55q-52 0 -63 -63l-76 14q6 57 44 89.5t98 32.5q58 0 95 -31.5t37 -83.5q0 -31 -16 -54t-36 -31v-2q29 -8 50.5 -35.5t21.5 -71.5q0 -56 -40.5 -92t-110.5 -36q-69 0 -111.5 37
t-51.5 108z" />
    <glyph glyph-name="onefifth" unicode="&#x2155;" horiz-adv-x="851" 
d="M187 -75l-66 39l489 815l65 -40zM192 273h-80v333l-92 -57v90l98 61h74v-427zM509 106l74 35q21 -71 86 -71q35 0 56.5 20.5t21.5 56.5q0 35 -21.5 56t-54.5 21q-55 0 -87 -44l-62 31l38 216h225v-75h-165l-17 -97l2 -1q7 12 30 22.5t56 10.5q56 0 95 -40q40 -40 40 -102
q0 -68 -44.5 -109t-112.5 -41q-119 0 -160 111z" />
    <glyph glyph-name="twofifths" unicode="&#x2156;" horiz-adv-x="954" 
d="M289 -75l-66 39l489 815l65 -40zM316 273h-296v62q0 54 28 88q22 28 94 63q63 32 76 48q17 19 17 44q0 24 -18 39t-47 15q-68 0 -77 -81l-78 10q5 69 46 106.5t110 37.5q62 0 102 -35.5t40 -96.5q0 -46 -28.5 -78t-83.5 -58q-73 -37 -84 -54q-7 -10 -7 -27h206v-83z
M612 106l74 35q21 -71 86 -71q35 0 56.5 20.5t21.5 56.5q0 35 -21.5 56t-54.5 21q-55 0 -87 -44l-62 31l38 216h225v-75h-165l-17 -97l2 -1q7 12 30 22.5t56 10.5q56 0 95 -40q40 -40 40 -102q0 -68 -44.5 -109t-112.5 -41q-120 0 -160 111z" />
    <glyph glyph-name="threefifths" unicode="&#x2157;" horiz-adv-x="946" 
d="M269 -75l-66 39l489 815l65 -40zM30 413l79 18q12 -90 84 -90q35 0 55 16t20 45q0 61 -72 61h-33v64h24q60 0 60 50q0 55 -58 55q-53 0 -63 -63l-76 14q6 57 44 89.5t98 32.5q58 0 95 -31.5t37 -83.5q0 -31 -16 -54t-36 -31v-2q29 -8 50.5 -35.5t21.5 -71.5
q0 -56 -40.5 -92t-110.5 -36q-69 0 -111.5 37t-51.5 108zM604 106l74 35q21 -71 86 -71q35 0 56.5 20.5t21.5 56.5q0 35 -21.5 56t-54.5 21q-55 0 -87 -44l-62 31l38 216h225v-75h-165l-17 -97l2 -1q7 12 30 22.5t56 10.5q56 0 95 -40q40 -40 40 -102q0 -68 -44.5 -109
t-112.5 -41q-120 0 -160 111z" />
    <glyph glyph-name="fourfifths" unicode="&#x2158;" horiz-adv-x="951" 
d="M276 -75l-66 39l489 815l65 -40zM220 358h-195v75l162 267h115v-267h48v-75h-48v-85h-82v85zM219 627l-118 -194h120v194h-2zM609 106l74 35q21 -71 86 -71q35 0 56.5 20.5t21.5 56.5q0 35 -21.5 56t-54.5 21q-55 0 -87 -44l-62 31l38 216h225v-75h-165l-17 -97l2 -1
q7 12 30 22.5t56 10.5q56 0 95 -40q40 -40 40 -102q0 -68 -44.5 -109t-112.5 -41q-119 0 -160 111z" />
    <glyph glyph-name="onesixth" unicode="&#x2159;" horiz-adv-x="848" 
d="M187 -75l-66 39l489 815l65 -40zM192 273h-80v333l-92 -57v90l98 61h74v-427zM675 72q72 0 72 75q0 33 -20 53t-55 20q-34 0 -54.5 -21.5t-20.5 -51.5q0 -35 21 -55t57 -20zM583 235h2q11 19 38.5 33t65.5 14q56 0 95 -38.5t39 -102.5q0 -67 -43 -107q-44 -39 -105 -39
q-80 0 -127.5 55.5t-47.5 158.5q0 93 47 158t127 65q56 0 91 -29.5t45 -78.5l-74 -19q-13 55 -67 55q-38 0 -61.5 -35t-24.5 -90z" />
    <glyph glyph-name="fivesixths" unicode="&#x215a;" horiz-adv-x="931" 
d="M261 -75l-66 39l489 815l65 -40zM35 379l74 35q21 -71 86 -71q35 0 56.5 20.5t21.5 56.5q0 35 -21.5 56t-54.5 21q-55 0 -87 -44l-62 31l38 216h225v-75h-165l-17 -97l2 -1q7 12 30 22.5t56 10.5q56 0 95 -40q40 -40 40 -102q0 -68 -44.5 -109t-112.5 -41
q-119 0 -160 111zM753 72q72 0 72 75q0 33 -20 53t-55 20q-34 0 -54.5 -21.5t-20.5 -51.5q0 -35 21 -55t57 -20zM661 235h2q11 19 38.5 33t65.5 14q56 0 95 -38.5t39 -102.5q0 -67 -43 -107q-44 -39 -105 -39q-80 0 -127.5 55.5t-47.5 158.5q0 93 47 158t127 65
q56 0 91 -29.5t45 -78.5l-74 -19q-13 55 -67 55q-38 0 -61.5 -35t-24.5 -90z" />
    <glyph glyph-name="oneeighth" unicode="&#x215b;" horiz-adv-x="834" 
d="M187 -75l-66 39l489 815l65 -40zM192 273h-80v333l-92 -57v90l98 61h74v-427zM532 312q0 -22 15 -35.5t42 -13.5t42.5 14t15.5 35q0 22 -15.5 37t-42.5 15t-42 -14.5t-15 -37.5zM512 233v2q-56 24 -56 85q0 47 38 79q38 33 95 33q58 0 97 -33q39 -31 39 -79
q0 -59 -56 -85v-2q73 -28 73 -109q0 -59 -42.5 -94t-110.5 -35q-67 0 -109 35t-42 94q0 82 74 109zM516 133q0 -63 73 -63q74 0 74 63q0 30 -20 48.5t-54 18.5q-33 0 -53 -18.5t-20 -48.5z" />
    <glyph glyph-name="threeeighths" unicode="&#x215c;" horiz-adv-x="941" 
d="M269 -75l-66 39l489 815l65 -40zM30 413l79 18q12 -90 84 -90q35 0 55 16t20 45q0 61 -72 61h-33v64h24q60 0 60 50q0 55 -58 55q-53 0 -63 -63l-76 14q6 57 44 89.5t98 32.5q58 0 95 -31.5t37 -83.5q0 -31 -16 -54t-36 -31v-2q29 -8 50.5 -35.5t21.5 -71.5
q0 -56 -40.5 -92t-110.5 -36q-69 0 -111.5 37t-51.5 108zM639 312q0 -22 15 -35.5t42 -13.5t42.5 14t15.5 35q0 22 -15.5 37t-42.5 15t-42 -14.5t-15 -37.5zM619 233v2q-56 24 -56 85q0 47 38 79q37 33 95 33t97 -33q39 -31 39 -79q0 -59 -56 -85v-2q73 -28 73 -109
q0 -59 -42.5 -94t-110.5 -35q-67 0 -109 35t-42 94q0 82 74 109zM623 133q0 -63 73 -63q74 0 74 63q0 30 -20 48.5t-54 18.5q-33 0 -53 -18.5t-20 -48.5z" />
    <glyph glyph-name="fiveeighths" unicode="&#x215d;" horiz-adv-x="927" 
d="M261 -75l-66 39l489 815l65 -40zM35 379l74 35q21 -71 86 -71q35 0 56.5 20.5t21.5 56.5q0 35 -21.5 56t-54.5 21q-55 0 -87 -44l-62 31l38 216h225v-75h-165l-17 -97l2 -1q7 12 30 22.5t56 10.5q56 0 95 -40q40 -40 40 -102q0 -68 -44.5 -109t-112.5 -41
q-119 0 -160 111zM625 312q0 -22 15 -35.5t42 -13.5t42.5 14t15.5 35q0 22 -15.5 37t-42.5 15t-42 -14.5t-15 -37.5zM605 233v2q-56 24 -56 85q0 47 38 79q38 33 95 33q58 0 97 -33q39 -31 39 -79q0 -59 -56 -85v-2q73 -28 73 -109q0 -59 -42.5 -94t-110.5 -35
q-67 0 -109 35t-42 94q0 82 74 109zM609 133q0 -63 73 -63q74 0 74 63q0 30 -20 48.5t-54 18.5q-33 0 -53 -18.5t-20 -48.5z" />
    <glyph glyph-name="seveneighths" unicode="&#x215e;" horiz-adv-x="867" 
d="M198 -75l-66 39l489 815l65 -40zM126 273h-95l196 350l-1 2h-211v75h291v-88zM565 312q0 -22 15 -35.5t42 -13.5t42.5 14t15.5 35q0 22 -15.5 37t-42.5 15t-42 -14.5t-15 -37.5zM545 233v2q-56 24 -56 85q0 47 38 79q37 33 95 33t97 -33q39 -31 39 -79q0 -59 -56 -85v-2
q73 -28 73 -109q0 -59 -42.5 -94t-110.5 -35q-67 0 -109 35t-42 94q0 82 74 109zM549 133q0 -63 73 -63q74 0 74 63q0 30 -20 48.5t-54 18.5q-33 0 -53 -18.5t-20 -48.5z" />
    <glyph glyph-name="leftwardsarrow" unicode="&#x2190;" horiz-adv-x="695" 
d="M168 398h462v-101h-462l125 -204l-88 -53l-185 306l184 305l89 -53z" />
    <glyph glyph-name="upwardsarrow" unicode="&#x2191;" horiz-adv-x="671" 
d="M387 39h-102v465l-202 -128l-53 89l306 185l305 -185l-52 -89l-203 128v-233q1 -103 1 -232z" />
    <glyph glyph-name="rightwordsarrow" unicode="&#x2192;" horiz-adv-x="695" 
d="M517 297h-462v101h462l-125 200l89 53l184 -305l-185 -306l-88 53z" />
    <glyph glyph-name="downwardsarrow" unicode="&#x2193;" horiz-adv-x="671" 
d="M280 650h102q0 -130 -1 -233v-232l203 128l52 -89l-305 -185l-306 185l53 89l202 -128v465z" />
    <glyph glyph-name="leftrightarrow" unicode="&#x2194;" horiz-adv-x="833" 
d="M532 94l126 203h-482l125 -203l-87 -52l-184 304l183 303l88 -53l-125 -198h481l-125 198l88 53l183 -303l-184 -304z" />
    <glyph glyph-name="updownarrow" unicode="&#x2195;" horiz-adv-x="672" 
d="M336 -45l-306 185l53 89l202 -127v482l-202 -128l-53 90l306 184l306 -184l-52 -90l-202 128v-482l202 127l52 -89z" />
    <glyph glyph-name="northwestarrow" unicode="&#x2196;" horiz-adv-x="621" 
d="M258 495l328 -329l-72 -73l-329 331l-53 -233l-97 23l84 348l346 84l23 -98z" />
    <glyph glyph-name="northeastarrow" unicode="&#x2197;" horiz-adv-x="621" 
d="M431 424l-329 -331l-72 73l328 329l-230 53l23 98l346 -84l84 -348l-97 -23z" />
    <glyph glyph-name="southeastarrow" unicode="&#x2198;" horiz-adv-x="621" 
d="M358 193l-328 329l72 73l329 -331l53 233l97 -23l-84 -348l-346 -84l-23 98z" />
    <glyph glyph-name="southwestarrow" unicode="&#x2199;" horiz-adv-x="621" 
d="M185 264l329 331l72 -73l-328 -329l230 -53l-23 -98l-346 84l-84 348l97 23z" />
    <glyph glyph-name="downwardsarrowwithtiprightwards" unicode="&#x21b3;" horiz-adv-x="696" 
d="M517 296h-462v404h108v-301h355l-125 199l88 53l185 -305l-186 -306l-88 53z" />
    <glyph glyph-name="downwardsarrowwithtipleftwards" unicode="&#x21b5;" horiz-adv-x="696" 
d="M548 700h108v-404h-462l125 -203l-88 -53l-186 306l185 305l88 -53l-125 -199h355v301z" />
    <glyph glyph-name="partialdiff" unicode="&#x2202;" horiz-adv-x="577" 
d="M170 642l-49 81l47 29q14 8 52 22q39 14 71 14q82 0 137 -55q99 -99 99 -327q0 -186 -64 -304q-65 -117 -189 -117q-104 0 -169 65q-63 63 -65 179q0 117 56 194q56 75 166 77q67 1 157 -39q-1 105 -34.5 167t-96.5 62q-46 0 -118 -48zM276 93q120 0 138 267
q-78 39 -141 39q-46 0 -74 -28q-47 -47 -47 -144q0 -65 31.5 -99.5t92.5 -34.5z" />
    <glyph glyph-name="increment" unicode="&#x2206;" horiz-adv-x="641" 
d="M621 0h-601l245 700h112zM321 535l-138 -423h275z" />
    <glyph glyph-name="product" unicode="&#x220f;" horiz-adv-x="669" 
d="M256 -141h-106v686h-115v105h599v-105h-114v-686h-106v686h-158v-686z" />
    <glyph glyph-name="summation" unicode="&#x2211;" horiz-adv-x="584" 
d="M539 -100h-484v99l240 311l-230 290v100h474v-113h-321l212 -276l-225 -299h334v-112z" />
    <glyph glyph-name="minus" unicode="&#x2212;" horiz-adv-x="612" 
d="M567 324h-522v90h522v-90z" />
    <glyph glyph-name="radical" unicode="&#x221a;" horiz-adv-x="625" 
d="M351 0h-97l-115 329h-134v97h218l80 -250l176 524h116z" />
    <glyph glyph-name="infinity" unicode="&#x221e;" horiz-adv-x="712" 
d="M225 107q-75 0 -123 55q-47 56 -47 141t48 141q48 57 122 57q46 0 83 -29q38 -29 48 -50q10 21 48 50t84 29q74 0 121 -57q48 -56 48 -141t-47 -141q-46 -55 -122 -55q-46 0 -84 26q-35 24 -47 46q-11 -21 -48 -46q-38 -26 -84 -26zM386 303q35 -95 95 -95q42 0 61 26.5
t19 68.5q0 43 -20 71t-61 28q-58 0 -94 -99zM327 303q-35 99 -95 99q-40 0 -60.5 -28.5t-20.5 -70.5q0 -41 20.5 -68t61.5 -27q59 0 94 95z" />
    <glyph glyph-name="integral" unicode="&#x222b;" horiz-adv-x="411" 
d="M35 -240v98q66 1 90.5 22t24.5 71v579q0 122 49 168q50 47 177 47v-98q-67 -1 -91 -23t-24 -75v-575q0 -121 -49 -167q-50 -47 -177 -47z" />
    <glyph glyph-name="approxequal" unicode="&#x2248;" horiz-adv-x="601" 
d="M187 483q-22 0 -39 -17q-22 -22 -34 -72l-69 22q11 64 48 111q37 46 97 46q64 0 123 -44q63 -43 100 -43q23 0 39 16t22 30t13 43l69 -22q-10 -63 -49 -111q-37 -46 -96 -46q-46 -2 -123.5 43.5t-100.5 43.5zM187 266q-22 0 -39 -17q-22 -22 -34 -72l-69 22q11 65 48 111
t97 46q36 1 80.5 -21.5t83 -45t59.5 -20.5q23 0 39 16t22 30t13 43l69 -22q-10 -63 -49 -111q-37 -46 -96 -46q-61 0 -124 43q-59 44 -100 44z" />
    <glyph glyph-name="notequal" unicode="&#x2260;" horiz-adv-x="573" 
d="M274 412h-219v90h270l67 120l57 -34l-49 -86h118v-90h-169l-49 -88h218v-90h-269l-68 -121l-56 33l49 88h-119v90h170z" />
    <glyph glyph-name="lessequal" unicode="&#x2264;" horiz-adv-x="531" 
d="M478 0h-433v90h433v-90zM435 149l-390 235l1 70l390 233l50 -79l-315 -189l315 -189z" />
    <glyph glyph-name="greaterequal" unicode="&#x2265;" horiz-adv-x="531" 
d="M43 90h433v-90h-433v90zM85 687l390 -233l1 -70l-390 -235l-51 81l315 189l-315 189z" />
    <glyph glyph-name="lozenge" unicode="&#x25ca;" horiz-adv-x="579" 
d="M354 0h-130l-199 356l197 344h135l197 -344zM142 355l147 -263l148 264l-148 249z" />
    <glyph glyph-name="commaaccent" unicode="&#xf6c3;" horiz-adv-x="285" 
d="M89 -252v43q49 7 49 55h-53v105h115v-92q0 -103 -111 -111z" />
    <glyph glyph-name="apple" unicode="&#xf8ff;" horiz-adv-x="756" 
d="M111 0h-26v423q0 116 86 204q85 88 206 88q122 0 207 -88q87 -87 87 -204v-423h-28l-65 65l-68 -65l-63 65l-71 -65l-69 65l-63 -65l-67 65zM435 377q0 -29 20.5 -49.5t49.5 -20.5t50.5 21t21.5 49q0 30 -21.5 51t-50.5 21t-49.5 -21t-20.5 -51zM180 377q0 -29 21 -49.5
t50 -20.5q30 0 50.5 20.5t20.5 49.5q0 30 -20.5 51t-50.5 21q-29 0 -50 -21t-21 -51z" />
    <glyph glyph-name="CR" horiz-adv-x="333" 
 />
    <glyph glyph-name="dieresis.cap" horiz-adv-x="418" 
d="M167 765h-112v107h112v-107zM363 765h-111v107h111v-107z" />
    <glyph glyph-name="tilde.cap" horiz-adv-x="403" 
d="M104 765h-59q17 104 97 104q33 0 70 -19t51 -19q29 0 36 33h59q-17 -104 -97 -104q-34 0 -71 19t-50 19q-28 0 -36 -33z" />
    <glyph glyph-name="macron.cap" horiz-adv-x="398" 
d="M343 765h-288v74h288v-74z" />
    <glyph glyph-name="acute.cap" horiz-adv-x="296" 
d="M141 765h-96l80 124h126z" />
    <glyph glyph-name="circumflex.cap" horiz-adv-x="311" 
d="M85 747l-60 48l67 86h126l68 -86l-62 -48l-69 88z" />
    <glyph glyph-name="caron.cap" horiz-adv-x="310" 
d="M218 765h-126l-67 86l60 48l70 -88l69 88l61 -48z" />
    <glyph glyph-name="ring.cap" horiz-adv-x="295" 
d="M45 785q0 44 29.5 75t72.5 31q45 0 74 -30.5t29 -75.5q0 -46 -29 -76t-74 -30t-73.5 30.5t-28.5 75.5zM147 838q-18 0 -30 -14t-12 -38t12 -38.5t30 -14.5t31 14.5t13 38.5t-12.5 38t-31.5 14z" />
    <glyph glyph-name="breve.cap" horiz-adv-x="332" 
d="M35 881h57q3 -23 22.5 -38.5t51.5 -15.5q31 0 49.5 15.5t21.5 38.5h60q0 -55 -37 -90.5t-94 -35.5q-59 0 -95 35t-36 91z" />
    <glyph glyph-name="hungarumlaut.cap" horiz-adv-x="471" 
d="M160 765h-80l75 115h109zM312 765h-81l75 115h110z" />
    <glyph glyph-name="dotaccent.cap" horiz-adv-x="269" 
d="M194 765h-119v114h119v-114z" />
    <glyph glyph-name="grave.cap" horiz-adv-x="295" 
d="M250 765h-96l-109 124h125z" />
    <glyph glyph-name="a.ss01" horiz-adv-x="591" 
d="M409 202v121q0 50 -33 84.5t-88 34.5q-64 0 -99 -45.5t-35 -131.5t35 -131.5t99 -45.5q53 0 87 32.5t34 81.5zM516 0h-99v52h-2q-39 -67 -145 -67q-98 0 -164 75q-66 76 -66 205q0 126 65 203q66 77 165 77q45 0 82.5 -18t57.5 -48h2v51h104v-530z" />
    <glyph glyph-name="agrave.ss01" horiz-adv-x="591" 
d="M324 595h-96l-109 124h125zM409 202v121q0 50 -33 84.5t-88 34.5q-64 0 -99 -45.5t-35 -131.5t35 -131.5t99 -45.5q53 0 87 32.5t34 81.5zM516 0h-99v52h-2q-39 -67 -145 -67q-98 0 -164 75q-66 76 -66 205q0 126 65 203q66 77 165 77q45 0 82.5 -18t57.5 -48h2v51h104
v-530z" />
    <glyph glyph-name="aacute.ss01" horiz-adv-x="591" 
d="M310 595h-96l80 124h125zM409 202v121q0 50 -33 84.5t-88 34.5q-64 0 -99 -45.5t-35 -131.5t35 -131.5t99 -45.5q53 0 87 32.5t34 81.5zM516 0h-99v52h-2q-39 -67 -145 -67q-98 0 -164 75q-66 76 -66 205q0 126 65 203q66 77 165 77q45 0 82.5 -18t57.5 -48h2v51h104
v-530z" />
    <glyph glyph-name="acircumflex.ss01" horiz-adv-x="591" 
d="M219 581l-60 48l67 86h126l68 -86l-62 -48l-69 88zM404 202v121q0 50 -33 84.5t-88 34.5q-64 0 -99 -45.5t-35 -131.5t35 -131.5t99 -45.5q54 0 87.5 32.5t33.5 81.5zM511 0h-99v52h-2q-39 -67 -145 -67q-98 0 -164 75q-66 76 -66 205q0 126 65 203q66 77 165 77
q45 0 82.5 -18t57.5 -48h2v51h104v-530z" />
    <glyph glyph-name="atilde.ss01" horiz-adv-x="591" 
d="M196 599h-59q17 105 97 105q32 0 70 -20q37 -19 51 -19q29 0 36 34h59q-18 -105 -97 -105q-34 0 -71 19q-38 20 -50 20q-29 0 -36 -34zM409 202v121q0 50 -33 84.5t-88 34.5q-64 0 -99 -45.5t-35 -131.5t35 -131.5t99 -45.5q53 0 87 32.5t34 81.5zM516 0h-99v52h-2
q-39 -67 -145 -67q-98 0 -164 75q-66 76 -66 205q0 126 65 203q66 77 165 77q45 0 82.5 -18t57.5 -48h2v51h104v-530z" />
    <glyph glyph-name="adieresis.ss01" horiz-adv-x="591" 
d="M252 600h-112v107h112v-107zM448 600h-111v107h111v-107zM409 202v121q0 50 -33 84.5t-88 34.5q-64 0 -99 -45.5t-35 -131.5t35 -131.5t99 -45.5q53 0 87 32.5t34 81.5zM516 0h-99v52h-2q-39 -67 -145 -67q-98 0 -164 75q-66 76 -66 205q0 126 65 203q66 77 165 77
q45 0 82.5 -18t57.5 -48h2v51h104v-530z" />
    <glyph glyph-name="amacron.ss01" horiz-adv-x="591" 
d="M433 620h-288v74h288v-74zM404 202v121q0 50 -33 84.5t-88 34.5q-64 0 -99 -45.5t-35 -131.5t35 -131.5t99 -45.5q54 0 87.5 32.5t33.5 81.5zM511 0h-99v52h-2q-39 -67 -145 -67q-98 0 -164 75q-66 76 -66 205q0 126 65 203q66 77 165 77q45 0 82.5 -18t57.5 -48h2v51
h104v-530z" />
    <glyph glyph-name="abreve.ss01" horiz-adv-x="591" 
d="M163 711h57q3 -23 22.5 -38.5t51.5 -15.5q31 0 49.5 15.5t21.5 38.5h60q0 -55 -37 -90.5t-94 -35.5q-59 0 -95 35t-36 91zM409 202v121q0 50 -33 84.5t-88 34.5q-64 0 -99 -45.5t-35 -131.5t35 -131.5t99 -45.5q53 0 87 32.5t34 81.5zM516 0h-99v52h-2q-39 -67 -145 -67
q-98 0 -164 75q-66 76 -66 205q0 126 65 203q66 77 165 77q45 0 82.5 -18t57.5 -48h2v51h104v-530z" />
    <glyph glyph-name="aring.ss01" horiz-adv-x="591" 
d="M511 0h-99v52h-2q-39 -67 -145 -67q-98 0 -164 75q-66 76 -66 205q0 106 48 179t127 94q-45 28 -45 90q0 44 29.5 75t72.5 31q45 0 74 -30.5t29 -75.5q0 -64 -48 -92q55 -17 83 -57h2v51h104v-530zM404 202v121q0 50 -33 84.5t-88 34.5q-64 0 -99 -45.5t-35 -131.5
t35 -131.5t99 -45.5q54 0 87.5 32.5t33.5 81.5zM267 681q-18 0 -30 -14t-12 -38t12 -38.5t30 -14.5t31 14.5t13 38.5t-12.5 38t-31.5 14z" />
    <glyph glyph-name="aringacute.ss01" horiz-adv-x="591" 
d="M516 0h-99v52h-2q-39 -67 -145 -67q-98 0 -164 75q-66 76 -66 205q0 108 49 181q49 74 129 93q-44 29 -44 89q0 36 21 64.5t54 37.5l66 102h125l-103 -117q42 -31 42 -87q0 -64 -49 -92q51 -16 80 -57h2v51h104v-530zM409 202v121q0 50 -33 84.5t-88 34.5
q-64 0 -99 -45.5t-35 -131.5t35 -131.5t99 -45.5q53 0 87 32.5t34 81.5zM276 681q-18 0 -30 -14t-12 -38t12 -38.5t30 -14.5t31 14.5t13 38.5t-12.5 38t-31.5 14z" />
    <glyph glyph-name="aogonek.ss01" horiz-adv-x="591" 
d="M450 0h-33v52h-2q-39 -67 -145 -67q-98 0 -164 75q-66 76 -66 205q0 126 65 203q66 77 165 77q45 0 82.5 -18t57.5 -48h2v51h104v-530q-80 -69 -80 -116q0 -35 41 -35q33 0 66 37l38 -35q-60 -67 -135 -67q-42 0 -68.5 19t-26.5 55q0 38 27.5 76.5t71.5 65.5zM409 202
v121q0 50 -33 84.5t-88 34.5q-64 0 -99 -45.5t-35 -131.5t35 -131.5t99 -45.5q53 0 87 32.5t34 81.5z" />
    <glyph glyph-name="caron.alt" horiz-adv-x="296" 
d="M153 570h-68l31 160h95z" />
    <glyph glyph-name="parenleft.cap" horiz-adv-x="378" 
d="M333 -99l-59 -48q-37 33 -109 157q-39 69 -64 159q-26 96 -26 190q0 77 18 154q20 79 43 126q24 50 56 97q31 46 50 66q11 13 32 34l59 -49q-81 -95 -123 -191q-41 -96 -41 -237q0 -135 46 -252q45 -114 118 -206z" />
    <glyph glyph-name="parenright.cap" horiz-adv-x="378" 
d="M94 -147l-59 48q71 89 117 206q47 120 47 252q0 143 -42 237q-40 94 -122 191l59 49q21 -21 32 -34q20 -22 49 -66q31 -44 57 -97q24 -49 42 -126q19 -75 19 -154q0 -94 -26 -190q-25 -90 -64 -159q-72 -124 -109 -157z" />
    <glyph glyph-name="bracketleft.cap" horiz-adv-x="362" 
d="M327 -129h-252v959h252v-76h-170v-807h170v-76z" />
    <glyph glyph-name="bracketright.cap" horiz-adv-x="362" 
d="M25 830h252v-959h-252v76h170v807h-170v76z" />
    <glyph glyph-name="braceleft.cap" horiz-adv-x="387" 
d="M126 17v248q0 32 -12 45t-41 13h-28v89h28q29 0 41 14t12 47v201q0 86 37 121t117 35h52v-80h-61q-34 0 -48.5 -20.5t-14.5 -69.5v-190q0 -24 -7 -43.5t-17 -30t-21 -17.5t-17 -9t-8 -2l2 -1q8 -3 17 -8t22 -16t21 -31t8 -45v-236q0 -49 15 -69.5t52 -20.5h57v-80h-52
q-80 0 -117 35t-37 121z" />
    <glyph glyph-name="braceright.cap" horiz-adv-x="387" 
d="M241 265v-248q0 -86 -37 -121t-117 -35h-52v80h57q37 0 52 20.5t15 69.5v236q0 68 64 99q2 1 3 1l3 1q-2 0 -8 2t-17 9t-21 17.5t-17 30t-7 43.5v190q0 49 -14.5 69.5t-48.5 20.5h-61v80h52q80 0 117 -35t37 -121v-201q0 -33 12 -47t41 -14h28v-89h-28q-29 0 -41 -13
t-12 -45z" />
    <glyph glyph-name="published" horiz-adv-x="707" 
d="M573 134q-89 -89 -220 -89t-220 89q-88 88 -88 220q0 131 88 219q89 89 220 89t220 -89t89 -219q0 -131 -89 -220zM599 354q0 103 -71 176q-70 72 -175 72t-175 -72q-70 -71 -70 -176t70 -178q70 -72 175 -72t175 72q71 74 71 178zM336 472v-100h47q58 0 58 50t-58 50
h-47zM383 306h-47v-140h-75v372h122q61 0 96.5 -31t35.5 -85t-35.5 -85t-96.5 -31z" />
    <glyph glyph-name="zero.numr" horiz-adv-x="383" 
d="M30 493q0 102 43.5 157t117.5 55t118 -55t44 -157q0 -112 -43 -168.5t-119 -56.5t-118.5 56.5t-42.5 168.5zM268 493q0 70 -18.5 101.5t-58.5 31.5t-58.5 -31.5t-18.5 -101.5q0 -80 18.5 -113.5t58.5 -33.5t58.5 33.5t18.5 113.5z" />
    <glyph glyph-name="one.numr" horiz-adv-x="262" 
d="M187 273h-80v333l-92 -57v90l98 61h74v-427z" />
    <glyph glyph-name="two.numr" horiz-adv-x="351" 
d="M326 273h-296v62q0 54 28 88q22 28 94 63q63 32 76 48q17 19 17 44q0 24 -18 39t-47 15q-68 0 -77 -81l-78 10q5 69 46 106.5t110 37.5q62 0 102 -35.5t40 -96.5q0 -46 -28.5 -78t-83.5 -58q-73 -37 -84 -54q-7 -10 -7 -27h206v-83z" />
    <glyph glyph-name="three.numr" horiz-adv-x="344" 
d="M10 413l79 18q12 -90 84 -90q35 0 55 16t20 45q0 61 -72 61h-33v64h24q60 0 60 50q0 55 -58 55q-53 0 -63 -63l-76 14q6 57 44 89.5t98 32.5q58 0 95 -31.5t37 -83.5q0 -31 -16 -54t-36 -31v-2q29 -8 50.5 -35.5t21.5 -71.5q0 -56 -40.5 -92t-110.5 -36q-69 0 -111.5 37
t-51.5 108z" />
    <glyph glyph-name="four.numr" horiz-adv-x="380" 
d="M215 358h-195v75l162 267h115v-267h48v-75h-48v-85h-82v85zM214 627l-118 -194h120v194h-2z" />
    <glyph glyph-name="five.numr" horiz-adv-x="377" 
d="M30 379l74 35q21 -71 86 -71q35 0 56.5 20.5t21.5 56.5q0 35 -21.5 56t-54.5 21q-55 0 -87 -44l-62 31l38 216h225v-75h-165l-17 -97l2 -1q7 12 30 22.5t56 10.5q56 0 95 -40q40 -40 40 -102q0 -68 -44.5 -109t-112.5 -41q-120 0 -160 111z" />
    <glyph glyph-name="six.numr" horiz-adv-x="383" 
d="M205 345q72 0 72 75q0 33 -20 53t-55 20q-34 0 -54.5 -21.5t-20.5 -51.5q0 -35 21 -55t57 -20zM113 508h2q11 19 38.5 33t65.5 14q56 0 95 -38.5t39 -102.5q0 -67 -43 -107q-44 -39 -105 -39q-80 0 -127.5 55.5t-47.5 158.5q0 93 47 158t127 65q56 0 91 -29.5t45 -78.5
l-74 -19q-13 55 -67 55q-38 0 -61.5 -35t-24.5 -90z" />
    <glyph glyph-name="seven.numr" horiz-adv-x="306" 
d="M111 273h-95l196 350l-1 2h-211v75h291v-88z" />
    <glyph glyph-name="eight.numr" horiz-adv-x="344" 
d="M114 585q0 -22 15 -35.5t42 -13.5t42.5 14t15.5 35q0 22 -15.5 37t-42.5 15t-42 -14.5t-15 -37.5zM94 506v2q-56 24 -56 85q0 47 38 79q38 33 95 33q58 0 97 -33q39 -32 39 -79q0 -59 -56 -85v-2q73 -28 73 -109q0 -59 -42.5 -94t-110.5 -35q-67 0 -109 35t-42 94
q0 82 74 109zM98 406q0 -63 73 -63q74 0 74 63q0 30 -20 48.5t-54 18.5q-33 0 -53 -18.5t-20 -48.5z" />
    <glyph glyph-name="nine.numr" horiz-adv-x="376" 
d="M39 371l73 27q17 -57 77 -57q37 0 57.5 30.5t17.5 90.5h-2q-6 -17 -32.5 -32t-65.5 -15q-54 0 -97 39q-42 40 -42 105t42.5 105.5t107.5 40.5q70 0 118 -55q48 -56 48 -167q0 -106 -40.5 -160.5t-115.5 -54.5q-119 0 -146 103zM178 486q34 0 53.5 17.5t19.5 49.5
q0 36 -20.5 57.5t-55.5 21.5q-32 0 -52.5 -21t-20.5 -52q0 -33 20.5 -53t55.5 -20z" />
    <glyph glyph-name="zero.dnom" horiz-adv-x="383" 
d="M30 220q0 102 43.5 157t117.5 55t118 -55t44 -157q0 -112 -43 -168.5t-119 -56.5t-118.5 56.5t-42.5 168.5zM268 220q0 70 -18.5 101.5t-58.5 31.5t-58.5 -31.5t-18.5 -101.5q0 -80 18.5 -113.5t58.5 -33.5t58.5 33.5t18.5 113.5z" />
    <glyph glyph-name="one.dnom" horiz-adv-x="262" 
d="M187 0h-80v333l-92 -57v90l98 61h74v-427z" />
    <glyph glyph-name="two.dnom" horiz-adv-x="351" 
d="M326 0h-296v62q0 54 28 88q22 28 94 63q63 32 76 48q17 19 17 44q0 23 -18 38.5t-47 15.5q-68 0 -77 -81l-78 10q5 69 46 106.5t110 37.5q62 0 102 -35.5t40 -96.5q0 -46 -28.5 -78t-83.5 -58q-73 -38 -84 -54q-7 -10 -7 -27h206v-83z" />
    <glyph glyph-name="three.dnom" horiz-adv-x="379" 
d="M15 140l79 18q12 -90 84 -90q35 0 55 16t20 45q0 61 -72 61h-33v64h24q60 0 60 50q0 55 -58 55q-52 0 -63 -63l-76 14q6 57 44 89.5t98 32.5q58 0 95 -31.5t37 -83.5q0 -31 -16 -54t-36 -31v-2q29 -8 50.5 -35.5t21.5 -71.5q0 -56 -40.5 -92t-110.5 -36q-69 0 -111.5 37
t-51.5 108z" />
    <glyph glyph-name="four.dnom" horiz-adv-x="380" 
d="M215 85h-195v75l162 267h115v-267h48v-75h-48v-85h-82v85zM214 354l-118 -194h120v194h-2z" />
    <glyph glyph-name="five.dnom" horiz-adv-x="377" 
d="M30 106l74 35q21 -71 86 -71q35 0 56.5 20.5t21.5 56.5q0 35 -21.5 56t-54.5 21q-55 0 -87 -44l-62 31l38 216h225v-75h-165l-17 -97l2 -1q7 12 30 22.5t56 10.5q56 0 95 -40q40 -40 40 -102q0 -68 -44.5 -109t-112.5 -41q-120 0 -160 111z" />
    <glyph glyph-name="six.dnom" horiz-adv-x="383" 
d="M205 72q72 0 72 75q0 33 -20 53t-55 20q-34 0 -54.5 -21.5t-20.5 -51.5q0 -35 21 -55t57 -20zM113 235h2q11 19 38.5 33t65.5 14q56 0 95 -38.5t39 -102.5q0 -67 -43 -107q-44 -39 -105 -39q-80 0 -127.5 55.5t-47.5 158.5q0 93 47 158t127 65q56 0 91 -29.5t45 -78.5
l-74 -19q-13 55 -67 55q-38 0 -61.5 -35t-24.5 -90z" />
    <glyph glyph-name="seven.dnom" horiz-adv-x="306" 
d="M111 0h-95l196 350l-1 2h-211v75h291v-88z" />
    <glyph glyph-name="eight.dnom" horiz-adv-x="344" 
d="M114 312q0 -22 15 -35.5t42 -13.5t42.5 14t15.5 35q0 22 -15.5 37t-42.5 15t-42 -14.5t-15 -37.5zM94 233v2q-56 24 -56 85q0 47 38 79q38 33 95 33q58 0 97 -33q39 -31 39 -79q0 -59 -56 -85v-2q73 -28 73 -109q0 -59 -42.5 -94t-110.5 -35q-67 0 -109 35t-42 94
q0 82 74 109zM98 133q0 -63 73 -63q74 0 74 63q0 30 -20 48.5t-54 18.5q-33 0 -53 -18.5t-20 -48.5z" />
    <glyph glyph-name="nine.dnom" horiz-adv-x="376" 
d="M39 98l73 27q16 -57 77 -57q37 0 57.5 30.5t17.5 90.5h-2q-6 -17 -32.5 -32t-65.5 -15q-54 0 -97 39q-42 41 -42 105q0 65 42.5 105.5t107.5 40.5q70 0 118 -55t48 -167q0 -106 -40.5 -160.5t-115.5 -54.5q-119 0 -146 103zM178 213q34 0 53.5 17.5t19.5 49.5
q0 36 -20.5 57.5t-55.5 21.5q-32 0 -52.5 -21t-20.5 -52q0 -33 20.5 -53t55.5 -20z" />
    <glyph glyph-name="plusinferior" horiz-adv-x="426" 
d="M249 -156h-71v148h-133v68h133v134h71v-134h132v-68h-132v-148z" />
    <glyph glyph-name="minusinferior" horiz-adv-x="396" 
d="M351 60v-68h-306v68h306z" />
    <glyph glyph-name="zero.tnum" 
d="M59 360q0 171 71.5 263t194.5 92t194.5 -92t71.5 -263q0 -185 -70 -280t-196 -95t-196 95t-70 280zM473 361q0 245 -148 245t-148 -245q0 -139 36.5 -203t111.5 -64t111.5 64t36.5 203z" />
    <glyph glyph-name="one.tnum" 
d="M120 0v114h173v454l-151 -95v127l161 100h102v-586h164v-114h-449z" />
    <glyph glyph-name="two.tnum" 
d="M567 0h-480v88q0 95 43 150q42 52 157 109q98 52 120 70q44 36 44 92q0 43 -34 72t-90 29q-121 0 -133 -145l-112 14q7 113 73 174.5t178 61.5q101 0 166 -59q64 -58 64 -155q0 -90 -61 -145q-46 -42 -126 -83q-105 -54 -125 -71q-11 -9 -19 -21q-17 -26 -17 -68h352
v-113z" />
    <glyph glyph-name="three.tnum" 
d="M68 229l114 24q22 -163 151 -163q64 0 99.5 30.5t35.5 83.5q0 116 -142 116h-43v95h34q53 0 87.5 23.5t34.5 71.5q0 46 -29.5 73t-81.5 27q-99 0 -117 -115l-108 20q9 92 71 146t158 54q95 0 156 -52t61 -145q0 -51 -27 -86.5t-65 -49.5v-3q48 -13 87 -61q38 -47 38 -120
q0 -97 -67 -155q-65 -58 -181 -58q-113 0 -182.5 62t-83.5 182z" />
    <glyph glyph-name="four.tnum" 
d="M395 143h-335v109l271 448h176v-448h83v-109h-83v-143h-112v143zM393 613l-218 -361h220v361h-2z" />
    <glyph glyph-name="six.tnum" 
d="M346 92q63 0 99 38.5t36 102.5q0 63 -37 100.5t-102 37.5q-63 0 -102 -41q-39 -40 -39 -95q0 -64 40 -103.5t105 -39.5zM564 535l-107 -28q-28 103 -121 103q-69 0 -112.5 -64t-45.5 -173l1 -1q65 92 188 92q89 0 156 -63q68 -63 68 -171q0 -113 -70 -179
q-71 -66 -175 -66q-124 0 -207 90q-81 90 -81 267q0 160 78 266q78 107 206 107q95 0 150 -52q55 -51 72 -128z" />
    <glyph glyph-name="five.tnum" 
d="M66 176l111 45q18 -61 56.5 -95t94.5 -34q64 0 103.5 38t39.5 106q0 67 -38.5 104t-100.5 37q-94 0 -146 -78l-94 46l61 355h366v-109h-277l-31 -179l1 -1q50 57 155 57q87 0 152 -66q65 -67 65 -169q0 -115 -73 -182q-73 -66 -183 -66q-99 0 -166 51t-96 140z" />
    <glyph glyph-name="seven.tnum" 
d="M263 0h-133l329 590v2h-346v108h464v-122z" />
    <glyph glyph-name="nine.tnum" 
d="M92 159l105 37q28 -106 134 -106q70 0 106.5 58t34.5 174h-2q-8 -26 -51 -57q-43 -30 -120 -30q-92 0 -163 65q-70 66 -70 173q0 109 71 175q70 67 173 67q119 0 195 -91q78 -92 78 -277q0 -180 -66.5 -271t-188.5 -91q-101 0 -160 50q-56 49 -76 124zM315 337
q61 0 98.5 35t37.5 95q0 63 -39 103t-102 40q-57 0 -94.5 -38.5t-37.5 -98.5q0 -61 37 -98.5t100 -37.5z" />
    <glyph glyph-name="eight.tnum" 
d="M213 520q0 -41 31 -68t80 -27t80.5 27.5t31.5 67.5q0 43 -29.5 69.5t-82.5 26.5t-82 -26.5t-29 -69.5zM67 200q0 64 36 115q38 52 92 68v2q-92 41 -92 145q0 77 61 131q62 54 160 54q100 0 161 -54q63 -54 63 -131q0 -104 -93 -145v-2q55 -18 91 -69t36 -114
q0 -101 -72 -158q-70 -57 -186 -57t-186 57q-71 57 -71 158zM465 210q0 53 -39 86t-102 33q-64 0 -102.5 -33t-38.5 -86t36.5 -85t104.5 -32t104.5 32t36.5 85z" />
    <glyph glyph-name="Euro.tnum" 
d="M28 226v83h69q-1 10 -1 47v26h-68v83h78q24 121 97 185q74 65 169 65q98 0 167 -69q70 -68 80 -180l-122 -19q-9 73 -40.5 116t-83.5 43q-53 0 -91 -35.5t-53 -105.5h144v-83h-155v-28q0 -36 1 -45h154v-83h-141q34 -132 141 -132q55 0 87 48t41 132l121 -14
q-10 -129 -76.5 -202t-172.5 -73q-101 0 -171 61.5t-94 179.5h-80z" />
    <glyph glyph-name="dollar.tnum" 
d="M45 236l124 27q13 -78 43 -117t89 -48v110q1 49 1 110q-120 33 -173.5 82t-53.5 120q0 78 61 133q63 57 166 61v61h51v-62q91 -7 151.5 -55t78.5 -133l-111 -30q-32 98 -119 108v-188q146 -44 198 -92q54 -50 54 -127q0 -94 -67.5 -150.5t-184.5 -60.5v-83h-52v85
q-109 10 -175 73t-81 176zM353 303v-209q66 0 101.5 26t35.5 73q0 40 -29 63q-30 23 -108 47zM192 522q0 -32 24 -52t86 -39v174q-54 -2 -82 -25t-28 -58z" />
    <glyph glyph-name="sterling.tnum" 
d="M572 0h-496v109h33q52 0 52 51v147h-85v81h85v109q0 108 54 163t150 55q89 0 142.5 -51t65.5 -147l-110 -22q-12 63 -32 89t-64 26q-89 0 -89 -110v-112h182v-81h-182v-198h294v-109z" />
    <glyph glyph-name="yen.tnum" 
d="M265 124h-202v93h202v81h-202v92h148l-175 310h129l157 -292h2l159 292h130l-177 -310h149v-92h-202v-81h202v-93h-203v-124h-117v124z" />
    <glyph glyph-name="cent.tnum" 
d="M447 211l113 -24q-15 -93 -69.5 -145.5t-140.5 -56.5v-95h-35v96q-101 8 -163 80q-62 74 -62 199q0 121 63 196q63 76 162 83v87h35v-87q84 -5 139 -58q54 -53 65 -137l-107 -18q-17 103 -97 110v-352q79 9 97 122zM203 265q0 -77 29 -123t83 -53v351q-52 -8 -82 -54
t-30 -121z" />
    <glyph glyph-name="florin.tnum" 
d="M230 -173h-114l95 546h-98l16 92h98l24 124q15 80 52.5 118t100.5 38q75 0 132 -63l-60 -84q-30 34 -59 34q-46 0 -56 -59l-20 -108h141l-16 -92h-141z" />
    <glyph glyph-name="percent.tnum" 
d="M278 614q0 115 -80 115q-79 0 -79 -115q0 -59 20.5 -92.5t58.5 -33.5t59 33.5t21 92.5zM198 407q-75 0 -120 54.5t-45 154.5q0 95 49 145q50 51 116 51q67 0 116 -52q50 -52 50 -144q0 -95 -48 -152q-46 -57 -118 -57zM538 105q0 115 -80 115q-79 0 -79 -115
q0 -59 20.5 -92.5t58.5 -33.5t59 33.5t21 92.5zM458 -102q-75 0 -120 54.5t-45 154.5q0 95 49 145q50 51 116 51q67 0 116 -52q50 -52 50 -144q0 -95 -48 -152q-46 -57 -118 -57zM65 137l-43 64l564 381l42 -64z" />
    <glyph glyph-name="perthousand.tnum" horiz-adv-x="1300" 
d="M405 614q0 115 -80 115q-79 0 -79 -115q0 -59 20.5 -92.5t58.5 -33.5t59 33.5t21 92.5zM325 407q-75 0 -120 54.5t-45 154.5q0 95 49 145q49 51 116 51t116 -52q50 -52 50 -144q0 -95 -48 -152q-47 -57 -118 -57zM665 105q0 115 -80 115q-79 0 -79 -115q0 -59 20.5 -92.5
t58.5 -33.5t59 33.5t21 92.5zM585 -102q-75 0 -120 54.5t-45 154.5q0 95 49 145q49 51 116 51t116 -52q50 -52 50 -144q0 -95 -48 -152q-47 -57 -118 -57zM192 137l-43 64l564 381l42 -64zM1064 105q0 115 -80 115q-79 0 -79 -115q0 -59 20.5 -92.5t58.5 -33.5t59 33.5
t21 92.5zM984 -102q-75 0 -120 54.5t-45 154.5q0 95 49 145q50 51 116 51q67 0 116 -52q50 -52 50 -144q0 -95 -48 -152q-46 -57 -118 -57z" />
    <glyph glyph-name="plus.tnum" 
d="M372 100h-94v224h-199v89h199v202h94v-202h199v-89h-199v-224z" />
    <glyph glyph-name="minus.tnum" 
d="M586 324h-522v90h522v-90z" />
    <glyph glyph-name="plusminus.tnum" 
d="M277 418h-204v90h204v157h95v-157h204v-90h-204v-178h-95v178zM557 86h-461v90h461v-90z" />
    <glyph glyph-name="multiply.tnum" 
d="M164 111l-65 65l162 161l-152 152l65 65l152 -152l151 151l64 -65l-151 -151l161 -160l-64 -65l-161 161z" />
    <glyph glyph-name="divide.tnum" 
d="M324 653q37 0 62 -25t25 -61t-25 -61t-62 -25q-35 0 -60 25t-25 61t25 61t60 25zM239 136q0 37 25 62t60 25q37 0 62 -25t25 -62q0 -36 -25 -60.5t-62 -24.5q-35 0 -60 24.5t-25 60.5zM517 309h-384v90h384v-90z" />
    <glyph glyph-name="equal.tnum" 
d="M556 234h-463v90h463v-90zM556 412h-463v90h463v-90z" />
    <glyph glyph-name="notequal.tnum" 
d="M312 412h-219v90h270l67 120l57 -34l-49 -86h118v-90h-169l-49 -88h218v-90h-269l-68 -121l-56 33l49 88h-119v90h170z" />
    <glyph glyph-name="less.tnum" 
d="M495 82l-390 235l1 70l390 233l49 -79l-316 -189l316 -190z" />
    <glyph glyph-name="greater.tnum" 
d="M154 620l390 -233l1 -70l-390 -235l-50 80l316 190l-316 189z" />
    <glyph glyph-name="greaterequal.tnum" 
d="M112 90h433v-90h-433v90zM154 687l390 -233l1 -70l-390 -235l-51 81l315 189l-315 189z" />
    <glyph glyph-name="lessequal.tnum" 
d="M537 0h-433v90h433v-90zM494 149l-390 235l1 70l390 233l50 -79l-315 -189l315 -189z" />
    <glyph glyph-name="approxequal.tnum" 
d="M211 483q-22 0 -39 -17q-22 -22 -34 -72l-69 22q11 64 48 111q37 46 97 46q64 0 123 -44q63 -43 100 -43q23 0 39 16t22 30t13 43l69 -22q-10 -63 -49 -111q-37 -46 -96 -46q-46 -2 -123.5 43.5t-100.5 43.5zM211 266q-22 0 -39 -17q-22 -22 -34 -72l-69 22q11 65 48 111
t97 46q36 1 80.5 -21.5t83 -45t59.5 -20.5q23 0 39 16t22 30t13 43l69 -22q-10 -63 -49 -111q-37 -46 -96 -46q-61 0 -124 43q-59 44 -100 44z" />
    </font>
</defs>
</svg>
